  0
SECTION
  2
HEADER
  9
$ANGBASE
  50
0.0
  9
$ANGDIR
  70
1
  9
$MEASUREMENT
  70
1
  0
ENDSEC
  0
SECTION
  2
TABLES
  0
TABLE
  2
LTYPE
  70
4
  0
LTYPE
  5
40F
  2
CONTINUOUS
  70
0
  3
Solid line
  72
65
  73
0
  40
0.0
  0
LTYPE
  5
410
  2
DASHDOT
 70
0
  3
Dash Dot ____ _ ____ _
 72
65
 73
4
 40
2.0
 49
1.25
 49
-0.25
 49
0.25
 49
-0.25
  0
LTYPE
  5
411
  2
DASHED
 70
0
  3
Dashed __ __ __ __ __
 72
65
 73
2
 40
0.75
 49
0.5
 49
-0.25
  0
LTYPE
  5
43B
  2
DOTTED
 70
0
  3
Dotted .  .  .  .
 72
65
 73
2
 40
0.2
 49
0.0
 49
-0.2
  0
ENDTAB
  0
TABLE
  2
STYLE
  70
4
  0
STYLE
  2
KICAD
  70
0
  40
0
  41
1
  42
1
  50
0
  71
0
  3
isocp.shx
  0
STYLE
  2
KICADB
  70
0
  40
0
  41
1
  42
1
  50
0
  71
0
  3
isocp.shx
  0
STYLE
  2
KICADI
  70
0
  40
0
  41
1
  42
1
  50
15
  71
0
  3
isocp.shx
  0
STYLE
  2
KICADBI
  70
0
  40
0
  41
1
  42
1
  50
15
  71
0
  3
isocp.shx
  0
ENDTAB
  0
TABLE
  2
LAYER
  70
1
  0
LAYER
  2
BLACK
  70
0
  62
7
  6
CONTINUOUS
  0
ENDTAB
  0
ENDSEC
  0
SECTION
  2
ENTITIES
0
LINE
8
BLACK
6
CONTINUOUS
10
-0.002401
20
51.5999999999999943
11
-0.002401
21
27.8428000000000004
0
LINE
8
BLACK
6
CONTINUOUS
10
-0.002401
20
19.3338000000000001
11
2.5375989999999997
21
19.3338000000000001
0
LINE
8
BLACK
6
CONTINUOUS
10
-0.002401
20
15.5237999999999996
11
-0.002401
21
19.3338000000000001
0
LINE
8
BLACK
6
CONTINUOUS
10
-0.002401
20
13.8727999999999998
11
2.5375989999999997
21
13.8727999999999998
0
LINE
8
BLACK
6
CONTINUOUS
10
-0.002401
20
5.7447999999999997
11
-0.002401
21
13.8727999999999998
0
LINE
8
BLACK
6
CONTINUOUS
10
-0.002401
20
0.0298
11
4.5695990000000002
21
0.0298
0
LINE
8
BLACK
6
CONTINUOUS
10
-0.002401
20
-20.3999999999999986
11
-0.002401
21
0.0298
0
LINE
8
BLACK
6
CONTINUOUS
10
0.
20
27.8428000000000004
11
25.0165989999999994
21
27.8428000000000004
0
LINE
8
BLACK
6
CONTINUOUS
10
2.0295989999999997
20
5.7447999999999997
11
-0.002401
21
5.7447999999999997
0
LINE
8
BLACK
6
CONTINUOUS
10
2.5375989999999997
20
15.5237999999999996
11
-0.002401
21
15.5237999999999996
0
LINE
8
BLACK
6
CONTINUOUS
10
4.5695990000000002
20
0.0298
11
4.5695990000000002
21
3.5857999999999999
0
LINE
8
BLACK
6
CONTINUOUS
10
4.8235989999999997
20
26.0647999999999982
11
4.8235989999999997
21
22.0007999999999981
0
LINE
8
BLACK
6
CONTINUOUS
10
4.8235989999999997
20
26.0647999999999982
11
25.0165989999999994
21
26.0647999999999982
0
LINE
8
BLACK
6
CONTINUOUS
10
25.0165989999999994
20
26.0647999999999982
11
25.0165989999999994
21
27.8428000000000004
0
LINE
8
BLACK
6
CONTINUOUS
10
30.985598999999997
20
16.0318000000000005
11
41.3995989999999949
21
22.5087999999999973
0
LINE
8
BLACK
6
CONTINUOUS
10
30.985598999999997
20
13.1107999999999993
11
40.0025989999999965
21
7.3957999999999995
0
LINE
8
BLACK
6
CONTINUOUS
10
48.0035990000000012
20
22.5087999999999973
11
57.909599
21
16.2857999999999983
0
LINE
8
BLACK
6
CONTINUOUS
10
57.909599
20
12.9837999999999987
11
49.1465989999999948
21
7.3957999999999995
0
LINE
8
BLACK
6
CONTINUOUS
10
68.4505989999999969
20
2.4428000000000001
11
68.4505989999999969
21
0.0298
0
LINE
8
BLACK
6
CONTINUOUS
10
68.4505989999999969
20
0.0298
11
95.8999999999999915
21
0.0298
0
LINE
8
BLACK
6
CONTINUOUS
10
71.7525990000000036
20
27.8428000000000004
11
72.5145989999999898
21
27.0808
0
LINE
8
BLACK
6
CONTINUOUS
10
71.7525990000000036
20
27.8428000000000004
11
95.882598999999999
21
27.8428000000000004
0
LINE
8
BLACK
6
CONTINUOUS
10
72.5145989999999898
20
27.0808
11
89.5325989999999905
21
27.0808
0
LINE
8
BLACK
6
CONTINUOUS
10
82.1665989999999908
20
2.8237999999999999
11
82.1665989999999908
21
2.4428000000000001
0
LINE
8
BLACK
6
CONTINUOUS
10
82.1665989999999908
20
2.4428000000000001
11
68.4505989999999969
21
2.4428000000000001
0
LINE
8
BLACK
6
CONTINUOUS
10
89.5325989999999905
20
27.0808
11
89.5325989999999905
21
24.2867999999999995
0
LINE
8
BLACK
6
CONTINUOUS
10
91.6915989999999965
20
22.1278000000000006
11
95.882598999999999
21
22.1278000000000006
0
LINE
8
BLACK
6
CONTINUOUS
10
95.882598999999999
20
51.5999999999999943
11
-0.002401
21
51.5999999999999943
0
LINE
8
BLACK
6
CONTINUOUS
10
95.882598999999999
20
27.8428000000000004
11
95.882598999999999
21
51.5999999999999943
0
LINE
8
BLACK
6
CONTINUOUS
10
95.882598999999999
20
22.1278000000000006
11
95.882598999999999
21
5.7447999999999997
0
LINE
8
BLACK
6
CONTINUOUS
10
95.882598999999999
20
5.7447999999999997
11
84.4525989999999922
21
5.7447999999999997
0
LINE
8
BLACK
6
CONTINUOUS
10
95.882598999999999
20
-20.3999999999999986
11
-0.002401
21
-20.3999999999999986
0
LINE
8
BLACK
6
CONTINUOUS
10
95.9000249999999994
20
0.029309
11
95.882598999999999
21
-20.3999999999999986
0
LINE
8
BLACK
6
CONTINUOUS
10
64.615199000000004
20
25.8870000000000005
11
66.4947990000000004
21
25.8870000000000005
0
LINE
8
BLACK
6
CONTINUOUS
10
66.4947990000000004
20
25.8870000000000005
11
66.4947990000000004
21
24.7693999999999974
0
LINE
8
BLACK
6
CONTINUOUS
10
66.4947990000000004
20
24.7693999999999974
11
64.615199000000004
21
24.7693999999999974
0
LINE
8
BLACK
6
CONTINUOUS
10
64.615199000000004
20
24.7693999999999974
11
64.615199000000004
21
25.8870000000000005
0
LINE
8
BLACK
6
CONTINUOUS
10
68.5775989999999922
20
25.8870000000000005
11
70.4571990000000028
21
25.8870000000000005
0
LINE
8
BLACK
6
CONTINUOUS
10
70.4571990000000028
20
25.8870000000000005
11
70.4571990000000028
21
24.7693999999999974
0
LINE
8
BLACK
6
CONTINUOUS
10
70.4571990000000028
20
24.7693999999999974
11
68.5775989999999922
21
24.7693999999999974
0
LINE
8
BLACK
6
CONTINUOUS
10
68.5775989999999922
20
24.7693999999999974
11
68.5775989999999922
21
25.8870000000000005
0
LINE
8
BLACK
6
CONTINUOUS
10
78.0263989999999978
20
25.7346000000000004
11
79.9059989999999942
21
25.7346000000000004
0
LINE
8
BLACK
6
CONTINUOUS
10
79.9059989999999942
20
25.7346000000000004
11
79.9059989999999942
21
24.6169999999999973
0
LINE
8
BLACK
6
CONTINUOUS
10
79.9059989999999942
20
24.6169999999999973
11
78.0263989999999978
21
24.6169999999999973
0
LINE
8
BLACK
6
CONTINUOUS
10
78.0263989999999978
20
24.6169999999999973
11
78.0263989999999978
21
25.7346000000000004
0
LINE
8
BLACK
6
CONTINUOUS
10
83.7667989999999918
20
20.5021999999999984
11
84.8843990000000019
21
20.5021999999999984
0
LINE
8
BLACK
6
CONTINUOUS
10
84.8843990000000019
20
20.5021999999999984
11
84.8843990000000019
21
22.3817999999999984
0
LINE
8
BLACK
6
CONTINUOUS
10
84.8843990000000019
20
22.3817999999999984
11
83.7667989999999918
21
22.3817999999999984
0
LINE
8
BLACK
6
CONTINUOUS
10
83.7667989999999918
20
22.3817999999999984
11
83.7667989999999918
21
20.5021999999999984
0
LINE
8
BLACK
6
CONTINUOUS
10
86.9163989999999984
20
20.5530000000000008
11
88.7959989999999948
21
20.5530000000000008
0
LINE
8
BLACK
6
CONTINUOUS
10
88.7959989999999948
20
20.5530000000000008
11
88.7959989999999948
21
19.4353999999999978
0
LINE
8
BLACK
6
CONTINUOUS
10
88.7959989999999948
20
19.4353999999999978
11
86.9163989999999984
21
19.4353999999999978
0
LINE
8
BLACK
6
CONTINUOUS
10
86.9163989999999984
20
19.4353999999999978
11
86.9163989999999984
21
20.5530000000000008
0
LINE
8
BLACK
6
CONTINUOUS
10
89.2531989999999951
20
21.3658000000000001
11
91.1327989999999915
21
21.3658000000000001
0
LINE
8
BLACK
6
CONTINUOUS
10
91.1327989999999915
20
21.3658000000000001
11
91.1327989999999915
21
20.2482000000000006
0
LINE
8
BLACK
6
CONTINUOUS
10
91.1327989999999915
20
20.2482000000000006
11
89.2531989999999951
21
20.2482000000000006
0
LINE
8
BLACK
6
CONTINUOUS
10
89.2531989999999951
20
20.2482000000000006
11
89.2531989999999951
21
21.3658000000000001
0
LINE
8
BLACK
6
CONTINUOUS
10
91.5391989999999964
20
20.5530000000000008
11
93.4187989999999928
21
20.5530000000000008
0
LINE
8
BLACK
6
CONTINUOUS
10
93.4187989999999928
20
20.5530000000000008
11
93.4187989999999928
21
19.4353999999999978
0
LINE
8
BLACK
6
CONTINUOUS
10
93.4187989999999928
20
19.4353999999999978
11
91.5391989999999964
21
19.4353999999999978
0
LINE
8
BLACK
6
CONTINUOUS
10
91.5391989999999964
20
19.4353999999999978
11
91.5391989999999964
21
20.5530000000000008
0
ARC
8
BLACK
10
1.616814
20
2.6855530000000001
40
3.0869699809415057
50
16.95544924
51
82.31547643
0
ARC
8
BLACK
10
2.318524
20
14.6982999999999997
40
0.8540749999999999
50
-75.13718406
51
75.13718406
0
ARC
8
BLACK
10
2.2019289999999998
20
21.9347309999999993
40
2.6225023740048354
50
-82.64619054
51
1.44361181
0
ARC
8
BLACK
10
32.3476739999999978
20
14.571299999999999
40
1.9970749999999999
50
-226.99713135
51
-133.00286865
0
ARC
8
BLACK
10
44.7015989999999945
20
15.7354690000000002
40
7.5353307977528097
50
64.01075864
51
115.98923452
0
ARC
8
BLACK
10
44.5745989999999992
20
14.2922319999999985
40
8.2742950352657836
50
-123.54244813
51
-56.45755187
0
ARC
8
BLACK
10
56.8210300000000004
20
14.6347999999999985
40
1.9775692568812853
50
-56.60157028
51
56.60155433
0
ARC
8
BLACK
10
84.9384999999999906
20
3.0095000000000001
40
2.7781144043759247
50
-259.92700396
51
-176.16726888
0
ARC
8
BLACK
10
92.113599999999991
20
24.7088000000000001
40
2.6152716577826096
50
-170.71416387
51
-99.28586128
0
CIRCLE
8
BLACK
10
71.7271989999999988
20
14.8125999999999998
40
0.85
  0
ENDSEC
  0
EOF
