%TF.GenerationSoftware,KiCad,Pcbnew,(7.0.0)*%
%TF.CreationDate,2023-05-05T15:28:03+08:00*%
%TF.ProjectId,opsx_x,6f707378-5f78-42e6-9b69-6361645f7063,2*%
%TF.SameCoordinates,PX18392c0PY51a2700*%
%TF.FileFunction,Legend,Top*%
%TF.FilePolarity,Positive*%
%FSLAX46Y46*%
G04 Gerber Fmt 4.6, Leading zero omitted, Abs format (unit mm)*
G04 Created by KiCad (PCBNEW (7.0.0)) date 2023-05-05 15:28:03*
%MOMM*%
%LPD*%
G01*
G04 APERTURE LIST*
%ADD10C,0.300000*%
%ADD11C,0.150000*%
%ADD12C,0.100000*%
%ADD13C,0.200000*%
%ADD14C,0.120000*%
G04 APERTURE END LIST*
D10*
X41317857Y3751429D02*
X41603571Y3751429D01*
X41603571Y3751429D02*
X41746428Y3680000D01*
X41746428Y3680000D02*
X41889285Y3537143D01*
X41889285Y3537143D02*
X41960714Y3251429D01*
X41960714Y3251429D02*
X41960714Y2751429D01*
X41960714Y2751429D02*
X41889285Y2465715D01*
X41889285Y2465715D02*
X41746428Y2322858D01*
X41746428Y2322858D02*
X41603571Y2251429D01*
X41603571Y2251429D02*
X41317857Y2251429D01*
X41317857Y2251429D02*
X41175000Y2322858D01*
X41175000Y2322858D02*
X41032142Y2465715D01*
X41032142Y2465715D02*
X40960714Y2751429D01*
X40960714Y2751429D02*
X40960714Y3251429D01*
X40960714Y3251429D02*
X41032142Y3537143D01*
X41032142Y3537143D02*
X41175000Y3680000D01*
X41175000Y3680000D02*
X41317857Y3751429D01*
X42603571Y2251429D02*
X42603571Y3751429D01*
X42603571Y3751429D02*
X43175000Y3751429D01*
X43175000Y3751429D02*
X43317857Y3680000D01*
X43317857Y3680000D02*
X43389286Y3608572D01*
X43389286Y3608572D02*
X43460714Y3465715D01*
X43460714Y3465715D02*
X43460714Y3251429D01*
X43460714Y3251429D02*
X43389286Y3108572D01*
X43389286Y3108572D02*
X43317857Y3037143D01*
X43317857Y3037143D02*
X43175000Y2965715D01*
X43175000Y2965715D02*
X42603571Y2965715D01*
X44032143Y2322858D02*
X44246429Y2251429D01*
X44246429Y2251429D02*
X44603571Y2251429D01*
X44603571Y2251429D02*
X44746429Y2322858D01*
X44746429Y2322858D02*
X44817857Y2394286D01*
X44817857Y2394286D02*
X44889286Y2537143D01*
X44889286Y2537143D02*
X44889286Y2680000D01*
X44889286Y2680000D02*
X44817857Y2822858D01*
X44817857Y2822858D02*
X44746429Y2894286D01*
X44746429Y2894286D02*
X44603571Y2965715D01*
X44603571Y2965715D02*
X44317857Y3037143D01*
X44317857Y3037143D02*
X44175000Y3108572D01*
X44175000Y3108572D02*
X44103571Y3180000D01*
X44103571Y3180000D02*
X44032143Y3322858D01*
X44032143Y3322858D02*
X44032143Y3465715D01*
X44032143Y3465715D02*
X44103571Y3608572D01*
X44103571Y3608572D02*
X44175000Y3680000D01*
X44175000Y3680000D02*
X44317857Y3751429D01*
X44317857Y3751429D02*
X44675000Y3751429D01*
X44675000Y3751429D02*
X44889286Y3680000D01*
X45389285Y3751429D02*
X46389285Y2251429D01*
X46389285Y3751429D02*
X45389285Y2251429D01*
X46960713Y2822858D02*
X48103571Y2822858D01*
X48674999Y3751429D02*
X49674999Y3751429D01*
X49674999Y3751429D02*
X49032142Y2251429D01*
X50532142Y3751429D02*
X50674999Y3751429D01*
X50674999Y3751429D02*
X50817856Y3680000D01*
X50817856Y3680000D02*
X50889285Y3608572D01*
X50889285Y3608572D02*
X50960713Y3465715D01*
X50960713Y3465715D02*
X51032142Y3180000D01*
X51032142Y3180000D02*
X51032142Y2822858D01*
X51032142Y2822858D02*
X50960713Y2537143D01*
X50960713Y2537143D02*
X50889285Y2394286D01*
X50889285Y2394286D02*
X50817856Y2322858D01*
X50817856Y2322858D02*
X50674999Y2251429D01*
X50674999Y2251429D02*
X50532142Y2251429D01*
X50532142Y2251429D02*
X50389285Y2322858D01*
X50389285Y2322858D02*
X50317856Y2394286D01*
X50317856Y2394286D02*
X50246427Y2537143D01*
X50246427Y2537143D02*
X50174999Y2822858D01*
X50174999Y2822858D02*
X50174999Y3180000D01*
X50174999Y3180000D02*
X50246427Y3465715D01*
X50246427Y3465715D02*
X50317856Y3608572D01*
X50317856Y3608572D02*
X50389285Y3680000D01*
X50389285Y3680000D02*
X50532142Y3751429D01*
X53432141Y2251429D02*
X52932141Y2965715D01*
X52574998Y2251429D02*
X52574998Y3751429D01*
X52574998Y3751429D02*
X53146427Y3751429D01*
X53146427Y3751429D02*
X53289284Y3680000D01*
X53289284Y3680000D02*
X53360713Y3608572D01*
X53360713Y3608572D02*
X53432141Y3465715D01*
X53432141Y3465715D02*
X53432141Y3251429D01*
X53432141Y3251429D02*
X53360713Y3108572D01*
X53360713Y3108572D02*
X53289284Y3037143D01*
X53289284Y3037143D02*
X53146427Y2965715D01*
X53146427Y2965715D02*
X52574998Y2965715D01*
X54646427Y2322858D02*
X54503570Y2251429D01*
X54503570Y2251429D02*
X54217856Y2251429D01*
X54217856Y2251429D02*
X54074998Y2322858D01*
X54074998Y2322858D02*
X54003570Y2465715D01*
X54003570Y2465715D02*
X54003570Y3037143D01*
X54003570Y3037143D02*
X54074998Y3180000D01*
X54074998Y3180000D02*
X54217856Y3251429D01*
X54217856Y3251429D02*
X54503570Y3251429D01*
X54503570Y3251429D02*
X54646427Y3180000D01*
X54646427Y3180000D02*
X54717856Y3037143D01*
X54717856Y3037143D02*
X54717856Y2894286D01*
X54717856Y2894286D02*
X54003570Y2751429D01*
X55217855Y3251429D02*
X55574998Y2251429D01*
X55574998Y2251429D02*
X55932141Y3251429D01*
X56432141Y3608572D02*
X56503569Y3680000D01*
X56503569Y3680000D02*
X56646427Y3751429D01*
X56646427Y3751429D02*
X57003569Y3751429D01*
X57003569Y3751429D02*
X57146427Y3680000D01*
X57146427Y3680000D02*
X57217855Y3608572D01*
X57217855Y3608572D02*
X57289284Y3465715D01*
X57289284Y3465715D02*
X57289284Y3322858D01*
X57289284Y3322858D02*
X57217855Y3108572D01*
X57217855Y3108572D02*
X56360712Y2251429D01*
X56360712Y2251429D02*
X57289284Y2251429D01*
X58832140Y2251429D02*
X58832140Y3751429D01*
X58832140Y3180000D02*
X58974998Y3251429D01*
X58974998Y3251429D02*
X59260712Y3251429D01*
X59260712Y3251429D02*
X59403569Y3180000D01*
X59403569Y3180000D02*
X59474998Y3108572D01*
X59474998Y3108572D02*
X59546426Y2965715D01*
X59546426Y2965715D02*
X59546426Y2537143D01*
X59546426Y2537143D02*
X59474998Y2394286D01*
X59474998Y2394286D02*
X59403569Y2322858D01*
X59403569Y2322858D02*
X59260712Y2251429D01*
X59260712Y2251429D02*
X58974998Y2251429D01*
X58974998Y2251429D02*
X58832140Y2322858D01*
X60046426Y3251429D02*
X60403569Y2251429D01*
X60760712Y3251429D02*
X60403569Y2251429D01*
X60403569Y2251429D02*
X60260712Y1894286D01*
X60260712Y1894286D02*
X60189283Y1822858D01*
X60189283Y1822858D02*
X60046426Y1751429D01*
X62946426Y2251429D02*
X62232140Y2251429D01*
X62232140Y2251429D02*
X62232140Y3751429D01*
X63303569Y3751429D02*
X64303569Y3751429D01*
X64303569Y3751429D02*
X63303569Y2251429D01*
X63303569Y2251429D02*
X64303569Y2251429D01*
X64803569Y2322858D02*
X65017855Y2251429D01*
X65017855Y2251429D02*
X65374997Y2251429D01*
X65374997Y2251429D02*
X65517855Y2322858D01*
X65517855Y2322858D02*
X65589283Y2394286D01*
X65589283Y2394286D02*
X65660712Y2537143D01*
X65660712Y2537143D02*
X65660712Y2680000D01*
X65660712Y2680000D02*
X65589283Y2822858D01*
X65589283Y2822858D02*
X65517855Y2894286D01*
X65517855Y2894286D02*
X65374997Y2965715D01*
X65374997Y2965715D02*
X65089283Y3037143D01*
X65089283Y3037143D02*
X64946426Y3108572D01*
X64946426Y3108572D02*
X64874997Y3180000D01*
X64874997Y3180000D02*
X64803569Y3322858D01*
X64803569Y3322858D02*
X64803569Y3465715D01*
X64803569Y3465715D02*
X64874997Y3608572D01*
X64874997Y3608572D02*
X64946426Y3680000D01*
X64946426Y3680000D02*
X65089283Y3751429D01*
X65089283Y3751429D02*
X65446426Y3751429D01*
X65446426Y3751429D02*
X65660712Y3680000D01*
D11*
X17875000Y9000000D02*
X21525000Y9000000D01*
X21525000Y9000000D02*
X21525000Y5000000D01*
X21525000Y5000000D02*
X17875000Y5000000D01*
X17875000Y5000000D02*
X17875000Y9000000D01*
X24650000Y6525000D02*
X27950000Y6525000D01*
X27950000Y6525000D02*
X27950000Y2425000D01*
X27950000Y2425000D02*
X24650000Y2425000D01*
X24650000Y2425000D02*
X24650000Y6525000D01*
X91440000Y7114000D02*
X91694000Y6606000D01*
X22075000Y22050000D02*
X29550000Y22050000D01*
X29550000Y22050000D02*
X29550000Y19225000D01*
X29550000Y19225000D02*
X22075000Y19225000D01*
X22075000Y19225000D02*
X22075000Y22050000D01*
X93980000Y14480000D02*
X93472000Y14734000D01*
X91694000Y6606000D02*
X91186000Y6352000D01*
X27950000Y6525000D02*
X31450000Y6525000D01*
X31450000Y6525000D02*
X31450000Y2425000D01*
X31450000Y2425000D02*
X27950000Y2425000D01*
X27950000Y2425000D02*
X27950000Y6525000D01*
X76962000Y9654000D02*
X79502000Y9654000D01*
X79502000Y9654000D02*
X79502000Y6606000D01*
X79502000Y6606000D02*
X76962000Y6606000D01*
X76962000Y6606000D02*
X76962000Y9654000D01*
X2075000Y17475000D02*
X5300000Y17475000D01*
X5300000Y17475000D02*
X5300000Y15100000D01*
X5300000Y15100000D02*
X2075000Y15100000D01*
X2075000Y15100000D02*
X2075000Y17475000D01*
X90678000Y7114000D02*
X91694000Y6606000D01*
X91694000Y6606000D02*
X91440000Y7114000D01*
X25595238Y4217620D02*
X25928571Y3217620D01*
X25928571Y3217620D02*
X26261904Y4217620D01*
X26595238Y3598572D02*
X27357143Y3598572D01*
X26976190Y3217620D02*
X26976190Y3979524D01*
X18463095Y8387620D02*
X18463095Y7578096D01*
X18463095Y7578096D02*
X18510714Y7482858D01*
X18510714Y7482858D02*
X18558333Y7435239D01*
X18558333Y7435239D02*
X18653571Y7387620D01*
X18653571Y7387620D02*
X18844047Y7387620D01*
X18844047Y7387620D02*
X18939285Y7435239D01*
X18939285Y7435239D02*
X18986904Y7482858D01*
X18986904Y7482858D02*
X19034523Y7578096D01*
X19034523Y7578096D02*
X19034523Y8387620D01*
X19510714Y7387620D02*
X19510714Y8387620D01*
X19510714Y8387620D02*
X19748809Y8387620D01*
X19748809Y8387620D02*
X19891666Y8340000D01*
X19891666Y8340000D02*
X19986904Y8244762D01*
X19986904Y8244762D02*
X20034523Y8149524D01*
X20034523Y8149524D02*
X20082142Y7959048D01*
X20082142Y7959048D02*
X20082142Y7816191D01*
X20082142Y7816191D02*
X20034523Y7625715D01*
X20034523Y7625715D02*
X19986904Y7530477D01*
X19986904Y7530477D02*
X19891666Y7435239D01*
X19891666Y7435239D02*
X19748809Y7387620D01*
X19748809Y7387620D02*
X19510714Y7387620D01*
X20510714Y7768572D02*
X21272619Y7768572D01*
X20891666Y7387620D02*
X20891666Y8149524D01*
X18463095Y6767620D02*
X18463095Y5958096D01*
X18463095Y5958096D02*
X18510714Y5862858D01*
X18510714Y5862858D02*
X18558333Y5815239D01*
X18558333Y5815239D02*
X18653571Y5767620D01*
X18653571Y5767620D02*
X18844047Y5767620D01*
X18844047Y5767620D02*
X18939285Y5815239D01*
X18939285Y5815239D02*
X18986904Y5862858D01*
X18986904Y5862858D02*
X19034523Y5958096D01*
X19034523Y5958096D02*
X19034523Y6767620D01*
X19510714Y5767620D02*
X19510714Y6767620D01*
X19510714Y6767620D02*
X19748809Y6767620D01*
X19748809Y6767620D02*
X19891666Y6720000D01*
X19891666Y6720000D02*
X19986904Y6624762D01*
X19986904Y6624762D02*
X20034523Y6529524D01*
X20034523Y6529524D02*
X20082142Y6339048D01*
X20082142Y6339048D02*
X20082142Y6196191D01*
X20082142Y6196191D02*
X20034523Y6005715D01*
X20034523Y6005715D02*
X19986904Y5910477D01*
X19986904Y5910477D02*
X19891666Y5815239D01*
X19891666Y5815239D02*
X19748809Y5767620D01*
X19748809Y5767620D02*
X19510714Y5767620D01*
X20510714Y6148572D02*
X21272619Y6148572D01*
X25661904Y5870000D02*
X25566666Y5917620D01*
X25566666Y5917620D02*
X25423809Y5917620D01*
X25423809Y5917620D02*
X25280952Y5870000D01*
X25280952Y5870000D02*
X25185714Y5774762D01*
X25185714Y5774762D02*
X25138095Y5679524D01*
X25138095Y5679524D02*
X25090476Y5489048D01*
X25090476Y5489048D02*
X25090476Y5346191D01*
X25090476Y5346191D02*
X25138095Y5155715D01*
X25138095Y5155715D02*
X25185714Y5060477D01*
X25185714Y5060477D02*
X25280952Y4965239D01*
X25280952Y4965239D02*
X25423809Y4917620D01*
X25423809Y4917620D02*
X25519047Y4917620D01*
X25519047Y4917620D02*
X25661904Y4965239D01*
X25661904Y4965239D02*
X25709523Y5012858D01*
X25709523Y5012858D02*
X25709523Y5346191D01*
X25709523Y5346191D02*
X25519047Y5346191D01*
X26138095Y4917620D02*
X26138095Y5917620D01*
X26138095Y5917620D02*
X26709523Y4917620D01*
X26709523Y4917620D02*
X26709523Y5917620D01*
X27185714Y4917620D02*
X27185714Y5917620D01*
X27185714Y5917620D02*
X27423809Y5917620D01*
X27423809Y5917620D02*
X27566666Y5870000D01*
X27566666Y5870000D02*
X27661904Y5774762D01*
X27661904Y5774762D02*
X27709523Y5679524D01*
X27709523Y5679524D02*
X27757142Y5489048D01*
X27757142Y5489048D02*
X27757142Y5346191D01*
X27757142Y5346191D02*
X27709523Y5155715D01*
X27709523Y5155715D02*
X27661904Y5060477D01*
X27661904Y5060477D02*
X27566666Y4965239D01*
X27566666Y4965239D02*
X27423809Y4917620D01*
X27423809Y4917620D02*
X27185714Y4917620D01*
X28312380Y2788096D02*
X29121904Y2788096D01*
X29121904Y2788096D02*
X29217142Y2835715D01*
X29217142Y2835715D02*
X29264761Y2883334D01*
X29264761Y2883334D02*
X29312380Y2978572D01*
X29312380Y2978572D02*
X29312380Y3169048D01*
X29312380Y3169048D02*
X29264761Y3264286D01*
X29264761Y3264286D02*
X29217142Y3311905D01*
X29217142Y3311905D02*
X29121904Y3359524D01*
X29121904Y3359524D02*
X28312380Y3359524D01*
X29264761Y3788096D02*
X29312380Y3930953D01*
X29312380Y3930953D02*
X29312380Y4169048D01*
X29312380Y4169048D02*
X29264761Y4264286D01*
X29264761Y4264286D02*
X29217142Y4311905D01*
X29217142Y4311905D02*
X29121904Y4359524D01*
X29121904Y4359524D02*
X29026666Y4359524D01*
X29026666Y4359524D02*
X28931428Y4311905D01*
X28931428Y4311905D02*
X28883809Y4264286D01*
X28883809Y4264286D02*
X28836190Y4169048D01*
X28836190Y4169048D02*
X28788571Y3978572D01*
X28788571Y3978572D02*
X28740952Y3883334D01*
X28740952Y3883334D02*
X28693333Y3835715D01*
X28693333Y3835715D02*
X28598095Y3788096D01*
X28598095Y3788096D02*
X28502857Y3788096D01*
X28502857Y3788096D02*
X28407619Y3835715D01*
X28407619Y3835715D02*
X28360000Y3883334D01*
X28360000Y3883334D02*
X28312380Y3978572D01*
X28312380Y3978572D02*
X28312380Y4216667D01*
X28312380Y4216667D02*
X28360000Y4359524D01*
X28788571Y5121429D02*
X28836190Y5264286D01*
X28836190Y5264286D02*
X28883809Y5311905D01*
X28883809Y5311905D02*
X28979047Y5359524D01*
X28979047Y5359524D02*
X29121904Y5359524D01*
X29121904Y5359524D02*
X29217142Y5311905D01*
X29217142Y5311905D02*
X29264761Y5264286D01*
X29264761Y5264286D02*
X29312380Y5169048D01*
X29312380Y5169048D02*
X29312380Y4788096D01*
X29312380Y4788096D02*
X28312380Y4788096D01*
X28312380Y4788096D02*
X28312380Y5121429D01*
X28312380Y5121429D02*
X28360000Y5216667D01*
X28360000Y5216667D02*
X28407619Y5264286D01*
X28407619Y5264286D02*
X28502857Y5311905D01*
X28502857Y5311905D02*
X28598095Y5311905D01*
X28598095Y5311905D02*
X28693333Y5264286D01*
X28693333Y5264286D02*
X28740952Y5216667D01*
X28740952Y5216667D02*
X28788571Y5121429D01*
X28788571Y5121429D02*
X28788571Y4788096D01*
X30408571Y3121429D02*
X30456190Y3264286D01*
X30456190Y3264286D02*
X30503809Y3311905D01*
X30503809Y3311905D02*
X30599047Y3359524D01*
X30599047Y3359524D02*
X30741904Y3359524D01*
X30741904Y3359524D02*
X30837142Y3311905D01*
X30837142Y3311905D02*
X30884761Y3264286D01*
X30884761Y3264286D02*
X30932380Y3169048D01*
X30932380Y3169048D02*
X30932380Y2788096D01*
X30932380Y2788096D02*
X29932380Y2788096D01*
X29932380Y2788096D02*
X29932380Y3121429D01*
X29932380Y3121429D02*
X29980000Y3216667D01*
X29980000Y3216667D02*
X30027619Y3264286D01*
X30027619Y3264286D02*
X30122857Y3311905D01*
X30122857Y3311905D02*
X30218095Y3311905D01*
X30218095Y3311905D02*
X30313333Y3264286D01*
X30313333Y3264286D02*
X30360952Y3216667D01*
X30360952Y3216667D02*
X30408571Y3121429D01*
X30408571Y3121429D02*
X30408571Y2788096D01*
X29932380Y3978572D02*
X29932380Y4169048D01*
X29932380Y4169048D02*
X29980000Y4264286D01*
X29980000Y4264286D02*
X30075238Y4359524D01*
X30075238Y4359524D02*
X30265714Y4407143D01*
X30265714Y4407143D02*
X30599047Y4407143D01*
X30599047Y4407143D02*
X30789523Y4359524D01*
X30789523Y4359524D02*
X30884761Y4264286D01*
X30884761Y4264286D02*
X30932380Y4169048D01*
X30932380Y4169048D02*
X30932380Y3978572D01*
X30932380Y3978572D02*
X30884761Y3883334D01*
X30884761Y3883334D02*
X30789523Y3788096D01*
X30789523Y3788096D02*
X30599047Y3740477D01*
X30599047Y3740477D02*
X30265714Y3740477D01*
X30265714Y3740477D02*
X30075238Y3788096D01*
X30075238Y3788096D02*
X29980000Y3883334D01*
X29980000Y3883334D02*
X29932380Y3978572D01*
X29932380Y5026191D02*
X29932380Y5216667D01*
X29932380Y5216667D02*
X29980000Y5311905D01*
X29980000Y5311905D02*
X30075238Y5407143D01*
X30075238Y5407143D02*
X30265714Y5454762D01*
X30265714Y5454762D02*
X30599047Y5454762D01*
X30599047Y5454762D02*
X30789523Y5407143D01*
X30789523Y5407143D02*
X30884761Y5311905D01*
X30884761Y5311905D02*
X30932380Y5216667D01*
X30932380Y5216667D02*
X30932380Y5026191D01*
X30932380Y5026191D02*
X30884761Y4930953D01*
X30884761Y4930953D02*
X30789523Y4835715D01*
X30789523Y4835715D02*
X30599047Y4788096D01*
X30599047Y4788096D02*
X30265714Y4788096D01*
X30265714Y4788096D02*
X30075238Y4835715D01*
X30075238Y4835715D02*
X29980000Y4930953D01*
X29980000Y4930953D02*
X29932380Y5026191D01*
X29932380Y5740477D02*
X29932380Y6311905D01*
X30932380Y6026191D02*
X29932380Y6026191D01*
%TO.C,U2*%
X12186904Y5973381D02*
X12186904Y6782905D01*
X12186904Y6782905D02*
X12139285Y6878143D01*
X12139285Y6878143D02*
X12091666Y6925762D01*
X12091666Y6925762D02*
X11996428Y6973381D01*
X11996428Y6973381D02*
X11805952Y6973381D01*
X11805952Y6973381D02*
X11710714Y6925762D01*
X11710714Y6925762D02*
X11663095Y6878143D01*
X11663095Y6878143D02*
X11615476Y6782905D01*
X11615476Y6782905D02*
X11615476Y5973381D01*
X11186904Y6068620D02*
X11139285Y6021000D01*
X11139285Y6021000D02*
X11044047Y5973381D01*
X11044047Y5973381D02*
X10805952Y5973381D01*
X10805952Y5973381D02*
X10710714Y6021000D01*
X10710714Y6021000D02*
X10663095Y6068620D01*
X10663095Y6068620D02*
X10615476Y6163858D01*
X10615476Y6163858D02*
X10615476Y6259096D01*
X10615476Y6259096D02*
X10663095Y6401953D01*
X10663095Y6401953D02*
X11234523Y6973381D01*
X11234523Y6973381D02*
X10615476Y6973381D01*
%TO.C,sx1*%
X70955316Y17525524D02*
X70685644Y17329596D01*
X70993532Y16905825D02*
X70405746Y17714842D01*
X70405746Y17714842D02*
X70790993Y17994740D01*
X71648760Y18029340D02*
X71379087Y17833412D01*
X71686975Y17409641D02*
X71099190Y18218658D01*
X71099190Y18218658D02*
X71484436Y18498556D01*
X90295831Y16471312D02*
X90445105Y16491137D01*
X90445105Y16491137D02*
X90659104Y16595511D01*
X90659104Y16595511D02*
X90723828Y16680061D01*
X90723828Y16680061D02*
X90745753Y16743735D01*
X90745753Y16743735D02*
X90746803Y16850209D01*
X90746803Y16850209D02*
X90705054Y16935809D01*
X90705054Y16935809D02*
X90620504Y17000533D01*
X90620504Y17000533D02*
X90556830Y17022458D01*
X90556830Y17022458D02*
X90450356Y17023508D01*
X90450356Y17023508D02*
X90258282Y16982809D01*
X90258282Y16982809D02*
X90151808Y16983859D01*
X90151808Y16983859D02*
X90088133Y17005784D01*
X90088133Y17005784D02*
X90003584Y17070508D01*
X90003584Y17070508D02*
X89961834Y17156108D01*
X89961834Y17156108D02*
X89962884Y17262582D01*
X89962884Y17262582D02*
X89984809Y17326257D01*
X89984809Y17326257D02*
X90049534Y17410806D01*
X90049534Y17410806D02*
X90263532Y17515180D01*
X90263532Y17515180D02*
X90412806Y17535005D01*
X91093401Y17443105D02*
X90986927Y17444155D01*
X90986927Y17444155D02*
X90923253Y17466080D01*
X90923253Y17466080D02*
X90838703Y17530805D01*
X90838703Y17530805D02*
X90817828Y17573604D01*
X90817828Y17573604D02*
X90818879Y17680079D01*
X90818879Y17680079D02*
X90840803Y17743753D01*
X90840803Y17743753D02*
X90905528Y17828302D01*
X90905528Y17828302D02*
X91076727Y17911802D01*
X91076727Y17911802D02*
X91183201Y17910752D01*
X91183201Y17910752D02*
X91246876Y17888827D01*
X91246876Y17888827D02*
X91331425Y17824102D01*
X91331425Y17824102D02*
X91352300Y17781302D01*
X91352300Y17781302D02*
X91351250Y17674828D01*
X91351250Y17674828D02*
X91329325Y17611154D01*
X91329325Y17611154D02*
X91264600Y17526604D01*
X91264600Y17526604D02*
X91093401Y17443105D01*
X91093401Y17443105D02*
X91028677Y17358556D01*
X91028677Y17358556D02*
X91006752Y17294881D01*
X91006752Y17294881D02*
X91005702Y17188407D01*
X91005702Y17188407D02*
X91089201Y17017208D01*
X91089201Y17017208D02*
X91173750Y16952483D01*
X91173750Y16952483D02*
X91237425Y16930558D01*
X91237425Y16930558D02*
X91343899Y16929508D01*
X91343899Y16929508D02*
X91515098Y17013008D01*
X91515098Y17013008D02*
X91579823Y17097557D01*
X91579823Y17097557D02*
X91601748Y17161231D01*
X91601748Y17161231D02*
X91602798Y17267706D01*
X91602798Y17267706D02*
X91519298Y17438905D01*
X91519298Y17438905D02*
X91434749Y17503629D01*
X91434749Y17503629D02*
X91371075Y17525554D01*
X91371075Y17525554D02*
X91264600Y17526604D01*
X91590476Y18140239D02*
X91733333Y18092620D01*
X91733333Y18092620D02*
X91971428Y18092620D01*
X91971428Y18092620D02*
X92066666Y18140239D01*
X92066666Y18140239D02*
X92114285Y18187858D01*
X92114285Y18187858D02*
X92161904Y18283096D01*
X92161904Y18283096D02*
X92161904Y18378334D01*
X92161904Y18378334D02*
X92114285Y18473572D01*
X92114285Y18473572D02*
X92066666Y18521191D01*
X92066666Y18521191D02*
X91971428Y18568810D01*
X91971428Y18568810D02*
X91780952Y18616429D01*
X91780952Y18616429D02*
X91685714Y18664048D01*
X91685714Y18664048D02*
X91638095Y18711667D01*
X91638095Y18711667D02*
X91590476Y18806905D01*
X91590476Y18806905D02*
X91590476Y18902143D01*
X91590476Y18902143D02*
X91638095Y18997381D01*
X91638095Y18997381D02*
X91685714Y19045000D01*
X91685714Y19045000D02*
X91780952Y19092620D01*
X91780952Y19092620D02*
X92019047Y19092620D01*
X92019047Y19092620D02*
X92161904Y19045000D01*
X93114285Y18092620D02*
X92542857Y18092620D01*
X92828571Y18092620D02*
X92828571Y19092620D01*
X92828571Y19092620D02*
X92733333Y18949762D01*
X92733333Y18949762D02*
X92638095Y18854524D01*
X92638095Y18854524D02*
X92542857Y18806905D01*
X93876190Y18616429D02*
X93542857Y18616429D01*
X93542857Y18092620D02*
X93542857Y19092620D01*
X93542857Y19092620D02*
X94019047Y19092620D01*
X94105831Y8597312D02*
X94255105Y8617137D01*
X94255105Y8617137D02*
X94469104Y8721511D01*
X94469104Y8721511D02*
X94533828Y8806061D01*
X94533828Y8806061D02*
X94555753Y8869735D01*
X94555753Y8869735D02*
X94556803Y8976209D01*
X94556803Y8976209D02*
X94515054Y9061809D01*
X94515054Y9061809D02*
X94430504Y9126533D01*
X94430504Y9126533D02*
X94366830Y9148458D01*
X94366830Y9148458D02*
X94260356Y9149508D01*
X94260356Y9149508D02*
X94068282Y9108809D01*
X94068282Y9108809D02*
X93961808Y9109859D01*
X93961808Y9109859D02*
X93898133Y9131784D01*
X93898133Y9131784D02*
X93813584Y9196508D01*
X93813584Y9196508D02*
X93771834Y9282108D01*
X93771834Y9282108D02*
X93772884Y9388582D01*
X93772884Y9388582D02*
X93794809Y9452257D01*
X93794809Y9452257D02*
X93859534Y9536806D01*
X93859534Y9536806D02*
X94073532Y9641180D01*
X94073532Y9641180D02*
X94222806Y9661005D01*
X94501529Y9849928D02*
X95057926Y10121301D01*
X95057926Y10121301D02*
X94925326Y9632779D01*
X94925326Y9632779D02*
X95053725Y9695404D01*
X95053725Y9695404D02*
X95160200Y9694354D01*
X95160200Y9694354D02*
X95223874Y9672429D01*
X95223874Y9672429D02*
X95308424Y9607704D01*
X95308424Y9607704D02*
X95412798Y9393706D01*
X95412798Y9393706D02*
X95411748Y9287231D01*
X95411748Y9287231D02*
X95389823Y9223557D01*
X95389823Y9223557D02*
X95325098Y9139008D01*
X95325098Y9139008D02*
X95068300Y9013759D01*
X95068300Y9013759D02*
X94961826Y9014809D01*
X94961826Y9014809D02*
X94898151Y9036734D01*
X89279831Y6819312D02*
X89429105Y6839137D01*
X89429105Y6839137D02*
X89643104Y6943511D01*
X89643104Y6943511D02*
X89707828Y7028061D01*
X89707828Y7028061D02*
X89729753Y7091735D01*
X89729753Y7091735D02*
X89730803Y7198209D01*
X89730803Y7198209D02*
X89689054Y7283809D01*
X89689054Y7283809D02*
X89604504Y7348533D01*
X89604504Y7348533D02*
X89540830Y7370458D01*
X89540830Y7370458D02*
X89434356Y7371508D01*
X89434356Y7371508D02*
X89242282Y7330809D01*
X89242282Y7330809D02*
X89135808Y7331859D01*
X89135808Y7331859D02*
X89072133Y7353784D01*
X89072133Y7353784D02*
X88987584Y7418508D01*
X88987584Y7418508D02*
X88945834Y7504108D01*
X88945834Y7504108D02*
X88946884Y7610582D01*
X88946884Y7610582D02*
X88968809Y7674257D01*
X88968809Y7674257D02*
X89033534Y7758806D01*
X89033534Y7758806D02*
X89247532Y7863180D01*
X89247532Y7863180D02*
X89396806Y7883005D01*
X90189126Y8322426D02*
X89761129Y8113678D01*
X89761129Y8113678D02*
X89927077Y7664806D01*
X89927077Y7664806D02*
X89949002Y7728480D01*
X89949002Y7728480D02*
X90013727Y7813030D01*
X90013727Y7813030D02*
X90227725Y7917404D01*
X90227725Y7917404D02*
X90334200Y7916354D01*
X90334200Y7916354D02*
X90397874Y7894429D01*
X90397874Y7894429D02*
X90482424Y7829704D01*
X90482424Y7829704D02*
X90586798Y7615706D01*
X90586798Y7615706D02*
X90585748Y7509231D01*
X90585748Y7509231D02*
X90563823Y7445557D01*
X90563823Y7445557D02*
X90499098Y7361008D01*
X90499098Y7361008D02*
X90285099Y7256634D01*
X90285099Y7256634D02*
X90178625Y7257684D01*
X90178625Y7257684D02*
X90114951Y7279609D01*
X24839285Y24050000D02*
X24744047Y24097620D01*
X24744047Y24097620D02*
X24601190Y24097620D01*
X24601190Y24097620D02*
X24458333Y24050000D01*
X24458333Y24050000D02*
X24363095Y23954762D01*
X24363095Y23954762D02*
X24315476Y23859524D01*
X24315476Y23859524D02*
X24267857Y23669048D01*
X24267857Y23669048D02*
X24267857Y23526191D01*
X24267857Y23526191D02*
X24315476Y23335715D01*
X24315476Y23335715D02*
X24363095Y23240477D01*
X24363095Y23240477D02*
X24458333Y23145239D01*
X24458333Y23145239D02*
X24601190Y23097620D01*
X24601190Y23097620D02*
X24696428Y23097620D01*
X24696428Y23097620D02*
X24839285Y23145239D01*
X24839285Y23145239D02*
X24886904Y23192858D01*
X24886904Y23192858D02*
X24886904Y23526191D01*
X24886904Y23526191D02*
X24696428Y23526191D01*
X25315476Y23097620D02*
X25315476Y24097620D01*
X25315476Y24097620D02*
X25886904Y23097620D01*
X25886904Y23097620D02*
X25886904Y24097620D01*
X26363095Y23097620D02*
X26363095Y24097620D01*
X26363095Y24097620D02*
X26601190Y24097620D01*
X26601190Y24097620D02*
X26744047Y24050000D01*
X26744047Y24050000D02*
X26839285Y23954762D01*
X26839285Y23954762D02*
X26886904Y23859524D01*
X26886904Y23859524D02*
X26934523Y23669048D01*
X26934523Y23669048D02*
X26934523Y23526191D01*
X26934523Y23526191D02*
X26886904Y23335715D01*
X26886904Y23335715D02*
X26839285Y23240477D01*
X26839285Y23240477D02*
X26744047Y23145239D01*
X26744047Y23145239D02*
X26601190Y23097620D01*
X26601190Y23097620D02*
X26363095Y23097620D01*
X76419919Y20685401D02*
X76563482Y20730846D01*
X76563482Y20730846D02*
X76756106Y20870794D01*
X76756106Y20870794D02*
X76805165Y20965299D01*
X76805165Y20965299D02*
X76815700Y21031813D01*
X76815700Y21031813D02*
X76798245Y21136852D01*
X76798245Y21136852D02*
X76742265Y21213901D01*
X76742265Y21213901D02*
X76647761Y21262961D01*
X76647761Y21262961D02*
X76581247Y21273496D01*
X76581247Y21273496D02*
X76476208Y21256041D01*
X76476208Y21256041D02*
X76294120Y21182606D01*
X76294120Y21182606D02*
X76189081Y21165151D01*
X76189081Y21165151D02*
X76122566Y21175686D01*
X76122566Y21175686D02*
X76028062Y21224745D01*
X76028062Y21224745D02*
X75972082Y21301795D01*
X75972082Y21301795D02*
X75954628Y21406834D01*
X75954628Y21406834D02*
X75965162Y21473348D01*
X75965162Y21473348D02*
X76014222Y21567852D01*
X76014222Y21567852D02*
X76206845Y21707801D01*
X76206845Y21707801D02*
X76350409Y21753246D01*
X76686595Y21938639D02*
X76697130Y22005154D01*
X76697130Y22005154D02*
X76746190Y22099658D01*
X76746190Y22099658D02*
X76938813Y22239607D01*
X76938813Y22239607D02*
X77043852Y22257062D01*
X77043852Y22257062D02*
X77110366Y22246527D01*
X77110366Y22246527D02*
X77204870Y22197468D01*
X77204870Y22197468D02*
X77260850Y22120418D01*
X77260850Y22120418D02*
X77306295Y21976855D01*
X77306295Y21976855D02*
X77179876Y21178682D01*
X77179876Y21178682D02*
X77680696Y21542549D01*
X80565476Y25740239D02*
X80708333Y25692620D01*
X80708333Y25692620D02*
X80946428Y25692620D01*
X80946428Y25692620D02*
X81041666Y25740239D01*
X81041666Y25740239D02*
X81089285Y25787858D01*
X81089285Y25787858D02*
X81136904Y25883096D01*
X81136904Y25883096D02*
X81136904Y25978334D01*
X81136904Y25978334D02*
X81089285Y26073572D01*
X81089285Y26073572D02*
X81041666Y26121191D01*
X81041666Y26121191D02*
X80946428Y26168810D01*
X80946428Y26168810D02*
X80755952Y26216429D01*
X80755952Y26216429D02*
X80660714Y26264048D01*
X80660714Y26264048D02*
X80613095Y26311667D01*
X80613095Y26311667D02*
X80565476Y26406905D01*
X80565476Y26406905D02*
X80565476Y26502143D01*
X80565476Y26502143D02*
X80613095Y26597381D01*
X80613095Y26597381D02*
X80660714Y26645000D01*
X80660714Y26645000D02*
X80755952Y26692620D01*
X80755952Y26692620D02*
X80994047Y26692620D01*
X80994047Y26692620D02*
X81136904Y26645000D01*
X81755952Y26692620D02*
X81946428Y26692620D01*
X81946428Y26692620D02*
X82041666Y26645000D01*
X82041666Y26645000D02*
X82136904Y26549762D01*
X82136904Y26549762D02*
X82184523Y26359286D01*
X82184523Y26359286D02*
X82184523Y26025953D01*
X82184523Y26025953D02*
X82136904Y25835477D01*
X82136904Y25835477D02*
X82041666Y25740239D01*
X82041666Y25740239D02*
X81946428Y25692620D01*
X81946428Y25692620D02*
X81755952Y25692620D01*
X81755952Y25692620D02*
X81660714Y25740239D01*
X81660714Y25740239D02*
X81565476Y25835477D01*
X81565476Y25835477D02*
X81517857Y26025953D01*
X81517857Y26025953D02*
X81517857Y26359286D01*
X81517857Y26359286D02*
X81565476Y26549762D01*
X81565476Y26549762D02*
X81660714Y26645000D01*
X81660714Y26645000D02*
X81755952Y26692620D01*
X83089285Y25692620D02*
X82613095Y25692620D01*
X82613095Y25692620D02*
X82613095Y26692620D01*
X83375000Y26597381D02*
X83422619Y26645000D01*
X83422619Y26645000D02*
X83517857Y26692620D01*
X83517857Y26692620D02*
X83755952Y26692620D01*
X83755952Y26692620D02*
X83851190Y26645000D01*
X83851190Y26645000D02*
X83898809Y26597381D01*
X83898809Y26597381D02*
X83946428Y26502143D01*
X83946428Y26502143D02*
X83946428Y26406905D01*
X83946428Y26406905D02*
X83898809Y26264048D01*
X83898809Y26264048D02*
X83327381Y25692620D01*
X83327381Y25692620D02*
X83946428Y25692620D01*
X84375000Y26073572D02*
X85136905Y26073572D01*
X92719912Y11672142D02*
X92281541Y12570936D01*
X92281541Y12570936D02*
X92894261Y12075064D01*
X92894261Y12075064D02*
X92880737Y12863183D01*
X92880737Y12863183D02*
X93319108Y11964389D01*
X93479933Y13155430D02*
X93651132Y13238930D01*
X93651132Y13238930D02*
X93757606Y13237880D01*
X93757606Y13237880D02*
X93884955Y13194030D01*
X93884955Y13194030D02*
X94011254Y13043706D01*
X94011254Y13043706D02*
X94157378Y12744108D01*
X94157378Y12744108D02*
X94198077Y12552034D01*
X94198077Y12552034D02*
X94154227Y12424685D01*
X94154227Y12424685D02*
X94089503Y12340136D01*
X94089503Y12340136D02*
X93918304Y12256636D01*
X93918304Y12256636D02*
X93811830Y12257686D01*
X93811830Y12257686D02*
X93684481Y12301536D01*
X93684481Y12301536D02*
X93558182Y12451860D01*
X93558182Y12451860D02*
X93412058Y12751458D01*
X93412058Y12751458D02*
X93371358Y12943532D01*
X93371358Y12943532D02*
X93415208Y13070881D01*
X93415208Y13070881D02*
X93479933Y13155430D01*
X94121928Y13468553D02*
X94635525Y13719050D01*
X94817098Y12695008D02*
X94378727Y13593802D01*
X94499238Y21401524D02*
X94451619Y21258667D01*
X94451619Y21258667D02*
X94451619Y21020572D01*
X94451619Y21020572D02*
X94499238Y20925334D01*
X94499238Y20925334D02*
X94546857Y20877715D01*
X94546857Y20877715D02*
X94642095Y20830096D01*
X94642095Y20830096D02*
X94737333Y20830096D01*
X94737333Y20830096D02*
X94832571Y20877715D01*
X94832571Y20877715D02*
X94880190Y20925334D01*
X94880190Y20925334D02*
X94927809Y21020572D01*
X94927809Y21020572D02*
X94975428Y21211048D01*
X94975428Y21211048D02*
X95023047Y21306286D01*
X95023047Y21306286D02*
X95070666Y21353905D01*
X95070666Y21353905D02*
X95165904Y21401524D01*
X95165904Y21401524D02*
X95261142Y21401524D01*
X95261142Y21401524D02*
X95356380Y21353905D01*
X95356380Y21353905D02*
X95404000Y21306286D01*
X95404000Y21306286D02*
X95451619Y21211048D01*
X95451619Y21211048D02*
X95451619Y20972953D01*
X95451619Y20972953D02*
X95404000Y20830096D01*
X94451619Y19877715D02*
X94451619Y20449143D01*
X94451619Y20163429D02*
X95451619Y20163429D01*
X95451619Y20163429D02*
X95308761Y20258667D01*
X95308761Y20258667D02*
X95213523Y20353905D01*
X95213523Y20353905D02*
X95165904Y20449143D01*
X95451619Y19592000D02*
X95451619Y19020572D01*
X94451619Y19306286D02*
X95451619Y19306286D01*
X93449613Y11192009D02*
X93343139Y11193059D01*
X93343139Y11193059D02*
X93214740Y11130435D01*
X93214740Y11130435D02*
X93107215Y11025011D01*
X93107215Y11025011D02*
X93063366Y10897662D01*
X93063366Y10897662D02*
X93062316Y10791187D01*
X93062316Y10791187D02*
X93103015Y10599114D01*
X93103015Y10599114D02*
X93165640Y10470715D01*
X93165640Y10470715D02*
X93291939Y10320391D01*
X93291939Y10320391D02*
X93376488Y10255666D01*
X93376488Y10255666D02*
X93503837Y10211816D01*
X93503837Y10211816D02*
X93653111Y10231641D01*
X93653111Y10231641D02*
X93738710Y10273391D01*
X93738710Y10273391D02*
X93846235Y10378815D01*
X93846235Y10378815D02*
X93868160Y10442489D01*
X93868160Y10442489D02*
X93722036Y10742087D01*
X93722036Y10742087D02*
X93550837Y10658588D01*
X94295107Y10544763D02*
X93856735Y11443557D01*
X93856735Y11443557D02*
X94808703Y10795261D01*
X94808703Y10795261D02*
X94370332Y11694055D01*
X95236700Y11004009D02*
X94798329Y11902803D01*
X94798329Y11902803D02*
X95012328Y12007177D01*
X95012328Y12007177D02*
X95161602Y12027002D01*
X95161602Y12027002D02*
X95288951Y11983152D01*
X95288951Y11983152D02*
X95373500Y11918428D01*
X95373500Y11918428D02*
X95499799Y11768104D01*
X95499799Y11768104D02*
X95562424Y11639704D01*
X95562424Y11639704D02*
X95603123Y11447631D01*
X95603123Y11447631D02*
X95602073Y11341156D01*
X95602073Y11341156D02*
X95558223Y11213807D01*
X95558223Y11213807D02*
X95450699Y11108383D01*
X95450699Y11108383D02*
X95236700Y11004009D01*
X91057831Y14947312D02*
X91207105Y14967137D01*
X91207105Y14967137D02*
X91421104Y15071511D01*
X91421104Y15071511D02*
X91485828Y15156061D01*
X91485828Y15156061D02*
X91507753Y15219735D01*
X91507753Y15219735D02*
X91508803Y15326209D01*
X91508803Y15326209D02*
X91467054Y15411809D01*
X91467054Y15411809D02*
X91382504Y15476533D01*
X91382504Y15476533D02*
X91318830Y15498458D01*
X91318830Y15498458D02*
X91212356Y15499508D01*
X91212356Y15499508D02*
X91020282Y15458809D01*
X91020282Y15458809D02*
X90913808Y15459859D01*
X90913808Y15459859D02*
X90850133Y15481784D01*
X90850133Y15481784D02*
X90765584Y15546508D01*
X90765584Y15546508D02*
X90723834Y15632108D01*
X90723834Y15632108D02*
X90724884Y15738582D01*
X90724884Y15738582D02*
X90746809Y15802257D01*
X90746809Y15802257D02*
X90811534Y15886806D01*
X90811534Y15886806D02*
X91025532Y15991180D01*
X91025532Y15991180D02*
X91174806Y16011005D01*
X92020300Y15363759D02*
X92191499Y15447258D01*
X92191499Y15447258D02*
X92256223Y15531807D01*
X92256223Y15531807D02*
X92278148Y15595482D01*
X92278148Y15595482D02*
X92301123Y15765631D01*
X92301123Y15765631D02*
X92260424Y15957704D01*
X92260424Y15957704D02*
X92093425Y16300102D01*
X92093425Y16300102D02*
X92008876Y16364827D01*
X92008876Y16364827D02*
X91945201Y16386752D01*
X91945201Y16386752D02*
X91838727Y16387802D01*
X91838727Y16387802D02*
X91667528Y16304302D01*
X91667528Y16304302D02*
X91602803Y16219753D01*
X91602803Y16219753D02*
X91580879Y16156079D01*
X91580879Y16156079D02*
X91579828Y16049604D01*
X91579828Y16049604D02*
X91684203Y15835606D01*
X91684203Y15835606D02*
X91768752Y15770881D01*
X91768752Y15770881D02*
X91832426Y15748956D01*
X91832426Y15748956D02*
X91938901Y15747906D01*
X91938901Y15747906D02*
X92110100Y15831405D01*
X92110100Y15831405D02*
X92174824Y15915955D01*
X92174824Y15915955D02*
X92196749Y15979629D01*
X92196749Y15979629D02*
X92197799Y16086103D01*
X66369873Y18991118D02*
X67227330Y18378030D01*
X67227330Y18378030D02*
X66909217Y19382975D01*
X68172991Y19182813D02*
X68162456Y19116299D01*
X68162456Y19116299D02*
X68074872Y18993805D01*
X68074872Y18993805D02*
X67997823Y18937825D01*
X67997823Y18937825D02*
X67854259Y18892380D01*
X67854259Y18892380D02*
X67721230Y18913450D01*
X67721230Y18913450D02*
X67626726Y18962510D01*
X67626726Y18962510D02*
X67476242Y19088618D01*
X67476242Y19088618D02*
X67392273Y19204192D01*
X67392273Y19204192D02*
X67318839Y19386280D01*
X67318839Y19386280D02*
X67301384Y19491319D01*
X67301384Y19491319D02*
X67322453Y19624348D01*
X67322453Y19624348D02*
X67410038Y19746842D01*
X67410038Y19746842D02*
X67487087Y19802822D01*
X67487087Y19802822D02*
X67630650Y19848266D01*
X67630650Y19848266D02*
X67697165Y19837732D01*
X68982008Y19770598D02*
X68971473Y19704084D01*
X68971473Y19704084D02*
X68883889Y19581590D01*
X68883889Y19581590D02*
X68806840Y19525610D01*
X68806840Y19525610D02*
X68663276Y19480166D01*
X68663276Y19480166D02*
X68530247Y19501235D01*
X68530247Y19501235D02*
X68435743Y19550295D01*
X68435743Y19550295D02*
X68285259Y19676404D01*
X68285259Y19676404D02*
X68201290Y19791977D01*
X68201290Y19791977D02*
X68127856Y19974066D01*
X68127856Y19974066D02*
X68110401Y20079105D01*
X68110401Y20079105D02*
X68131470Y20212133D01*
X68131470Y20212133D02*
X68219055Y20334627D01*
X68219055Y20334627D02*
X68296104Y20390607D01*
X68296104Y20390607D02*
X68439667Y20436052D01*
X68439667Y20436052D02*
X68506182Y20425517D01*
X70270366Y21137504D02*
X70000693Y20941575D01*
X70308581Y20517804D02*
X69720795Y21326821D01*
X69720795Y21326821D02*
X70106042Y21606719D01*
X70298665Y21746668D02*
X70760960Y22082545D01*
X71117598Y21105590D02*
X70529813Y21914607D01*
X60840476Y26365239D02*
X60983333Y26317620D01*
X60983333Y26317620D02*
X61221428Y26317620D01*
X61221428Y26317620D02*
X61316666Y26365239D01*
X61316666Y26365239D02*
X61364285Y26412858D01*
X61364285Y26412858D02*
X61411904Y26508096D01*
X61411904Y26508096D02*
X61411904Y26603334D01*
X61411904Y26603334D02*
X61364285Y26698572D01*
X61364285Y26698572D02*
X61316666Y26746191D01*
X61316666Y26746191D02*
X61221428Y26793810D01*
X61221428Y26793810D02*
X61030952Y26841429D01*
X61030952Y26841429D02*
X60935714Y26889048D01*
X60935714Y26889048D02*
X60888095Y26936667D01*
X60888095Y26936667D02*
X60840476Y27031905D01*
X60840476Y27031905D02*
X60840476Y27127143D01*
X60840476Y27127143D02*
X60888095Y27222381D01*
X60888095Y27222381D02*
X60935714Y27270000D01*
X60935714Y27270000D02*
X61030952Y27317620D01*
X61030952Y27317620D02*
X61269047Y27317620D01*
X61269047Y27317620D02*
X61411904Y27270000D01*
X61792857Y27222381D02*
X61840476Y27270000D01*
X61840476Y27270000D02*
X61935714Y27317620D01*
X61935714Y27317620D02*
X62173809Y27317620D01*
X62173809Y27317620D02*
X62269047Y27270000D01*
X62269047Y27270000D02*
X62316666Y27222381D01*
X62316666Y27222381D02*
X62364285Y27127143D01*
X62364285Y27127143D02*
X62364285Y27031905D01*
X62364285Y27031905D02*
X62316666Y26889048D01*
X62316666Y26889048D02*
X61745238Y26317620D01*
X61745238Y26317620D02*
X62364285Y26317620D01*
X62792857Y26698572D02*
X63554762Y26698572D01*
X63173809Y26317620D02*
X63173809Y27079524D01*
X86804476Y22240639D02*
X86947333Y22193020D01*
X86947333Y22193020D02*
X87185428Y22193020D01*
X87185428Y22193020D02*
X87280666Y22240639D01*
X87280666Y22240639D02*
X87328285Y22288258D01*
X87328285Y22288258D02*
X87375904Y22383496D01*
X87375904Y22383496D02*
X87375904Y22478734D01*
X87375904Y22478734D02*
X87328285Y22573972D01*
X87328285Y22573972D02*
X87280666Y22621591D01*
X87280666Y22621591D02*
X87185428Y22669210D01*
X87185428Y22669210D02*
X86994952Y22716829D01*
X86994952Y22716829D02*
X86899714Y22764448D01*
X86899714Y22764448D02*
X86852095Y22812067D01*
X86852095Y22812067D02*
X86804476Y22907305D01*
X86804476Y22907305D02*
X86804476Y23002543D01*
X86804476Y23002543D02*
X86852095Y23097781D01*
X86852095Y23097781D02*
X86899714Y23145400D01*
X86899714Y23145400D02*
X86994952Y23193020D01*
X86994952Y23193020D02*
X87233047Y23193020D01*
X87233047Y23193020D02*
X87375904Y23145400D01*
X88328285Y22193020D02*
X87756857Y22193020D01*
X88042571Y22193020D02*
X88042571Y23193020D01*
X88042571Y23193020D02*
X87947333Y23050162D01*
X87947333Y23050162D02*
X87852095Y22954924D01*
X87852095Y22954924D02*
X87756857Y22907305D01*
X89328285Y22288258D02*
X89280666Y22240639D01*
X89280666Y22240639D02*
X89137809Y22193020D01*
X89137809Y22193020D02*
X89042571Y22193020D01*
X89042571Y22193020D02*
X88899714Y22240639D01*
X88899714Y22240639D02*
X88804476Y22335877D01*
X88804476Y22335877D02*
X88756857Y22431115D01*
X88756857Y22431115D02*
X88709238Y22621591D01*
X88709238Y22621591D02*
X88709238Y22764448D01*
X88709238Y22764448D02*
X88756857Y22954924D01*
X88756857Y22954924D02*
X88804476Y23050162D01*
X88804476Y23050162D02*
X88899714Y23145400D01*
X88899714Y23145400D02*
X89042571Y23193020D01*
X89042571Y23193020D02*
X89137809Y23193020D01*
X89137809Y23193020D02*
X89280666Y23145400D01*
X89280666Y23145400D02*
X89328285Y23097781D01*
X20580952Y22270239D02*
X20723809Y22222620D01*
X20723809Y22222620D02*
X20961904Y22222620D01*
X20961904Y22222620D02*
X21057142Y22270239D01*
X21057142Y22270239D02*
X21104761Y22317858D01*
X21104761Y22317858D02*
X21152380Y22413096D01*
X21152380Y22413096D02*
X21152380Y22508334D01*
X21152380Y22508334D02*
X21104761Y22603572D01*
X21104761Y22603572D02*
X21057142Y22651191D01*
X21057142Y22651191D02*
X20961904Y22698810D01*
X20961904Y22698810D02*
X20771428Y22746429D01*
X20771428Y22746429D02*
X20676190Y22794048D01*
X20676190Y22794048D02*
X20628571Y22841667D01*
X20628571Y22841667D02*
X20580952Y22936905D01*
X20580952Y22936905D02*
X20580952Y23032143D01*
X20580952Y23032143D02*
X20628571Y23127381D01*
X20628571Y23127381D02*
X20676190Y23175000D01*
X20676190Y23175000D02*
X20771428Y23222620D01*
X20771428Y23222620D02*
X21009523Y23222620D01*
X21009523Y23222620D02*
X21152380Y23175000D01*
X21580952Y22222620D02*
X21580952Y23222620D01*
X21580952Y23222620D02*
X21819047Y23222620D01*
X21819047Y23222620D02*
X21961904Y23175000D01*
X21961904Y23175000D02*
X22057142Y23079762D01*
X22057142Y23079762D02*
X22104761Y22984524D01*
X22104761Y22984524D02*
X22152380Y22794048D01*
X22152380Y22794048D02*
X22152380Y22651191D01*
X22152380Y22651191D02*
X22104761Y22460715D01*
X22104761Y22460715D02*
X22057142Y22365477D01*
X22057142Y22365477D02*
X21961904Y22270239D01*
X21961904Y22270239D02*
X21819047Y22222620D01*
X21819047Y22222620D02*
X21580952Y22222620D01*
X22533333Y22508334D02*
X23009523Y22508334D01*
X22438095Y22222620D02*
X22771428Y23222620D01*
X22771428Y23222620D02*
X23104761Y22222620D01*
X82315476Y19065239D02*
X82458333Y19017620D01*
X82458333Y19017620D02*
X82696428Y19017620D01*
X82696428Y19017620D02*
X82791666Y19065239D01*
X82791666Y19065239D02*
X82839285Y19112858D01*
X82839285Y19112858D02*
X82886904Y19208096D01*
X82886904Y19208096D02*
X82886904Y19303334D01*
X82886904Y19303334D02*
X82839285Y19398572D01*
X82839285Y19398572D02*
X82791666Y19446191D01*
X82791666Y19446191D02*
X82696428Y19493810D01*
X82696428Y19493810D02*
X82505952Y19541429D01*
X82505952Y19541429D02*
X82410714Y19589048D01*
X82410714Y19589048D02*
X82363095Y19636667D01*
X82363095Y19636667D02*
X82315476Y19731905D01*
X82315476Y19731905D02*
X82315476Y19827143D01*
X82315476Y19827143D02*
X82363095Y19922381D01*
X82363095Y19922381D02*
X82410714Y19970000D01*
X82410714Y19970000D02*
X82505952Y20017620D01*
X82505952Y20017620D02*
X82744047Y20017620D01*
X82744047Y20017620D02*
X82886904Y19970000D01*
X83505952Y20017620D02*
X83696428Y20017620D01*
X83696428Y20017620D02*
X83791666Y19970000D01*
X83791666Y19970000D02*
X83886904Y19874762D01*
X83886904Y19874762D02*
X83934523Y19684286D01*
X83934523Y19684286D02*
X83934523Y19350953D01*
X83934523Y19350953D02*
X83886904Y19160477D01*
X83886904Y19160477D02*
X83791666Y19065239D01*
X83791666Y19065239D02*
X83696428Y19017620D01*
X83696428Y19017620D02*
X83505952Y19017620D01*
X83505952Y19017620D02*
X83410714Y19065239D01*
X83410714Y19065239D02*
X83315476Y19160477D01*
X83315476Y19160477D02*
X83267857Y19350953D01*
X83267857Y19350953D02*
X83267857Y19684286D01*
X83267857Y19684286D02*
X83315476Y19874762D01*
X83315476Y19874762D02*
X83410714Y19970000D01*
X83410714Y19970000D02*
X83505952Y20017620D01*
X84839285Y19017620D02*
X84363095Y19017620D01*
X84363095Y19017620D02*
X84363095Y20017620D01*
X85125000Y19922381D02*
X85172619Y19970000D01*
X85172619Y19970000D02*
X85267857Y20017620D01*
X85267857Y20017620D02*
X85505952Y20017620D01*
X85505952Y20017620D02*
X85601190Y19970000D01*
X85601190Y19970000D02*
X85648809Y19922381D01*
X85648809Y19922381D02*
X85696428Y19827143D01*
X85696428Y19827143D02*
X85696428Y19731905D01*
X85696428Y19731905D02*
X85648809Y19589048D01*
X85648809Y19589048D02*
X85077381Y19017620D01*
X85077381Y19017620D02*
X85696428Y19017620D01*
X86125000Y19398572D02*
X86886905Y19398572D01*
X86505952Y19017620D02*
X86505952Y19779524D01*
X17353571Y22245239D02*
X17496428Y22197620D01*
X17496428Y22197620D02*
X17734523Y22197620D01*
X17734523Y22197620D02*
X17829761Y22245239D01*
X17829761Y22245239D02*
X17877380Y22292858D01*
X17877380Y22292858D02*
X17924999Y22388096D01*
X17924999Y22388096D02*
X17924999Y22483334D01*
X17924999Y22483334D02*
X17877380Y22578572D01*
X17877380Y22578572D02*
X17829761Y22626191D01*
X17829761Y22626191D02*
X17734523Y22673810D01*
X17734523Y22673810D02*
X17544047Y22721429D01*
X17544047Y22721429D02*
X17448809Y22769048D01*
X17448809Y22769048D02*
X17401190Y22816667D01*
X17401190Y22816667D02*
X17353571Y22911905D01*
X17353571Y22911905D02*
X17353571Y23007143D01*
X17353571Y23007143D02*
X17401190Y23102381D01*
X17401190Y23102381D02*
X17448809Y23150000D01*
X17448809Y23150000D02*
X17544047Y23197620D01*
X17544047Y23197620D02*
X17782142Y23197620D01*
X17782142Y23197620D02*
X17924999Y23150000D01*
X18924999Y22292858D02*
X18877380Y22245239D01*
X18877380Y22245239D02*
X18734523Y22197620D01*
X18734523Y22197620D02*
X18639285Y22197620D01*
X18639285Y22197620D02*
X18496428Y22245239D01*
X18496428Y22245239D02*
X18401190Y22340477D01*
X18401190Y22340477D02*
X18353571Y22435715D01*
X18353571Y22435715D02*
X18305952Y22626191D01*
X18305952Y22626191D02*
X18305952Y22769048D01*
X18305952Y22769048D02*
X18353571Y22959524D01*
X18353571Y22959524D02*
X18401190Y23054762D01*
X18401190Y23054762D02*
X18496428Y23150000D01*
X18496428Y23150000D02*
X18639285Y23197620D01*
X18639285Y23197620D02*
X18734523Y23197620D01*
X18734523Y23197620D02*
X18877380Y23150000D01*
X18877380Y23150000D02*
X18924999Y23102381D01*
X19829761Y22197620D02*
X19353571Y22197620D01*
X19353571Y22197620D02*
X19353571Y23197620D01*
D12*
X8188095Y23392620D02*
X8188095Y22583096D01*
X8188095Y22583096D02*
X8235714Y22487858D01*
X8235714Y22487858D02*
X8283333Y22440239D01*
X8283333Y22440239D02*
X8378571Y22392620D01*
X8378571Y22392620D02*
X8569047Y22392620D01*
X8569047Y22392620D02*
X8664285Y22440239D01*
X8664285Y22440239D02*
X8711904Y22487858D01*
X8711904Y22487858D02*
X8759523Y22583096D01*
X8759523Y22583096D02*
X8759523Y23392620D01*
X9235714Y22773572D02*
X9997619Y22773572D01*
D11*
X72285385Y21942010D02*
X72428948Y21987455D01*
X72428948Y21987455D02*
X72621571Y22127403D01*
X72621571Y22127403D02*
X72670631Y22221908D01*
X72670631Y22221908D02*
X72681166Y22288422D01*
X72681166Y22288422D02*
X72663711Y22393461D01*
X72663711Y22393461D02*
X72607731Y22470510D01*
X72607731Y22470510D02*
X72513227Y22519570D01*
X72513227Y22519570D02*
X72446713Y22530105D01*
X72446713Y22530105D02*
X72341674Y22512650D01*
X72341674Y22512650D02*
X72159585Y22439215D01*
X72159585Y22439215D02*
X72054546Y22421760D01*
X72054546Y22421760D02*
X71988032Y22432295D01*
X71988032Y22432295D02*
X71893528Y22481354D01*
X71893528Y22481354D02*
X71837548Y22558404D01*
X71837548Y22558404D02*
X71820093Y22663443D01*
X71820093Y22663443D02*
X71830628Y22729957D01*
X71830628Y22729957D02*
X71879688Y22824461D01*
X71879688Y22824461D02*
X72072311Y22964410D01*
X72072311Y22964410D02*
X72215874Y23009855D01*
X73546162Y22799158D02*
X73083867Y22463281D01*
X73315014Y22631219D02*
X72727229Y23440236D01*
X72727229Y23440236D02*
X72734149Y23268683D01*
X72734149Y23268683D02*
X72713080Y23135654D01*
X72713080Y23135654D02*
X72664020Y23041150D01*
X73854669Y23670765D02*
X73584996Y23474837D01*
X73892884Y23051066D02*
X73305099Y23860083D01*
X73305099Y23860083D02*
X73690345Y24139981D01*
X71040476Y24740239D02*
X71183333Y24692620D01*
X71183333Y24692620D02*
X71421428Y24692620D01*
X71421428Y24692620D02*
X71516666Y24740239D01*
X71516666Y24740239D02*
X71564285Y24787858D01*
X71564285Y24787858D02*
X71611904Y24883096D01*
X71611904Y24883096D02*
X71611904Y24978334D01*
X71611904Y24978334D02*
X71564285Y25073572D01*
X71564285Y25073572D02*
X71516666Y25121191D01*
X71516666Y25121191D02*
X71421428Y25168810D01*
X71421428Y25168810D02*
X71230952Y25216429D01*
X71230952Y25216429D02*
X71135714Y25264048D01*
X71135714Y25264048D02*
X71088095Y25311667D01*
X71088095Y25311667D02*
X71040476Y25406905D01*
X71040476Y25406905D02*
X71040476Y25502143D01*
X71040476Y25502143D02*
X71088095Y25597381D01*
X71088095Y25597381D02*
X71135714Y25645000D01*
X71135714Y25645000D02*
X71230952Y25692620D01*
X71230952Y25692620D02*
X71469047Y25692620D01*
X71469047Y25692620D02*
X71611904Y25645000D01*
X71992857Y25597381D02*
X72040476Y25645000D01*
X72040476Y25645000D02*
X72135714Y25692620D01*
X72135714Y25692620D02*
X72373809Y25692620D01*
X72373809Y25692620D02*
X72469047Y25645000D01*
X72469047Y25645000D02*
X72516666Y25597381D01*
X72516666Y25597381D02*
X72564285Y25502143D01*
X72564285Y25502143D02*
X72564285Y25406905D01*
X72564285Y25406905D02*
X72516666Y25264048D01*
X72516666Y25264048D02*
X71945238Y24692620D01*
X71945238Y24692620D02*
X72564285Y24692620D01*
X72992857Y25073572D02*
X73754762Y25073572D01*
X15090476Y23147620D02*
X15423809Y22147620D01*
X15423809Y22147620D02*
X15757142Y23147620D01*
X16280952Y23147620D02*
X16471428Y23147620D01*
X16471428Y23147620D02*
X16566666Y23100000D01*
X16566666Y23100000D02*
X16661904Y23004762D01*
X16661904Y23004762D02*
X16709523Y22814286D01*
X16709523Y22814286D02*
X16709523Y22480953D01*
X16709523Y22480953D02*
X16661904Y22290477D01*
X16661904Y22290477D02*
X16566666Y22195239D01*
X16566666Y22195239D02*
X16471428Y22147620D01*
X16471428Y22147620D02*
X16280952Y22147620D01*
X16280952Y22147620D02*
X16185714Y22195239D01*
X16185714Y22195239D02*
X16090476Y22290477D01*
X16090476Y22290477D02*
X16042857Y22480953D01*
X16042857Y22480953D02*
X16042857Y22814286D01*
X16042857Y22814286D02*
X16090476Y23004762D01*
X16090476Y23004762D02*
X16185714Y23100000D01*
X16185714Y23100000D02*
X16280952Y23147620D01*
D12*
X5488095Y23442620D02*
X5488095Y22633096D01*
X5488095Y22633096D02*
X5535714Y22537858D01*
X5535714Y22537858D02*
X5583333Y22490239D01*
X5583333Y22490239D02*
X5678571Y22442620D01*
X5678571Y22442620D02*
X5869047Y22442620D01*
X5869047Y22442620D02*
X5964285Y22490239D01*
X5964285Y22490239D02*
X6011904Y22537858D01*
X6011904Y22537858D02*
X6059523Y22633096D01*
X6059523Y22633096D02*
X6059523Y23442620D01*
X6535714Y22823572D02*
X7297619Y22823572D01*
X6916666Y22442620D02*
X6916666Y23204524D01*
D11*
X67723965Y15590430D02*
X67618926Y15572975D01*
X67618926Y15572975D02*
X67503352Y15489006D01*
X67503352Y15489006D02*
X67415768Y15366512D01*
X67415768Y15366512D02*
X67394699Y15233483D01*
X67394699Y15233483D02*
X67412154Y15128444D01*
X67412154Y15128444D02*
X67485588Y14946356D01*
X67485588Y14946356D02*
X67569557Y14830782D01*
X67569557Y14830782D02*
X67720041Y14704673D01*
X67720041Y14704673D02*
X67814545Y14655614D01*
X67814545Y14655614D02*
X67947574Y14634544D01*
X67947574Y14634544D02*
X68091138Y14679989D01*
X68091138Y14679989D02*
X68168187Y14735968D01*
X68168187Y14735968D02*
X68255771Y14858462D01*
X68255771Y14858462D02*
X68266306Y14924976D01*
X68266306Y14924976D02*
X68070377Y15194649D01*
X68070377Y15194649D02*
X67916279Y15082690D01*
X67965648Y15824883D02*
X68427943Y16160760D01*
X68784581Y15183805D02*
X68196796Y15992822D01*
X69285401Y15547672D02*
X68697616Y16356689D01*
X68697616Y16356689D02*
X68890239Y16496638D01*
X68890239Y16496638D02*
X69033803Y16542082D01*
X69033803Y16542082D02*
X69166831Y16521013D01*
X69166831Y16521013D02*
X69261336Y16471953D01*
X69261336Y16471953D02*
X69411819Y16345844D01*
X69411819Y16345844D02*
X69495789Y16230271D01*
X69495789Y16230271D02*
X69569223Y16048182D01*
X69569223Y16048182D02*
X69586678Y15943143D01*
X69586678Y15943143D02*
X69565608Y15810115D01*
X69565608Y15810115D02*
X69478024Y15687621D01*
X69478024Y15687621D02*
X69285401Y15547672D01*
X73124434Y18187989D02*
X73267997Y18233434D01*
X73267997Y18233434D02*
X73460620Y18373383D01*
X73460620Y18373383D02*
X73509680Y18467887D01*
X73509680Y18467887D02*
X73520215Y18534401D01*
X73520215Y18534401D02*
X73502760Y18639440D01*
X73502760Y18639440D02*
X73446780Y18716490D01*
X73446780Y18716490D02*
X73352276Y18765549D01*
X73352276Y18765549D02*
X73285762Y18776084D01*
X73285762Y18776084D02*
X73180723Y18758629D01*
X73180723Y18758629D02*
X72998634Y18685195D01*
X72998634Y18685195D02*
X72893595Y18667740D01*
X72893595Y18667740D02*
X72827081Y18678275D01*
X72827081Y18678275D02*
X72732577Y18727334D01*
X72732577Y18727334D02*
X72676597Y18804383D01*
X72676597Y18804383D02*
X72659142Y18909422D01*
X72659142Y18909422D02*
X72669677Y18975937D01*
X72669677Y18975937D02*
X72718737Y19070441D01*
X72718737Y19070441D02*
X72911360Y19210390D01*
X72911360Y19210390D02*
X73054923Y19255834D01*
X74385211Y19045137D02*
X73922916Y18709260D01*
X74154064Y18877199D02*
X73566278Y19686216D01*
X73566278Y19686216D02*
X73573198Y19514662D01*
X73573198Y19514662D02*
X73552129Y19381634D01*
X73552129Y19381634D02*
X73503069Y19287129D01*
X74028574Y20022093D02*
X74490869Y20357970D01*
X74847507Y19381015D02*
X74259722Y20190032D01*
X91915931Y14328805D02*
X91744732Y14245305D01*
X91744732Y14245305D02*
X91680008Y14160756D01*
X91680008Y14160756D02*
X91658083Y14097081D01*
X91658083Y14097081D02*
X91635108Y13926933D01*
X91635108Y13926933D02*
X91675808Y13734859D01*
X91675808Y13734859D02*
X91842806Y13392461D01*
X91842806Y13392461D02*
X91927355Y13327737D01*
X91927355Y13327737D02*
X91991030Y13305812D01*
X91991030Y13305812D02*
X92097504Y13304762D01*
X92097504Y13304762D02*
X92268703Y13388261D01*
X92268703Y13388261D02*
X92333428Y13472810D01*
X92333428Y13472810D02*
X92355353Y13536485D01*
X92355353Y13536485D02*
X92356403Y13642959D01*
X92356403Y13642959D02*
X92252029Y13856958D01*
X92252029Y13856958D02*
X92167479Y13921682D01*
X92167479Y13921682D02*
X92103805Y13943607D01*
X92103805Y13943607D02*
X91997330Y13944657D01*
X91997330Y13944657D02*
X91826132Y13861158D01*
X91826132Y13861158D02*
X91761407Y13776609D01*
X91761407Y13776609D02*
X91739482Y13712934D01*
X91739482Y13712934D02*
X91738432Y13606460D01*
X92258329Y14495803D02*
X92996298Y13743133D01*
X92996298Y13743133D02*
X92857525Y14788051D01*
%TO.C,D1*%
X16986905Y1582620D02*
X16986905Y2582620D01*
X16986905Y2582620D02*
X17225000Y2582620D01*
X17225000Y2582620D02*
X17367857Y2535000D01*
X17367857Y2535000D02*
X17463095Y2439762D01*
X17463095Y2439762D02*
X17510714Y2344524D01*
X17510714Y2344524D02*
X17558333Y2154048D01*
X17558333Y2154048D02*
X17558333Y2011191D01*
X17558333Y2011191D02*
X17510714Y1820715D01*
X17510714Y1820715D02*
X17463095Y1725477D01*
X17463095Y1725477D02*
X17367857Y1630239D01*
X17367857Y1630239D02*
X17225000Y1582620D01*
X17225000Y1582620D02*
X16986905Y1582620D01*
X18510714Y1582620D02*
X17939286Y1582620D01*
X18225000Y1582620D02*
X18225000Y2582620D01*
X18225000Y2582620D02*
X18129762Y2439762D01*
X18129762Y2439762D02*
X18034524Y2344524D01*
X18034524Y2344524D02*
X17939286Y2296905D01*
%TO.C,R10*%
X26217380Y19982143D02*
X25741190Y19648810D01*
X26217380Y19410715D02*
X25217380Y19410715D01*
X25217380Y19410715D02*
X25217380Y19791667D01*
X25217380Y19791667D02*
X25265000Y19886905D01*
X25265000Y19886905D02*
X25312619Y19934524D01*
X25312619Y19934524D02*
X25407857Y19982143D01*
X25407857Y19982143D02*
X25550714Y19982143D01*
X25550714Y19982143D02*
X25645952Y19934524D01*
X25645952Y19934524D02*
X25693571Y19886905D01*
X25693571Y19886905D02*
X25741190Y19791667D01*
X25741190Y19791667D02*
X25741190Y19410715D01*
X26217380Y20934524D02*
X26217380Y20363096D01*
X26217380Y20648810D02*
X25217380Y20648810D01*
X25217380Y20648810D02*
X25360238Y20553572D01*
X25360238Y20553572D02*
X25455476Y20458334D01*
X25455476Y20458334D02*
X25503095Y20363096D01*
X25217380Y21553572D02*
X25217380Y21648810D01*
X25217380Y21648810D02*
X25265000Y21744048D01*
X25265000Y21744048D02*
X25312619Y21791667D01*
X25312619Y21791667D02*
X25407857Y21839286D01*
X25407857Y21839286D02*
X25598333Y21886905D01*
X25598333Y21886905D02*
X25836428Y21886905D01*
X25836428Y21886905D02*
X26026904Y21839286D01*
X26026904Y21839286D02*
X26122142Y21791667D01*
X26122142Y21791667D02*
X26169761Y21744048D01*
X26169761Y21744048D02*
X26217380Y21648810D01*
X26217380Y21648810D02*
X26217380Y21553572D01*
X26217380Y21553572D02*
X26169761Y21458334D01*
X26169761Y21458334D02*
X26122142Y21410715D01*
X26122142Y21410715D02*
X26026904Y21363096D01*
X26026904Y21363096D02*
X25836428Y21315477D01*
X25836428Y21315477D02*
X25598333Y21315477D01*
X25598333Y21315477D02*
X25407857Y21363096D01*
X25407857Y21363096D02*
X25312619Y21410715D01*
X25312619Y21410715D02*
X25265000Y21458334D01*
X25265000Y21458334D02*
X25217380Y21553572D01*
%TO.C,R35*%
X22732142Y14057620D02*
X22398809Y14533810D01*
X22160714Y14057620D02*
X22160714Y15057620D01*
X22160714Y15057620D02*
X22541666Y15057620D01*
X22541666Y15057620D02*
X22636904Y15010000D01*
X22636904Y15010000D02*
X22684523Y14962381D01*
X22684523Y14962381D02*
X22732142Y14867143D01*
X22732142Y14867143D02*
X22732142Y14724286D01*
X22732142Y14724286D02*
X22684523Y14629048D01*
X22684523Y14629048D02*
X22636904Y14581429D01*
X22636904Y14581429D02*
X22541666Y14533810D01*
X22541666Y14533810D02*
X22160714Y14533810D01*
X23065476Y15057620D02*
X23684523Y15057620D01*
X23684523Y15057620D02*
X23351190Y14676667D01*
X23351190Y14676667D02*
X23494047Y14676667D01*
X23494047Y14676667D02*
X23589285Y14629048D01*
X23589285Y14629048D02*
X23636904Y14581429D01*
X23636904Y14581429D02*
X23684523Y14486191D01*
X23684523Y14486191D02*
X23684523Y14248096D01*
X23684523Y14248096D02*
X23636904Y14152858D01*
X23636904Y14152858D02*
X23589285Y14105239D01*
X23589285Y14105239D02*
X23494047Y14057620D01*
X23494047Y14057620D02*
X23208333Y14057620D01*
X23208333Y14057620D02*
X23113095Y14105239D01*
X23113095Y14105239D02*
X23065476Y14152858D01*
X24589285Y15057620D02*
X24113095Y15057620D01*
X24113095Y15057620D02*
X24065476Y14581429D01*
X24065476Y14581429D02*
X24113095Y14629048D01*
X24113095Y14629048D02*
X24208333Y14676667D01*
X24208333Y14676667D02*
X24446428Y14676667D01*
X24446428Y14676667D02*
X24541666Y14629048D01*
X24541666Y14629048D02*
X24589285Y14581429D01*
X24589285Y14581429D02*
X24636904Y14486191D01*
X24636904Y14486191D02*
X24636904Y14248096D01*
X24636904Y14248096D02*
X24589285Y14152858D01*
X24589285Y14152858D02*
X24541666Y14105239D01*
X24541666Y14105239D02*
X24446428Y14057620D01*
X24446428Y14057620D02*
X24208333Y14057620D01*
X24208333Y14057620D02*
X24113095Y14105239D01*
X24113095Y14105239D02*
X24065476Y14152858D01*
%TO.C,C8*%
X6497142Y16758334D02*
X6544761Y16710715D01*
X6544761Y16710715D02*
X6592380Y16567858D01*
X6592380Y16567858D02*
X6592380Y16472620D01*
X6592380Y16472620D02*
X6544761Y16329763D01*
X6544761Y16329763D02*
X6449523Y16234525D01*
X6449523Y16234525D02*
X6354285Y16186906D01*
X6354285Y16186906D02*
X6163809Y16139287D01*
X6163809Y16139287D02*
X6020952Y16139287D01*
X6020952Y16139287D02*
X5830476Y16186906D01*
X5830476Y16186906D02*
X5735238Y16234525D01*
X5735238Y16234525D02*
X5640000Y16329763D01*
X5640000Y16329763D02*
X5592380Y16472620D01*
X5592380Y16472620D02*
X5592380Y16567858D01*
X5592380Y16567858D02*
X5640000Y16710715D01*
X5640000Y16710715D02*
X5687619Y16758334D01*
X6020952Y17329763D02*
X5973333Y17234525D01*
X5973333Y17234525D02*
X5925714Y17186906D01*
X5925714Y17186906D02*
X5830476Y17139287D01*
X5830476Y17139287D02*
X5782857Y17139287D01*
X5782857Y17139287D02*
X5687619Y17186906D01*
X5687619Y17186906D02*
X5640000Y17234525D01*
X5640000Y17234525D02*
X5592380Y17329763D01*
X5592380Y17329763D02*
X5592380Y17520239D01*
X5592380Y17520239D02*
X5640000Y17615477D01*
X5640000Y17615477D02*
X5687619Y17663096D01*
X5687619Y17663096D02*
X5782857Y17710715D01*
X5782857Y17710715D02*
X5830476Y17710715D01*
X5830476Y17710715D02*
X5925714Y17663096D01*
X5925714Y17663096D02*
X5973333Y17615477D01*
X5973333Y17615477D02*
X6020952Y17520239D01*
X6020952Y17520239D02*
X6020952Y17329763D01*
X6020952Y17329763D02*
X6068571Y17234525D01*
X6068571Y17234525D02*
X6116190Y17186906D01*
X6116190Y17186906D02*
X6211428Y17139287D01*
X6211428Y17139287D02*
X6401904Y17139287D01*
X6401904Y17139287D02*
X6497142Y17186906D01*
X6497142Y17186906D02*
X6544761Y17234525D01*
X6544761Y17234525D02*
X6592380Y17329763D01*
X6592380Y17329763D02*
X6592380Y17520239D01*
X6592380Y17520239D02*
X6544761Y17615477D01*
X6544761Y17615477D02*
X6497142Y17663096D01*
X6497142Y17663096D02*
X6401904Y17710715D01*
X6401904Y17710715D02*
X6211428Y17710715D01*
X6211428Y17710715D02*
X6116190Y17663096D01*
X6116190Y17663096D02*
X6068571Y17615477D01*
X6068571Y17615477D02*
X6020952Y17520239D01*
%TO.C,R12*%
X14682142Y19632620D02*
X14348809Y20108810D01*
X14110714Y19632620D02*
X14110714Y20632620D01*
X14110714Y20632620D02*
X14491666Y20632620D01*
X14491666Y20632620D02*
X14586904Y20585000D01*
X14586904Y20585000D02*
X14634523Y20537381D01*
X14634523Y20537381D02*
X14682142Y20442143D01*
X14682142Y20442143D02*
X14682142Y20299286D01*
X14682142Y20299286D02*
X14634523Y20204048D01*
X14634523Y20204048D02*
X14586904Y20156429D01*
X14586904Y20156429D02*
X14491666Y20108810D01*
X14491666Y20108810D02*
X14110714Y20108810D01*
X15634523Y19632620D02*
X15063095Y19632620D01*
X15348809Y19632620D02*
X15348809Y20632620D01*
X15348809Y20632620D02*
X15253571Y20489762D01*
X15253571Y20489762D02*
X15158333Y20394524D01*
X15158333Y20394524D02*
X15063095Y20346905D01*
X16015476Y20537381D02*
X16063095Y20585000D01*
X16063095Y20585000D02*
X16158333Y20632620D01*
X16158333Y20632620D02*
X16396428Y20632620D01*
X16396428Y20632620D02*
X16491666Y20585000D01*
X16491666Y20585000D02*
X16539285Y20537381D01*
X16539285Y20537381D02*
X16586904Y20442143D01*
X16586904Y20442143D02*
X16586904Y20346905D01*
X16586904Y20346905D02*
X16539285Y20204048D01*
X16539285Y20204048D02*
X15967857Y19632620D01*
X15967857Y19632620D02*
X16586904Y19632620D01*
%TO.C,R34*%
X9907142Y21832620D02*
X9573809Y22308810D01*
X9335714Y21832620D02*
X9335714Y22832620D01*
X9335714Y22832620D02*
X9716666Y22832620D01*
X9716666Y22832620D02*
X9811904Y22785000D01*
X9811904Y22785000D02*
X9859523Y22737381D01*
X9859523Y22737381D02*
X9907142Y22642143D01*
X9907142Y22642143D02*
X9907142Y22499286D01*
X9907142Y22499286D02*
X9859523Y22404048D01*
X9859523Y22404048D02*
X9811904Y22356429D01*
X9811904Y22356429D02*
X9716666Y22308810D01*
X9716666Y22308810D02*
X9335714Y22308810D01*
X10240476Y22832620D02*
X10859523Y22832620D01*
X10859523Y22832620D02*
X10526190Y22451667D01*
X10526190Y22451667D02*
X10669047Y22451667D01*
X10669047Y22451667D02*
X10764285Y22404048D01*
X10764285Y22404048D02*
X10811904Y22356429D01*
X10811904Y22356429D02*
X10859523Y22261191D01*
X10859523Y22261191D02*
X10859523Y22023096D01*
X10859523Y22023096D02*
X10811904Y21927858D01*
X10811904Y21927858D02*
X10764285Y21880239D01*
X10764285Y21880239D02*
X10669047Y21832620D01*
X10669047Y21832620D02*
X10383333Y21832620D01*
X10383333Y21832620D02*
X10288095Y21880239D01*
X10288095Y21880239D02*
X10240476Y21927858D01*
X11716666Y22499286D02*
X11716666Y21832620D01*
X11478571Y22880239D02*
X11240476Y22165953D01*
X11240476Y22165953D02*
X11859523Y22165953D01*
%TO.C,R1*%
X7767380Y15958334D02*
X7291190Y15625001D01*
X7767380Y15386906D02*
X6767380Y15386906D01*
X6767380Y15386906D02*
X6767380Y15767858D01*
X6767380Y15767858D02*
X6815000Y15863096D01*
X6815000Y15863096D02*
X6862619Y15910715D01*
X6862619Y15910715D02*
X6957857Y15958334D01*
X6957857Y15958334D02*
X7100714Y15958334D01*
X7100714Y15958334D02*
X7195952Y15910715D01*
X7195952Y15910715D02*
X7243571Y15863096D01*
X7243571Y15863096D02*
X7291190Y15767858D01*
X7291190Y15767858D02*
X7291190Y15386906D01*
X7767380Y16910715D02*
X7767380Y16339287D01*
X7767380Y16625001D02*
X6767380Y16625001D01*
X6767380Y16625001D02*
X6910238Y16529763D01*
X6910238Y16529763D02*
X7005476Y16434525D01*
X7005476Y16434525D02*
X7053095Y16339287D01*
%TO.C,Q3*%
X73979761Y7637381D02*
X73884523Y7685000D01*
X73884523Y7685000D02*
X73789285Y7780239D01*
X73789285Y7780239D02*
X73646428Y7923096D01*
X73646428Y7923096D02*
X73551190Y7970715D01*
X73551190Y7970715D02*
X73455952Y7970715D01*
X73503571Y7732620D02*
X73408333Y7780239D01*
X73408333Y7780239D02*
X73313095Y7875477D01*
X73313095Y7875477D02*
X73265476Y8065953D01*
X73265476Y8065953D02*
X73265476Y8399286D01*
X73265476Y8399286D02*
X73313095Y8589762D01*
X73313095Y8589762D02*
X73408333Y8685000D01*
X73408333Y8685000D02*
X73503571Y8732620D01*
X73503571Y8732620D02*
X73694047Y8732620D01*
X73694047Y8732620D02*
X73789285Y8685000D01*
X73789285Y8685000D02*
X73884523Y8589762D01*
X73884523Y8589762D02*
X73932142Y8399286D01*
X73932142Y8399286D02*
X73932142Y8065953D01*
X73932142Y8065953D02*
X73884523Y7875477D01*
X73884523Y7875477D02*
X73789285Y7780239D01*
X73789285Y7780239D02*
X73694047Y7732620D01*
X73694047Y7732620D02*
X73503571Y7732620D01*
X74265476Y8732620D02*
X74884523Y8732620D01*
X74884523Y8732620D02*
X74551190Y8351667D01*
X74551190Y8351667D02*
X74694047Y8351667D01*
X74694047Y8351667D02*
X74789285Y8304048D01*
X74789285Y8304048D02*
X74836904Y8256429D01*
X74836904Y8256429D02*
X74884523Y8161191D01*
X74884523Y8161191D02*
X74884523Y7923096D01*
X74884523Y7923096D02*
X74836904Y7827858D01*
X74836904Y7827858D02*
X74789285Y7780239D01*
X74789285Y7780239D02*
X74694047Y7732620D01*
X74694047Y7732620D02*
X74408333Y7732620D01*
X74408333Y7732620D02*
X74313095Y7780239D01*
X74313095Y7780239D02*
X74265476Y7827858D01*
%TO.C,Q2*%
X87954761Y24287381D02*
X87859523Y24335000D01*
X87859523Y24335000D02*
X87764285Y24430239D01*
X87764285Y24430239D02*
X87621428Y24573096D01*
X87621428Y24573096D02*
X87526190Y24620715D01*
X87526190Y24620715D02*
X87430952Y24620715D01*
X87478571Y24382620D02*
X87383333Y24430239D01*
X87383333Y24430239D02*
X87288095Y24525477D01*
X87288095Y24525477D02*
X87240476Y24715953D01*
X87240476Y24715953D02*
X87240476Y25049286D01*
X87240476Y25049286D02*
X87288095Y25239762D01*
X87288095Y25239762D02*
X87383333Y25335000D01*
X87383333Y25335000D02*
X87478571Y25382620D01*
X87478571Y25382620D02*
X87669047Y25382620D01*
X87669047Y25382620D02*
X87764285Y25335000D01*
X87764285Y25335000D02*
X87859523Y25239762D01*
X87859523Y25239762D02*
X87907142Y25049286D01*
X87907142Y25049286D02*
X87907142Y24715953D01*
X87907142Y24715953D02*
X87859523Y24525477D01*
X87859523Y24525477D02*
X87764285Y24430239D01*
X87764285Y24430239D02*
X87669047Y24382620D01*
X87669047Y24382620D02*
X87478571Y24382620D01*
X88288095Y25287381D02*
X88335714Y25335000D01*
X88335714Y25335000D02*
X88430952Y25382620D01*
X88430952Y25382620D02*
X88669047Y25382620D01*
X88669047Y25382620D02*
X88764285Y25335000D01*
X88764285Y25335000D02*
X88811904Y25287381D01*
X88811904Y25287381D02*
X88859523Y25192143D01*
X88859523Y25192143D02*
X88859523Y25096905D01*
X88859523Y25096905D02*
X88811904Y24954048D01*
X88811904Y24954048D02*
X88240476Y24382620D01*
X88240476Y24382620D02*
X88859523Y24382620D01*
%TO.C,R25*%
X80457142Y17757620D02*
X80123809Y18233810D01*
X79885714Y17757620D02*
X79885714Y18757620D01*
X79885714Y18757620D02*
X80266666Y18757620D01*
X80266666Y18757620D02*
X80361904Y18710000D01*
X80361904Y18710000D02*
X80409523Y18662381D01*
X80409523Y18662381D02*
X80457142Y18567143D01*
X80457142Y18567143D02*
X80457142Y18424286D01*
X80457142Y18424286D02*
X80409523Y18329048D01*
X80409523Y18329048D02*
X80361904Y18281429D01*
X80361904Y18281429D02*
X80266666Y18233810D01*
X80266666Y18233810D02*
X79885714Y18233810D01*
X80838095Y18662381D02*
X80885714Y18710000D01*
X80885714Y18710000D02*
X80980952Y18757620D01*
X80980952Y18757620D02*
X81219047Y18757620D01*
X81219047Y18757620D02*
X81314285Y18710000D01*
X81314285Y18710000D02*
X81361904Y18662381D01*
X81361904Y18662381D02*
X81409523Y18567143D01*
X81409523Y18567143D02*
X81409523Y18471905D01*
X81409523Y18471905D02*
X81361904Y18329048D01*
X81361904Y18329048D02*
X80790476Y17757620D01*
X80790476Y17757620D02*
X81409523Y17757620D01*
X82314285Y18757620D02*
X81838095Y18757620D01*
X81838095Y18757620D02*
X81790476Y18281429D01*
X81790476Y18281429D02*
X81838095Y18329048D01*
X81838095Y18329048D02*
X81933333Y18376667D01*
X81933333Y18376667D02*
X82171428Y18376667D01*
X82171428Y18376667D02*
X82266666Y18329048D01*
X82266666Y18329048D02*
X82314285Y18281429D01*
X82314285Y18281429D02*
X82361904Y18186191D01*
X82361904Y18186191D02*
X82361904Y17948096D01*
X82361904Y17948096D02*
X82314285Y17852858D01*
X82314285Y17852858D02*
X82266666Y17805239D01*
X82266666Y17805239D02*
X82171428Y17757620D01*
X82171428Y17757620D02*
X81933333Y17757620D01*
X81933333Y17757620D02*
X81838095Y17805239D01*
X81838095Y17805239D02*
X81790476Y17852858D01*
%TO.C,Q1*%
X82354761Y11337381D02*
X82259523Y11385000D01*
X82259523Y11385000D02*
X82164285Y11480239D01*
X82164285Y11480239D02*
X82021428Y11623096D01*
X82021428Y11623096D02*
X81926190Y11670715D01*
X81926190Y11670715D02*
X81830952Y11670715D01*
X81878571Y11432620D02*
X81783333Y11480239D01*
X81783333Y11480239D02*
X81688095Y11575477D01*
X81688095Y11575477D02*
X81640476Y11765953D01*
X81640476Y11765953D02*
X81640476Y12099286D01*
X81640476Y12099286D02*
X81688095Y12289762D01*
X81688095Y12289762D02*
X81783333Y12385000D01*
X81783333Y12385000D02*
X81878571Y12432620D01*
X81878571Y12432620D02*
X82069047Y12432620D01*
X82069047Y12432620D02*
X82164285Y12385000D01*
X82164285Y12385000D02*
X82259523Y12289762D01*
X82259523Y12289762D02*
X82307142Y12099286D01*
X82307142Y12099286D02*
X82307142Y11765953D01*
X82307142Y11765953D02*
X82259523Y11575477D01*
X82259523Y11575477D02*
X82164285Y11480239D01*
X82164285Y11480239D02*
X82069047Y11432620D01*
X82069047Y11432620D02*
X81878571Y11432620D01*
X83259523Y11432620D02*
X82688095Y11432620D01*
X82973809Y11432620D02*
X82973809Y12432620D01*
X82973809Y12432620D02*
X82878571Y12289762D01*
X82878571Y12289762D02*
X82783333Y12194524D01*
X82783333Y12194524D02*
X82688095Y12146905D01*
%TO.C,R15*%
X73617380Y15682143D02*
X73141190Y15348810D01*
X73617380Y15110715D02*
X72617380Y15110715D01*
X72617380Y15110715D02*
X72617380Y15491667D01*
X72617380Y15491667D02*
X72665000Y15586905D01*
X72665000Y15586905D02*
X72712619Y15634524D01*
X72712619Y15634524D02*
X72807857Y15682143D01*
X72807857Y15682143D02*
X72950714Y15682143D01*
X72950714Y15682143D02*
X73045952Y15634524D01*
X73045952Y15634524D02*
X73093571Y15586905D01*
X73093571Y15586905D02*
X73141190Y15491667D01*
X73141190Y15491667D02*
X73141190Y15110715D01*
X73617380Y16634524D02*
X73617380Y16063096D01*
X73617380Y16348810D02*
X72617380Y16348810D01*
X72617380Y16348810D02*
X72760238Y16253572D01*
X72760238Y16253572D02*
X72855476Y16158334D01*
X72855476Y16158334D02*
X72903095Y16063096D01*
X72617380Y17539286D02*
X72617380Y17063096D01*
X72617380Y17063096D02*
X73093571Y17015477D01*
X73093571Y17015477D02*
X73045952Y17063096D01*
X73045952Y17063096D02*
X72998333Y17158334D01*
X72998333Y17158334D02*
X72998333Y17396429D01*
X72998333Y17396429D02*
X73045952Y17491667D01*
X73045952Y17491667D02*
X73093571Y17539286D01*
X73093571Y17539286D02*
X73188809Y17586905D01*
X73188809Y17586905D02*
X73426904Y17586905D01*
X73426904Y17586905D02*
X73522142Y17539286D01*
X73522142Y17539286D02*
X73569761Y17491667D01*
X73569761Y17491667D02*
X73617380Y17396429D01*
X73617380Y17396429D02*
X73617380Y17158334D01*
X73617380Y17158334D02*
X73569761Y17063096D01*
X73569761Y17063096D02*
X73522142Y17015477D01*
%TO.C,Q4*%
X62629761Y21187381D02*
X62534523Y21235000D01*
X62534523Y21235000D02*
X62439285Y21330239D01*
X62439285Y21330239D02*
X62296428Y21473096D01*
X62296428Y21473096D02*
X62201190Y21520715D01*
X62201190Y21520715D02*
X62105952Y21520715D01*
X62153571Y21282620D02*
X62058333Y21330239D01*
X62058333Y21330239D02*
X61963095Y21425477D01*
X61963095Y21425477D02*
X61915476Y21615953D01*
X61915476Y21615953D02*
X61915476Y21949286D01*
X61915476Y21949286D02*
X61963095Y22139762D01*
X61963095Y22139762D02*
X62058333Y22235000D01*
X62058333Y22235000D02*
X62153571Y22282620D01*
X62153571Y22282620D02*
X62344047Y22282620D01*
X62344047Y22282620D02*
X62439285Y22235000D01*
X62439285Y22235000D02*
X62534523Y22139762D01*
X62534523Y22139762D02*
X62582142Y21949286D01*
X62582142Y21949286D02*
X62582142Y21615953D01*
X62582142Y21615953D02*
X62534523Y21425477D01*
X62534523Y21425477D02*
X62439285Y21330239D01*
X62439285Y21330239D02*
X62344047Y21282620D01*
X62344047Y21282620D02*
X62153571Y21282620D01*
X63439285Y21949286D02*
X63439285Y21282620D01*
X63201190Y22330239D02*
X62963095Y21615953D01*
X62963095Y21615953D02*
X63582142Y21615953D01*
%TO.C,C4*%
X16022142Y5683334D02*
X16069761Y5635715D01*
X16069761Y5635715D02*
X16117380Y5492858D01*
X16117380Y5492858D02*
X16117380Y5397620D01*
X16117380Y5397620D02*
X16069761Y5254763D01*
X16069761Y5254763D02*
X15974523Y5159525D01*
X15974523Y5159525D02*
X15879285Y5111906D01*
X15879285Y5111906D02*
X15688809Y5064287D01*
X15688809Y5064287D02*
X15545952Y5064287D01*
X15545952Y5064287D02*
X15355476Y5111906D01*
X15355476Y5111906D02*
X15260238Y5159525D01*
X15260238Y5159525D02*
X15165000Y5254763D01*
X15165000Y5254763D02*
X15117380Y5397620D01*
X15117380Y5397620D02*
X15117380Y5492858D01*
X15117380Y5492858D02*
X15165000Y5635715D01*
X15165000Y5635715D02*
X15212619Y5683334D01*
X15450714Y6540477D02*
X16117380Y6540477D01*
X15069761Y6302382D02*
X15784047Y6064287D01*
X15784047Y6064287D02*
X15784047Y6683334D01*
%TO.C,C14*%
X1107142Y11172858D02*
X1059523Y11125239D01*
X1059523Y11125239D02*
X916666Y11077620D01*
X916666Y11077620D02*
X821428Y11077620D01*
X821428Y11077620D02*
X678571Y11125239D01*
X678571Y11125239D02*
X583333Y11220477D01*
X583333Y11220477D02*
X535714Y11315715D01*
X535714Y11315715D02*
X488095Y11506191D01*
X488095Y11506191D02*
X488095Y11649048D01*
X488095Y11649048D02*
X535714Y11839524D01*
X535714Y11839524D02*
X583333Y11934762D01*
X583333Y11934762D02*
X678571Y12030000D01*
X678571Y12030000D02*
X821428Y12077620D01*
X821428Y12077620D02*
X916666Y12077620D01*
X916666Y12077620D02*
X1059523Y12030000D01*
X1059523Y12030000D02*
X1107142Y11982381D01*
X2059523Y11077620D02*
X1488095Y11077620D01*
X1773809Y11077620D02*
X1773809Y12077620D01*
X1773809Y12077620D02*
X1678571Y11934762D01*
X1678571Y11934762D02*
X1583333Y11839524D01*
X1583333Y11839524D02*
X1488095Y11791905D01*
X2916666Y11744286D02*
X2916666Y11077620D01*
X2678571Y12125239D02*
X2440476Y11410953D01*
X2440476Y11410953D02*
X3059523Y11410953D01*
%TO.C,R31*%
X69642380Y22457143D02*
X69166190Y22123810D01*
X69642380Y21885715D02*
X68642380Y21885715D01*
X68642380Y21885715D02*
X68642380Y22266667D01*
X68642380Y22266667D02*
X68690000Y22361905D01*
X68690000Y22361905D02*
X68737619Y22409524D01*
X68737619Y22409524D02*
X68832857Y22457143D01*
X68832857Y22457143D02*
X68975714Y22457143D01*
X68975714Y22457143D02*
X69070952Y22409524D01*
X69070952Y22409524D02*
X69118571Y22361905D01*
X69118571Y22361905D02*
X69166190Y22266667D01*
X69166190Y22266667D02*
X69166190Y21885715D01*
X68642380Y22790477D02*
X68642380Y23409524D01*
X68642380Y23409524D02*
X69023333Y23076191D01*
X69023333Y23076191D02*
X69023333Y23219048D01*
X69023333Y23219048D02*
X69070952Y23314286D01*
X69070952Y23314286D02*
X69118571Y23361905D01*
X69118571Y23361905D02*
X69213809Y23409524D01*
X69213809Y23409524D02*
X69451904Y23409524D01*
X69451904Y23409524D02*
X69547142Y23361905D01*
X69547142Y23361905D02*
X69594761Y23314286D01*
X69594761Y23314286D02*
X69642380Y23219048D01*
X69642380Y23219048D02*
X69642380Y22933334D01*
X69642380Y22933334D02*
X69594761Y22838096D01*
X69594761Y22838096D02*
X69547142Y22790477D01*
X69642380Y24361905D02*
X69642380Y23790477D01*
X69642380Y24076191D02*
X68642380Y24076191D01*
X68642380Y24076191D02*
X68785238Y23980953D01*
X68785238Y23980953D02*
X68880476Y23885715D01*
X68880476Y23885715D02*
X68928095Y23790477D01*
%TO.C,C6*%
X6072142Y21008334D02*
X6119761Y20960715D01*
X6119761Y20960715D02*
X6167380Y20817858D01*
X6167380Y20817858D02*
X6167380Y20722620D01*
X6167380Y20722620D02*
X6119761Y20579763D01*
X6119761Y20579763D02*
X6024523Y20484525D01*
X6024523Y20484525D02*
X5929285Y20436906D01*
X5929285Y20436906D02*
X5738809Y20389287D01*
X5738809Y20389287D02*
X5595952Y20389287D01*
X5595952Y20389287D02*
X5405476Y20436906D01*
X5405476Y20436906D02*
X5310238Y20484525D01*
X5310238Y20484525D02*
X5215000Y20579763D01*
X5215000Y20579763D02*
X5167380Y20722620D01*
X5167380Y20722620D02*
X5167380Y20817858D01*
X5167380Y20817858D02*
X5215000Y20960715D01*
X5215000Y20960715D02*
X5262619Y21008334D01*
X5167380Y21865477D02*
X5167380Y21675001D01*
X5167380Y21675001D02*
X5215000Y21579763D01*
X5215000Y21579763D02*
X5262619Y21532144D01*
X5262619Y21532144D02*
X5405476Y21436906D01*
X5405476Y21436906D02*
X5595952Y21389287D01*
X5595952Y21389287D02*
X5976904Y21389287D01*
X5976904Y21389287D02*
X6072142Y21436906D01*
X6072142Y21436906D02*
X6119761Y21484525D01*
X6119761Y21484525D02*
X6167380Y21579763D01*
X6167380Y21579763D02*
X6167380Y21770239D01*
X6167380Y21770239D02*
X6119761Y21865477D01*
X6119761Y21865477D02*
X6072142Y21913096D01*
X6072142Y21913096D02*
X5976904Y21960715D01*
X5976904Y21960715D02*
X5738809Y21960715D01*
X5738809Y21960715D02*
X5643571Y21913096D01*
X5643571Y21913096D02*
X5595952Y21865477D01*
X5595952Y21865477D02*
X5548333Y21770239D01*
X5548333Y21770239D02*
X5548333Y21579763D01*
X5548333Y21579763D02*
X5595952Y21484525D01*
X5595952Y21484525D02*
X5643571Y21436906D01*
X5643571Y21436906D02*
X5738809Y21389287D01*
%TO.C,R32*%
X59857142Y24707620D02*
X59523809Y25183810D01*
X59285714Y24707620D02*
X59285714Y25707620D01*
X59285714Y25707620D02*
X59666666Y25707620D01*
X59666666Y25707620D02*
X59761904Y25660000D01*
X59761904Y25660000D02*
X59809523Y25612381D01*
X59809523Y25612381D02*
X59857142Y25517143D01*
X59857142Y25517143D02*
X59857142Y25374286D01*
X59857142Y25374286D02*
X59809523Y25279048D01*
X59809523Y25279048D02*
X59761904Y25231429D01*
X59761904Y25231429D02*
X59666666Y25183810D01*
X59666666Y25183810D02*
X59285714Y25183810D01*
X60190476Y25707620D02*
X60809523Y25707620D01*
X60809523Y25707620D02*
X60476190Y25326667D01*
X60476190Y25326667D02*
X60619047Y25326667D01*
X60619047Y25326667D02*
X60714285Y25279048D01*
X60714285Y25279048D02*
X60761904Y25231429D01*
X60761904Y25231429D02*
X60809523Y25136191D01*
X60809523Y25136191D02*
X60809523Y24898096D01*
X60809523Y24898096D02*
X60761904Y24802858D01*
X60761904Y24802858D02*
X60714285Y24755239D01*
X60714285Y24755239D02*
X60619047Y24707620D01*
X60619047Y24707620D02*
X60333333Y24707620D01*
X60333333Y24707620D02*
X60238095Y24755239D01*
X60238095Y24755239D02*
X60190476Y24802858D01*
X61190476Y25612381D02*
X61238095Y25660000D01*
X61238095Y25660000D02*
X61333333Y25707620D01*
X61333333Y25707620D02*
X61571428Y25707620D01*
X61571428Y25707620D02*
X61666666Y25660000D01*
X61666666Y25660000D02*
X61714285Y25612381D01*
X61714285Y25612381D02*
X61761904Y25517143D01*
X61761904Y25517143D02*
X61761904Y25421905D01*
X61761904Y25421905D02*
X61714285Y25279048D01*
X61714285Y25279048D02*
X61142857Y24707620D01*
X61142857Y24707620D02*
X61761904Y24707620D01*
%TO.C,R16*%
X73626380Y12608143D02*
X73150190Y12274810D01*
X73626380Y12036715D02*
X72626380Y12036715D01*
X72626380Y12036715D02*
X72626380Y12417667D01*
X72626380Y12417667D02*
X72674000Y12512905D01*
X72674000Y12512905D02*
X72721619Y12560524D01*
X72721619Y12560524D02*
X72816857Y12608143D01*
X72816857Y12608143D02*
X72959714Y12608143D01*
X72959714Y12608143D02*
X73054952Y12560524D01*
X73054952Y12560524D02*
X73102571Y12512905D01*
X73102571Y12512905D02*
X73150190Y12417667D01*
X73150190Y12417667D02*
X73150190Y12036715D01*
X73626380Y13560524D02*
X73626380Y12989096D01*
X73626380Y13274810D02*
X72626380Y13274810D01*
X72626380Y13274810D02*
X72769238Y13179572D01*
X72769238Y13179572D02*
X72864476Y13084334D01*
X72864476Y13084334D02*
X72912095Y12989096D01*
X72626380Y14417667D02*
X72626380Y14227191D01*
X72626380Y14227191D02*
X72674000Y14131953D01*
X72674000Y14131953D02*
X72721619Y14084334D01*
X72721619Y14084334D02*
X72864476Y13989096D01*
X72864476Y13989096D02*
X73054952Y13941477D01*
X73054952Y13941477D02*
X73435904Y13941477D01*
X73435904Y13941477D02*
X73531142Y13989096D01*
X73531142Y13989096D02*
X73578761Y14036715D01*
X73578761Y14036715D02*
X73626380Y14131953D01*
X73626380Y14131953D02*
X73626380Y14322429D01*
X73626380Y14322429D02*
X73578761Y14417667D01*
X73578761Y14417667D02*
X73531142Y14465286D01*
X73531142Y14465286D02*
X73435904Y14512905D01*
X73435904Y14512905D02*
X73197809Y14512905D01*
X73197809Y14512905D02*
X73102571Y14465286D01*
X73102571Y14465286D02*
X73054952Y14417667D01*
X73054952Y14417667D02*
X73007333Y14322429D01*
X73007333Y14322429D02*
X73007333Y14131953D01*
X73007333Y14131953D02*
X73054952Y14036715D01*
X73054952Y14036715D02*
X73102571Y13989096D01*
X73102571Y13989096D02*
X73197809Y13941477D01*
%TO.C,C2*%
X28672142Y20158334D02*
X28719761Y20110715D01*
X28719761Y20110715D02*
X28767380Y19967858D01*
X28767380Y19967858D02*
X28767380Y19872620D01*
X28767380Y19872620D02*
X28719761Y19729763D01*
X28719761Y19729763D02*
X28624523Y19634525D01*
X28624523Y19634525D02*
X28529285Y19586906D01*
X28529285Y19586906D02*
X28338809Y19539287D01*
X28338809Y19539287D02*
X28195952Y19539287D01*
X28195952Y19539287D02*
X28005476Y19586906D01*
X28005476Y19586906D02*
X27910238Y19634525D01*
X27910238Y19634525D02*
X27815000Y19729763D01*
X27815000Y19729763D02*
X27767380Y19872620D01*
X27767380Y19872620D02*
X27767380Y19967858D01*
X27767380Y19967858D02*
X27815000Y20110715D01*
X27815000Y20110715D02*
X27862619Y20158334D01*
X27862619Y20539287D02*
X27815000Y20586906D01*
X27815000Y20586906D02*
X27767380Y20682144D01*
X27767380Y20682144D02*
X27767380Y20920239D01*
X27767380Y20920239D02*
X27815000Y21015477D01*
X27815000Y21015477D02*
X27862619Y21063096D01*
X27862619Y21063096D02*
X27957857Y21110715D01*
X27957857Y21110715D02*
X28053095Y21110715D01*
X28053095Y21110715D02*
X28195952Y21063096D01*
X28195952Y21063096D02*
X28767380Y20491668D01*
X28767380Y20491668D02*
X28767380Y21110715D01*
%TO.C,R6*%
X10558333Y957620D02*
X10225000Y1433810D01*
X9986905Y957620D02*
X9986905Y1957620D01*
X9986905Y1957620D02*
X10367857Y1957620D01*
X10367857Y1957620D02*
X10463095Y1910000D01*
X10463095Y1910000D02*
X10510714Y1862381D01*
X10510714Y1862381D02*
X10558333Y1767143D01*
X10558333Y1767143D02*
X10558333Y1624286D01*
X10558333Y1624286D02*
X10510714Y1529048D01*
X10510714Y1529048D02*
X10463095Y1481429D01*
X10463095Y1481429D02*
X10367857Y1433810D01*
X10367857Y1433810D02*
X9986905Y1433810D01*
X11415476Y1957620D02*
X11225000Y1957620D01*
X11225000Y1957620D02*
X11129762Y1910000D01*
X11129762Y1910000D02*
X11082143Y1862381D01*
X11082143Y1862381D02*
X10986905Y1719524D01*
X10986905Y1719524D02*
X10939286Y1529048D01*
X10939286Y1529048D02*
X10939286Y1148096D01*
X10939286Y1148096D02*
X10986905Y1052858D01*
X10986905Y1052858D02*
X11034524Y1005239D01*
X11034524Y1005239D02*
X11129762Y957620D01*
X11129762Y957620D02*
X11320238Y957620D01*
X11320238Y957620D02*
X11415476Y1005239D01*
X11415476Y1005239D02*
X11463095Y1052858D01*
X11463095Y1052858D02*
X11510714Y1148096D01*
X11510714Y1148096D02*
X11510714Y1386191D01*
X11510714Y1386191D02*
X11463095Y1481429D01*
X11463095Y1481429D02*
X11415476Y1529048D01*
X11415476Y1529048D02*
X11320238Y1576667D01*
X11320238Y1576667D02*
X11129762Y1576667D01*
X11129762Y1576667D02*
X11034524Y1529048D01*
X11034524Y1529048D02*
X10986905Y1481429D01*
X10986905Y1481429D02*
X10939286Y1386191D01*
%TO.C,R14*%
X77342380Y13582143D02*
X76866190Y13248810D01*
X77342380Y13010715D02*
X76342380Y13010715D01*
X76342380Y13010715D02*
X76342380Y13391667D01*
X76342380Y13391667D02*
X76390000Y13486905D01*
X76390000Y13486905D02*
X76437619Y13534524D01*
X76437619Y13534524D02*
X76532857Y13582143D01*
X76532857Y13582143D02*
X76675714Y13582143D01*
X76675714Y13582143D02*
X76770952Y13534524D01*
X76770952Y13534524D02*
X76818571Y13486905D01*
X76818571Y13486905D02*
X76866190Y13391667D01*
X76866190Y13391667D02*
X76866190Y13010715D01*
X77342380Y14534524D02*
X77342380Y13963096D01*
X77342380Y14248810D02*
X76342380Y14248810D01*
X76342380Y14248810D02*
X76485238Y14153572D01*
X76485238Y14153572D02*
X76580476Y14058334D01*
X76580476Y14058334D02*
X76628095Y13963096D01*
X76675714Y15391667D02*
X77342380Y15391667D01*
X76294761Y15153572D02*
X77009047Y14915477D01*
X77009047Y14915477D02*
X77009047Y15534524D01*
%TO.C,C10*%
X18682142Y20927858D02*
X18634523Y20880239D01*
X18634523Y20880239D02*
X18491666Y20832620D01*
X18491666Y20832620D02*
X18396428Y20832620D01*
X18396428Y20832620D02*
X18253571Y20880239D01*
X18253571Y20880239D02*
X18158333Y20975477D01*
X18158333Y20975477D02*
X18110714Y21070715D01*
X18110714Y21070715D02*
X18063095Y21261191D01*
X18063095Y21261191D02*
X18063095Y21404048D01*
X18063095Y21404048D02*
X18110714Y21594524D01*
X18110714Y21594524D02*
X18158333Y21689762D01*
X18158333Y21689762D02*
X18253571Y21785000D01*
X18253571Y21785000D02*
X18396428Y21832620D01*
X18396428Y21832620D02*
X18491666Y21832620D01*
X18491666Y21832620D02*
X18634523Y21785000D01*
X18634523Y21785000D02*
X18682142Y21737381D01*
X19634523Y20832620D02*
X19063095Y20832620D01*
X19348809Y20832620D02*
X19348809Y21832620D01*
X19348809Y21832620D02*
X19253571Y21689762D01*
X19253571Y21689762D02*
X19158333Y21594524D01*
X19158333Y21594524D02*
X19063095Y21546905D01*
X20253571Y21832620D02*
X20348809Y21832620D01*
X20348809Y21832620D02*
X20444047Y21785000D01*
X20444047Y21785000D02*
X20491666Y21737381D01*
X20491666Y21737381D02*
X20539285Y21642143D01*
X20539285Y21642143D02*
X20586904Y21451667D01*
X20586904Y21451667D02*
X20586904Y21213572D01*
X20586904Y21213572D02*
X20539285Y21023096D01*
X20539285Y21023096D02*
X20491666Y20927858D01*
X20491666Y20927858D02*
X20444047Y20880239D01*
X20444047Y20880239D02*
X20348809Y20832620D01*
X20348809Y20832620D02*
X20253571Y20832620D01*
X20253571Y20832620D02*
X20158333Y20880239D01*
X20158333Y20880239D02*
X20110714Y20927858D01*
X20110714Y20927858D02*
X20063095Y21023096D01*
X20063095Y21023096D02*
X20015476Y21213572D01*
X20015476Y21213572D02*
X20015476Y21451667D01*
X20015476Y21451667D02*
X20063095Y21642143D01*
X20063095Y21642143D02*
X20110714Y21737381D01*
X20110714Y21737381D02*
X20158333Y21785000D01*
X20158333Y21785000D02*
X20253571Y21832620D01*
%TO.C,R23*%
X80492380Y10482143D02*
X80016190Y10148810D01*
X80492380Y9910715D02*
X79492380Y9910715D01*
X79492380Y9910715D02*
X79492380Y10291667D01*
X79492380Y10291667D02*
X79540000Y10386905D01*
X79540000Y10386905D02*
X79587619Y10434524D01*
X79587619Y10434524D02*
X79682857Y10482143D01*
X79682857Y10482143D02*
X79825714Y10482143D01*
X79825714Y10482143D02*
X79920952Y10434524D01*
X79920952Y10434524D02*
X79968571Y10386905D01*
X79968571Y10386905D02*
X80016190Y10291667D01*
X80016190Y10291667D02*
X80016190Y9910715D01*
X79587619Y10863096D02*
X79540000Y10910715D01*
X79540000Y10910715D02*
X79492380Y11005953D01*
X79492380Y11005953D02*
X79492380Y11244048D01*
X79492380Y11244048D02*
X79540000Y11339286D01*
X79540000Y11339286D02*
X79587619Y11386905D01*
X79587619Y11386905D02*
X79682857Y11434524D01*
X79682857Y11434524D02*
X79778095Y11434524D01*
X79778095Y11434524D02*
X79920952Y11386905D01*
X79920952Y11386905D02*
X80492380Y10815477D01*
X80492380Y10815477D02*
X80492380Y11434524D01*
X79492380Y11767858D02*
X79492380Y12386905D01*
X79492380Y12386905D02*
X79873333Y12053572D01*
X79873333Y12053572D02*
X79873333Y12196429D01*
X79873333Y12196429D02*
X79920952Y12291667D01*
X79920952Y12291667D02*
X79968571Y12339286D01*
X79968571Y12339286D02*
X80063809Y12386905D01*
X80063809Y12386905D02*
X80301904Y12386905D01*
X80301904Y12386905D02*
X80397142Y12339286D01*
X80397142Y12339286D02*
X80444761Y12291667D01*
X80444761Y12291667D02*
X80492380Y12196429D01*
X80492380Y12196429D02*
X80492380Y11910715D01*
X80492380Y11910715D02*
X80444761Y11815477D01*
X80444761Y11815477D02*
X80397142Y11767858D01*
%TO.C,Y1*%
X24041190Y16723810D02*
X24517380Y16723810D01*
X23517380Y16390477D02*
X24041190Y16723810D01*
X24041190Y16723810D02*
X23517380Y17057143D01*
X24517380Y17914286D02*
X24517380Y17342858D01*
X24517380Y17628572D02*
X23517380Y17628572D01*
X23517380Y17628572D02*
X23660238Y17533334D01*
X23660238Y17533334D02*
X23755476Y17438096D01*
X23755476Y17438096D02*
X23803095Y17342858D01*
%TO.C,D4*%
X80392380Y22636906D02*
X79392380Y22636906D01*
X79392380Y22636906D02*
X79392380Y22875001D01*
X79392380Y22875001D02*
X79440000Y23017858D01*
X79440000Y23017858D02*
X79535238Y23113096D01*
X79535238Y23113096D02*
X79630476Y23160715D01*
X79630476Y23160715D02*
X79820952Y23208334D01*
X79820952Y23208334D02*
X79963809Y23208334D01*
X79963809Y23208334D02*
X80154285Y23160715D01*
X80154285Y23160715D02*
X80249523Y23113096D01*
X80249523Y23113096D02*
X80344761Y23017858D01*
X80344761Y23017858D02*
X80392380Y22875001D01*
X80392380Y22875001D02*
X80392380Y22636906D01*
X79725714Y24065477D02*
X80392380Y24065477D01*
X79344761Y23827382D02*
X80059047Y23589287D01*
X80059047Y23589287D02*
X80059047Y24208334D01*
%TO.C,R18*%
X84482142Y17082620D02*
X84148809Y17558810D01*
X83910714Y17082620D02*
X83910714Y18082620D01*
X83910714Y18082620D02*
X84291666Y18082620D01*
X84291666Y18082620D02*
X84386904Y18035000D01*
X84386904Y18035000D02*
X84434523Y17987381D01*
X84434523Y17987381D02*
X84482142Y17892143D01*
X84482142Y17892143D02*
X84482142Y17749286D01*
X84482142Y17749286D02*
X84434523Y17654048D01*
X84434523Y17654048D02*
X84386904Y17606429D01*
X84386904Y17606429D02*
X84291666Y17558810D01*
X84291666Y17558810D02*
X83910714Y17558810D01*
X85434523Y17082620D02*
X84863095Y17082620D01*
X85148809Y17082620D02*
X85148809Y18082620D01*
X85148809Y18082620D02*
X85053571Y17939762D01*
X85053571Y17939762D02*
X84958333Y17844524D01*
X84958333Y17844524D02*
X84863095Y17796905D01*
X86005952Y17654048D02*
X85910714Y17701667D01*
X85910714Y17701667D02*
X85863095Y17749286D01*
X85863095Y17749286D02*
X85815476Y17844524D01*
X85815476Y17844524D02*
X85815476Y17892143D01*
X85815476Y17892143D02*
X85863095Y17987381D01*
X85863095Y17987381D02*
X85910714Y18035000D01*
X85910714Y18035000D02*
X86005952Y18082620D01*
X86005952Y18082620D02*
X86196428Y18082620D01*
X86196428Y18082620D02*
X86291666Y18035000D01*
X86291666Y18035000D02*
X86339285Y17987381D01*
X86339285Y17987381D02*
X86386904Y17892143D01*
X86386904Y17892143D02*
X86386904Y17844524D01*
X86386904Y17844524D02*
X86339285Y17749286D01*
X86339285Y17749286D02*
X86291666Y17701667D01*
X86291666Y17701667D02*
X86196428Y17654048D01*
X86196428Y17654048D02*
X86005952Y17654048D01*
X86005952Y17654048D02*
X85910714Y17606429D01*
X85910714Y17606429D02*
X85863095Y17558810D01*
X85863095Y17558810D02*
X85815476Y17463572D01*
X85815476Y17463572D02*
X85815476Y17273096D01*
X85815476Y17273096D02*
X85863095Y17177858D01*
X85863095Y17177858D02*
X85910714Y17130239D01*
X85910714Y17130239D02*
X86005952Y17082620D01*
X86005952Y17082620D02*
X86196428Y17082620D01*
X86196428Y17082620D02*
X86291666Y17130239D01*
X86291666Y17130239D02*
X86339285Y17177858D01*
X86339285Y17177858D02*
X86386904Y17273096D01*
X86386904Y17273096D02*
X86386904Y17463572D01*
X86386904Y17463572D02*
X86339285Y17558810D01*
X86339285Y17558810D02*
X86291666Y17606429D01*
X86291666Y17606429D02*
X86196428Y17654048D01*
%TO.C,R5*%
X12633333Y3357620D02*
X12300000Y3833810D01*
X12061905Y3357620D02*
X12061905Y4357620D01*
X12061905Y4357620D02*
X12442857Y4357620D01*
X12442857Y4357620D02*
X12538095Y4310000D01*
X12538095Y4310000D02*
X12585714Y4262381D01*
X12585714Y4262381D02*
X12633333Y4167143D01*
X12633333Y4167143D02*
X12633333Y4024286D01*
X12633333Y4024286D02*
X12585714Y3929048D01*
X12585714Y3929048D02*
X12538095Y3881429D01*
X12538095Y3881429D02*
X12442857Y3833810D01*
X12442857Y3833810D02*
X12061905Y3833810D01*
X13538095Y4357620D02*
X13061905Y4357620D01*
X13061905Y4357620D02*
X13014286Y3881429D01*
X13014286Y3881429D02*
X13061905Y3929048D01*
X13061905Y3929048D02*
X13157143Y3976667D01*
X13157143Y3976667D02*
X13395238Y3976667D01*
X13395238Y3976667D02*
X13490476Y3929048D01*
X13490476Y3929048D02*
X13538095Y3881429D01*
X13538095Y3881429D02*
X13585714Y3786191D01*
X13585714Y3786191D02*
X13585714Y3548096D01*
X13585714Y3548096D02*
X13538095Y3452858D01*
X13538095Y3452858D02*
X13490476Y3405239D01*
X13490476Y3405239D02*
X13395238Y3357620D01*
X13395238Y3357620D02*
X13157143Y3357620D01*
X13157143Y3357620D02*
X13061905Y3405239D01*
X13061905Y3405239D02*
X13014286Y3452858D01*
%TO.C,R19*%
X84482142Y14557620D02*
X84148809Y15033810D01*
X83910714Y14557620D02*
X83910714Y15557620D01*
X83910714Y15557620D02*
X84291666Y15557620D01*
X84291666Y15557620D02*
X84386904Y15510000D01*
X84386904Y15510000D02*
X84434523Y15462381D01*
X84434523Y15462381D02*
X84482142Y15367143D01*
X84482142Y15367143D02*
X84482142Y15224286D01*
X84482142Y15224286D02*
X84434523Y15129048D01*
X84434523Y15129048D02*
X84386904Y15081429D01*
X84386904Y15081429D02*
X84291666Y15033810D01*
X84291666Y15033810D02*
X83910714Y15033810D01*
X85434523Y14557620D02*
X84863095Y14557620D01*
X85148809Y14557620D02*
X85148809Y15557620D01*
X85148809Y15557620D02*
X85053571Y15414762D01*
X85053571Y15414762D02*
X84958333Y15319524D01*
X84958333Y15319524D02*
X84863095Y15271905D01*
X85910714Y14557620D02*
X86101190Y14557620D01*
X86101190Y14557620D02*
X86196428Y14605239D01*
X86196428Y14605239D02*
X86244047Y14652858D01*
X86244047Y14652858D02*
X86339285Y14795715D01*
X86339285Y14795715D02*
X86386904Y14986191D01*
X86386904Y14986191D02*
X86386904Y15367143D01*
X86386904Y15367143D02*
X86339285Y15462381D01*
X86339285Y15462381D02*
X86291666Y15510000D01*
X86291666Y15510000D02*
X86196428Y15557620D01*
X86196428Y15557620D02*
X86005952Y15557620D01*
X86005952Y15557620D02*
X85910714Y15510000D01*
X85910714Y15510000D02*
X85863095Y15462381D01*
X85863095Y15462381D02*
X85815476Y15367143D01*
X85815476Y15367143D02*
X85815476Y15129048D01*
X85815476Y15129048D02*
X85863095Y15033810D01*
X85863095Y15033810D02*
X85910714Y14986191D01*
X85910714Y14986191D02*
X86005952Y14938572D01*
X86005952Y14938572D02*
X86196428Y14938572D01*
X86196428Y14938572D02*
X86291666Y14986191D01*
X86291666Y14986191D02*
X86339285Y15033810D01*
X86339285Y15033810D02*
X86386904Y15129048D01*
%TO.C,D5*%
X29886905Y24982620D02*
X29886905Y25982620D01*
X29886905Y25982620D02*
X30125000Y25982620D01*
X30125000Y25982620D02*
X30267857Y25935000D01*
X30267857Y25935000D02*
X30363095Y25839762D01*
X30363095Y25839762D02*
X30410714Y25744524D01*
X30410714Y25744524D02*
X30458333Y25554048D01*
X30458333Y25554048D02*
X30458333Y25411191D01*
X30458333Y25411191D02*
X30410714Y25220715D01*
X30410714Y25220715D02*
X30363095Y25125477D01*
X30363095Y25125477D02*
X30267857Y25030239D01*
X30267857Y25030239D02*
X30125000Y24982620D01*
X30125000Y24982620D02*
X29886905Y24982620D01*
X31363095Y25982620D02*
X30886905Y25982620D01*
X30886905Y25982620D02*
X30839286Y25506429D01*
X30839286Y25506429D02*
X30886905Y25554048D01*
X30886905Y25554048D02*
X30982143Y25601667D01*
X30982143Y25601667D02*
X31220238Y25601667D01*
X31220238Y25601667D02*
X31315476Y25554048D01*
X31315476Y25554048D02*
X31363095Y25506429D01*
X31363095Y25506429D02*
X31410714Y25411191D01*
X31410714Y25411191D02*
X31410714Y25173096D01*
X31410714Y25173096D02*
X31363095Y25077858D01*
X31363095Y25077858D02*
X31315476Y25030239D01*
X31315476Y25030239D02*
X31220238Y24982620D01*
X31220238Y24982620D02*
X30982143Y24982620D01*
X30982143Y24982620D02*
X30886905Y25030239D01*
X30886905Y25030239D02*
X30839286Y25077858D01*
%TO.C,D6*%
X29886905Y26532620D02*
X29886905Y27532620D01*
X29886905Y27532620D02*
X30125000Y27532620D01*
X30125000Y27532620D02*
X30267857Y27485000D01*
X30267857Y27485000D02*
X30363095Y27389762D01*
X30363095Y27389762D02*
X30410714Y27294524D01*
X30410714Y27294524D02*
X30458333Y27104048D01*
X30458333Y27104048D02*
X30458333Y26961191D01*
X30458333Y26961191D02*
X30410714Y26770715D01*
X30410714Y26770715D02*
X30363095Y26675477D01*
X30363095Y26675477D02*
X30267857Y26580239D01*
X30267857Y26580239D02*
X30125000Y26532620D01*
X30125000Y26532620D02*
X29886905Y26532620D01*
X31315476Y27532620D02*
X31125000Y27532620D01*
X31125000Y27532620D02*
X31029762Y27485000D01*
X31029762Y27485000D02*
X30982143Y27437381D01*
X30982143Y27437381D02*
X30886905Y27294524D01*
X30886905Y27294524D02*
X30839286Y27104048D01*
X30839286Y27104048D02*
X30839286Y26723096D01*
X30839286Y26723096D02*
X30886905Y26627858D01*
X30886905Y26627858D02*
X30934524Y26580239D01*
X30934524Y26580239D02*
X31029762Y26532620D01*
X31029762Y26532620D02*
X31220238Y26532620D01*
X31220238Y26532620D02*
X31315476Y26580239D01*
X31315476Y26580239D02*
X31363095Y26627858D01*
X31363095Y26627858D02*
X31410714Y26723096D01*
X31410714Y26723096D02*
X31410714Y26961191D01*
X31410714Y26961191D02*
X31363095Y27056429D01*
X31363095Y27056429D02*
X31315476Y27104048D01*
X31315476Y27104048D02*
X31220238Y27151667D01*
X31220238Y27151667D02*
X31029762Y27151667D01*
X31029762Y27151667D02*
X30934524Y27104048D01*
X30934524Y27104048D02*
X30886905Y27056429D01*
X30886905Y27056429D02*
X30839286Y26961191D01*
%TO.C,R9*%
X27492380Y20173334D02*
X27016190Y19840001D01*
X27492380Y19601906D02*
X26492380Y19601906D01*
X26492380Y19601906D02*
X26492380Y19982858D01*
X26492380Y19982858D02*
X26540000Y20078096D01*
X26540000Y20078096D02*
X26587619Y20125715D01*
X26587619Y20125715D02*
X26682857Y20173334D01*
X26682857Y20173334D02*
X26825714Y20173334D01*
X26825714Y20173334D02*
X26920952Y20125715D01*
X26920952Y20125715D02*
X26968571Y20078096D01*
X26968571Y20078096D02*
X27016190Y19982858D01*
X27016190Y19982858D02*
X27016190Y19601906D01*
X27492380Y20649525D02*
X27492380Y20840001D01*
X27492380Y20840001D02*
X27444761Y20935239D01*
X27444761Y20935239D02*
X27397142Y20982858D01*
X27397142Y20982858D02*
X27254285Y21078096D01*
X27254285Y21078096D02*
X27063809Y21125715D01*
X27063809Y21125715D02*
X26682857Y21125715D01*
X26682857Y21125715D02*
X26587619Y21078096D01*
X26587619Y21078096D02*
X26540000Y21030477D01*
X26540000Y21030477D02*
X26492380Y20935239D01*
X26492380Y20935239D02*
X26492380Y20744763D01*
X26492380Y20744763D02*
X26540000Y20649525D01*
X26540000Y20649525D02*
X26587619Y20601906D01*
X26587619Y20601906D02*
X26682857Y20554287D01*
X26682857Y20554287D02*
X26920952Y20554287D01*
X26920952Y20554287D02*
X27016190Y20601906D01*
X27016190Y20601906D02*
X27063809Y20649525D01*
X27063809Y20649525D02*
X27111428Y20744763D01*
X27111428Y20744763D02*
X27111428Y20935239D01*
X27111428Y20935239D02*
X27063809Y21030477D01*
X27063809Y21030477D02*
X27016190Y21078096D01*
X27016190Y21078096D02*
X26920952Y21125715D01*
%TO.C,R17*%
X84457142Y15782620D02*
X84123809Y16258810D01*
X83885714Y15782620D02*
X83885714Y16782620D01*
X83885714Y16782620D02*
X84266666Y16782620D01*
X84266666Y16782620D02*
X84361904Y16735000D01*
X84361904Y16735000D02*
X84409523Y16687381D01*
X84409523Y16687381D02*
X84457142Y16592143D01*
X84457142Y16592143D02*
X84457142Y16449286D01*
X84457142Y16449286D02*
X84409523Y16354048D01*
X84409523Y16354048D02*
X84361904Y16306429D01*
X84361904Y16306429D02*
X84266666Y16258810D01*
X84266666Y16258810D02*
X83885714Y16258810D01*
X85409523Y15782620D02*
X84838095Y15782620D01*
X85123809Y15782620D02*
X85123809Y16782620D01*
X85123809Y16782620D02*
X85028571Y16639762D01*
X85028571Y16639762D02*
X84933333Y16544524D01*
X84933333Y16544524D02*
X84838095Y16496905D01*
X85742857Y16782620D02*
X86409523Y16782620D01*
X86409523Y16782620D02*
X85980952Y15782620D01*
%TO.C,C12*%
X1697142Y16907143D02*
X1744761Y16859524D01*
X1744761Y16859524D02*
X1792380Y16716667D01*
X1792380Y16716667D02*
X1792380Y16621429D01*
X1792380Y16621429D02*
X1744761Y16478572D01*
X1744761Y16478572D02*
X1649523Y16383334D01*
X1649523Y16383334D02*
X1554285Y16335715D01*
X1554285Y16335715D02*
X1363809Y16288096D01*
X1363809Y16288096D02*
X1220952Y16288096D01*
X1220952Y16288096D02*
X1030476Y16335715D01*
X1030476Y16335715D02*
X935238Y16383334D01*
X935238Y16383334D02*
X840000Y16478572D01*
X840000Y16478572D02*
X792380Y16621429D01*
X792380Y16621429D02*
X792380Y16716667D01*
X792380Y16716667D02*
X840000Y16859524D01*
X840000Y16859524D02*
X887619Y16907143D01*
X1792380Y17859524D02*
X1792380Y17288096D01*
X1792380Y17573810D02*
X792380Y17573810D01*
X792380Y17573810D02*
X935238Y17478572D01*
X935238Y17478572D02*
X1030476Y17383334D01*
X1030476Y17383334D02*
X1078095Y17288096D01*
X887619Y18240477D02*
X840000Y18288096D01*
X840000Y18288096D02*
X792380Y18383334D01*
X792380Y18383334D02*
X792380Y18621429D01*
X792380Y18621429D02*
X840000Y18716667D01*
X840000Y18716667D02*
X887619Y18764286D01*
X887619Y18764286D02*
X982857Y18811905D01*
X982857Y18811905D02*
X1078095Y18811905D01*
X1078095Y18811905D02*
X1220952Y18764286D01*
X1220952Y18764286D02*
X1792380Y18192858D01*
X1792380Y18192858D02*
X1792380Y18811905D01*
%TO.C,D3*%
X84461905Y6582620D02*
X84461905Y7582620D01*
X84461905Y7582620D02*
X84700000Y7582620D01*
X84700000Y7582620D02*
X84842857Y7535000D01*
X84842857Y7535000D02*
X84938095Y7439762D01*
X84938095Y7439762D02*
X84985714Y7344524D01*
X84985714Y7344524D02*
X85033333Y7154048D01*
X85033333Y7154048D02*
X85033333Y7011191D01*
X85033333Y7011191D02*
X84985714Y6820715D01*
X84985714Y6820715D02*
X84938095Y6725477D01*
X84938095Y6725477D02*
X84842857Y6630239D01*
X84842857Y6630239D02*
X84700000Y6582620D01*
X84700000Y6582620D02*
X84461905Y6582620D01*
X85366667Y7582620D02*
X85985714Y7582620D01*
X85985714Y7582620D02*
X85652381Y7201667D01*
X85652381Y7201667D02*
X85795238Y7201667D01*
X85795238Y7201667D02*
X85890476Y7154048D01*
X85890476Y7154048D02*
X85938095Y7106429D01*
X85938095Y7106429D02*
X85985714Y7011191D01*
X85985714Y7011191D02*
X85985714Y6773096D01*
X85985714Y6773096D02*
X85938095Y6677858D01*
X85938095Y6677858D02*
X85890476Y6630239D01*
X85890476Y6630239D02*
X85795238Y6582620D01*
X85795238Y6582620D02*
X85509524Y6582620D01*
X85509524Y6582620D02*
X85414286Y6630239D01*
X85414286Y6630239D02*
X85366667Y6677858D01*
%TO.C,R33*%
X78657142Y15432620D02*
X78323809Y15908810D01*
X78085714Y15432620D02*
X78085714Y16432620D01*
X78085714Y16432620D02*
X78466666Y16432620D01*
X78466666Y16432620D02*
X78561904Y16385000D01*
X78561904Y16385000D02*
X78609523Y16337381D01*
X78609523Y16337381D02*
X78657142Y16242143D01*
X78657142Y16242143D02*
X78657142Y16099286D01*
X78657142Y16099286D02*
X78609523Y16004048D01*
X78609523Y16004048D02*
X78561904Y15956429D01*
X78561904Y15956429D02*
X78466666Y15908810D01*
X78466666Y15908810D02*
X78085714Y15908810D01*
X78990476Y16432620D02*
X79609523Y16432620D01*
X79609523Y16432620D02*
X79276190Y16051667D01*
X79276190Y16051667D02*
X79419047Y16051667D01*
X79419047Y16051667D02*
X79514285Y16004048D01*
X79514285Y16004048D02*
X79561904Y15956429D01*
X79561904Y15956429D02*
X79609523Y15861191D01*
X79609523Y15861191D02*
X79609523Y15623096D01*
X79609523Y15623096D02*
X79561904Y15527858D01*
X79561904Y15527858D02*
X79514285Y15480239D01*
X79514285Y15480239D02*
X79419047Y15432620D01*
X79419047Y15432620D02*
X79133333Y15432620D01*
X79133333Y15432620D02*
X79038095Y15480239D01*
X79038095Y15480239D02*
X78990476Y15527858D01*
X79942857Y16432620D02*
X80561904Y16432620D01*
X80561904Y16432620D02*
X80228571Y16051667D01*
X80228571Y16051667D02*
X80371428Y16051667D01*
X80371428Y16051667D02*
X80466666Y16004048D01*
X80466666Y16004048D02*
X80514285Y15956429D01*
X80514285Y15956429D02*
X80561904Y15861191D01*
X80561904Y15861191D02*
X80561904Y15623096D01*
X80561904Y15623096D02*
X80514285Y15527858D01*
X80514285Y15527858D02*
X80466666Y15480239D01*
X80466666Y15480239D02*
X80371428Y15432620D01*
X80371428Y15432620D02*
X80085714Y15432620D01*
X80085714Y15432620D02*
X79990476Y15480239D01*
X79990476Y15480239D02*
X79942857Y15527858D01*
%TO.C,R24*%
X79267380Y19157143D02*
X78791190Y18823810D01*
X79267380Y18585715D02*
X78267380Y18585715D01*
X78267380Y18585715D02*
X78267380Y18966667D01*
X78267380Y18966667D02*
X78315000Y19061905D01*
X78315000Y19061905D02*
X78362619Y19109524D01*
X78362619Y19109524D02*
X78457857Y19157143D01*
X78457857Y19157143D02*
X78600714Y19157143D01*
X78600714Y19157143D02*
X78695952Y19109524D01*
X78695952Y19109524D02*
X78743571Y19061905D01*
X78743571Y19061905D02*
X78791190Y18966667D01*
X78791190Y18966667D02*
X78791190Y18585715D01*
X78362619Y19538096D02*
X78315000Y19585715D01*
X78315000Y19585715D02*
X78267380Y19680953D01*
X78267380Y19680953D02*
X78267380Y19919048D01*
X78267380Y19919048D02*
X78315000Y20014286D01*
X78315000Y20014286D02*
X78362619Y20061905D01*
X78362619Y20061905D02*
X78457857Y20109524D01*
X78457857Y20109524D02*
X78553095Y20109524D01*
X78553095Y20109524D02*
X78695952Y20061905D01*
X78695952Y20061905D02*
X79267380Y19490477D01*
X79267380Y19490477D02*
X79267380Y20109524D01*
X78600714Y20966667D02*
X79267380Y20966667D01*
X78219761Y20728572D02*
X78934047Y20490477D01*
X78934047Y20490477D02*
X78934047Y21109524D01*
%TO.C,U3*%
X4551380Y9238096D02*
X5360904Y9238096D01*
X5360904Y9238096D02*
X5456142Y9285715D01*
X5456142Y9285715D02*
X5503761Y9333334D01*
X5503761Y9333334D02*
X5551380Y9428572D01*
X5551380Y9428572D02*
X5551380Y9619048D01*
X5551380Y9619048D02*
X5503761Y9714286D01*
X5503761Y9714286D02*
X5456142Y9761905D01*
X5456142Y9761905D02*
X5360904Y9809524D01*
X5360904Y9809524D02*
X4551380Y9809524D01*
X4551380Y10190477D02*
X4551380Y10809524D01*
X4551380Y10809524D02*
X4932333Y10476191D01*
X4932333Y10476191D02*
X4932333Y10619048D01*
X4932333Y10619048D02*
X4979952Y10714286D01*
X4979952Y10714286D02*
X5027571Y10761905D01*
X5027571Y10761905D02*
X5122809Y10809524D01*
X5122809Y10809524D02*
X5360904Y10809524D01*
X5360904Y10809524D02*
X5456142Y10761905D01*
X5456142Y10761905D02*
X5503761Y10714286D01*
X5503761Y10714286D02*
X5551380Y10619048D01*
X5551380Y10619048D02*
X5551380Y10333334D01*
X5551380Y10333334D02*
X5503761Y10238096D01*
X5503761Y10238096D02*
X5456142Y10190477D01*
%TO.C,C7*%
X10247142Y12083334D02*
X10294761Y12035715D01*
X10294761Y12035715D02*
X10342380Y11892858D01*
X10342380Y11892858D02*
X10342380Y11797620D01*
X10342380Y11797620D02*
X10294761Y11654763D01*
X10294761Y11654763D02*
X10199523Y11559525D01*
X10199523Y11559525D02*
X10104285Y11511906D01*
X10104285Y11511906D02*
X9913809Y11464287D01*
X9913809Y11464287D02*
X9770952Y11464287D01*
X9770952Y11464287D02*
X9580476Y11511906D01*
X9580476Y11511906D02*
X9485238Y11559525D01*
X9485238Y11559525D02*
X9390000Y11654763D01*
X9390000Y11654763D02*
X9342380Y11797620D01*
X9342380Y11797620D02*
X9342380Y11892858D01*
X9342380Y11892858D02*
X9390000Y12035715D01*
X9390000Y12035715D02*
X9437619Y12083334D01*
X9342380Y12416668D02*
X9342380Y13083334D01*
X9342380Y13083334D02*
X10342380Y12654763D01*
%TO.C,C1*%
X10172142Y15758334D02*
X10219761Y15710715D01*
X10219761Y15710715D02*
X10267380Y15567858D01*
X10267380Y15567858D02*
X10267380Y15472620D01*
X10267380Y15472620D02*
X10219761Y15329763D01*
X10219761Y15329763D02*
X10124523Y15234525D01*
X10124523Y15234525D02*
X10029285Y15186906D01*
X10029285Y15186906D02*
X9838809Y15139287D01*
X9838809Y15139287D02*
X9695952Y15139287D01*
X9695952Y15139287D02*
X9505476Y15186906D01*
X9505476Y15186906D02*
X9410238Y15234525D01*
X9410238Y15234525D02*
X9315000Y15329763D01*
X9315000Y15329763D02*
X9267380Y15472620D01*
X9267380Y15472620D02*
X9267380Y15567858D01*
X9267380Y15567858D02*
X9315000Y15710715D01*
X9315000Y15710715D02*
X9362619Y15758334D01*
X10267380Y16710715D02*
X10267380Y16139287D01*
X10267380Y16425001D02*
X9267380Y16425001D01*
X9267380Y16425001D02*
X9410238Y16329763D01*
X9410238Y16329763D02*
X9505476Y16234525D01*
X9505476Y16234525D02*
X9553095Y16139287D01*
%TO.C,R2*%
X9017380Y15733334D02*
X8541190Y15400001D01*
X9017380Y15161906D02*
X8017380Y15161906D01*
X8017380Y15161906D02*
X8017380Y15542858D01*
X8017380Y15542858D02*
X8065000Y15638096D01*
X8065000Y15638096D02*
X8112619Y15685715D01*
X8112619Y15685715D02*
X8207857Y15733334D01*
X8207857Y15733334D02*
X8350714Y15733334D01*
X8350714Y15733334D02*
X8445952Y15685715D01*
X8445952Y15685715D02*
X8493571Y15638096D01*
X8493571Y15638096D02*
X8541190Y15542858D01*
X8541190Y15542858D02*
X8541190Y15161906D01*
X8112619Y16114287D02*
X8065000Y16161906D01*
X8065000Y16161906D02*
X8017380Y16257144D01*
X8017380Y16257144D02*
X8017380Y16495239D01*
X8017380Y16495239D02*
X8065000Y16590477D01*
X8065000Y16590477D02*
X8112619Y16638096D01*
X8112619Y16638096D02*
X8207857Y16685715D01*
X8207857Y16685715D02*
X8303095Y16685715D01*
X8303095Y16685715D02*
X8445952Y16638096D01*
X8445952Y16638096D02*
X9017380Y16066668D01*
X9017380Y16066668D02*
X9017380Y16685715D01*
%TO.C,R21*%
X84955142Y11064620D02*
X84621809Y11540810D01*
X84383714Y11064620D02*
X84383714Y12064620D01*
X84383714Y12064620D02*
X84764666Y12064620D01*
X84764666Y12064620D02*
X84859904Y12017000D01*
X84859904Y12017000D02*
X84907523Y11969381D01*
X84907523Y11969381D02*
X84955142Y11874143D01*
X84955142Y11874143D02*
X84955142Y11731286D01*
X84955142Y11731286D02*
X84907523Y11636048D01*
X84907523Y11636048D02*
X84859904Y11588429D01*
X84859904Y11588429D02*
X84764666Y11540810D01*
X84764666Y11540810D02*
X84383714Y11540810D01*
X85336095Y11969381D02*
X85383714Y12017000D01*
X85383714Y12017000D02*
X85478952Y12064620D01*
X85478952Y12064620D02*
X85717047Y12064620D01*
X85717047Y12064620D02*
X85812285Y12017000D01*
X85812285Y12017000D02*
X85859904Y11969381D01*
X85859904Y11969381D02*
X85907523Y11874143D01*
X85907523Y11874143D02*
X85907523Y11778905D01*
X85907523Y11778905D02*
X85859904Y11636048D01*
X85859904Y11636048D02*
X85288476Y11064620D01*
X85288476Y11064620D02*
X85907523Y11064620D01*
X86859904Y11064620D02*
X86288476Y11064620D01*
X86574190Y11064620D02*
X86574190Y12064620D01*
X86574190Y12064620D02*
X86478952Y11921762D01*
X86478952Y11921762D02*
X86383714Y11826524D01*
X86383714Y11826524D02*
X86288476Y11778905D01*
%TO.C,R11*%
X12632142Y21857620D02*
X12298809Y22333810D01*
X12060714Y21857620D02*
X12060714Y22857620D01*
X12060714Y22857620D02*
X12441666Y22857620D01*
X12441666Y22857620D02*
X12536904Y22810000D01*
X12536904Y22810000D02*
X12584523Y22762381D01*
X12584523Y22762381D02*
X12632142Y22667143D01*
X12632142Y22667143D02*
X12632142Y22524286D01*
X12632142Y22524286D02*
X12584523Y22429048D01*
X12584523Y22429048D02*
X12536904Y22381429D01*
X12536904Y22381429D02*
X12441666Y22333810D01*
X12441666Y22333810D02*
X12060714Y22333810D01*
X13584523Y21857620D02*
X13013095Y21857620D01*
X13298809Y21857620D02*
X13298809Y22857620D01*
X13298809Y22857620D02*
X13203571Y22714762D01*
X13203571Y22714762D02*
X13108333Y22619524D01*
X13108333Y22619524D02*
X13013095Y22571905D01*
X14536904Y21857620D02*
X13965476Y21857620D01*
X14251190Y21857620D02*
X14251190Y22857620D01*
X14251190Y22857620D02*
X14155952Y22714762D01*
X14155952Y22714762D02*
X14060714Y22619524D01*
X14060714Y22619524D02*
X13965476Y22571905D01*
%TO.C,R4*%
X8592380Y883334D02*
X8116190Y550001D01*
X8592380Y311906D02*
X7592380Y311906D01*
X7592380Y311906D02*
X7592380Y692858D01*
X7592380Y692858D02*
X7640000Y788096D01*
X7640000Y788096D02*
X7687619Y835715D01*
X7687619Y835715D02*
X7782857Y883334D01*
X7782857Y883334D02*
X7925714Y883334D01*
X7925714Y883334D02*
X8020952Y835715D01*
X8020952Y835715D02*
X8068571Y788096D01*
X8068571Y788096D02*
X8116190Y692858D01*
X8116190Y692858D02*
X8116190Y311906D01*
X7925714Y1740477D02*
X8592380Y1740477D01*
X7544761Y1502382D02*
X8259047Y1264287D01*
X8259047Y1264287D02*
X8259047Y1883334D01*
%TO.C,R13*%
X77342380Y16457143D02*
X76866190Y16123810D01*
X77342380Y15885715D02*
X76342380Y15885715D01*
X76342380Y15885715D02*
X76342380Y16266667D01*
X76342380Y16266667D02*
X76390000Y16361905D01*
X76390000Y16361905D02*
X76437619Y16409524D01*
X76437619Y16409524D02*
X76532857Y16457143D01*
X76532857Y16457143D02*
X76675714Y16457143D01*
X76675714Y16457143D02*
X76770952Y16409524D01*
X76770952Y16409524D02*
X76818571Y16361905D01*
X76818571Y16361905D02*
X76866190Y16266667D01*
X76866190Y16266667D02*
X76866190Y15885715D01*
X77342380Y17409524D02*
X77342380Y16838096D01*
X77342380Y17123810D02*
X76342380Y17123810D01*
X76342380Y17123810D02*
X76485238Y17028572D01*
X76485238Y17028572D02*
X76580476Y16933334D01*
X76580476Y16933334D02*
X76628095Y16838096D01*
X76342380Y17742858D02*
X76342380Y18361905D01*
X76342380Y18361905D02*
X76723333Y18028572D01*
X76723333Y18028572D02*
X76723333Y18171429D01*
X76723333Y18171429D02*
X76770952Y18266667D01*
X76770952Y18266667D02*
X76818571Y18314286D01*
X76818571Y18314286D02*
X76913809Y18361905D01*
X76913809Y18361905D02*
X77151904Y18361905D01*
X77151904Y18361905D02*
X77247142Y18314286D01*
X77247142Y18314286D02*
X77294761Y18266667D01*
X77294761Y18266667D02*
X77342380Y18171429D01*
X77342380Y18171429D02*
X77342380Y17885715D01*
X77342380Y17885715D02*
X77294761Y17790477D01*
X77294761Y17790477D02*
X77247142Y17742858D01*
%TO.C,C3*%
X3758333Y15452858D02*
X3710714Y15405239D01*
X3710714Y15405239D02*
X3567857Y15357620D01*
X3567857Y15357620D02*
X3472619Y15357620D01*
X3472619Y15357620D02*
X3329762Y15405239D01*
X3329762Y15405239D02*
X3234524Y15500477D01*
X3234524Y15500477D02*
X3186905Y15595715D01*
X3186905Y15595715D02*
X3139286Y15786191D01*
X3139286Y15786191D02*
X3139286Y15929048D01*
X3139286Y15929048D02*
X3186905Y16119524D01*
X3186905Y16119524D02*
X3234524Y16214762D01*
X3234524Y16214762D02*
X3329762Y16310000D01*
X3329762Y16310000D02*
X3472619Y16357620D01*
X3472619Y16357620D02*
X3567857Y16357620D01*
X3567857Y16357620D02*
X3710714Y16310000D01*
X3710714Y16310000D02*
X3758333Y16262381D01*
X4091667Y16357620D02*
X4710714Y16357620D01*
X4710714Y16357620D02*
X4377381Y15976667D01*
X4377381Y15976667D02*
X4520238Y15976667D01*
X4520238Y15976667D02*
X4615476Y15929048D01*
X4615476Y15929048D02*
X4663095Y15881429D01*
X4663095Y15881429D02*
X4710714Y15786191D01*
X4710714Y15786191D02*
X4710714Y15548096D01*
X4710714Y15548096D02*
X4663095Y15452858D01*
X4663095Y15452858D02*
X4615476Y15405239D01*
X4615476Y15405239D02*
X4520238Y15357620D01*
X4520238Y15357620D02*
X4234524Y15357620D01*
X4234524Y15357620D02*
X4139286Y15405239D01*
X4139286Y15405239D02*
X4091667Y15452858D01*
%TO.C,R20*%
X84482142Y13357620D02*
X84148809Y13833810D01*
X83910714Y13357620D02*
X83910714Y14357620D01*
X83910714Y14357620D02*
X84291666Y14357620D01*
X84291666Y14357620D02*
X84386904Y14310000D01*
X84386904Y14310000D02*
X84434523Y14262381D01*
X84434523Y14262381D02*
X84482142Y14167143D01*
X84482142Y14167143D02*
X84482142Y14024286D01*
X84482142Y14024286D02*
X84434523Y13929048D01*
X84434523Y13929048D02*
X84386904Y13881429D01*
X84386904Y13881429D02*
X84291666Y13833810D01*
X84291666Y13833810D02*
X83910714Y13833810D01*
X84863095Y14262381D02*
X84910714Y14310000D01*
X84910714Y14310000D02*
X85005952Y14357620D01*
X85005952Y14357620D02*
X85244047Y14357620D01*
X85244047Y14357620D02*
X85339285Y14310000D01*
X85339285Y14310000D02*
X85386904Y14262381D01*
X85386904Y14262381D02*
X85434523Y14167143D01*
X85434523Y14167143D02*
X85434523Y14071905D01*
X85434523Y14071905D02*
X85386904Y13929048D01*
X85386904Y13929048D02*
X84815476Y13357620D01*
X84815476Y13357620D02*
X85434523Y13357620D01*
X86053571Y14357620D02*
X86148809Y14357620D01*
X86148809Y14357620D02*
X86244047Y14310000D01*
X86244047Y14310000D02*
X86291666Y14262381D01*
X86291666Y14262381D02*
X86339285Y14167143D01*
X86339285Y14167143D02*
X86386904Y13976667D01*
X86386904Y13976667D02*
X86386904Y13738572D01*
X86386904Y13738572D02*
X86339285Y13548096D01*
X86339285Y13548096D02*
X86291666Y13452858D01*
X86291666Y13452858D02*
X86244047Y13405239D01*
X86244047Y13405239D02*
X86148809Y13357620D01*
X86148809Y13357620D02*
X86053571Y13357620D01*
X86053571Y13357620D02*
X85958333Y13405239D01*
X85958333Y13405239D02*
X85910714Y13452858D01*
X85910714Y13452858D02*
X85863095Y13548096D01*
X85863095Y13548096D02*
X85815476Y13738572D01*
X85815476Y13738572D02*
X85815476Y13976667D01*
X85815476Y13976667D02*
X85863095Y14167143D01*
X85863095Y14167143D02*
X85910714Y14262381D01*
X85910714Y14262381D02*
X85958333Y14310000D01*
X85958333Y14310000D02*
X86053571Y14357620D01*
%TO.C,C9*%
X14333333Y9602858D02*
X14285714Y9555239D01*
X14285714Y9555239D02*
X14142857Y9507620D01*
X14142857Y9507620D02*
X14047619Y9507620D01*
X14047619Y9507620D02*
X13904762Y9555239D01*
X13904762Y9555239D02*
X13809524Y9650477D01*
X13809524Y9650477D02*
X13761905Y9745715D01*
X13761905Y9745715D02*
X13714286Y9936191D01*
X13714286Y9936191D02*
X13714286Y10079048D01*
X13714286Y10079048D02*
X13761905Y10269524D01*
X13761905Y10269524D02*
X13809524Y10364762D01*
X13809524Y10364762D02*
X13904762Y10460000D01*
X13904762Y10460000D02*
X14047619Y10507620D01*
X14047619Y10507620D02*
X14142857Y10507620D01*
X14142857Y10507620D02*
X14285714Y10460000D01*
X14285714Y10460000D02*
X14333333Y10412381D01*
X14809524Y9507620D02*
X15000000Y9507620D01*
X15000000Y9507620D02*
X15095238Y9555239D01*
X15095238Y9555239D02*
X15142857Y9602858D01*
X15142857Y9602858D02*
X15238095Y9745715D01*
X15238095Y9745715D02*
X15285714Y9936191D01*
X15285714Y9936191D02*
X15285714Y10317143D01*
X15285714Y10317143D02*
X15238095Y10412381D01*
X15238095Y10412381D02*
X15190476Y10460000D01*
X15190476Y10460000D02*
X15095238Y10507620D01*
X15095238Y10507620D02*
X14904762Y10507620D01*
X14904762Y10507620D02*
X14809524Y10460000D01*
X14809524Y10460000D02*
X14761905Y10412381D01*
X14761905Y10412381D02*
X14714286Y10317143D01*
X14714286Y10317143D02*
X14714286Y10079048D01*
X14714286Y10079048D02*
X14761905Y9983810D01*
X14761905Y9983810D02*
X14809524Y9936191D01*
X14809524Y9936191D02*
X14904762Y9888572D01*
X14904762Y9888572D02*
X15095238Y9888572D01*
X15095238Y9888572D02*
X15190476Y9936191D01*
X15190476Y9936191D02*
X15238095Y9983810D01*
X15238095Y9983810D02*
X15285714Y10079048D01*
%TO.C,C13*%
X11372142Y15357143D02*
X11419761Y15309524D01*
X11419761Y15309524D02*
X11467380Y15166667D01*
X11467380Y15166667D02*
X11467380Y15071429D01*
X11467380Y15071429D02*
X11419761Y14928572D01*
X11419761Y14928572D02*
X11324523Y14833334D01*
X11324523Y14833334D02*
X11229285Y14785715D01*
X11229285Y14785715D02*
X11038809Y14738096D01*
X11038809Y14738096D02*
X10895952Y14738096D01*
X10895952Y14738096D02*
X10705476Y14785715D01*
X10705476Y14785715D02*
X10610238Y14833334D01*
X10610238Y14833334D02*
X10515000Y14928572D01*
X10515000Y14928572D02*
X10467380Y15071429D01*
X10467380Y15071429D02*
X10467380Y15166667D01*
X10467380Y15166667D02*
X10515000Y15309524D01*
X10515000Y15309524D02*
X10562619Y15357143D01*
X11467380Y16309524D02*
X11467380Y15738096D01*
X11467380Y16023810D02*
X10467380Y16023810D01*
X10467380Y16023810D02*
X10610238Y15928572D01*
X10610238Y15928572D02*
X10705476Y15833334D01*
X10705476Y15833334D02*
X10753095Y15738096D01*
X10467380Y16642858D02*
X10467380Y17261905D01*
X10467380Y17261905D02*
X10848333Y16928572D01*
X10848333Y16928572D02*
X10848333Y17071429D01*
X10848333Y17071429D02*
X10895952Y17166667D01*
X10895952Y17166667D02*
X10943571Y17214286D01*
X10943571Y17214286D02*
X11038809Y17261905D01*
X11038809Y17261905D02*
X11276904Y17261905D01*
X11276904Y17261905D02*
X11372142Y17214286D01*
X11372142Y17214286D02*
X11419761Y17166667D01*
X11419761Y17166667D02*
X11467380Y17071429D01*
X11467380Y17071429D02*
X11467380Y16785715D01*
X11467380Y16785715D02*
X11419761Y16690477D01*
X11419761Y16690477D02*
X11372142Y16642858D01*
%TO.C,C5*%
X11258333Y9702858D02*
X11210714Y9655239D01*
X11210714Y9655239D02*
X11067857Y9607620D01*
X11067857Y9607620D02*
X10972619Y9607620D01*
X10972619Y9607620D02*
X10829762Y9655239D01*
X10829762Y9655239D02*
X10734524Y9750477D01*
X10734524Y9750477D02*
X10686905Y9845715D01*
X10686905Y9845715D02*
X10639286Y10036191D01*
X10639286Y10036191D02*
X10639286Y10179048D01*
X10639286Y10179048D02*
X10686905Y10369524D01*
X10686905Y10369524D02*
X10734524Y10464762D01*
X10734524Y10464762D02*
X10829762Y10560000D01*
X10829762Y10560000D02*
X10972619Y10607620D01*
X10972619Y10607620D02*
X11067857Y10607620D01*
X11067857Y10607620D02*
X11210714Y10560000D01*
X11210714Y10560000D02*
X11258333Y10512381D01*
X12163095Y10607620D02*
X11686905Y10607620D01*
X11686905Y10607620D02*
X11639286Y10131429D01*
X11639286Y10131429D02*
X11686905Y10179048D01*
X11686905Y10179048D02*
X11782143Y10226667D01*
X11782143Y10226667D02*
X12020238Y10226667D01*
X12020238Y10226667D02*
X12115476Y10179048D01*
X12115476Y10179048D02*
X12163095Y10131429D01*
X12163095Y10131429D02*
X12210714Y10036191D01*
X12210714Y10036191D02*
X12210714Y9798096D01*
X12210714Y9798096D02*
X12163095Y9702858D01*
X12163095Y9702858D02*
X12115476Y9655239D01*
X12115476Y9655239D02*
X12020238Y9607620D01*
X12020238Y9607620D02*
X11782143Y9607620D01*
X11782143Y9607620D02*
X11686905Y9655239D01*
X11686905Y9655239D02*
X11639286Y9702858D01*
%TO.C,U1*%
X12573880Y12192596D02*
X13383404Y12192596D01*
X13383404Y12192596D02*
X13478642Y12240215D01*
X13478642Y12240215D02*
X13526261Y12287834D01*
X13526261Y12287834D02*
X13573880Y12383072D01*
X13573880Y12383072D02*
X13573880Y12573548D01*
X13573880Y12573548D02*
X13526261Y12668786D01*
X13526261Y12668786D02*
X13478642Y12716405D01*
X13478642Y12716405D02*
X13383404Y12764024D01*
X13383404Y12764024D02*
X12573880Y12764024D01*
X13573880Y13764024D02*
X13573880Y13192596D01*
X13573880Y13478310D02*
X12573880Y13478310D01*
X12573880Y13478310D02*
X12716738Y13383072D01*
X12716738Y13383072D02*
X12811976Y13287834D01*
X12811976Y13287834D02*
X12859595Y13192596D01*
%TO.C,R3*%
X6517380Y2908334D02*
X6041190Y2575001D01*
X6517380Y2336906D02*
X5517380Y2336906D01*
X5517380Y2336906D02*
X5517380Y2717858D01*
X5517380Y2717858D02*
X5565000Y2813096D01*
X5565000Y2813096D02*
X5612619Y2860715D01*
X5612619Y2860715D02*
X5707857Y2908334D01*
X5707857Y2908334D02*
X5850714Y2908334D01*
X5850714Y2908334D02*
X5945952Y2860715D01*
X5945952Y2860715D02*
X5993571Y2813096D01*
X5993571Y2813096D02*
X6041190Y2717858D01*
X6041190Y2717858D02*
X6041190Y2336906D01*
X5517380Y3241668D02*
X5517380Y3860715D01*
X5517380Y3860715D02*
X5898333Y3527382D01*
X5898333Y3527382D02*
X5898333Y3670239D01*
X5898333Y3670239D02*
X5945952Y3765477D01*
X5945952Y3765477D02*
X5993571Y3813096D01*
X5993571Y3813096D02*
X6088809Y3860715D01*
X6088809Y3860715D02*
X6326904Y3860715D01*
X6326904Y3860715D02*
X6422142Y3813096D01*
X6422142Y3813096D02*
X6469761Y3765477D01*
X6469761Y3765477D02*
X6517380Y3670239D01*
X6517380Y3670239D02*
X6517380Y3384525D01*
X6517380Y3384525D02*
X6469761Y3289287D01*
X6469761Y3289287D02*
X6422142Y3241668D01*
%TO.C,R22*%
X78345380Y7487143D02*
X77869190Y7153810D01*
X78345380Y6915715D02*
X77345380Y6915715D01*
X77345380Y6915715D02*
X77345380Y7296667D01*
X77345380Y7296667D02*
X77393000Y7391905D01*
X77393000Y7391905D02*
X77440619Y7439524D01*
X77440619Y7439524D02*
X77535857Y7487143D01*
X77535857Y7487143D02*
X77678714Y7487143D01*
X77678714Y7487143D02*
X77773952Y7439524D01*
X77773952Y7439524D02*
X77821571Y7391905D01*
X77821571Y7391905D02*
X77869190Y7296667D01*
X77869190Y7296667D02*
X77869190Y6915715D01*
X77440619Y7868096D02*
X77393000Y7915715D01*
X77393000Y7915715D02*
X77345380Y8010953D01*
X77345380Y8010953D02*
X77345380Y8249048D01*
X77345380Y8249048D02*
X77393000Y8344286D01*
X77393000Y8344286D02*
X77440619Y8391905D01*
X77440619Y8391905D02*
X77535857Y8439524D01*
X77535857Y8439524D02*
X77631095Y8439524D01*
X77631095Y8439524D02*
X77773952Y8391905D01*
X77773952Y8391905D02*
X78345380Y7820477D01*
X78345380Y7820477D02*
X78345380Y8439524D01*
X77440619Y8820477D02*
X77393000Y8868096D01*
X77393000Y8868096D02*
X77345380Y8963334D01*
X77345380Y8963334D02*
X77345380Y9201429D01*
X77345380Y9201429D02*
X77393000Y9296667D01*
X77393000Y9296667D02*
X77440619Y9344286D01*
X77440619Y9344286D02*
X77535857Y9391905D01*
X77535857Y9391905D02*
X77631095Y9391905D01*
X77631095Y9391905D02*
X77773952Y9344286D01*
X77773952Y9344286D02*
X78345380Y8772858D01*
X78345380Y8772858D02*
X78345380Y9391905D01*
%TO.C,C11*%
X16332142Y9527858D02*
X16284523Y9480239D01*
X16284523Y9480239D02*
X16141666Y9432620D01*
X16141666Y9432620D02*
X16046428Y9432620D01*
X16046428Y9432620D02*
X15903571Y9480239D01*
X15903571Y9480239D02*
X15808333Y9575477D01*
X15808333Y9575477D02*
X15760714Y9670715D01*
X15760714Y9670715D02*
X15713095Y9861191D01*
X15713095Y9861191D02*
X15713095Y10004048D01*
X15713095Y10004048D02*
X15760714Y10194524D01*
X15760714Y10194524D02*
X15808333Y10289762D01*
X15808333Y10289762D02*
X15903571Y10385000D01*
X15903571Y10385000D02*
X16046428Y10432620D01*
X16046428Y10432620D02*
X16141666Y10432620D01*
X16141666Y10432620D02*
X16284523Y10385000D01*
X16284523Y10385000D02*
X16332142Y10337381D01*
X17284523Y9432620D02*
X16713095Y9432620D01*
X16998809Y9432620D02*
X16998809Y10432620D01*
X16998809Y10432620D02*
X16903571Y10289762D01*
X16903571Y10289762D02*
X16808333Y10194524D01*
X16808333Y10194524D02*
X16713095Y10146905D01*
X18236904Y9432620D02*
X17665476Y9432620D01*
X17951190Y9432620D02*
X17951190Y10432620D01*
X17951190Y10432620D02*
X17855952Y10289762D01*
X17855952Y10289762D02*
X17760714Y10194524D01*
X17760714Y10194524D02*
X17665476Y10146905D01*
D13*
%TO.C,U2*%
X11824999Y8155999D02*
X11049997Y8155999D01*
X13050001Y5056001D02*
X11075001Y5056001D01*
D14*
%TO.C,D1*%
X13290000Y3050000D02*
X13290000Y1350000D01*
X13290000Y1350000D02*
X15950000Y1350000D01*
X13290000Y3050000D02*
X15950000Y3050000D01*
%TO.C,R10*%
X22980000Y20467621D02*
X22980000Y20132379D01*
X22220000Y20467621D02*
X22220000Y20132379D01*
%TO.C,R35*%
X21042621Y14270000D02*
X20707379Y14270000D01*
X21042621Y15030000D02*
X20707379Y15030000D01*
%TO.C,C8*%
X6265000Y18934165D02*
X6265000Y19165835D01*
X6985000Y18934165D02*
X6985000Y19165835D01*
%TO.C,R12*%
X12607379Y20530000D02*
X12942621Y20530000D01*
X12607379Y19770000D02*
X12942621Y19770000D01*
%TO.C,R34*%
X10757379Y21555000D02*
X11092621Y21555000D01*
X10757379Y20795000D02*
X11092621Y20795000D01*
%TO.C,R1*%
X7404000Y17932379D02*
X7404000Y18267621D01*
X8164000Y17932379D02*
X8164000Y18267621D01*
%TO.C,Q3*%
X72765000Y10575000D02*
X72765000Y8900000D01*
X72765000Y10575000D02*
X72765000Y11225000D01*
X75885000Y10575000D02*
X75885000Y9925000D01*
X75885000Y10575000D02*
X75885000Y11225000D01*
%TO.C,Q2*%
X85250000Y23440000D02*
X86925000Y23440000D01*
X85250000Y23440000D02*
X84600000Y23440000D01*
X85250000Y26560000D02*
X85900000Y26560000D01*
X85250000Y26560000D02*
X84600000Y26560000D01*
%TO.C,R25*%
X80720000Y19857379D02*
X80720000Y20192621D01*
X81480000Y19857379D02*
X81480000Y20192621D01*
%TO.C,Q1*%
X82575000Y11210000D02*
X80900000Y11210000D01*
X82575000Y11210000D02*
X83225000Y11210000D01*
X82575000Y8090000D02*
X81925000Y8090000D01*
X82575000Y8090000D02*
X83225000Y8090000D01*
%TO.C,R15*%
X73895000Y17292621D02*
X73895000Y16957379D01*
X74655000Y17292621D02*
X74655000Y16957379D01*
%TO.C,Q4*%
X65102500Y21368000D02*
X66777500Y21368000D01*
X65102500Y21368000D02*
X64452500Y21368000D01*
X65102500Y24488000D02*
X65752500Y24488000D01*
X65102500Y24488000D02*
X64452500Y24488000D01*
%TO.C,C4*%
X14844000Y6015835D02*
X14844000Y5784165D01*
X14124000Y6015835D02*
X14124000Y5784165D01*
%TO.C,C14*%
X2165835Y12090000D02*
X1934165Y12090000D01*
X2165835Y12810000D02*
X1934165Y12810000D01*
%TO.C,R31*%
X67420000Y22207379D02*
X67420000Y22542621D01*
X68180000Y22207379D02*
X68180000Y22542621D01*
%TO.C,C6*%
X5265000Y18959165D02*
X5265000Y19190835D01*
X5985000Y18959165D02*
X5985000Y19190835D01*
%TO.C,R32*%
X62882379Y25555000D02*
X63217621Y25555000D01*
X62882379Y24795000D02*
X63217621Y24795000D01*
%TO.C,R16*%
X74655000Y14942621D02*
X74655000Y14607379D01*
X73895000Y14942621D02*
X73895000Y14607379D01*
%TO.C,C2*%
X24240000Y20209165D02*
X24240000Y20440835D01*
X24960000Y20209165D02*
X24960000Y20440835D01*
%TO.C,R6*%
X10870121Y2120000D02*
X10534879Y2120000D01*
X10870121Y2880000D02*
X10534879Y2880000D01*
%TO.C,R14*%
X75880000Y15017621D02*
X75880000Y14682379D01*
X75120000Y15017621D02*
X75120000Y14682379D01*
%TO.C,C10*%
X19188165Y20682000D02*
X19419835Y20682000D01*
X19188165Y19962000D02*
X19419835Y19962000D01*
%TO.C,R23*%
X79720000Y8216379D02*
X79720000Y8551621D01*
X80480000Y8216379D02*
X80480000Y8551621D01*
%TO.C,Y1*%
X20500000Y15250000D02*
X22500000Y15250000D01*
X22500000Y15250000D02*
X22900000Y15250000D01*
X20500000Y15450000D02*
X20500000Y16450000D01*
X22500000Y15450000D02*
X20500000Y15450000D01*
X22500000Y15450000D02*
X22900000Y15450000D01*
X22900000Y16450000D02*
X22900000Y15450000D01*
X22900000Y16450000D02*
X23300000Y16450000D01*
X20500000Y18250000D02*
X20500000Y19050000D01*
X20500000Y19050000D02*
X22500000Y19050000D01*
X22500000Y19050000D02*
X22900000Y19050000D01*
X22900000Y19050000D02*
X22900000Y18250000D01*
%TO.C,D4*%
X80575000Y22190000D02*
X82275000Y22190000D01*
X80575000Y22190000D02*
X80575000Y24850000D01*
X82275000Y22190000D02*
X82275000Y24850000D01*
%TO.C,R18*%
X82332379Y17580000D02*
X82667621Y17580000D01*
X82332379Y16820000D02*
X82667621Y16820000D01*
%TO.C,R5*%
X10534879Y3880000D02*
X10870121Y3880000D01*
X10534879Y3120000D02*
X10870121Y3120000D01*
%TO.C,R19*%
X82642621Y14720000D02*
X82307379Y14720000D01*
X82642621Y15480000D02*
X82307379Y15480000D01*
%TO.C,D5*%
X29600000Y24667000D02*
X29600000Y26137000D01*
X29600000Y26137000D02*
X27140000Y26137000D01*
X27140000Y24667000D02*
X29600000Y24667000D01*
%TO.C,J1*%
X28470000Y12755000D02*
X29800000Y12755000D01*
X28470000Y11425000D02*
X28470000Y12755000D01*
X28470000Y10155000D02*
X28470000Y7555000D01*
X28470000Y10155000D02*
X31130000Y10155000D01*
X28470000Y7555000D02*
X31130000Y7555000D01*
X31130000Y10155000D02*
X31130000Y7555000D01*
%TO.C,D6*%
X29600000Y26191000D02*
X29600000Y27661000D01*
X29600000Y27661000D02*
X27140000Y27661000D01*
X27140000Y26191000D02*
X29600000Y26191000D01*
%TO.C,R9*%
X23245000Y20132379D02*
X23245000Y20467621D01*
X24005000Y20132379D02*
X24005000Y20467621D01*
%TO.C,R17*%
X82667621Y15795000D02*
X82332379Y15795000D01*
X82667621Y16555000D02*
X82332379Y16555000D01*
%TO.C,C12*%
X4115835Y17540000D02*
X3884165Y17540000D01*
X4115835Y18260000D02*
X3884165Y18260000D01*
%TO.C,D3*%
X80965000Y7850000D02*
X80965000Y6150000D01*
X80965000Y7850000D02*
X83625000Y7850000D01*
X80965000Y6150000D02*
X83625000Y6150000D01*
%TO.C,R33*%
X79342621Y16695000D02*
X79007379Y16695000D01*
X79342621Y17455000D02*
X79007379Y17455000D01*
%TO.C,R24*%
X79620000Y19857379D02*
X79620000Y20192621D01*
X80380000Y19857379D02*
X80380000Y20192621D01*
%TO.C,U3*%
X3475000Y7275000D02*
X3735000Y7275000D01*
X3735000Y7275000D02*
X3735000Y5600000D01*
X8925000Y7275000D02*
X8665000Y7275000D01*
X3475000Y10000000D02*
X3475000Y7275000D01*
X3475000Y10000000D02*
X3475000Y12725000D01*
X8925000Y10000000D02*
X8925000Y7275000D01*
X8925000Y10000000D02*
X8925000Y12725000D01*
X3475000Y12725000D02*
X3735000Y12725000D01*
X8925000Y12725000D02*
X8665000Y12725000D01*
%TO.C,C7*%
X10210000Y10415835D02*
X10210000Y10184165D01*
X9490000Y10415835D02*
X9490000Y10184165D01*
%TO.C,C1*%
X9415000Y18084165D02*
X9415000Y18315835D01*
X10135000Y18084165D02*
X10135000Y18315835D01*
%TO.C,R2*%
X8420000Y17932379D02*
X8420000Y18267621D01*
X9180000Y17932379D02*
X9180000Y18267621D01*
%TO.C,R21*%
X87359879Y10796000D02*
X87695121Y10796000D01*
X87359879Y10036000D02*
X87695121Y10036000D01*
%TO.C,J3*%
X24870000Y12755000D02*
X26200000Y12755000D01*
X24870000Y11425000D02*
X24870000Y12755000D01*
X24870000Y10155000D02*
X24870000Y7555000D01*
X24870000Y10155000D02*
X27530000Y10155000D01*
X24870000Y7555000D02*
X27530000Y7555000D01*
X27530000Y10155000D02*
X27530000Y7555000D01*
%TO.C,R11*%
X13032379Y21530000D02*
X13367621Y21530000D01*
X13032379Y20770000D02*
X13367621Y20770000D01*
%TO.C,R4*%
X7748000Y2882379D02*
X7748000Y3217621D01*
X8508000Y2882379D02*
X8508000Y3217621D01*
%TO.C,R13*%
X75095000Y17292621D02*
X75095000Y16957379D01*
X75855000Y17292621D02*
X75855000Y16957379D01*
%TO.C,C3*%
X4115835Y16540000D02*
X3884165Y16540000D01*
X4115835Y17260000D02*
X3884165Y17260000D01*
%TO.C,R20*%
X82282379Y14455000D02*
X82617621Y14455000D01*
X82282379Y13695000D02*
X82617621Y13695000D01*
%TO.C,C9*%
X14960000Y8415835D02*
X14960000Y8184165D01*
X14240000Y8415835D02*
X14240000Y8184165D01*
%TO.C,C13*%
X10415000Y18859165D02*
X10415000Y19090835D01*
X11135000Y18859165D02*
X11135000Y19090835D01*
%TO.C,C5*%
X11665835Y8540000D02*
X11434165Y8540000D01*
X11665835Y9260000D02*
X11434165Y9260000D01*
%TO.C,U1*%
X19097500Y11127500D02*
X18447500Y11127500D01*
X11877500Y11777500D02*
X11877500Y11127500D01*
X19097500Y11777500D02*
X19097500Y11127500D01*
X11877500Y17697500D02*
X11877500Y18347500D01*
X19097500Y17697500D02*
X19097500Y18347500D01*
X11877500Y18347500D02*
X12527500Y18347500D01*
X19097500Y18347500D02*
X18447500Y18347500D01*
%TO.C,R3*%
X6732000Y2882379D02*
X6732000Y3217621D01*
X7492000Y2882379D02*
X7492000Y3217621D01*
%TO.C,R22*%
X78695000Y7866379D02*
X78695000Y8201621D01*
X79455000Y7866379D02*
X79455000Y8201621D01*
%TO.C,C11*%
X15935000Y8415835D02*
X15935000Y8184165D01*
X15215000Y8415835D02*
X15215000Y8184165D01*
%TD*%
M02*
