%TF.GenerationSoftware,KiCad,Pcbnew,(7.0.0)*%
%TF.CreationDate,2023-05-05T15:28:03+08:00*%
%TF.ProjectId,opsx_x,6f707378-5f78-42e6-9b69-6361645f7063,2*%
%TF.SameCoordinates,PX18392c0PY51a2700*%
%TF.FileFunction,Legend,Bot*%
%TF.FilePolarity,Positive*%
%FSLAX46Y46*%
G04 Gerber Fmt 4.6, Leading zero omitted, Abs format (unit mm)*
G04 Created by KiCad (PCBNEW (7.0.0)) date 2023-05-05 15:28:03*
%MOMM*%
%LPD*%
G01*
G04 APERTURE LIST*
%ADD10C,0.150000*%
%ADD11C,0.101600*%
%ADD12C,0.152400*%
G04 APERTURE END LIST*
D10*
X13104761Y14417620D02*
X12533333Y14417620D01*
X12819047Y13417620D02*
X12819047Y14417620D01*
X12247618Y13465239D02*
X12104761Y13417620D01*
X12104761Y13417620D02*
X11866666Y13417620D01*
X11866666Y13417620D02*
X11771428Y13465239D01*
X11771428Y13465239D02*
X11723809Y13512858D01*
X11723809Y13512858D02*
X11676190Y13608096D01*
X11676190Y13608096D02*
X11676190Y13703334D01*
X11676190Y13703334D02*
X11723809Y13798572D01*
X11723809Y13798572D02*
X11771428Y13846191D01*
X11771428Y13846191D02*
X11866666Y13893810D01*
X11866666Y13893810D02*
X12057142Y13941429D01*
X12057142Y13941429D02*
X12152380Y13989048D01*
X12152380Y13989048D02*
X12199999Y14036667D01*
X12199999Y14036667D02*
X12247618Y14131905D01*
X12247618Y14131905D02*
X12247618Y14227143D01*
X12247618Y14227143D02*
X12199999Y14322381D01*
X12199999Y14322381D02*
X12152380Y14370000D01*
X12152380Y14370000D02*
X12057142Y14417620D01*
X12057142Y14417620D02*
X11819047Y14417620D01*
X11819047Y14417620D02*
X11676190Y14370000D01*
X10771428Y13417620D02*
X11247618Y13417620D01*
X11247618Y13417620D02*
X11247618Y14417620D01*
X10676190Y13322381D02*
X9914285Y13322381D01*
X9723808Y13703334D02*
X9247618Y13703334D01*
X9819046Y13417620D02*
X9485713Y14417620D01*
X9485713Y14417620D02*
X9152380Y13417620D01*
X8819046Y13417620D02*
X8819046Y14417620D01*
X8819046Y14417620D02*
X8580951Y14417620D01*
X8580951Y14417620D02*
X8438094Y14370000D01*
X8438094Y14370000D02*
X8342856Y14274762D01*
X8342856Y14274762D02*
X8295237Y14179524D01*
X8295237Y14179524D02*
X8247618Y13989048D01*
X8247618Y13989048D02*
X8247618Y13846191D01*
X8247618Y13846191D02*
X8295237Y13655715D01*
X8295237Y13655715D02*
X8342856Y13560477D01*
X8342856Y13560477D02*
X8438094Y13465239D01*
X8438094Y13465239D02*
X8580951Y13417620D01*
X8580951Y13417620D02*
X8819046Y13417620D01*
X7819046Y13417620D02*
X7819046Y14417620D01*
X7819046Y14417620D02*
X7580951Y14417620D01*
X7580951Y14417620D02*
X7438094Y14370000D01*
X7438094Y14370000D02*
X7342856Y14274762D01*
X7342856Y14274762D02*
X7295237Y14179524D01*
X7295237Y14179524D02*
X7247618Y13989048D01*
X7247618Y13989048D02*
X7247618Y13846191D01*
X7247618Y13846191D02*
X7295237Y13655715D01*
X7295237Y13655715D02*
X7342856Y13560477D01*
X7342856Y13560477D02*
X7438094Y13465239D01*
X7438094Y13465239D02*
X7580951Y13417620D01*
X7580951Y13417620D02*
X7819046Y13417620D01*
%TO.C,U4*%
X20461904Y22032620D02*
X20461904Y21223096D01*
X20461904Y21223096D02*
X20414285Y21127858D01*
X20414285Y21127858D02*
X20366666Y21080239D01*
X20366666Y21080239D02*
X20271428Y21032620D01*
X20271428Y21032620D02*
X20080952Y21032620D01*
X20080952Y21032620D02*
X19985714Y21080239D01*
X19985714Y21080239D02*
X19938095Y21127858D01*
X19938095Y21127858D02*
X19890476Y21223096D01*
X19890476Y21223096D02*
X19890476Y22032620D01*
X18985714Y21699286D02*
X18985714Y21032620D01*
X19223809Y22080239D02*
X19461904Y21365953D01*
X19461904Y21365953D02*
X18842857Y21365953D01*
%TO.C,Z3*%
X74089419Y19207677D02*
X74089419Y19874343D01*
X74089419Y19874343D02*
X73089419Y19207677D01*
X73089419Y19207677D02*
X73089419Y19874343D01*
X74089419Y20160058D02*
X74089419Y20779105D01*
X74089419Y20779105D02*
X73708466Y20445772D01*
X73708466Y20445772D02*
X73708466Y20588629D01*
X73708466Y20588629D02*
X73660847Y20683867D01*
X73660847Y20683867D02*
X73613228Y20731486D01*
X73613228Y20731486D02*
X73517990Y20779105D01*
X73517990Y20779105D02*
X73279895Y20779105D01*
X73279895Y20779105D02*
X73184657Y20731486D01*
X73184657Y20731486D02*
X73137038Y20683867D01*
X73137038Y20683867D02*
X73089419Y20588629D01*
X73089419Y20588629D02*
X73089419Y20302915D01*
X73089419Y20302915D02*
X73137038Y20207677D01*
X73137038Y20207677D02*
X73184657Y20160058D01*
%TO.C,Z2*%
X80112219Y19690477D02*
X80112219Y20357143D01*
X80112219Y20357143D02*
X79112219Y19690477D01*
X79112219Y19690477D02*
X79112219Y20357143D01*
X80016980Y20690477D02*
X80064600Y20738096D01*
X80064600Y20738096D02*
X80112219Y20833334D01*
X80112219Y20833334D02*
X80112219Y21071429D01*
X80112219Y21071429D02*
X80064600Y21166667D01*
X80064600Y21166667D02*
X80016980Y21214286D01*
X80016980Y21214286D02*
X79921742Y21261905D01*
X79921742Y21261905D02*
X79826504Y21261905D01*
X79826504Y21261905D02*
X79683647Y21214286D01*
X79683647Y21214286D02*
X79112219Y20642858D01*
X79112219Y20642858D02*
X79112219Y21261905D01*
%TO.C,Z1*%
X8190476Y15367381D02*
X8857142Y15367381D01*
X8857142Y15367381D02*
X8190476Y16367381D01*
X8190476Y16367381D02*
X8857142Y16367381D01*
X9761904Y16367381D02*
X9190476Y16367381D01*
X9476190Y16367381D02*
X9476190Y15367381D01*
X9476190Y15367381D02*
X9380952Y15510239D01*
X9380952Y15510239D02*
X9285714Y15605477D01*
X9285714Y15605477D02*
X9190476Y15653096D01*
D11*
%TO.C,sx1*%
X16753600Y19791000D02*
G75*
G03*
X16753600Y19791000I-500000J0D01*
G01*
X18983600Y19791000D02*
G75*
G03*
X18983600Y19791000I-2730000J0D01*
G01*
D12*
%TO.C,Z3*%
X71069200Y18340800D02*
X72186800Y18340800D01*
X72644000Y18798000D02*
X72644000Y21338000D01*
X70612000Y21338000D02*
X70612000Y18798000D01*
X71069200Y21795200D02*
X72186800Y21795200D01*
X70612000Y18798000D02*
G75*
G03*
X71069200Y18340800I457201J1D01*
G01*
X72186800Y18340800D02*
G75*
G03*
X72644000Y18798000I-1J457201D01*
G01*
X71069200Y21795200D02*
G75*
G03*
X70612000Y21338000I0J-457200D01*
G01*
X72644000Y21338000D02*
G75*
G03*
X72186800Y21795200I-457200J0D01*
G01*
%TO.C,Z2*%
X77092000Y18823600D02*
X78209600Y18823600D01*
X78666800Y19280800D02*
X78666800Y21820800D01*
X76634800Y21820800D02*
X76634800Y19280800D01*
X77092000Y22278000D02*
X78209600Y22278000D01*
X76634800Y19280800D02*
G75*
G03*
X77092000Y18823600I457201J1D01*
G01*
X78209600Y18823600D02*
G75*
G03*
X78666800Y19280800I-1J457201D01*
G01*
X77092000Y22278000D02*
G75*
G03*
X76634800Y21820800I0J-457200D01*
G01*
X78666800Y21820800D02*
G75*
G03*
X78209600Y22278000I-457200J0D01*
G01*
%TO.C,Z1*%
X9956800Y16458800D02*
X9956800Y15341200D01*
X10414000Y14884000D02*
X12954000Y14884000D01*
X12954000Y16916000D02*
X10414000Y16916000D01*
X13411200Y16458800D02*
X13411200Y15341200D01*
X10414000Y16916000D02*
G75*
G03*
X9956800Y16458800I1J-457201D01*
G01*
X9956800Y15341200D02*
G75*
G03*
X10414000Y14884000I457201J1D01*
G01*
X13411200Y16458800D02*
G75*
G03*
X12954000Y16916000I-457200J0D01*
G01*
X12954000Y14884000D02*
G75*
G03*
X13411200Y15341200I0J457200D01*
G01*
%TD*%
M02*
