%TF.GenerationSoftware,KiCad,Pcbnew,(7.0.0)*%
%TF.CreationDate,2023-05-05T15:28:03+08:00*%
%TF.ProjectId,opsx_x,6f707378-5f78-42e6-9b69-6361645f7063,2*%
%TF.SameCoordinates,PX18392c0PY51a2700*%
%TF.FileFunction,Paste,Top*%
%TF.FilePolarity,Positive*%
%FSLAX46Y46*%
G04 Gerber Fmt 4.6, Leading zero omitted, Abs format (unit mm)*
G04 Created by KiCad (PCBNEW (7.0.0)) date 2023-05-05 15:28:03*
%MOMM*%
%LPD*%
G01*
G04 APERTURE LIST*
G04 Aperture macros list*
%AMRoundRect*
0 Rectangle with rounded corners*
0 $1 Rounding radius*
0 $2 $3 $4 $5 $6 $7 $8 $9 X,Y pos of 4 corners*
0 Add a 4 corners polygon primitive as box body*
4,1,4,$2,$3,$4,$5,$6,$7,$8,$9,$2,$3,0*
0 Add four circle primitives for the rounded corners*
1,1,$1+$1,$2,$3*
1,1,$1+$1,$4,$5*
1,1,$1+$1,$6,$7*
1,1,$1+$1,$8,$9*
0 Add four rect primitives between the rounded corners*
20,1,$1+$1,$2,$3,$4,$5,0*
20,1,$1+$1,$4,$5,$6,$7,0*
20,1,$1+$1,$6,$7,$8,$9,0*
20,1,$1+$1,$8,$9,$2,$3,0*%
%AMRotRect*
0 Rectangle, with rotation*
0 The origin of the aperture is its center*
0 $1 length*
0 $2 width*
0 $3 Rotation angle, in degrees counterclockwise*
0 Add horizontal line*
21,1,$1,$2,0,0,$3*%
G04 Aperture macros list end*
%ADD10R,1.000001X0.599999*%
%ADD11RotRect,1.780000X1.060000X126.000000*%
%ADD12RotRect,2.159000X1.310000X26.000000*%
%ADD13R,2.413000X1.143000*%
%ADD14R,1.371600X2.540000*%
%ADD15R,1.143000X2.413000*%
%ADD16RoundRect,0.112500X-0.187500X-0.112500X0.187500X-0.112500X0.187500X0.112500X-0.187500X0.112500X0*%
%ADD17RoundRect,0.160000X-0.160000X0.197500X-0.160000X-0.197500X0.160000X-0.197500X0.160000X0.197500X0*%
%ADD18RoundRect,0.160000X0.197500X0.160000X-0.197500X0.160000X-0.197500X-0.160000X0.197500X-0.160000X0*%
%ADD19RoundRect,0.155000X0.155000X-0.212500X0.155000X0.212500X-0.155000X0.212500X-0.155000X-0.212500X0*%
%ADD20RoundRect,0.160000X-0.197500X-0.160000X0.197500X-0.160000X0.197500X0.160000X-0.197500X0.160000X0*%
%ADD21RoundRect,0.160000X0.160000X-0.197500X0.160000X0.197500X-0.160000X0.197500X-0.160000X-0.197500X0*%
%ADD22RoundRect,0.150000X0.150000X-0.587500X0.150000X0.587500X-0.150000X0.587500X-0.150000X-0.587500X0*%
%ADD23RoundRect,0.150000X0.587500X0.150000X-0.587500X0.150000X-0.587500X-0.150000X0.587500X-0.150000X0*%
%ADD24RoundRect,0.150000X-0.587500X-0.150000X0.587500X-0.150000X0.587500X0.150000X-0.587500X0.150000X0*%
%ADD25RoundRect,0.155000X-0.155000X0.212500X-0.155000X-0.212500X0.155000X-0.212500X0.155000X0.212500X0*%
%ADD26RoundRect,0.155000X0.212500X0.155000X-0.212500X0.155000X-0.212500X-0.155000X0.212500X-0.155000X0*%
%ADD27RoundRect,0.155000X-0.212500X-0.155000X0.212500X-0.155000X0.212500X0.155000X-0.212500X0.155000X0*%
%ADD28R,1.900000X0.400000*%
%ADD29RoundRect,0.112500X0.112500X-0.187500X0.112500X0.187500X-0.112500X0.187500X-0.112500X-0.187500X0*%
%ADD30RoundRect,0.237500X0.287500X0.237500X-0.287500X0.237500X-0.287500X-0.237500X0.287500X-0.237500X0*%
%ADD31RoundRect,0.150000X0.150000X-0.650000X0.150000X0.650000X-0.150000X0.650000X-0.150000X-0.650000X0*%
%ADD32RoundRect,0.250000X0.292217X-0.292217X0.292217X0.292217X-0.292217X0.292217X-0.292217X-0.292217X0*%
%ADD33RoundRect,0.050000X0.050000X-0.387500X0.050000X0.387500X-0.050000X0.387500X-0.050000X-0.387500X0*%
%ADD34RoundRect,0.050000X0.387500X-0.050000X0.387500X0.050000X-0.387500X0.050000X-0.387500X-0.050000X0*%
G04 APERTURE END LIST*
D10*
%TO.C,U2*%
X12800000Y5655998D03*
X12800000Y6605999D03*
X12800000Y7555997D03*
X10050000Y7555997D03*
X10050000Y5655998D03*
%TD*%
D11*
%TO.C,sx1*%
X70508972Y19129942D03*
X71803399Y20070399D03*
X76981108Y23832224D03*
D12*
X91843999Y10011999D03*
D11*
X67920117Y17249029D03*
D12*
X91076849Y11584889D03*
D13*
X87850917Y21206118D03*
X90177599Y19522399D03*
D11*
X74392253Y21951311D03*
X73097826Y21010855D03*
D13*
X92555199Y21238799D03*
D11*
X75686680Y22891768D03*
D13*
X65539702Y26572321D03*
X69501999Y26608999D03*
D12*
X92611148Y8439109D03*
X93378298Y6866220D03*
X88775401Y16303557D03*
X89542550Y14730668D03*
D14*
X78178799Y4068399D03*
X79956799Y4068399D03*
D15*
X83102280Y21451999D03*
X85559399Y21451999D03*
D13*
X79056286Y26357168D03*
D11*
X69214544Y18189486D03*
D12*
X90309700Y13157778D03*
%TD*%
D16*
%TO.C,D1*%
X13850000Y2200000D03*
X15950000Y2200000D03*
%TD*%
D17*
%TO.C,R10*%
X22600000Y20897500D03*
X22600000Y19702500D03*
%TD*%
D18*
%TO.C,R35*%
X21472500Y14650000D03*
X20277500Y14650000D03*
%TD*%
D19*
%TO.C,C8*%
X6625000Y18482500D03*
X6625000Y19617500D03*
%TD*%
D20*
%TO.C,R12*%
X12177500Y20150000D03*
X13372500Y20150000D03*
%TD*%
%TO.C,R34*%
X10327500Y21175000D03*
X11522500Y21175000D03*
%TD*%
D21*
%TO.C,R1*%
X7784000Y17502500D03*
X7784000Y18697500D03*
%TD*%
D22*
%TO.C,Q3*%
X73375000Y9637500D03*
X75275000Y9637500D03*
X74325000Y11512500D03*
%TD*%
D23*
%TO.C,Q2*%
X86187500Y24050000D03*
X86187500Y25950000D03*
X84312500Y25000000D03*
%TD*%
D21*
%TO.C,R25*%
X81100000Y19427500D03*
X81100000Y20622500D03*
%TD*%
D24*
%TO.C,Q1*%
X81637500Y10600000D03*
X81637500Y8700000D03*
X83512500Y9650000D03*
%TD*%
D17*
%TO.C,R15*%
X74275000Y16527500D03*
X74275000Y17722500D03*
%TD*%
D23*
%TO.C,Q4*%
X66040000Y21978000D03*
X66040000Y23878000D03*
X64165000Y22928000D03*
%TD*%
D25*
%TO.C,C4*%
X14484000Y6467500D03*
X14484000Y5332500D03*
%TD*%
D26*
%TO.C,C14*%
X2617500Y12450000D03*
X1482500Y12450000D03*
%TD*%
D21*
%TO.C,R31*%
X67800000Y21777500D03*
X67800000Y22972500D03*
%TD*%
D19*
%TO.C,C6*%
X5625000Y18507500D03*
X5625000Y19642500D03*
%TD*%
D20*
%TO.C,R32*%
X62452500Y25175000D03*
X63647500Y25175000D03*
%TD*%
D17*
%TO.C,R16*%
X74275000Y15372500D03*
X74275000Y14177500D03*
%TD*%
D19*
%TO.C,C2*%
X24600000Y19757500D03*
X24600000Y20892500D03*
%TD*%
D18*
%TO.C,R6*%
X11300000Y2500000D03*
X10105000Y2500000D03*
%TD*%
D17*
%TO.C,R14*%
X75500000Y15447500D03*
X75500000Y14252500D03*
%TD*%
D27*
%TO.C,C10*%
X18736500Y20322000D03*
X19871500Y20322000D03*
%TD*%
D21*
%TO.C,R23*%
X80100000Y7786500D03*
X80100000Y8981500D03*
%TD*%
D28*
%TO.C,Y1*%
X21699999Y16049999D03*
X21699999Y17249999D03*
X21699999Y18449999D03*
%TD*%
D29*
%TO.C,D4*%
X81425000Y22750000D03*
X81425000Y24850000D03*
%TD*%
D20*
%TO.C,R18*%
X81902500Y17200000D03*
X83097500Y17200000D03*
%TD*%
%TO.C,R5*%
X10105000Y3500000D03*
X11300000Y3500000D03*
%TD*%
D18*
%TO.C,R19*%
X83072500Y15100000D03*
X81877500Y15100000D03*
%TD*%
D30*
%TO.C,D5*%
X28815000Y25402000D03*
X27065000Y25402000D03*
%TD*%
%TO.C,D6*%
X28815000Y26926000D03*
X27065000Y26926000D03*
%TD*%
D21*
%TO.C,R9*%
X23625000Y19702500D03*
X23625000Y20897500D03*
%TD*%
D18*
%TO.C,R17*%
X83097500Y16175000D03*
X81902500Y16175000D03*
%TD*%
D26*
%TO.C,C12*%
X4567500Y17900000D03*
X3432500Y17900000D03*
%TD*%
D16*
%TO.C,D3*%
X81525000Y7000000D03*
X83625000Y7000000D03*
%TD*%
D18*
%TO.C,R33*%
X79772500Y17075000D03*
X78577500Y17075000D03*
%TD*%
D21*
%TO.C,R24*%
X80000000Y19427500D03*
X80000000Y20622500D03*
%TD*%
D31*
%TO.C,U3*%
X4295000Y6400000D03*
X5565000Y6400000D03*
X6835000Y6400000D03*
X8105000Y6400000D03*
X8105000Y13600000D03*
X6835000Y13600000D03*
X5565000Y13600000D03*
X4295000Y13600000D03*
%TD*%
D25*
%TO.C,C7*%
X9850000Y10867500D03*
X9850000Y9732500D03*
%TD*%
D19*
%TO.C,C1*%
X9775000Y17632500D03*
X9775000Y18767500D03*
%TD*%
D21*
%TO.C,R2*%
X8800000Y17502500D03*
X8800000Y18697500D03*
%TD*%
D20*
%TO.C,R21*%
X86930000Y10416000D03*
X88125000Y10416000D03*
%TD*%
%TO.C,R11*%
X12602500Y21150000D03*
X13797500Y21150000D03*
%TD*%
D21*
%TO.C,R4*%
X8128000Y2452500D03*
X8128000Y3647500D03*
%TD*%
D17*
%TO.C,R13*%
X75475000Y16527500D03*
X75475000Y17722500D03*
%TD*%
D26*
%TO.C,C3*%
X4567500Y16900000D03*
X3432500Y16900000D03*
%TD*%
D20*
%TO.C,R20*%
X81852500Y14075000D03*
X83047500Y14075000D03*
%TD*%
D25*
%TO.C,C9*%
X14600000Y8867500D03*
X14600000Y7732500D03*
%TD*%
D19*
%TO.C,C13*%
X10775000Y18407500D03*
X10775000Y19542500D03*
%TD*%
D26*
%TO.C,C5*%
X12117500Y8900000D03*
X10982500Y8900000D03*
%TD*%
D32*
%TO.C,U1*%
X14850000Y14100000D03*
X16125000Y14100000D03*
X14850000Y15375000D03*
X16125000Y15375000D03*
D33*
X12887500Y11300000D03*
X13287500Y11300000D03*
X13687500Y11300000D03*
X14087500Y11300000D03*
X14487500Y11300000D03*
X14887500Y11300000D03*
X15287500Y11300000D03*
X15687500Y11300000D03*
X16087500Y11300000D03*
X16487500Y11300000D03*
X16887500Y11300000D03*
X17287500Y11300000D03*
X17687500Y11300000D03*
X18087500Y11300000D03*
D34*
X18925000Y12137500D03*
X18925000Y12537500D03*
X18925000Y12937500D03*
X18925000Y13337500D03*
X18925000Y13737500D03*
X18925000Y14137500D03*
X18925000Y14537500D03*
X18925000Y14937500D03*
X18925000Y15337500D03*
X18925000Y15737500D03*
X18925000Y16137500D03*
X18925000Y16537500D03*
X18925000Y16937500D03*
X18925000Y17337500D03*
D33*
X18087500Y18175000D03*
X17687500Y18175000D03*
X17287500Y18175000D03*
X16887500Y18175000D03*
X16487500Y18175000D03*
X16087500Y18175000D03*
X15687500Y18175000D03*
X15287500Y18175000D03*
X14887500Y18175000D03*
X14487500Y18175000D03*
X14087500Y18175000D03*
X13687500Y18175000D03*
X13287500Y18175000D03*
X12887500Y18175000D03*
D34*
X12050000Y17337500D03*
X12050000Y16937500D03*
X12050000Y16537500D03*
X12050000Y16137500D03*
X12050000Y15737500D03*
X12050000Y15337500D03*
X12050000Y14937500D03*
X12050000Y14537500D03*
X12050000Y14137500D03*
X12050000Y13737500D03*
X12050000Y13337500D03*
X12050000Y12937500D03*
X12050000Y12537500D03*
X12050000Y12137500D03*
%TD*%
D21*
%TO.C,R3*%
X7112000Y2452500D03*
X7112000Y3647500D03*
%TD*%
%TO.C,R22*%
X79075000Y7436500D03*
X79075000Y8631500D03*
%TD*%
D25*
%TO.C,C11*%
X15575000Y8867500D03*
X15575000Y7732500D03*
%TD*%
M02*
