%TF.GenerationSoftware,KiCad,Pcbnew,(7.0.0)*%
%TF.CreationDate,2023-05-05T15:28:03+08:00*%
%TF.ProjectId,opsx_x,6f707378-5f78-42e6-9b69-6361645f7063,2*%
%TF.SameCoordinates,PX18392c0PY51a2700*%
%TF.FileFunction,Copper,L2,Bot*%
%TF.FilePolarity,Positive*%
%FSLAX46Y46*%
G04 Gerber Fmt 4.6, Leading zero omitted, Abs format (unit mm)*
G04 Created by KiCad (PCBNEW (7.0.0)) date 2023-05-05 15:28:03*
%MOMM*%
%LPD*%
G01*
G04 APERTURE LIST*
%TA.AperFunction,SMDPad,CuDef*%
%ADD10R,0.700000X1.300000*%
%TD*%
%TA.AperFunction,ComponentPad*%
%ADD11R,1.950000X1.950000*%
%TD*%
%TA.AperFunction,ComponentPad*%
%ADD12R,1.050000X1.950000*%
%TD*%
%TA.AperFunction,ComponentPad*%
%ADD13R,3.500000X2.310000*%
%TD*%
%TA.AperFunction,ComponentPad*%
%ADD14R,2.310000X2.310000*%
%TD*%
%TA.AperFunction,ComponentPad*%
%ADD15R,1.700000X1.700000*%
%TD*%
%TA.AperFunction,ComponentPad*%
%ADD16O,1.700000X1.700000*%
%TD*%
%TA.AperFunction,ComponentPad*%
%ADD17C,0.600000*%
%TD*%
%TA.AperFunction,SMDPad,CuDef*%
%ADD18R,1.270000X0.635000*%
%TD*%
%TA.AperFunction,SMDPad,CuDef*%
%ADD19R,0.635000X1.270000*%
%TD*%
%TA.AperFunction,ViaPad*%
%ADD20C,0.510000*%
%TD*%
%TA.AperFunction,ViaPad*%
%ADD21C,0.600000*%
%TD*%
%TA.AperFunction,ViaPad*%
%ADD22C,0.800000*%
%TD*%
%TA.AperFunction,Conductor*%
%ADD23C,0.254000*%
%TD*%
%TA.AperFunction,Conductor*%
%ADD24C,0.508000*%
%TD*%
%TA.AperFunction,Conductor*%
%ADD25C,0.127000*%
%TD*%
%TA.AperFunction,Conductor*%
%ADD26C,0.700000*%
%TD*%
G04 APERTURE END LIST*
D10*
%TO.P,U4,1,VDD*%
%TO.N,+3.3V*%
X17199999Y18249999D03*
%TO.P,U4,2,ADDR*%
%TO.N,GND*%
X16249999Y18249999D03*
%TO.P,U4,3,GND*%
X15299999Y18249999D03*
%TO.P,U4,4,SCL*%
%TO.N,/SCL0*%
X15299999Y21349999D03*
%TO.P,U4,5,INT*%
%TO.N,unconnected-(U4-INT-Pad5)*%
X16249999Y21349999D03*
%TO.P,U4,6,SDA*%
%TO.N,/SDA0*%
X17199999Y21349999D03*
%TD*%
D11*
%TO.P,sx1,GND,GND*%
%TO.N,GND*%
X22832199Y24439199D03*
D12*
%TO.P,sx1,SCL,SCL*%
%TO.N,/SCL1*%
X19047599Y24439199D03*
%TO.P,sx1,SDA,SDA*%
%TO.N,/SDA1*%
X20698599Y24464599D03*
D13*
%TO.P,sx1,UDN,UD-*%
%TO.N,/USB_D-*%
X9624199Y24769399D03*
D14*
%TO.P,sx1,UDP,UD+*%
%TO.N,/USB_D+*%
X6083593Y24798571D03*
D11*
%TO.P,sx1,VO,VO*%
%TO.N,+3.3V*%
X16685399Y24426499D03*
%TD*%
D15*
%TO.P,J1,1,Pin_1*%
%TO.N,GND*%
X29799999Y11424999D03*
D16*
%TO.P,J1,2,Pin_2*%
%TO.N,/~{USB_BOOT}*%
X29799999Y8884999D03*
%TD*%
D15*
%TO.P,J3,1,Pin_1*%
%TO.N,GND*%
X26199999Y11424999D03*
D16*
%TO.P,J3,2,Pin_2*%
%TO.N,VBUS*%
X26199999Y8884999D03*
%TD*%
D17*
%TO.P,U1,57,GND*%
%TO.N,GND*%
X14212500Y13462500D03*
X15487500Y13462500D03*
X16762500Y13462500D03*
X14212500Y14737500D03*
X15487500Y14737500D03*
X16762500Y14737500D03*
X14212500Y16012500D03*
X15487500Y16012500D03*
X16762500Y16012500D03*
%TD*%
D18*
%TO.P,Z3,1,1*%
%TO.N,/S1T-3*%
X71627999Y19051999D03*
%TO.P,Z3,2,2*%
%TO.N,/S1T*%
X71627999Y20067999D03*
%TO.P,Z3,3,3*%
X71627999Y21083999D03*
%TD*%
%TO.P,Z2,1,1*%
%TO.N,/S1F*%
X77650799Y19534799D03*
%TO.P,Z2,2,2*%
%TO.N,/S1F_FPC*%
X77650799Y20550799D03*
%TO.P,Z2,3,3*%
X77650799Y21566799D03*
%TD*%
D19*
%TO.P,Z1,1,1*%
%TO.N,+3.3V*%
X10667999Y15899999D03*
%TO.P,Z1,2,2*%
%TO.N,GND*%
X11683999Y15899999D03*
%TO.P,Z1,3,3*%
X12699999Y15899999D03*
%TD*%
D20*
%TO.N,GND*%
X22075000Y10500000D03*
X21150000Y10500000D03*
X20125000Y10500000D03*
X21225000Y19500000D03*
X26875000Y20675000D03*
X27625000Y21475000D03*
X26875000Y21475000D03*
X31350000Y18825000D03*
X29600000Y17175000D03*
X63075000Y13350000D03*
X61625000Y11850000D03*
X59825000Y10150000D03*
X85325000Y11525000D03*
X85525000Y6950000D03*
X94525000Y15075000D03*
X94525000Y16800000D03*
X88200000Y25075000D03*
X88200000Y24025000D03*
%TO.N,/S1F-3*%
X68775000Y13175000D03*
X73375000Y16527500D03*
%TO.N,Net-(Q3-G)*%
X64100000Y19425000D03*
X64100000Y21775000D03*
%TO.N,/SCL0*%
X14050000Y20150000D03*
%TO.N,/SDA0*%
X13800000Y21775000D03*
%TO.N,GND*%
X24900000Y24450000D03*
%TO.N,Net-(D5-A)*%
X13850000Y23582000D03*
%TO.N,GND*%
X82025000Y19425000D03*
X80625000Y17050000D03*
%TO.N,VCC*%
X91325000Y16875000D03*
%TO.N,GND*%
X84050000Y14075000D03*
%TO.N,/S9-3*%
X77175000Y10200000D03*
%TO.N,GND*%
X83975000Y17200000D03*
%TO.N,/S8-3*%
X76225000Y10150000D03*
%TO.N,GND*%
X74275000Y13475000D03*
%TO.N,/S1F_PF_MCU*%
X66925000Y22875000D03*
%TO.N,/S1T-3*%
X76500000Y16525000D03*
%TO.N,/S1F_FPC*%
X77450000Y16200000D03*
%TO.N,/S1F*%
X74300000Y18350000D03*
%TO.N,/SDA1*%
X18800000Y19300000D03*
%TO.N,/SCL1*%
X18025000Y19450000D03*
%TO.N,+1V1*%
X24300000Y15500000D03*
X20100000Y15775000D03*
X17542000Y15376456D03*
X13433000Y14488500D03*
X9645000Y14647000D03*
%TO.N,GND*%
X87475000Y6425000D03*
X67310000Y2288000D03*
X87725000Y25925000D03*
X20525000Y20050000D03*
X25450000Y20830000D03*
X12800001Y4849999D03*
X81150000Y8075000D03*
X94300000Y11850000D03*
X25400000Y17218500D03*
X23000000Y17100000D03*
X79850000Y6475000D03*
X25654000Y25656000D03*
X16175000Y7732500D03*
D21*
X9900000Y8925000D03*
D20*
X58674000Y27180000D03*
X69088000Y3558000D03*
D21*
X5609000Y20574000D03*
D20*
X57658000Y27180000D03*
X67310000Y1018000D03*
X800000Y12500000D03*
D21*
X8100000Y8050000D03*
D20*
X6425000Y8625000D03*
X17780000Y4066000D03*
X20225000Y13325000D03*
D21*
X10800000Y20275000D03*
D20*
X11900000Y3500000D03*
X4000000Y11925000D03*
D21*
X6625000Y20574000D03*
X2501000Y17910000D03*
D20*
X69088000Y5590000D03*
D21*
X2476000Y16900000D03*
X9809000Y19683500D03*
D22*
X75550000Y25450000D03*
D20*
X21900000Y19900000D03*
X7275000Y9450000D03*
D21*
X14484000Y4600000D03*
D20*
X70612000Y5590000D03*
X70612000Y3558000D03*
D22*
X90150000Y9000000D03*
D20*
X65532000Y1018000D03*
X71500000Y26000000D03*
X15100000Y7204500D03*
%TO.N,VCC*%
X78375000Y5750000D03*
X75946000Y7622000D03*
X85559400Y19915600D03*
X62375000Y23875000D03*
X62375000Y20875000D03*
%TO.N,/S8-3*%
X36703000Y4701000D03*
%TO.N,/S3*%
X54579817Y5874183D03*
X88514500Y8760500D03*
%TO.N,/S5*%
X55626000Y6098000D03*
X87581500Y8843500D03*
%TO.N,+3.3V*%
X10823996Y17323996D03*
X16267500Y8867500D03*
X17200000Y17100000D03*
X7600000Y16560455D03*
D22*
X11500000Y11237500D03*
D20*
X16487705Y12051044D03*
%TO.N,/~{USB_BOOT}*%
X19450000Y2000000D03*
%TO.N,Net-(U1-GPIO5)*%
X56134000Y5590000D03*
D22*
X86106000Y8638000D03*
D20*
%TO.N,/S9-3*%
X37338000Y4066000D03*
X18037500Y6687500D03*
X14150000Y9900000D03*
%TO.N,/SOL2_MCU*%
X20025000Y17800000D03*
X79075000Y22275000D03*
%TO.N,/GTD-3*%
X12400000Y10450000D03*
X10300000Y4300000D03*
%TO.N,/GTD-6*%
X19832086Y4879530D03*
X12300000Y2500000D03*
%TO.N,VBUS*%
X18325000Y2200000D03*
%TO.N,/FT*%
X23600000Y18900000D03*
X29025000Y21700000D03*
%TO.N,/SCL0*%
X16854162Y19450000D03*
%TO.N,/SDA0*%
X17272000Y20068000D03*
%TO.N,/S1T*%
X71628000Y21846000D03*
%TO.N,/S1T-3*%
X65230000Y16825000D03*
X13000000Y9900000D03*
X19600000Y5550000D03*
%TO.N,/S2*%
X73914000Y23878000D03*
X67800000Y24975000D03*
%TO.N,/S1F*%
X75692000Y19379500D03*
%TO.N,/S1F-3*%
X35306000Y3377500D03*
X13600000Y9450000D03*
X18675000Y6075000D03*
X71374000Y8638000D03*
%TO.N,/S1F_FPC*%
X75775000Y20576000D03*
%TO.N,/SOL1_MCU*%
X67812500Y6637500D03*
X32258000Y7114000D03*
%TO.N,Net-(Q3-G)*%
X64403182Y15242000D03*
X69712500Y13912500D03*
%TO.N,/S1F_PF_MCU*%
X35306000Y24132000D03*
X21350000Y20775000D03*
X60725000Y25402000D03*
%TO.N,Net-(D5-A)*%
X10327500Y22000000D03*
%TO.N,/LED1*%
X27178000Y18798000D03*
X31750000Y23624000D03*
%TO.N,/LED2*%
X32512000Y23624000D03*
X27940000Y18544000D03*
%TD*%
D23*
%TO.N,/FT*%
X26250000Y18900000D02*
X23600000Y18900000D01*
X29025000Y21700000D02*
X29025000Y21675000D01*
X29025000Y21675000D02*
X26250000Y18900000D01*
%TO.N,/S2*%
X67800000Y24404000D02*
X68326000Y23878000D01*
X67800000Y24975000D02*
X67800000Y24404000D01*
X68326000Y23878000D02*
X73914000Y23878000D01*
%TO.N,Net-(D5-A)*%
X10727500Y22400000D02*
X13050000Y22400000D01*
X13850000Y23200000D02*
X13850000Y23582000D01*
X13050000Y22400000D02*
X13850000Y23200000D01*
X10327500Y22000000D02*
X10727500Y22400000D01*
%TO.N,/S1F-3*%
X68825000Y13125000D02*
X72650000Y13125000D01*
X72650000Y13125000D02*
X73675000Y14150000D01*
X68775000Y13175000D02*
X68825000Y13125000D01*
X73675000Y14150000D02*
X73675000Y16227500D01*
X73675000Y16227500D02*
X73375000Y16527500D01*
%TO.N,Net-(Q3-G)*%
X68383000Y15242000D02*
X64403182Y15242000D01*
X69712500Y13912500D02*
X68383000Y15242000D01*
%TO.N,/S1F-3*%
X63302500Y3377500D02*
X35306000Y3377500D01*
X68563000Y8638000D02*
X63302500Y3377500D01*
X71374000Y8638000D02*
X68563000Y8638000D01*
%TO.N,Net-(Q3-G)*%
X64100000Y19425000D02*
X64100000Y21775000D01*
%TO.N,/SOL2_MCU*%
X28212000Y17800000D02*
X20025000Y17800000D01*
X35560000Y23370000D02*
X33782000Y23370000D01*
X63225000Y18625000D02*
X57210000Y24640000D01*
X70428000Y22428000D02*
X66625000Y18625000D01*
X78922000Y22428000D02*
X70428000Y22428000D01*
X66625000Y18625000D02*
X63225000Y18625000D01*
X57210000Y24640000D02*
X36830000Y24640000D01*
X33782000Y23370000D02*
X28212000Y17800000D01*
X36830000Y24640000D02*
X35560000Y23370000D01*
X79075000Y22275000D02*
X78922000Y22428000D01*
%TO.N,/S1T-3*%
X71052000Y19052000D02*
X71628000Y19052000D01*
X66187000Y17782000D02*
X69782000Y17782000D01*
X65230000Y16825000D02*
X66187000Y17782000D01*
X69782000Y17782000D02*
X71052000Y19052000D01*
%TO.N,VCC*%
X62375000Y20875000D02*
X62375000Y23875000D01*
%TO.N,/SCL0*%
X14050000Y20150000D02*
X14325000Y20150000D01*
X14325000Y20150000D02*
X14675000Y19800000D01*
X14675000Y19800000D02*
X15300000Y19800000D01*
%TO.N,/SDA0*%
X17200000Y22254000D02*
X17200000Y21350000D01*
X16729000Y22725000D02*
X17200000Y22254000D01*
X13800000Y22275000D02*
X14250000Y22725000D01*
X13800000Y21775000D02*
X13800000Y22275000D01*
X14250000Y22725000D02*
X16729000Y22725000D01*
%TO.N,/SDA1*%
X20698600Y23848600D02*
X20698600Y24464600D01*
X20100000Y23250000D02*
X20698600Y23848600D01*
X20100000Y20600000D02*
X20100000Y23250000D01*
X18800000Y19300000D02*
X20100000Y20600000D01*
%TO.N,/SCL1*%
X19350000Y20775000D02*
X19350000Y24136800D01*
X18025000Y19450000D02*
X19350000Y20775000D01*
X19350000Y24136800D02*
X19047600Y24439200D01*
%TO.N,/~{USB_BOOT}*%
X29800000Y4325000D02*
X29800000Y8885000D01*
X28775000Y3300000D02*
X29800000Y4325000D01*
X19450000Y2000000D02*
X20750000Y3300000D01*
X20750000Y3300000D02*
X28775000Y3300000D01*
%TO.N,VBUS*%
X26200000Y4325000D02*
X26200000Y8885000D01*
X25775000Y3900000D02*
X26200000Y4325000D01*
X20025000Y3900000D02*
X25775000Y3900000D01*
X18325000Y2200000D02*
X20025000Y3900000D01*
%TO.N,/GTD-6*%
X14625000Y2500000D02*
X12300000Y2500000D01*
X17004530Y4879530D02*
X14625000Y2500000D01*
X19832086Y4879530D02*
X17004530Y4879530D01*
%TO.N,/SOL1_MCU*%
X34178427Y2542000D02*
X32258000Y4462427D01*
X67812500Y6637500D02*
X63717000Y2542000D01*
X63717000Y2542000D02*
X34178427Y2542000D01*
X32258000Y4462427D02*
X32258000Y7114000D01*
%TO.N,/S8-3*%
X36830000Y4828000D02*
X36703000Y4701000D01*
X62678000Y4828000D02*
X36830000Y4828000D01*
X68050000Y10200000D02*
X62678000Y4828000D01*
X76175000Y10200000D02*
X68050000Y10200000D01*
X76225000Y10150000D02*
X76175000Y10200000D01*
%TO.N,/S9-3*%
X62891000Y4066000D02*
X37338000Y4066000D01*
X68225000Y9400000D02*
X62891000Y4066000D01*
X76375000Y9400000D02*
X68225000Y9400000D01*
X77175000Y10200000D02*
X76375000Y9400000D01*
%TO.N,/S1F_FPC*%
X75775000Y20576000D02*
X76200000Y20576000D01*
X76225200Y20550800D02*
X77650800Y20550800D01*
X76200000Y20576000D02*
X76225200Y20550800D01*
X78765200Y21566800D02*
X77650800Y21566800D01*
X79248000Y21084000D02*
X78765200Y21566800D01*
X79248000Y17998000D02*
X79248000Y21084000D01*
X77450000Y16200000D02*
X79248000Y17998000D01*
%TO.N,/S1F*%
X77495500Y19379500D02*
X77650800Y19534800D01*
X75692000Y19379500D02*
X77495500Y19379500D01*
%TO.N,/S1T-3*%
X72498000Y19052000D02*
X71628000Y19052000D01*
X75025000Y16525000D02*
X72498000Y19052000D01*
X76500000Y16525000D02*
X75025000Y16525000D01*
D24*
%TO.N,VCC*%
X87575000Y16875000D02*
X91325000Y16875000D01*
X85550000Y18900000D02*
X87575000Y16875000D01*
X85550000Y19906200D02*
X85550000Y18900000D01*
X85559400Y19915600D02*
X85550000Y19906200D01*
D23*
%TO.N,/S1F_PF_MCU*%
X66912000Y22862000D02*
X66925000Y22875000D01*
X65058000Y22862000D02*
X66912000Y22862000D01*
X60725000Y25402000D02*
X62518000Y25402000D01*
X62518000Y25402000D02*
X65058000Y22862000D01*
%TO.N,/S1F*%
X74300000Y18725000D02*
X74954500Y19379500D01*
X74954500Y19379500D02*
X75692000Y19379500D01*
X74300000Y18350000D02*
X74300000Y18725000D01*
%TO.N,/S1F_PF_MCU*%
X34838000Y24600000D02*
X35306000Y24132000D01*
X29525000Y22425000D02*
X31700000Y24600000D01*
X21925000Y22425000D02*
X29525000Y22425000D01*
X21350000Y21850000D02*
X21925000Y22425000D01*
X31700000Y24600000D02*
X34838000Y24600000D01*
X21350000Y20775000D02*
X21350000Y21850000D01*
D25*
%TO.N,+1V1*%
X20100000Y15775000D02*
X20475000Y15400000D01*
X20100000Y15775000D02*
X19701456Y15376456D01*
X9645000Y14647000D02*
X13274500Y14647000D01*
X13274500Y14647000D02*
X13433000Y14488500D01*
X24200000Y15400000D02*
X24300000Y15500000D01*
X20475000Y15400000D02*
X24200000Y15400000D01*
X19701456Y15376456D02*
X17542000Y15376456D01*
D23*
%TO.N,GND*%
X14212500Y16012500D02*
X13612500Y16012500D01*
X14212500Y14737500D02*
X15487500Y14737500D01*
X15487500Y14737500D02*
X15487500Y13462500D01*
X15487500Y16012500D02*
X15487500Y14737500D01*
X12000000Y17100000D02*
X11684000Y16784000D01*
X11684000Y16784000D02*
X11684000Y15900000D01*
X13612500Y16012500D02*
X13475000Y15875000D01*
X25281500Y17100000D02*
X25400000Y17218500D01*
X15900000Y17100000D02*
X12000000Y17100000D01*
X15487500Y14737500D02*
X16762500Y14737500D01*
X16250000Y17450000D02*
X15900000Y17100000D01*
X12700000Y15900000D02*
X11684000Y15900000D01*
X16250000Y18250000D02*
X16250000Y17450000D01*
X12725000Y15875000D02*
X12700000Y15900000D01*
X13475000Y15875000D02*
X12725000Y15875000D01*
X23000000Y17100000D02*
X25281500Y17100000D01*
D24*
%TO.N,VCC*%
X78375000Y5750000D02*
X76503000Y7622000D01*
X76503000Y7622000D02*
X75946000Y7622000D01*
D23*
%TO.N,/S3*%
X54579817Y5874183D02*
X55565634Y6860000D01*
X87113000Y10162000D02*
X88514500Y8760500D01*
X61468000Y6860000D02*
X67056000Y12448000D01*
X84074000Y10162000D02*
X87113000Y10162000D01*
X67056000Y12448000D02*
X81788000Y12448000D01*
X81788000Y12448000D02*
X84074000Y10162000D01*
X55565634Y6860000D02*
X61468000Y6860000D01*
%TO.N,/S5*%
X55626000Y6098000D02*
X55880000Y6352000D01*
X87533427Y8843500D02*
X87581500Y8843500D01*
X81280000Y11686000D02*
X83566000Y9400000D01*
X62103000Y6352000D02*
X67437000Y11686000D01*
X55880000Y6352000D02*
X62103000Y6352000D01*
X67437000Y11686000D02*
X81280000Y11686000D01*
X83566000Y9400000D02*
X86976927Y9400000D01*
X86976927Y9400000D02*
X87533427Y8843500D01*
D26*
%TO.N,+3.3V*%
X9000000Y11300000D02*
X8200000Y12100000D01*
X9200000Y15900000D02*
X10668000Y15900000D01*
D25*
X16500000Y12038749D02*
X16487705Y12051044D01*
D26*
X8200000Y14900000D02*
X9200000Y15900000D01*
X11500000Y11237500D02*
X11437500Y11300000D01*
D23*
X16267500Y10267500D02*
X16500000Y10500000D01*
D26*
X11437500Y11300000D02*
X9000000Y11300000D01*
D25*
X17200000Y18250000D02*
X17200000Y17100000D01*
D26*
X10668000Y15900000D02*
X10668000Y17168000D01*
D23*
X7600000Y16560455D02*
X8714545Y16560455D01*
D26*
X8200000Y12100000D02*
X8200000Y14900000D01*
D23*
X8714545Y16560455D02*
X9200000Y16075000D01*
D26*
X10668000Y17168000D02*
X10823996Y17323996D01*
D23*
X16500000Y10500000D02*
X16500000Y12038749D01*
X16267500Y8867500D02*
X16267500Y10267500D01*
X9200000Y16075000D02*
X9200000Y15900000D01*
%TO.N,Net-(U1-GPIO5)*%
X56134000Y5590000D02*
X62484000Y5590000D01*
X67818000Y10924000D02*
X80772000Y10924000D01*
X83058000Y8638000D02*
X86106000Y8638000D01*
X62484000Y5590000D02*
X67818000Y10924000D01*
X80772000Y10924000D02*
X83058000Y8638000D01*
%TO.N,/S9-3*%
X14182000Y7218000D02*
X14182000Y9868000D01*
X14850000Y6550000D02*
X14182000Y7218000D01*
X17900000Y6550000D02*
X14850000Y6550000D01*
X18037500Y6687500D02*
X17900000Y6550000D01*
X14182000Y9868000D02*
X14150000Y9900000D01*
%TO.N,/GTD-3*%
X11900000Y5400000D02*
X11400000Y5400000D01*
X12400000Y5900000D02*
X11900000Y5400000D01*
X11400000Y5400000D02*
X10300000Y4300000D01*
X12400000Y10450000D02*
X12400000Y5900000D01*
%TO.N,/SCL0*%
X15650000Y19450000D02*
X15300000Y19800000D01*
X16854162Y19450000D02*
X15650000Y19450000D01*
X15300000Y19800000D02*
X15300000Y21350000D01*
D25*
%TO.N,/SDA0*%
X17200000Y20140000D02*
X17200000Y21350000D01*
X17272000Y20068000D02*
X17200000Y20140000D01*
D23*
%TO.N,/S1T*%
X71628000Y21084000D02*
X71628000Y21846000D01*
X71628000Y21084000D02*
X71628000Y20068000D01*
%TO.N,/S1T-3*%
X19600000Y5550000D02*
X19450000Y5400000D01*
X13000000Y6550000D02*
X13000000Y9900000D01*
X19450000Y5400000D02*
X14150000Y5400000D01*
X14150000Y5400000D02*
X13000000Y6550000D01*
%TO.N,/S1F-3*%
X13600000Y6900000D02*
X13600000Y9450000D01*
X18550000Y5950000D02*
X14550000Y5950000D01*
X14550000Y5950000D02*
X13600000Y6900000D01*
X18675000Y6075000D02*
X18550000Y5950000D01*
%TO.N,/S1F_FPC*%
X77650800Y21566800D02*
X77650800Y20550800D01*
%TO.N,/LED1*%
X31750000Y23624000D02*
X31750000Y23370000D01*
X31750000Y23370000D02*
X27178000Y18798000D01*
%TO.N,/LED2*%
X32512000Y23624000D02*
X32512000Y23116000D01*
X32512000Y23116000D02*
X27940000Y18544000D01*
%TD*%
%TA.AperFunction,Conductor*%
%TO.N,GND*%
G36*
X71644141Y27580958D02*
G01*
X71692480Y27548659D01*
X72309644Y26931494D01*
X72322878Y26915368D01*
X72325844Y26912402D01*
X72333998Y26900199D01*
X72354915Y26886223D01*
X72354916Y26886222D01*
X72416859Y26844834D01*
X72514599Y26825391D01*
X72528992Y26828254D01*
X72533179Y26828254D01*
X72553954Y26830300D01*
X89133099Y26830300D01*
X89190119Y26818958D01*
X89238458Y26786659D01*
X89270757Y26738320D01*
X89282099Y26681300D01*
X89282099Y24324261D01*
X89280768Y24310070D01*
X89280676Y24302772D01*
X89278255Y24289970D01*
X89280357Y24277114D01*
X89280357Y24277111D01*
X89282071Y24266630D01*
X89282099Y24266416D01*
X89282099Y24262126D01*
X89283526Y24254950D01*
X89283527Y24254941D01*
X89285570Y24244669D01*
X89286488Y24239595D01*
X89308738Y24103159D01*
X89308740Y24103146D01*
X89309364Y24099325D01*
X89310382Y24095585D01*
X89310385Y24095575D01*
X89386665Y23815555D01*
X89387686Y23811807D01*
X89495403Y23533962D01*
X89497166Y23530522D01*
X89497172Y23530510D01*
X89602072Y23325895D01*
X89631351Y23268785D01*
X89706986Y23152741D01*
X89790439Y23024700D01*
X89794066Y23019136D01*
X89796496Y23016140D01*
X89796497Y23016139D01*
X89939292Y22840101D01*
X89981792Y22787707D01*
X90192506Y22576993D01*
X90423935Y22389267D01*
X90673584Y22226552D01*
X90750251Y22187247D01*
X90905835Y22107483D01*
X90938761Y22090603D01*
X91216606Y21982887D01*
X91504124Y21904564D01*
X91644498Y21881673D01*
X91649491Y21880769D01*
X91666925Y21877300D01*
X91671218Y21877300D01*
X91671417Y21877274D01*
X91694769Y21873456D01*
X91707575Y21875880D01*
X91714868Y21875970D01*
X91729060Y21877300D01*
X95483099Y21877300D01*
X95540119Y21865958D01*
X95588458Y21833659D01*
X95620757Y21785320D01*
X95632099Y21728300D01*
X95632099Y6144300D01*
X95620757Y6087280D01*
X95588458Y6038941D01*
X95540119Y6006642D01*
X95483099Y5995300D01*
X84487286Y5995300D01*
X84468635Y5996920D01*
X84465116Y5996916D01*
X84452275Y5999163D01*
X84439439Y5996884D01*
X84439437Y5996883D01*
X84430528Y5995300D01*
X84430248Y5996871D01*
X84429251Y5996870D01*
X84427704Y5996389D01*
X84427920Y5995300D01*
X84421604Y5994043D01*
X84407355Y5991209D01*
X84404332Y5990640D01*
X84256789Y5964452D01*
X84256786Y5964452D01*
X84252953Y5963771D01*
X84249212Y5962695D01*
X84249206Y5962693D01*
X83985923Y5886920D01*
X83948762Y5876225D01*
X83945169Y5874771D01*
X83945153Y5874765D01*
X83658962Y5758912D01*
X83658945Y5758905D01*
X83655353Y5757450D01*
X83651926Y5755627D01*
X83651917Y5755622D01*
X83379354Y5610567D01*
X83379339Y5610559D01*
X83375921Y5608739D01*
X83372704Y5606570D01*
X83372691Y5606561D01*
X83116736Y5433889D01*
X83116722Y5433880D01*
X83113512Y5431713D01*
X83110542Y5429223D01*
X83110534Y5429216D01*
X82875237Y5231867D01*
X82870984Y5228300D01*
X82868280Y5225504D01*
X82868279Y5225502D01*
X82653681Y5003512D01*
X82653672Y5003503D01*
X82650979Y5000716D01*
X82648582Y4997655D01*
X82648580Y4997651D01*
X82458294Y4754509D01*
X82458286Y4754499D01*
X82455893Y4751440D01*
X82453828Y4748145D01*
X82453824Y4748138D01*
X82289915Y4486484D01*
X82289906Y4486469D01*
X82287852Y4483189D01*
X82286148Y4479710D01*
X82286143Y4479699D01*
X82150399Y4202385D01*
X82150390Y4202366D01*
X82148686Y4198883D01*
X82147348Y4195229D01*
X82147346Y4195222D01*
X82041250Y3905279D01*
X82041247Y3905270D01*
X82039912Y3901621D01*
X82038967Y3897864D01*
X82038962Y3897847D01*
X81963662Y3598413D01*
X81963659Y3598399D01*
X81962714Y3594640D01*
X81962163Y3590791D01*
X81962163Y3590786D01*
X81918483Y3285140D01*
X81918481Y3285123D01*
X81917933Y3281285D01*
X81917787Y3277400D01*
X81917787Y3277398D01*
X81910695Y3088495D01*
X81906057Y2964969D01*
X81906317Y2961085D01*
X81906318Y2961073D01*
X81913623Y2852282D01*
X81905308Y2792271D01*
X81873789Y2740531D01*
X81824277Y2705617D01*
X81764958Y2693300D01*
X68489949Y2693300D01*
X68469186Y2695345D01*
X68464992Y2695345D01*
X68450599Y2698208D01*
X68436206Y2695345D01*
X68367249Y2681629D01*
X68367246Y2681628D01*
X68352859Y2678766D01*
X68340663Y2670618D01*
X68340660Y2670616D01*
X68282199Y2631554D01*
X68282196Y2631552D01*
X68269998Y2623401D01*
X68261847Y2611203D01*
X68261845Y2611200D01*
X68222785Y2552742D01*
X68222783Y2552739D01*
X68214633Y2540540D01*
X68211771Y2526153D01*
X68211769Y2526147D01*
X68208223Y2508316D01*
X68201403Y2474027D01*
X68195191Y2442800D01*
X68198054Y2428407D01*
X68198054Y2424213D01*
X68200099Y2403450D01*
X68200099Y429300D01*
X68188757Y372280D01*
X68156458Y323941D01*
X68108119Y291642D01*
X68051099Y280300D01*
X4969099Y280300D01*
X4912079Y291642D01*
X4863740Y323941D01*
X4831441Y372280D01*
X4820099Y429300D01*
X4820099Y3575174D01*
X4820309Y3583091D01*
X4820718Y3590786D01*
X4822092Y3616599D01*
X4815017Y3639806D01*
X4811403Y3654191D01*
X4808428Y3669147D01*
X4805565Y3683540D01*
X4798746Y3693746D01*
X4797181Y3698107D01*
X4759724Y3820816D01*
X4758601Y3824496D01*
X4623824Y4143615D01*
X4456736Y4447067D01*
X4259132Y4731592D01*
X4233681Y4761158D01*
X4138945Y4871214D01*
X4033136Y4994132D01*
X4030268Y4996838D01*
X3783988Y5229214D01*
X3783985Y5229217D01*
X3781176Y5231867D01*
X3778112Y5234209D01*
X3778104Y5234216D01*
X3509028Y5439897D01*
X3509025Y5439899D01*
X3505960Y5442242D01*
X3485641Y5454670D01*
X3213740Y5620981D01*
X3213739Y5620982D01*
X3210444Y5622997D01*
X3206966Y5624657D01*
X3206960Y5624660D01*
X2926868Y5758319D01*
X2897805Y5772188D01*
X2894180Y5773477D01*
X2894167Y5773482D01*
X2608068Y5875180D01*
X2571401Y5888214D01*
X2567667Y5889120D01*
X2567651Y5889124D01*
X2238485Y5968921D01*
X2238468Y5968925D01*
X2234740Y5969828D01*
X2230926Y5970344D01*
X2230921Y5970345D01*
X2075439Y5991381D01*
X2066355Y5992897D01*
X2061448Y5993873D01*
X2061445Y5993874D01*
X2054273Y5995300D01*
X2047066Y5995300D01*
X2042331Y5995852D01*
X2032238Y5997214D01*
X2032235Y5997214D01*
X2019324Y5998956D01*
X2006594Y5996177D01*
X1993563Y5995650D01*
X1993546Y5996061D01*
X1986501Y5995300D01*
X397099Y5995300D01*
X340079Y6006642D01*
X291740Y6038941D01*
X259441Y6087280D01*
X248099Y6144300D01*
X248099Y13473300D01*
X259441Y13530320D01*
X291740Y13578659D01*
X340079Y13610958D01*
X397099Y13622300D01*
X2519683Y13622300D01*
X2533021Y13621702D01*
X2559168Y13619352D01*
X2589695Y13627456D01*
X2598798Y13629567D01*
X2635339Y13636834D01*
X2642063Y13641328D01*
X2642520Y13641483D01*
X2695429Y13655534D01*
X2871081Y13737003D01*
X3029882Y13847786D01*
X3166990Y13984505D01*
X3278224Y14142991D01*
X3360192Y14318410D01*
X3410394Y14505414D01*
X3427300Y14698300D01*
X3410394Y14891186D01*
X3360192Y15078190D01*
X3278224Y15253609D01*
X3166990Y15412095D01*
X3155159Y15423892D01*
X3063781Y15515011D01*
X3029882Y15548814D01*
X2871081Y15659597D01*
X2864449Y15662673D01*
X2701334Y15738328D01*
X2701326Y15738331D01*
X2695429Y15741066D01*
X2642525Y15755118D01*
X2642062Y15755274D01*
X2635339Y15759766D01*
X2620947Y15762629D01*
X2598818Y15767031D01*
X2589666Y15769154D01*
X2571767Y15773905D01*
X2571762Y15773906D01*
X2559168Y15777248D01*
X2546191Y15776082D01*
X2546187Y15776082D01*
X2533021Y15774898D01*
X2519683Y15774300D01*
X397099Y15774300D01*
X340079Y15785642D01*
X291740Y15817941D01*
X259441Y15866280D01*
X248099Y15923300D01*
X248099Y18934300D01*
X259441Y18991320D01*
X291740Y19039659D01*
X340079Y19071958D01*
X397099Y19083300D01*
X2493689Y19083300D01*
X2500568Y19083141D01*
X2513138Y19082561D01*
X2525855Y19079707D01*
X2538781Y19081376D01*
X2538783Y19081375D01*
X2547432Y19082491D01*
X2551903Y19083000D01*
X2554949Y19083300D01*
X2562273Y19083300D01*
X2573222Y19085479D01*
X2583134Y19087104D01*
X2730664Y19106195D01*
X3045949Y19183767D01*
X3350489Y19296363D01*
X3640405Y19442551D01*
X3912007Y19620469D01*
X4161836Y19827852D01*
X4386712Y20062060D01*
X4583772Y20320110D01*
X4750506Y20598718D01*
X4884792Y20894335D01*
X4984919Y21203199D01*
X5049614Y21521377D01*
X5078053Y21844817D01*
X5074144Y22002042D01*
X5074099Y22005743D01*
X5074099Y22994072D01*
X5094061Y23068572D01*
X5148599Y23123110D01*
X5223099Y23143072D01*
X7228781Y23143073D01*
X7286466Y23143073D01*
X7346077Y23149481D01*
X7354814Y23152741D01*
X7354819Y23152741D01*
X7479432Y23199219D01*
X7552707Y23207097D01*
X7613815Y23181785D01*
X7613986Y23182097D01*
X7616887Y23180513D01*
X7620795Y23178894D01*
X7631869Y23170604D01*
X7766717Y23120309D01*
X7826327Y23113900D01*
X10189163Y23113901D01*
X10257638Y23097234D01*
X10310795Y23050962D01*
X10336740Y22985436D01*
X10329670Y22915316D01*
X10294366Y22861198D01*
X10294531Y22861062D01*
X10293919Y22860322D01*
X10293327Y22859606D01*
X10293324Y22859603D01*
X10288564Y22853849D01*
X10288563Y22853847D01*
X10267347Y22828202D01*
X10257902Y22817823D01*
X10217201Y22777122D01*
X10183931Y22752081D01*
X10157987Y22742173D01*
X10158322Y22741218D01*
X10005526Y22687754D01*
X10005518Y22687751D01*
X9997627Y22684989D01*
X9990547Y22680541D01*
X9990540Y22680537D01*
X9860557Y22598863D01*
X9860552Y22598860D01*
X9853473Y22594411D01*
X9847560Y22588499D01*
X9847556Y22588495D01*
X9739005Y22479944D01*
X9739001Y22479940D01*
X9733089Y22474027D01*
X9728640Y22466948D01*
X9728637Y22466943D01*
X9646963Y22336960D01*
X9646959Y22336953D01*
X9642511Y22329873D01*
X9639749Y22321982D01*
X9639746Y22321974D01*
X9591129Y22183030D01*
X9586282Y22169178D01*
X9585345Y22160867D01*
X9585344Y22160860D01*
X9571921Y22041722D01*
X9567220Y22000000D01*
X9568157Y21991684D01*
X9585344Y21839141D01*
X9585345Y21839136D01*
X9586282Y21830822D01*
X9589046Y21822923D01*
X9639746Y21678027D01*
X9639748Y21678022D01*
X9642511Y21670127D01*
X9646961Y21663044D01*
X9646963Y21663041D01*
X9728637Y21533058D01*
X9733089Y21525973D01*
X9853473Y21405589D01*
X9997627Y21315011D01*
X10158322Y21258782D01*
X10327500Y21239720D01*
X10496678Y21258782D01*
X10657373Y21315011D01*
X10801527Y21405589D01*
X10921911Y21525973D01*
X11012489Y21670127D01*
X11015253Y21678028D01*
X11018883Y21685564D01*
X11020631Y21684723D01*
X11044803Y21724841D01*
X11094445Y21760067D01*
X11154032Y21772500D01*
X12906847Y21772500D01*
X12976469Y21755233D01*
X13029956Y21707436D01*
X13054910Y21640185D01*
X13058782Y21605822D01*
X13061546Y21597923D01*
X13112246Y21453027D01*
X13112248Y21453022D01*
X13115011Y21445127D01*
X13119461Y21438044D01*
X13119463Y21438041D01*
X13198505Y21312247D01*
X13205589Y21300973D01*
X13325973Y21180589D01*
X13470127Y21090011D01*
X13478025Y21087248D01*
X13478026Y21087247D01*
X13599354Y21044793D01*
X13655501Y21009513D01*
X13690781Y20953366D01*
X13698206Y20887472D01*
X13676305Y20824882D01*
X13629417Y20777993D01*
X13583060Y20748865D01*
X13583054Y20748861D01*
X13575973Y20744411D01*
X13570060Y20738499D01*
X13570056Y20738495D01*
X13461505Y20629944D01*
X13461501Y20629940D01*
X13455589Y20624027D01*
X13451140Y20616948D01*
X13451137Y20616943D01*
X13369463Y20486960D01*
X13369459Y20486953D01*
X13365011Y20479873D01*
X13362249Y20471982D01*
X13362246Y20471974D01*
X13311546Y20327078D01*
X13308782Y20319178D01*
X13307845Y20310867D01*
X13307844Y20310860D01*
X13292852Y20177801D01*
X13289720Y20150000D01*
X13290657Y20141684D01*
X13307844Y19989141D01*
X13307845Y19989136D01*
X13308782Y19980822D01*
X13311546Y19972923D01*
X13362246Y19828027D01*
X13362248Y19828022D01*
X13365011Y19820127D01*
X13369461Y19813044D01*
X13369463Y19813041D01*
X13438841Y19702627D01*
X13455589Y19675973D01*
X13575973Y19555589D01*
X13720127Y19465011D01*
X13880822Y19408782D01*
X14050000Y19389720D01*
X14111222Y19396619D01*
X14174899Y19389950D01*
X14229901Y19357171D01*
X14233613Y19353685D01*
X14236553Y19350924D01*
X14239912Y19347669D01*
X14259204Y19328377D01*
X14262906Y19325506D01*
X14266418Y19322410D01*
X14266409Y19322401D01*
X14272138Y19317508D01*
X14296396Y19294727D01*
X14296398Y19294726D01*
X14303233Y19288307D01*
X14319150Y19279557D01*
X14338691Y19266721D01*
X14353038Y19255592D01*
X14361640Y19251870D01*
X14361643Y19251868D01*
X14373709Y19246647D01*
X14391857Y19238794D01*
X14450763Y19192925D01*
X14480023Y19124238D01*
X14472291Y19049980D01*
X14459660Y19016114D01*
X14455405Y18998108D01*
X14450426Y18951795D01*
X14450000Y18943841D01*
X14450000Y18464675D01*
X14452434Y18452435D01*
X14464675Y18450000D01*
X16200500Y18450000D01*
X16275000Y18430038D01*
X16329538Y18375500D01*
X16349500Y18301000D01*
X16349500Y17556117D01*
X16349500Y17556099D01*
X16349501Y17552128D01*
X16349926Y17548173D01*
X16349927Y17548158D01*
X16353959Y17510660D01*
X16355909Y17492517D01*
X16359166Y17483785D01*
X16359167Y17483781D01*
X16402480Y17367652D01*
X16402481Y17367650D01*
X16406204Y17357669D01*
X16412587Y17349143D01*
X16412589Y17349139D01*
X16420280Y17338866D01*
X16442375Y17296628D01*
X16450000Y17249573D01*
X16450000Y17199603D01*
X16449063Y17182921D01*
X16439720Y17100000D01*
X16440657Y17091684D01*
X16457844Y16939141D01*
X16457845Y16939136D01*
X16458782Y16930822D01*
X16461545Y16922925D01*
X16461546Y16922922D01*
X16466678Y16908256D01*
X16474102Y16842361D01*
X16452201Y16779772D01*
X16405311Y16732883D01*
X16370183Y16710812D01*
X16360714Y16701343D01*
X16367837Y16690006D01*
X16939984Y16117859D01*
X16972283Y16069520D01*
X16983625Y16012500D01*
X16972283Y15955480D01*
X16939984Y15907141D01*
X16867859Y15835016D01*
X16819520Y15802717D01*
X16762500Y15791375D01*
X16705480Y15802717D01*
X16657141Y15835016D01*
X16135376Y16356781D01*
X16125000Y16363714D01*
X16114623Y16356781D01*
X15592859Y15835016D01*
X15544520Y15802717D01*
X15487500Y15791375D01*
X15430480Y15802717D01*
X15382141Y15835016D01*
X14860376Y16356781D01*
X14850000Y16363714D01*
X14839623Y16356781D01*
X14317859Y15835016D01*
X14269520Y15802717D01*
X14212500Y15791375D01*
X14155480Y15802717D01*
X14107141Y15835016D01*
X14035015Y15907142D01*
X14002716Y15955481D01*
X13991374Y16012501D01*
X14002716Y16069521D01*
X14035015Y16117860D01*
X14607161Y16690006D01*
X14614284Y16701342D01*
X14614283Y16701343D01*
X15085714Y16701343D01*
X15092837Y16690006D01*
X15477123Y16305720D01*
X15487499Y16298787D01*
X15497876Y16305720D01*
X15882161Y16690006D01*
X15889284Y16701342D01*
X15879816Y16710810D01*
X15843889Y16733384D01*
X15828903Y16740601D01*
X15674542Y16794613D01*
X15658324Y16798315D01*
X15617298Y16802937D01*
X15547759Y16829482D01*
X15533279Y16846630D01*
X15526958Y16839516D01*
X15459476Y16814405D01*
X15316674Y16798315D01*
X15300457Y16794613D01*
X15146087Y16740598D01*
X15131119Y16733389D01*
X15095180Y16710809D01*
X15085714Y16701343D01*
X14614283Y16701343D01*
X14604816Y16710810D01*
X14568889Y16733384D01*
X14553903Y16740601D01*
X14399542Y16794613D01*
X14383324Y16798315D01*
X14220816Y16816625D01*
X14204184Y16816625D01*
X14041675Y16798315D01*
X14025457Y16794613D01*
X13871096Y16740601D01*
X13856110Y16733384D01*
X13717636Y16646375D01*
X13704635Y16636007D01*
X13588993Y16520365D01*
X13578625Y16507365D01*
X13556236Y16471732D01*
X13507933Y16423967D01*
X13505032Y16422190D01*
X12805359Y15722516D01*
X12757020Y15690217D01*
X12700000Y15678875D01*
X12642980Y15690217D01*
X12594641Y15722516D01*
X12522515Y15794642D01*
X12490216Y15842981D01*
X12478874Y15900001D01*
X12490216Y15957021D01*
X12522515Y16005360D01*
X13376929Y16859774D01*
X13384812Y16872707D01*
X13379408Y16885325D01*
X13366157Y16898576D01*
X13268119Y16971967D01*
X13249606Y16982077D01*
X13133607Y17025342D01*
X13115607Y17029595D01*
X13069294Y17034574D01*
X13061341Y17035000D01*
X12338659Y17035000D01*
X12330705Y17034574D01*
X12284394Y17029595D01*
X12266389Y17025341D01*
X12244067Y17017015D01*
X12192000Y17007622D01*
X12139933Y17017015D01*
X12117610Y17025341D01*
X12099605Y17029595D01*
X12053294Y17034574D01*
X12045341Y17035000D01*
X11817837Y17035000D01*
X11756192Y17048350D01*
X11705593Y17086009D01*
X11675108Y17141227D01*
X11670292Y17202924D01*
X11671680Y17208502D01*
X11676689Y17393428D01*
X11645463Y17556159D01*
X14450000Y17556159D01*
X14450426Y17548206D01*
X14455405Y17501893D01*
X14459658Y17483893D01*
X14502923Y17367894D01*
X14513033Y17349381D01*
X14586423Y17251344D01*
X14601343Y17236424D01*
X14699380Y17163034D01*
X14717893Y17152924D01*
X14833892Y17109659D01*
X14851892Y17105406D01*
X14898205Y17100427D01*
X14906159Y17100000D01*
X15085325Y17100000D01*
X15097565Y17102435D01*
X15100000Y17114675D01*
X15500000Y17114675D01*
X15502576Y17101723D01*
X15525571Y17086358D01*
X15544783Y17065220D01*
X15561907Y17081408D01*
X15633981Y17100000D01*
X15693841Y17100000D01*
X15701794Y17100427D01*
X15757376Y17106402D01*
X15757672Y17103645D01*
X15792328Y17103645D01*
X15792624Y17106402D01*
X15848205Y17100427D01*
X15856159Y17100000D01*
X16035325Y17100000D01*
X16047565Y17102435D01*
X16050000Y17114675D01*
X16050000Y18035325D01*
X16047565Y18047566D01*
X16035325Y18050000D01*
X15514675Y18050000D01*
X15502434Y18047566D01*
X15500000Y18035325D01*
X15500000Y17114675D01*
X15100000Y17114675D01*
X15100000Y18035325D01*
X15097565Y18047566D01*
X15085325Y18050000D01*
X14464675Y18050000D01*
X14452434Y18047566D01*
X14450000Y18035325D01*
X14450000Y17556159D01*
X11645463Y17556159D01*
X11641827Y17575110D01*
X11612993Y17642139D01*
X11571917Y17737627D01*
X11571916Y17737628D01*
X11568725Y17745047D01*
X11460800Y17895298D01*
X11454788Y17900692D01*
X11454786Y17900694D01*
X11358064Y17987467D01*
X11323099Y18018836D01*
X11162060Y18109884D01*
X11154333Y18112257D01*
X11154332Y18112257D01*
X10992940Y18161811D01*
X10992938Y18161812D01*
X10985214Y18164183D01*
X10977163Y18164839D01*
X10977156Y18164840D01*
X10808880Y18178542D01*
X10808874Y18178542D01*
X10800829Y18179197D01*
X10792829Y18178108D01*
X10792826Y18178107D01*
X10625528Y18155314D01*
X10625518Y18155312D01*
X10617528Y18154223D01*
X10609958Y18151443D01*
X10609950Y18151440D01*
X10451464Y18093216D01*
X10451457Y18093213D01*
X10443880Y18090429D01*
X10437076Y18086081D01*
X10437068Y18086076D01*
X10294814Y17995148D01*
X10294807Y17995144D01*
X10288007Y17990796D01*
X10282300Y17985090D01*
X10282290Y17985081D01*
X10095325Y17798117D01*
X10086431Y17789916D01*
X10053055Y17761566D01*
X10053051Y17761563D01*
X10046900Y17756337D01*
X10042012Y17749908D01*
X10042007Y17749902D01*
X9999123Y17693490D01*
X9996641Y17690315D01*
X9952217Y17635049D01*
X9952213Y17635043D01*
X9947158Y17628754D01*
X9943571Y17621524D01*
X9942365Y17619636D01*
X9941890Y17618956D01*
X9941386Y17618143D01*
X9940976Y17617394D01*
X9939831Y17615492D01*
X9934946Y17609064D01*
X9931556Y17601739D01*
X9931554Y17601734D01*
X9901783Y17537386D01*
X9900041Y17533751D01*
X9868553Y17470259D01*
X9868551Y17470255D01*
X9864964Y17463021D01*
X9863015Y17455186D01*
X9862256Y17453119D01*
X9861927Y17452326D01*
X9861604Y17451407D01*
X9861372Y17450614D01*
X9860657Y17448495D01*
X9857268Y17441167D01*
X9855532Y17433285D01*
X9855530Y17433276D01*
X9840298Y17364073D01*
X9839378Y17360144D01*
X9824179Y17299027D01*
X9820316Y17283495D01*
X9820096Y17275429D01*
X9819794Y17273206D01*
X9819649Y17272390D01*
X9819532Y17271437D01*
X9819475Y17270590D01*
X9819234Y17268383D01*
X9817500Y17260497D01*
X9817500Y17252423D01*
X9817500Y17181534D01*
X9817445Y17177500D01*
X9815525Y17106647D01*
X9815525Y17106640D01*
X9815307Y17098568D01*
X9816829Y17090636D01*
X9817009Y17088426D01*
X9817500Y17076337D01*
X9817500Y16899500D01*
X9806158Y16842480D01*
X9773859Y16794141D01*
X9725520Y16761842D01*
X9668500Y16750500D01*
X9473637Y16750500D01*
X9416617Y16761842D01*
X9368278Y16794141D01*
X9212789Y16949630D01*
X9206085Y16956998D01*
X9201885Y16963617D01*
X9193309Y16971670D01*
X9152992Y17009531D01*
X9149631Y17012788D01*
X9133646Y17028773D01*
X9130341Y17032078D01*
X9126646Y17034944D01*
X9123126Y17038047D01*
X9123134Y17038057D01*
X9117403Y17042951D01*
X9098140Y17061040D01*
X9086312Y17072148D01*
X9078100Y17076663D01*
X9078098Y17076664D01*
X9070390Y17080901D01*
X9050854Y17093735D01*
X9043919Y17099114D01*
X9043916Y17099116D01*
X9036507Y17104863D01*
X8997360Y17121804D01*
X8984759Y17127977D01*
X8955594Y17144011D01*
X8955592Y17144012D01*
X8947379Y17148527D01*
X8938297Y17150859D01*
X8929785Y17153045D01*
X8907677Y17160614D01*
X8899609Y17164105D01*
X8899608Y17164106D01*
X8891003Y17167829D01*
X8865686Y17171839D01*
X8848875Y17174502D01*
X8835136Y17177347D01*
X8802896Y17185624D01*
X8802895Y17185625D01*
X8793817Y17187955D01*
X8784443Y17187955D01*
X8775658Y17187955D01*
X8752349Y17189790D01*
X8743679Y17191164D01*
X8743665Y17191165D01*
X8734412Y17192630D01*
X8725080Y17191748D01*
X8725078Y17191748D01*
X8691950Y17188616D01*
X8677927Y17187955D01*
X8064293Y17187955D01*
X8023045Y17193778D01*
X7985020Y17210793D01*
X7936959Y17240992D01*
X7936956Y17240994D01*
X7929873Y17245444D01*
X7921978Y17248207D01*
X7921973Y17248209D01*
X7777077Y17298909D01*
X7769178Y17301673D01*
X7760864Y17302610D01*
X7760859Y17302611D01*
X7608316Y17319798D01*
X7600000Y17320735D01*
X7591684Y17319798D01*
X7439140Y17302611D01*
X7439133Y17302610D01*
X7430822Y17301673D01*
X7422924Y17298910D01*
X7422922Y17298909D01*
X7278026Y17248209D01*
X7278018Y17248206D01*
X7270127Y17245444D01*
X7263047Y17240996D01*
X7263040Y17240992D01*
X7133057Y17159318D01*
X7133052Y17159315D01*
X7125973Y17154866D01*
X7120060Y17148954D01*
X7120056Y17148950D01*
X7011505Y17040399D01*
X7011501Y17040395D01*
X7005589Y17034482D01*
X7001140Y17027403D01*
X7001137Y17027398D01*
X6919463Y16897415D01*
X6919459Y16897408D01*
X6915011Y16890328D01*
X6912249Y16882437D01*
X6912246Y16882429D01*
X6861546Y16737533D01*
X6858782Y16729633D01*
X6857845Y16721322D01*
X6857844Y16721315D01*
X6846186Y16617843D01*
X6839720Y16560455D01*
X6840657Y16552139D01*
X6857844Y16399596D01*
X6857845Y16399591D01*
X6858782Y16391277D01*
X6861546Y16383378D01*
X6912246Y16238482D01*
X6912248Y16238477D01*
X6915011Y16230582D01*
X6919461Y16223499D01*
X6919463Y16223496D01*
X7000573Y16094411D01*
X7005589Y16086428D01*
X7125973Y15966044D01*
X7270127Y15875466D01*
X7430822Y15819237D01*
X7559814Y15804703D01*
X7622404Y15782802D01*
X7669293Y15735913D01*
X7691194Y15673323D01*
X7683770Y15607428D01*
X7648490Y15551281D01*
X7627326Y15530117D01*
X7618431Y15521916D01*
X7585055Y15493566D01*
X7585051Y15493563D01*
X7578900Y15488337D01*
X7574012Y15481908D01*
X7574007Y15481902D01*
X7531123Y15425490D01*
X7528641Y15422315D01*
X7484217Y15367049D01*
X7484213Y15367043D01*
X7479158Y15360754D01*
X7475571Y15353524D01*
X7474365Y15351636D01*
X7473890Y15350956D01*
X7473386Y15350143D01*
X7472976Y15349394D01*
X7471831Y15347492D01*
X7466946Y15341064D01*
X7463556Y15333739D01*
X7463554Y15333734D01*
X7433783Y15269386D01*
X7432041Y15265751D01*
X7400553Y15202259D01*
X7400551Y15202255D01*
X7396964Y15195021D01*
X7395015Y15187186D01*
X7394256Y15185119D01*
X7393927Y15184326D01*
X7393604Y15183407D01*
X7393372Y15182614D01*
X7392657Y15180495D01*
X7389268Y15173167D01*
X7387532Y15165285D01*
X7387530Y15165276D01*
X7372298Y15096073D01*
X7371378Y15092144D01*
X7359136Y15042917D01*
X7352316Y15015495D01*
X7352096Y15007429D01*
X7351794Y15005206D01*
X7351649Y15004390D01*
X7351532Y15003437D01*
X7351475Y15002590D01*
X7351234Y15000383D01*
X7349500Y14992497D01*
X7349500Y14984423D01*
X7349500Y14913534D01*
X7349445Y14909500D01*
X7347525Y14838647D01*
X7347525Y14838640D01*
X7347307Y14830568D01*
X7348829Y14822636D01*
X7349009Y14820426D01*
X7349500Y14808337D01*
X7349500Y12140616D01*
X7349008Y12128523D01*
X7345454Y12084885D01*
X7345454Y12084879D01*
X7344799Y12076833D01*
X7345888Y12068834D01*
X7345889Y12068829D01*
X7355453Y11998628D01*
X7355943Y11994626D01*
X7363611Y11924122D01*
X7363613Y11924109D01*
X7364486Y11916090D01*
X7367061Y11908447D01*
X7367540Y11906272D01*
X7367685Y11905457D01*
X7367912Y11904488D01*
X7368148Y11903681D01*
X7368683Y11901529D01*
X7369773Y11893532D01*
X7372557Y11885954D01*
X7372558Y11885950D01*
X7397004Y11819406D01*
X7398342Y11815605D01*
X7420975Y11748437D01*
X7420977Y11748433D01*
X7423556Y11740779D01*
X7427719Y11733859D01*
X7428645Y11731858D01*
X7428970Y11731073D01*
X7429391Y11730195D01*
X7429790Y11729466D01*
X7430782Y11727466D01*
X7433568Y11719884D01*
X7437919Y11713077D01*
X7476095Y11653350D01*
X7478218Y11649928D01*
X7518930Y11582264D01*
X7524487Y11576397D01*
X7525826Y11574636D01*
X7526306Y11573949D01*
X7526916Y11573168D01*
X7527467Y11572537D01*
X7528848Y11570818D01*
X7533200Y11564011D01*
X7538910Y11558301D01*
X7589027Y11508184D01*
X7591841Y11505293D01*
X7646151Y11447959D01*
X7652831Y11443430D01*
X7654518Y11441997D01*
X7663417Y11433794D01*
X8369882Y10727330D01*
X8378075Y10718443D01*
X8411663Y10678900D01*
X8437390Y10659343D01*
X8474510Y10631125D01*
X8477690Y10628639D01*
X8526427Y10589462D01*
X8539246Y10579158D01*
X8546488Y10575567D01*
X8548342Y10574382D01*
X8549022Y10573908D01*
X8549893Y10573367D01*
X8550638Y10572959D01*
X8552502Y10571838D01*
X8558936Y10566946D01*
X8630597Y10533793D01*
X8634210Y10532062D01*
X8639199Y10529587D01*
X8697737Y10500554D01*
X8697742Y10500552D01*
X8704979Y10496963D01*
X8712823Y10495013D01*
X8714867Y10494262D01*
X8715652Y10493937D01*
X8716615Y10493598D01*
X8717418Y10493363D01*
X8719497Y10492663D01*
X8726833Y10489268D01*
X8803991Y10472285D01*
X8807863Y10471377D01*
X8884506Y10452316D01*
X8892586Y10452098D01*
X8894768Y10451800D01*
X8895584Y10451655D01*
X8896586Y10451532D01*
X8897433Y10451475D01*
X8899603Y10451239D01*
X8907503Y10449500D01*
X8986466Y10449500D01*
X8990499Y10449446D01*
X9069432Y10447307D01*
X9077365Y10448830D01*
X9079574Y10449009D01*
X9091663Y10449500D01*
X11024244Y10449500D01*
X11084848Y10436618D01*
X11220197Y10376356D01*
X11405354Y10337000D01*
X11413165Y10337000D01*
X11533403Y10337000D01*
X11592987Y10324568D01*
X11642628Y10289345D01*
X11674042Y10237211D01*
X11712246Y10128027D01*
X11712248Y10128022D01*
X11715011Y10120127D01*
X11719461Y10113044D01*
X11719463Y10113041D01*
X11749662Y10064980D01*
X11766677Y10026955D01*
X11772500Y9985707D01*
X11772500Y6221637D01*
X11761158Y6164617D01*
X11728859Y6116278D01*
X11683722Y6071141D01*
X11635383Y6038842D01*
X11578363Y6027500D01*
X11477132Y6027500D01*
X11467176Y6027970D01*
X11459523Y6029680D01*
X11450156Y6029386D01*
X11450154Y6029386D01*
X11392463Y6027573D01*
X11387784Y6027500D01*
X11360524Y6027500D01*
X11355879Y6026914D01*
X11351212Y6026620D01*
X11351211Y6026632D01*
X11343701Y6026042D01*
X11310430Y6024996D01*
X11310426Y6024996D01*
X11301057Y6024701D01*
X11292060Y6022088D01*
X11292052Y6022086D01*
X11283604Y6019631D01*
X11260722Y6014893D01*
X11252015Y6013793D01*
X11252006Y6013791D01*
X11242707Y6012616D01*
X11233989Y6009165D01*
X11233987Y6009164D01*
X11203051Y5996916D01*
X11189777Y5992371D01*
X11157812Y5983084D01*
X11157810Y5983084D01*
X11148809Y5980468D01*
X11140743Y5975699D01*
X11140734Y5975694D01*
X11133173Y5971222D01*
X11112184Y5960940D01*
X11104022Y5957709D01*
X11104011Y5957704D01*
X11095297Y5954253D01*
X11087712Y5948743D01*
X11087704Y5948738D01*
X11060793Y5929186D01*
X11049066Y5921482D01*
X11020413Y5904537D01*
X11020402Y5904530D01*
X11012344Y5899763D01*
X10999496Y5886917D01*
X10981731Y5871743D01*
X10974616Y5866574D01*
X10974609Y5866569D01*
X10967033Y5861063D01*
X10961059Y5853844D01*
X10961061Y5853844D01*
X10939847Y5828202D01*
X10930402Y5817823D01*
X10189701Y5077122D01*
X10156431Y5052081D01*
X10130487Y5042173D01*
X10130822Y5041218D01*
X9978026Y4987754D01*
X9978018Y4987751D01*
X9970127Y4984989D01*
X9963047Y4980541D01*
X9963040Y4980537D01*
X9833057Y4898863D01*
X9833052Y4898860D01*
X9825973Y4894411D01*
X9820060Y4888499D01*
X9820056Y4888495D01*
X9711505Y4779944D01*
X9711501Y4779940D01*
X9705589Y4774027D01*
X9701140Y4766948D01*
X9701137Y4766943D01*
X9619463Y4636960D01*
X9619459Y4636953D01*
X9615011Y4629873D01*
X9612249Y4621982D01*
X9612246Y4621974D01*
X9562463Y4479699D01*
X9558782Y4469178D01*
X9557845Y4460867D01*
X9557844Y4460860D01*
X9541350Y4314467D01*
X9539720Y4300000D01*
X9540657Y4291684D01*
X9557844Y4139141D01*
X9557845Y4139136D01*
X9558782Y4130822D01*
X9561546Y4122923D01*
X9612246Y3978027D01*
X9612248Y3978022D01*
X9615011Y3970127D01*
X9619461Y3963044D01*
X9619463Y3963041D01*
X9699155Y3836213D01*
X9705589Y3825973D01*
X9825973Y3705589D01*
X9970127Y3615011D01*
X10130822Y3558782D01*
X10300000Y3539720D01*
X10469178Y3558782D01*
X10629873Y3615011D01*
X10774027Y3705589D01*
X10894411Y3825973D01*
X10984989Y3970127D01*
X11041218Y4130822D01*
X11042176Y4130487D01*
X11052059Y4156396D01*
X11077117Y4189700D01*
X11616277Y4728859D01*
X11664617Y4761158D01*
X11721637Y4772500D01*
X11822868Y4772500D01*
X11832823Y4772031D01*
X11840477Y4770320D01*
X11907536Y4772427D01*
X11912216Y4772500D01*
X11934785Y4772500D01*
X11939476Y4772500D01*
X11944131Y4773089D01*
X11948797Y4773382D01*
X11948797Y4773369D01*
X11956294Y4773960D01*
X11998943Y4775299D01*
X12016380Y4780366D01*
X12039288Y4785110D01*
X12057293Y4787384D01*
X12096972Y4803095D01*
X12110209Y4807627D01*
X12151191Y4819532D01*
X12166815Y4828774D01*
X12187818Y4839063D01*
X12204703Y4845747D01*
X12239219Y4870827D01*
X12250919Y4878513D01*
X12287656Y4900237D01*
X12300503Y4913085D01*
X12318273Y4928263D01*
X12332967Y4938937D01*
X12360158Y4971808D01*
X12369584Y4982167D01*
X12789186Y5401769D01*
X12796537Y5408457D01*
X12803162Y5412660D01*
X12849122Y5461605D01*
X12852317Y5464900D01*
X12871623Y5484204D01*
X12874499Y5487913D01*
X12877600Y5491430D01*
X12877610Y5491421D01*
X12882488Y5497136D01*
X12911693Y5528233D01*
X12911692Y5528233D01*
X12911695Y5528235D01*
X12913189Y5526832D01*
X12949713Y5559303D01*
X13010834Y5577856D01*
X13074107Y5569111D01*
X13127905Y5534676D01*
X13651754Y5010827D01*
X13658457Y5003461D01*
X13662660Y4996838D01*
X13669492Y4990422D01*
X13669494Y4990420D01*
X13711551Y4950926D01*
X13714911Y4947670D01*
X13734205Y4928376D01*
X13737899Y4925510D01*
X13741417Y4922409D01*
X13741409Y4922400D01*
X13747139Y4917506D01*
X13778233Y4888307D01*
X13790098Y4881785D01*
X13794147Y4879558D01*
X13813685Y4866726D01*
X13828038Y4855592D01*
X13836640Y4851870D01*
X13836643Y4851868D01*
X13867175Y4838656D01*
X13879785Y4832479D01*
X13917166Y4811928D01*
X13926244Y4809598D01*
X13926245Y4809597D01*
X13934748Y4807414D01*
X13956872Y4799840D01*
X13973542Y4792626D01*
X14015667Y4785955D01*
X14029413Y4783109D01*
X14070728Y4772500D01*
X14088887Y4772500D01*
X14112196Y4770665D01*
X14120865Y4769292D01*
X14120872Y4769292D01*
X14130133Y4767825D01*
X14172594Y4771839D01*
X14186618Y4772500D01*
X15650363Y4772500D01*
X15718008Y4756260D01*
X15770907Y4711080D01*
X15797529Y4646809D01*
X15792070Y4577456D01*
X15755722Y4518141D01*
X14408722Y3171141D01*
X14360383Y3138842D01*
X14303363Y3127500D01*
X12764293Y3127500D01*
X12723045Y3133323D01*
X12685020Y3150338D01*
X12636959Y3180537D01*
X12636956Y3180539D01*
X12629873Y3184989D01*
X12621978Y3187752D01*
X12621973Y3187754D01*
X12477077Y3238454D01*
X12469178Y3241218D01*
X12460864Y3242155D01*
X12460859Y3242156D01*
X12308316Y3259343D01*
X12300000Y3260280D01*
X12291684Y3259343D01*
X12139140Y3242156D01*
X12139133Y3242155D01*
X12130822Y3241218D01*
X12122924Y3238455D01*
X12122922Y3238454D01*
X11978026Y3187754D01*
X11978018Y3187751D01*
X11970127Y3184989D01*
X11963047Y3180541D01*
X11963040Y3180537D01*
X11833057Y3098863D01*
X11833052Y3098860D01*
X11825973Y3094411D01*
X11820060Y3088499D01*
X11820056Y3088495D01*
X11711505Y2979944D01*
X11711501Y2979940D01*
X11705589Y2974027D01*
X11701140Y2966948D01*
X11701137Y2966943D01*
X11619463Y2836960D01*
X11619459Y2836953D01*
X11615011Y2829873D01*
X11612249Y2821982D01*
X11612246Y2821974D01*
X11561546Y2677078D01*
X11558782Y2669178D01*
X11557845Y2660867D01*
X11557844Y2660860D01*
X11544288Y2540540D01*
X11539720Y2500000D01*
X11540657Y2491684D01*
X11557844Y2339141D01*
X11557845Y2339136D01*
X11558782Y2330822D01*
X11561546Y2322923D01*
X11612246Y2178027D01*
X11612248Y2178022D01*
X11615011Y2170127D01*
X11619461Y2163044D01*
X11619463Y2163041D01*
X11697315Y2039141D01*
X11705589Y2025973D01*
X11825973Y1905589D01*
X11970127Y1815011D01*
X12130822Y1758782D01*
X12300000Y1739720D01*
X12469178Y1758782D01*
X12629873Y1815011D01*
X12685018Y1849662D01*
X12723045Y1866677D01*
X12764293Y1872500D01*
X14547868Y1872500D01*
X14557823Y1872031D01*
X14565477Y1870320D01*
X14632536Y1872427D01*
X14637216Y1872500D01*
X14659785Y1872500D01*
X14664476Y1872500D01*
X14669131Y1873089D01*
X14673797Y1873382D01*
X14673797Y1873369D01*
X14681294Y1873960D01*
X14723943Y1875299D01*
X14741380Y1880366D01*
X14764288Y1885110D01*
X14782293Y1887384D01*
X14821972Y1903095D01*
X14835209Y1907627D01*
X14876191Y1919532D01*
X14891815Y1928774D01*
X14912818Y1939063D01*
X14929703Y1945747D01*
X14964219Y1970827D01*
X14975919Y1978513D01*
X15012656Y2000237D01*
X15025503Y2013085D01*
X15043273Y2028263D01*
X15057967Y2038937D01*
X15085158Y2071808D01*
X15094584Y2082167D01*
X17220807Y4208389D01*
X17269147Y4240688D01*
X17326167Y4252030D01*
X19129892Y4252030D01*
X19197537Y4235790D01*
X19250436Y4190610D01*
X19277058Y4126339D01*
X19271599Y4056986D01*
X19235251Y3997671D01*
X18214701Y2977122D01*
X18181431Y2952081D01*
X18155487Y2942173D01*
X18155822Y2941218D01*
X18003026Y2887754D01*
X18003018Y2887751D01*
X17995127Y2884989D01*
X17988047Y2880541D01*
X17988040Y2880537D01*
X17858057Y2798863D01*
X17858052Y2798860D01*
X17850973Y2794411D01*
X17845060Y2788499D01*
X17845056Y2788495D01*
X17736505Y2679944D01*
X17736501Y2679940D01*
X17730589Y2674027D01*
X17726140Y2666948D01*
X17726137Y2666943D01*
X17644463Y2536960D01*
X17644459Y2536953D01*
X17640011Y2529873D01*
X17637249Y2521982D01*
X17637246Y2521974D01*
X17609543Y2442800D01*
X17583782Y2369178D01*
X17582845Y2360867D01*
X17582844Y2360860D01*
X17579460Y2330822D01*
X17564720Y2200000D01*
X17565657Y2191684D01*
X17582844Y2039141D01*
X17582845Y2039136D01*
X17583782Y2030822D01*
X17586546Y2022923D01*
X17637246Y1878027D01*
X17637248Y1878022D01*
X17640011Y1870127D01*
X17644461Y1863044D01*
X17644463Y1863041D01*
X17710562Y1757845D01*
X17730589Y1725973D01*
X17850973Y1605589D01*
X17995127Y1515011D01*
X18155822Y1458782D01*
X18325000Y1439720D01*
X18494178Y1458782D01*
X18654873Y1515011D01*
X18684258Y1533476D01*
X18746848Y1555376D01*
X18812742Y1547952D01*
X18868889Y1512673D01*
X18975973Y1405589D01*
X19120127Y1315011D01*
X19280822Y1258782D01*
X19450000Y1239720D01*
X19619178Y1258782D01*
X19779873Y1315011D01*
X19924027Y1405589D01*
X20044411Y1525973D01*
X20134989Y1670127D01*
X20191218Y1830822D01*
X20192176Y1830487D01*
X20202059Y1856396D01*
X20227117Y1889700D01*
X20966277Y2628859D01*
X21014617Y2661158D01*
X21071637Y2672500D01*
X28697868Y2672500D01*
X28707823Y2672031D01*
X28715477Y2670320D01*
X28782536Y2672427D01*
X28787216Y2672500D01*
X28809785Y2672500D01*
X28814476Y2672500D01*
X28819131Y2673089D01*
X28823797Y2673382D01*
X28823797Y2673369D01*
X28831294Y2673960D01*
X28873943Y2675299D01*
X28891380Y2680366D01*
X28914288Y2685110D01*
X28932293Y2687384D01*
X28971972Y2703095D01*
X28985209Y2707627D01*
X29026191Y2719532D01*
X29041815Y2728774D01*
X29062818Y2739063D01*
X29079703Y2745747D01*
X29114219Y2770827D01*
X29125919Y2778513D01*
X29162656Y2800237D01*
X29175503Y2813085D01*
X29193273Y2828263D01*
X29207967Y2838937D01*
X29235158Y2871808D01*
X29244584Y2882167D01*
X30189186Y3826769D01*
X30196537Y3833457D01*
X30203162Y3837660D01*
X30249122Y3886605D01*
X30252317Y3889900D01*
X30271623Y3909204D01*
X30274499Y3912913D01*
X30277600Y3916430D01*
X30277610Y3916421D01*
X30282488Y3922136D01*
X30311693Y3953233D01*
X30320439Y3969145D01*
X30333280Y3988693D01*
X30338661Y3995630D01*
X30344408Y4003038D01*
X30361352Y4042196D01*
X30367522Y4054788D01*
X30388072Y4092166D01*
X30392587Y4109756D01*
X30400165Y4131885D01*
X30401808Y4135681D01*
X30407374Y4148542D01*
X30414046Y4190674D01*
X30416894Y4204423D01*
X30418643Y4211236D01*
X30427500Y4245728D01*
X30427500Y4263887D01*
X30429335Y4287196D01*
X30430708Y4295866D01*
X30430708Y4295872D01*
X30432175Y4305133D01*
X30428161Y4347595D01*
X30427500Y4361618D01*
X30427500Y7598159D01*
X30444335Y7666960D01*
X30491036Y7720213D01*
X30671401Y7846505D01*
X30838495Y8013599D01*
X30974035Y8207170D01*
X31073903Y8421337D01*
X31135063Y8649592D01*
X31154780Y8874948D01*
X31155092Y8878519D01*
X31155659Y8885000D01*
X31135063Y9120408D01*
X31073903Y9348663D01*
X31070989Y9354911D01*
X30976781Y9556941D01*
X30976779Y9556945D01*
X30974035Y9562829D01*
X30939951Y9611506D01*
X30842224Y9751076D01*
X30842221Y9751079D01*
X30838495Y9756401D01*
X30743687Y9851209D01*
X30706082Y9914589D01*
X30703452Y9988240D01*
X30736441Y10054142D01*
X30796978Y10096173D01*
X30882104Y10127923D01*
X30900619Y10138034D01*
X30998656Y10211424D01*
X31013576Y10226344D01*
X31086966Y10324381D01*
X31097076Y10342894D01*
X31140341Y10458893D01*
X31144594Y10476893D01*
X31149573Y10523206D01*
X31150000Y10531159D01*
X31150000Y11210325D01*
X31147565Y11222566D01*
X31135325Y11225000D01*
X28464675Y11225000D01*
X28452434Y11222566D01*
X28450000Y11210325D01*
X28450000Y10531159D01*
X28450426Y10523206D01*
X28455405Y10476893D01*
X28459658Y10458893D01*
X28502923Y10342894D01*
X28513033Y10324381D01*
X28586423Y10226344D01*
X28601343Y10211424D01*
X28699380Y10138034D01*
X28717895Y10127923D01*
X28803021Y10096173D01*
X28863558Y10054142D01*
X28896547Y9988240D01*
X28893917Y9914590D01*
X28856311Y9851209D01*
X28766108Y9761006D01*
X28766097Y9760994D01*
X28761505Y9756401D01*
X28757783Y9751087D01*
X28757775Y9751076D01*
X28629692Y9568153D01*
X28629687Y9568146D01*
X28625965Y9562829D01*
X28623225Y9556954D01*
X28623218Y9556941D01*
X28528844Y9354557D01*
X28528838Y9354543D01*
X28526097Y9348663D01*
X28524415Y9342389D01*
X28524413Y9342381D01*
X28466619Y9126687D01*
X28464937Y9120408D01*
X28464370Y9113939D01*
X28464370Y9113933D01*
X28451934Y8971791D01*
X28444341Y8885000D01*
X28444908Y8878519D01*
X28461364Y8690423D01*
X28464937Y8649592D01*
X28466618Y8643316D01*
X28466619Y8643314D01*
X28513374Y8468822D01*
X28526097Y8421337D01*
X28528845Y8415444D01*
X28611381Y8238444D01*
X28625965Y8207170D01*
X28645167Y8179747D01*
X28757775Y8018925D01*
X28757779Y8018921D01*
X28761505Y8013599D01*
X28928599Y7846505D01*
X28933921Y7842779D01*
X28933924Y7842776D01*
X28992510Y7801754D01*
X29108963Y7720213D01*
X29155665Y7666960D01*
X29172500Y7598159D01*
X29172500Y4646637D01*
X29161158Y4589617D01*
X29128859Y4541278D01*
X28558722Y3971141D01*
X28510383Y3938842D01*
X28453363Y3927500D01*
X26938551Y3927500D01*
X26867796Y3945371D01*
X26814014Y3994698D01*
X26790106Y4063648D01*
X26801036Y4130932D01*
X26801034Y4130932D01*
X26801039Y4130952D01*
X26801808Y4135681D01*
X26802311Y4136843D01*
X26807374Y4148542D01*
X26814046Y4190674D01*
X26816894Y4204423D01*
X26818643Y4211236D01*
X26827500Y4245728D01*
X26827500Y4263887D01*
X26829335Y4287196D01*
X26830708Y4295866D01*
X26830708Y4295872D01*
X26832175Y4305133D01*
X26828161Y4347595D01*
X26827500Y4361618D01*
X26827500Y7598159D01*
X26844335Y7666960D01*
X26891036Y7720213D01*
X27071401Y7846505D01*
X27238495Y8013599D01*
X27374035Y8207170D01*
X27473903Y8421337D01*
X27535063Y8649592D01*
X27554780Y8874948D01*
X27555092Y8878519D01*
X27555659Y8885000D01*
X27535063Y9120408D01*
X27473903Y9348663D01*
X27470989Y9354911D01*
X27376781Y9556941D01*
X27376779Y9556945D01*
X27374035Y9562829D01*
X27339951Y9611506D01*
X27242224Y9751076D01*
X27242221Y9751079D01*
X27238495Y9756401D01*
X27143687Y9851209D01*
X27106082Y9914589D01*
X27103452Y9988240D01*
X27136441Y10054142D01*
X27196978Y10096173D01*
X27282104Y10127923D01*
X27300619Y10138034D01*
X27398656Y10211424D01*
X27413576Y10226344D01*
X27486966Y10324381D01*
X27497076Y10342894D01*
X27540341Y10458893D01*
X27544594Y10476893D01*
X27549573Y10523206D01*
X27550000Y10531159D01*
X27550000Y11210325D01*
X27547565Y11222566D01*
X27535325Y11225000D01*
X24864675Y11225000D01*
X24852434Y11222566D01*
X24850000Y11210325D01*
X24850000Y10531159D01*
X24850426Y10523206D01*
X24855405Y10476893D01*
X24859658Y10458893D01*
X24902923Y10342894D01*
X24913033Y10324381D01*
X24986423Y10226344D01*
X25001343Y10211424D01*
X25099380Y10138034D01*
X25117895Y10127923D01*
X25203021Y10096173D01*
X25263558Y10054142D01*
X25296547Y9988240D01*
X25293917Y9914590D01*
X25256311Y9851209D01*
X25166108Y9761006D01*
X25166097Y9760994D01*
X25161505Y9756401D01*
X25157783Y9751087D01*
X25157775Y9751076D01*
X25029692Y9568153D01*
X25029687Y9568146D01*
X25025965Y9562829D01*
X25023225Y9556954D01*
X25023218Y9556941D01*
X24928844Y9354557D01*
X24928838Y9354543D01*
X24926097Y9348663D01*
X24924415Y9342389D01*
X24924413Y9342381D01*
X24866619Y9126687D01*
X24864937Y9120408D01*
X24864370Y9113939D01*
X24864370Y9113933D01*
X24851934Y8971791D01*
X24844341Y8885000D01*
X24844908Y8878519D01*
X24861364Y8690423D01*
X24864937Y8649592D01*
X24866618Y8643316D01*
X24866619Y8643314D01*
X24913374Y8468822D01*
X24926097Y8421337D01*
X24928845Y8415444D01*
X25011381Y8238444D01*
X25025965Y8207170D01*
X25045167Y8179747D01*
X25157775Y8018925D01*
X25157779Y8018921D01*
X25161505Y8013599D01*
X25328599Y7846505D01*
X25333921Y7842779D01*
X25333924Y7842776D01*
X25392510Y7801754D01*
X25508963Y7720213D01*
X25555665Y7666960D01*
X25572500Y7598159D01*
X25572500Y4676500D01*
X25561158Y4619480D01*
X25528859Y4571141D01*
X25480520Y4538842D01*
X25423500Y4527500D01*
X20717448Y4527500D01*
X20652799Y4542256D01*
X20600954Y4583601D01*
X20572183Y4643346D01*
X20572183Y4707152D01*
X20573304Y4710352D01*
X20592366Y4879530D01*
X20573304Y5048708D01*
X20517075Y5209403D01*
X20426497Y5353557D01*
X20397829Y5382225D01*
X20362550Y5438373D01*
X20355126Y5504265D01*
X20360280Y5550000D01*
X20341218Y5719178D01*
X20284989Y5879873D01*
X20275280Y5895324D01*
X20241084Y5949747D01*
X20194411Y6024027D01*
X20074027Y6144411D01*
X20066942Y6148863D01*
X19936959Y6230537D01*
X19936956Y6230539D01*
X19929873Y6234989D01*
X19921978Y6237752D01*
X19921973Y6237754D01*
X19777077Y6288454D01*
X19769178Y6291218D01*
X19760864Y6292155D01*
X19760859Y6292156D01*
X19608316Y6309343D01*
X19600000Y6310280D01*
X19591684Y6309343D01*
X19519013Y6301155D01*
X19453112Y6308581D01*
X19396962Y6343868D01*
X19367882Y6390159D01*
X19366383Y6389436D01*
X19362753Y6396974D01*
X19359989Y6404873D01*
X19269411Y6549027D01*
X19149027Y6669411D01*
X19054224Y6728980D01*
X19011959Y6755537D01*
X19011956Y6755539D01*
X19004873Y6759989D01*
X18996978Y6762752D01*
X18996973Y6762754D01*
X18853446Y6812975D01*
X18797298Y6848255D01*
X18762018Y6904403D01*
X18759335Y6912071D01*
X18722489Y7017373D01*
X18631911Y7161527D01*
X18511527Y7281911D01*
X18496938Y7291078D01*
X18374459Y7368037D01*
X18374456Y7368039D01*
X18367373Y7372489D01*
X18359478Y7375252D01*
X18359473Y7375254D01*
X18214577Y7425954D01*
X18206678Y7428718D01*
X18198364Y7429655D01*
X18198359Y7429656D01*
X18045816Y7446843D01*
X18037500Y7447780D01*
X18029184Y7446843D01*
X17876640Y7429656D01*
X17876633Y7429655D01*
X17868322Y7428718D01*
X17860424Y7425955D01*
X17860422Y7425954D01*
X17715526Y7375254D01*
X17715518Y7375251D01*
X17707627Y7372489D01*
X17700547Y7368041D01*
X17700540Y7368037D01*
X17570557Y7286363D01*
X17570552Y7286360D01*
X17563473Y7281911D01*
X17557560Y7275999D01*
X17557556Y7275995D01*
X17502703Y7221141D01*
X17454364Y7188842D01*
X17397344Y7177500D01*
X15171637Y7177500D01*
X15114617Y7188842D01*
X15066278Y7221141D01*
X14853141Y7434278D01*
X14820842Y7482617D01*
X14809500Y7539637D01*
X14809500Y9486637D01*
X14815324Y9527889D01*
X14827545Y9555199D01*
X14826907Y9555506D01*
X14830532Y9563036D01*
X14834989Y9570127D01*
X14891218Y9730822D01*
X14910280Y9900000D01*
X14891218Y10069178D01*
X14834989Y10229873D01*
X14744411Y10374027D01*
X14624027Y10494411D01*
X14614601Y10500334D01*
X14486959Y10580537D01*
X14486956Y10580539D01*
X14479873Y10584989D01*
X14471978Y10587752D01*
X14471973Y10587754D01*
X14327077Y10638454D01*
X14319178Y10641218D01*
X14310864Y10642155D01*
X14310859Y10642156D01*
X14158316Y10659343D01*
X14150000Y10660280D01*
X14141684Y10659343D01*
X13989140Y10642156D01*
X13989133Y10642155D01*
X13980822Y10641218D01*
X13972924Y10638455D01*
X13972922Y10638454D01*
X13828026Y10587754D01*
X13828018Y10587751D01*
X13820127Y10584989D01*
X13813047Y10580541D01*
X13813040Y10580537D01*
X13683053Y10498860D01*
X13683050Y10498859D01*
X13675973Y10494411D01*
X13670063Y10488502D01*
X13667896Y10486773D01*
X13608151Y10458003D01*
X13541840Y10458004D01*
X13482097Y10486777D01*
X13479943Y10488495D01*
X13474027Y10494411D01*
X13466946Y10498860D01*
X13466944Y10498862D01*
X13336959Y10580537D01*
X13336956Y10580539D01*
X13329873Y10584989D01*
X13321978Y10587752D01*
X13321973Y10587754D01*
X13196257Y10631743D01*
X13140108Y10667024D01*
X13104829Y10723172D01*
X13104768Y10723346D01*
X13084989Y10779873D01*
X13076002Y10794175D01*
X12998862Y10916943D01*
X12994411Y10924027D01*
X12874027Y11044411D01*
X12866942Y11048863D01*
X12736959Y11130537D01*
X12736956Y11130539D01*
X12729873Y11134989D01*
X12721978Y11137752D01*
X12721973Y11137754D01*
X12577077Y11188454D01*
X12569178Y11191218D01*
X12560866Y11192155D01*
X12560860Y11192156D01*
X12527404Y11195925D01*
X12464500Y11218025D01*
X12417532Y11265347D01*
X12395904Y11328413D01*
X12385674Y11425756D01*
X12327179Y11605784D01*
X12232533Y11769716D01*
X12138665Y11873967D01*
X12111099Y11904582D01*
X12111097Y11904584D01*
X12105871Y11910388D01*
X11952730Y12021651D01*
X11945596Y12024827D01*
X11945595Y12024828D01*
X11786937Y12095468D01*
X11786934Y12095469D01*
X11779803Y12098644D01*
X11772166Y12100268D01*
X11772164Y12100268D01*
X11595108Y12137902D01*
X11595102Y12137903D01*
X11594646Y12138000D01*
X11594551Y12138000D01*
X11585593Y12139577D01*
X11560837Y12145734D01*
X11560834Y12145735D01*
X11552995Y12147684D01*
X11544920Y12147904D01*
X11542699Y12148206D01*
X11541881Y12148352D01*
X11540928Y12148469D01*
X11540082Y12148526D01*
X11537879Y12148766D01*
X11529997Y12150500D01*
X11521924Y12150500D01*
X11451034Y12150500D01*
X11447000Y12150555D01*
X11376146Y12152475D01*
X11376138Y12152475D01*
X11368068Y12152693D01*
X11360135Y12151171D01*
X11357926Y12150991D01*
X11345837Y12150500D01*
X9414007Y12150500D01*
X9356987Y12161842D01*
X9308648Y12194141D01*
X9094141Y12408648D01*
X9061842Y12456987D01*
X9050500Y12514007D01*
X9050500Y12773660D01*
X13810714Y12773660D01*
X13820180Y12764193D01*
X13856119Y12741611D01*
X13871087Y12734403D01*
X14025457Y12680388D01*
X14041675Y12676686D01*
X14204184Y12658375D01*
X14220816Y12658375D01*
X14383324Y12676686D01*
X14399542Y12680388D01*
X14553903Y12734400D01*
X14568889Y12741617D01*
X14604818Y12764193D01*
X14614285Y12773660D01*
X14607163Y12784994D01*
X14226371Y13165786D01*
X14212499Y13173795D01*
X14198628Y13165786D01*
X13817837Y12784996D01*
X13810714Y12773660D01*
X9050500Y12773660D01*
X9050500Y13858692D01*
X9063839Y13920312D01*
X9101467Y13970900D01*
X9156648Y14001397D01*
X9219501Y14006343D01*
X9278773Y13984853D01*
X9308034Y13966467D01*
X9308039Y13966465D01*
X9315127Y13962011D01*
X9323025Y13959248D01*
X9323026Y13959247D01*
X9332761Y13955841D01*
X9475822Y13905782D01*
X9645000Y13886720D01*
X9814178Y13905782D01*
X9974873Y13962011D01*
X10119027Y14052589D01*
X10119444Y14053007D01*
X10158584Y14074638D01*
X10207796Y14083000D01*
X12713385Y14083000D01*
X12778035Y14068244D01*
X12829880Y14026897D01*
X12834136Y14021560D01*
X12838589Y14014473D01*
X12958973Y13894089D01*
X13103127Y13803511D01*
X13263822Y13747282D01*
X13289259Y13744416D01*
X13344650Y13726762D01*
X13389070Y13689253D01*
X13415754Y13637602D01*
X13420640Y13579670D01*
X13408375Y13470816D01*
X13408375Y13454184D01*
X13426685Y13291676D01*
X13430387Y13275458D01*
X13484399Y13121097D01*
X13491616Y13106111D01*
X13514190Y13070184D01*
X13523658Y13060716D01*
X13534994Y13067839D01*
X14107140Y13639985D01*
X14155479Y13672284D01*
X14212499Y13683626D01*
X14269519Y13672284D01*
X14317858Y13639985D01*
X14839623Y13118220D01*
X14849999Y13111287D01*
X14860376Y13118220D01*
X15382141Y13639984D01*
X15430480Y13672283D01*
X15487500Y13683625D01*
X15544520Y13672283D01*
X15592859Y13639984D01*
X15664983Y13567860D01*
X15703547Y13501065D01*
X15703547Y13423937D01*
X15664983Y13357142D01*
X15092837Y12784996D01*
X15085714Y12773660D01*
X15095180Y12764193D01*
X15131119Y12741611D01*
X15146087Y12734403D01*
X15300457Y12680388D01*
X15316675Y12676686D01*
X15479184Y12658375D01*
X15495816Y12658375D01*
X15658324Y12676686D01*
X15674542Y12680388D01*
X15678114Y12681637D01*
X15681259Y12681921D01*
X15682700Y12682249D01*
X15682744Y12682054D01*
X15750635Y12688166D01*
X15817591Y12659550D01*
X15862990Y12602622D01*
X15875993Y12530978D01*
X15853492Y12461728D01*
X15807170Y12388008D01*
X15807164Y12387998D01*
X15802716Y12380917D01*
X15799954Y12373026D01*
X15799951Y12373018D01*
X15749251Y12228122D01*
X15746487Y12220222D01*
X15745550Y12211911D01*
X15745549Y12211904D01*
X15736155Y12128523D01*
X15727425Y12051044D01*
X15728362Y12042728D01*
X15745549Y11890185D01*
X15745550Y11890180D01*
X15746487Y11881866D01*
X15749251Y11873967D01*
X15799951Y11729071D01*
X15799953Y11729066D01*
X15802716Y11721171D01*
X15807168Y11714086D01*
X15849662Y11646457D01*
X15866677Y11608433D01*
X15872500Y11567184D01*
X15872500Y10822526D01*
X15862035Y10767672D01*
X15832111Y10720523D01*
X15818404Y10705928D01*
X15815157Y10702578D01*
X15799196Y10686616D01*
X15799189Y10686609D01*
X15795877Y10683296D01*
X15793006Y10679596D01*
X15789908Y10676081D01*
X15789898Y10676090D01*
X15785008Y10670365D01*
X15762226Y10646105D01*
X15762218Y10646095D01*
X15755807Y10639267D01*
X15751292Y10631056D01*
X15751290Y10631052D01*
X15747053Y10623345D01*
X15734225Y10603816D01*
X15728839Y10596873D01*
X15728834Y10596866D01*
X15723092Y10589462D01*
X15719369Y10580860D01*
X15719366Y10580854D01*
X15706151Y10550318D01*
X15699980Y10537721D01*
X15683942Y10508548D01*
X15683937Y10508538D01*
X15679428Y10500334D01*
X15677098Y10491263D01*
X15677096Y10491256D01*
X15674909Y10482739D01*
X15667343Y10460640D01*
X15663849Y10452565D01*
X15663846Y10452556D01*
X15660126Y10443958D01*
X15658660Y10434707D01*
X15658659Y10434701D01*
X15653453Y10401829D01*
X15650607Y10388086D01*
X15642331Y10355854D01*
X15642330Y10355849D01*
X15640000Y10346772D01*
X15640000Y10337398D01*
X15640000Y10328613D01*
X15638165Y10305304D01*
X15636791Y10296635D01*
X15636790Y10296621D01*
X15635325Y10287367D01*
X15636207Y10278037D01*
X15636207Y10278034D01*
X15639339Y10244905D01*
X15640000Y10230882D01*
X15640000Y9331793D01*
X15634177Y9290545D01*
X15617162Y9252520D01*
X15586963Y9204460D01*
X15586959Y9204453D01*
X15582511Y9197373D01*
X15579749Y9189482D01*
X15579746Y9189474D01*
X15529046Y9044578D01*
X15526282Y9036678D01*
X15525345Y9028367D01*
X15525344Y9028360D01*
X15510371Y8895467D01*
X15507220Y8867500D01*
X15508157Y8859184D01*
X15525344Y8706641D01*
X15525345Y8706636D01*
X15526282Y8698322D01*
X15529046Y8690423D01*
X15579746Y8545527D01*
X15579748Y8545522D01*
X15582511Y8537627D01*
X15586961Y8530544D01*
X15586963Y8530541D01*
X15668637Y8400558D01*
X15673089Y8393473D01*
X15793473Y8273089D01*
X15888991Y8213071D01*
X15926860Y8189276D01*
X15937627Y8182511D01*
X16098322Y8126282D01*
X16267500Y8107220D01*
X16436678Y8126282D01*
X16597373Y8182511D01*
X16741527Y8273089D01*
X16861911Y8393473D01*
X16952489Y8537627D01*
X17008718Y8698322D01*
X17027780Y8867500D01*
X17008718Y9036678D01*
X16952489Y9197373D01*
X16917838Y9252520D01*
X16900823Y9290545D01*
X16895000Y9331793D01*
X16895000Y9944975D01*
X16905462Y9999822D01*
X16935378Y10046966D01*
X16949083Y10061562D01*
X16952318Y10064901D01*
X16971623Y10084204D01*
X16974499Y10087913D01*
X16977600Y10091430D01*
X16977610Y10091421D01*
X16982488Y10097136D01*
X17011693Y10128233D01*
X17020439Y10144145D01*
X17033280Y10163693D01*
X17038661Y10170630D01*
X17044408Y10178038D01*
X17061352Y10217196D01*
X17067522Y10229788D01*
X17088072Y10267166D01*
X17092587Y10284756D01*
X17100165Y10306885D01*
X17107374Y10323542D01*
X17114046Y10365674D01*
X17116894Y10379423D01*
X17117028Y10379944D01*
X17127500Y10420728D01*
X17127500Y10438887D01*
X17129335Y10462196D01*
X17130708Y10470866D01*
X17130708Y10470872D01*
X17132175Y10480133D01*
X17128161Y10522595D01*
X17127500Y10536618D01*
X17127500Y11606319D01*
X17132209Y11639675D01*
X24850000Y11639675D01*
X24852434Y11627435D01*
X24864675Y11625000D01*
X25985325Y11625000D01*
X25997565Y11627435D01*
X26000000Y11639675D01*
X26400000Y11639675D01*
X26402434Y11627435D01*
X26414675Y11625000D01*
X27535325Y11625000D01*
X27547565Y11627435D01*
X27550000Y11639675D01*
X28450000Y11639675D01*
X28452434Y11627435D01*
X28464675Y11625000D01*
X29585325Y11625000D01*
X29597565Y11627435D01*
X29600000Y11639675D01*
X30000000Y11639675D01*
X30002434Y11627435D01*
X30014675Y11625000D01*
X31135325Y11625000D01*
X31147565Y11627435D01*
X31150000Y11639675D01*
X31150000Y12318841D01*
X31149573Y12326795D01*
X31144594Y12373108D01*
X31140340Y12391112D01*
X31136395Y12401689D01*
X31128489Y12474779D01*
X31156493Y12542752D01*
X31213590Y12589062D01*
X31285879Y12602434D01*
X31355763Y12579614D01*
X35292964Y10084204D01*
X39865045Y7186406D01*
X39867594Y7184754D01*
X39913329Y7154443D01*
X40095373Y7033792D01*
X40314573Y6908176D01*
X40574557Y6759188D01*
X40574563Y6759185D01*
X40576655Y6757986D01*
X41074848Y6514048D01*
X41587843Y6303008D01*
X42113471Y6125760D01*
X42115818Y6125135D01*
X42115822Y6125134D01*
X42600651Y5996061D01*
X42649508Y5983054D01*
X43193688Y5875493D01*
X43743709Y5803532D01*
X44297245Y5767475D01*
X44849538Y5767475D01*
X44851953Y5767475D01*
X45405489Y5803532D01*
X45955510Y5875493D01*
X46499690Y5983054D01*
X47035727Y6125760D01*
X47561355Y6303008D01*
X48074350Y6514048D01*
X48572543Y6757986D01*
X49053825Y7033792D01*
X49282117Y7185095D01*
X49284214Y7186459D01*
X58008702Y12749900D01*
X58010443Y12747169D01*
X58011980Y12748281D01*
X58010614Y12750353D01*
X58044887Y12772953D01*
X58046744Y12774159D01*
X58065088Y12785855D01*
X58065087Y12785855D01*
X58065093Y12785858D01*
X58065850Y12784671D01*
X58067600Y12785543D01*
X58066501Y12787209D01*
X58066501Y12787210D01*
X58162473Y12850508D01*
X58372030Y13029324D01*
X58557967Y13232589D01*
X58717451Y13457209D01*
X58848055Y13699762D01*
X58947789Y13956555D01*
X59015134Y14223677D01*
X59049065Y14497060D01*
X59049065Y14772540D01*
X59015135Y15045922D01*
X58947789Y15313044D01*
X58848055Y15569837D01*
X58717452Y15812390D01*
X58557967Y16037010D01*
X58548319Y16047557D01*
X58375133Y16236885D01*
X58375132Y16236886D01*
X58372031Y16240276D01*
X58162473Y16419092D01*
X58065787Y16482863D01*
X58066808Y16484412D01*
X58064287Y16485650D01*
X58063748Y16484791D01*
X58046539Y16495601D01*
X58043773Y16497381D01*
X58010615Y16519245D01*
X58011743Y16520956D01*
X58009525Y16522555D01*
X58007858Y16519901D01*
X48168396Y22701102D01*
X48161844Y22705532D01*
X48153072Y22714613D01*
X48141356Y22720325D01*
X48141352Y22720328D01*
X48132648Y22724571D01*
X48126572Y22727947D01*
X48122159Y22730149D01*
X48115959Y22734043D01*
X48109122Y22736652D01*
X48108793Y22736816D01*
X48097359Y22741773D01*
X48097010Y22741943D01*
X48023326Y22777863D01*
X47888724Y22843480D01*
X47888707Y22843488D01*
X47886538Y22844545D01*
X47884298Y22845463D01*
X47884286Y22845468D01*
X47446760Y23024700D01*
X47419510Y23035863D01*
X47359069Y23056161D01*
X46943347Y23195775D01*
X46943327Y23195781D01*
X46941073Y23196538D01*
X46740062Y23249839D01*
X46455564Y23325278D01*
X46455562Y23325279D01*
X46453237Y23325895D01*
X46450867Y23326362D01*
X46450861Y23326363D01*
X45960424Y23422922D01*
X45958047Y23423390D01*
X45955663Y23423701D01*
X45955643Y23423704D01*
X45459981Y23488303D01*
X45459968Y23488305D01*
X45457584Y23488615D01*
X45455195Y23488770D01*
X45455175Y23488772D01*
X44956372Y23521140D01*
X44956360Y23521141D01*
X44953947Y23521297D01*
X44449252Y23521297D01*
X44446839Y23521141D01*
X44446826Y23521140D01*
X43948023Y23488772D01*
X43948000Y23488770D01*
X43945615Y23488615D01*
X43943233Y23488305D01*
X43943217Y23488303D01*
X43447555Y23423704D01*
X43447530Y23423700D01*
X43445152Y23423390D01*
X43442779Y23422923D01*
X43442774Y23422922D01*
X42952330Y23326361D01*
X42952301Y23326355D01*
X42949963Y23325894D01*
X42947645Y23325280D01*
X42947639Y23325278D01*
X42464448Y23197154D01*
X42464439Y23197152D01*
X42462126Y23196538D01*
X42459873Y23195782D01*
X42459855Y23195776D01*
X41985981Y23036633D01*
X41985973Y23036631D01*
X41983689Y23035863D01*
X41981444Y23034944D01*
X41981435Y23034940D01*
X41518910Y22845467D01*
X41518891Y22845459D01*
X41516661Y22844545D01*
X41514495Y22843490D01*
X41514488Y22843486D01*
X41306646Y22742167D01*
X41296179Y22737658D01*
X41295086Y22737120D01*
X41288253Y22734546D01*
X41282044Y22730686D01*
X41278908Y22729138D01*
X41271368Y22724970D01*
X41261839Y22720324D01*
X41261835Y22720322D01*
X41250127Y22714613D01*
X41241657Y22705848D01*
X41236161Y22702149D01*
X30879623Y16260887D01*
X30859168Y16250265D01*
X30859047Y16250215D01*
X30859037Y16250209D01*
X30847050Y16245119D01*
X30837522Y16236234D01*
X30837519Y16236232D01*
X30832586Y16231631D01*
X30831775Y16232501D01*
X30831539Y16232348D01*
X30832349Y16231483D01*
X30814110Y16214399D01*
X30753909Y16158224D01*
X30714916Y16121838D01*
X30710927Y16118116D01*
X30707936Y16114522D01*
X30707922Y16114507D01*
X30532276Y15903438D01*
X30532265Y15903424D01*
X30529265Y15899818D01*
X30526740Y15895862D01*
X30526734Y15895852D01*
X30379046Y15664350D01*
X30379041Y15664343D01*
X30376521Y15660391D01*
X30374518Y15656157D01*
X30374513Y15656146D01*
X30257132Y15407891D01*
X30257128Y15407883D01*
X30255125Y15403645D01*
X30253670Y15399188D01*
X30253668Y15399182D01*
X30168467Y15138134D01*
X30168463Y15138121D01*
X30167008Y15133661D01*
X30166125Y15129055D01*
X30166122Y15129041D01*
X30117912Y14877392D01*
X30113571Y14854734D01*
X30113275Y14850056D01*
X30113275Y14850052D01*
X30099676Y14634800D01*
X30095664Y14571300D01*
X30095960Y14566615D01*
X30112014Y14312501D01*
X30113571Y14287866D01*
X30114454Y14283257D01*
X30166122Y14013560D01*
X30166124Y14013550D01*
X30167008Y14008939D01*
X30168464Y14004476D01*
X30168467Y14004467D01*
X30243732Y13773863D01*
X30255125Y13738955D01*
X30257131Y13734712D01*
X30257132Y13734710D01*
X30369539Y13496974D01*
X30376521Y13482209D01*
X30379045Y13478252D01*
X30379046Y13478251D01*
X30511554Y13270543D01*
X30529265Y13242782D01*
X30532271Y13239170D01*
X30532276Y13239163D01*
X30558361Y13207818D01*
X30710046Y13025543D01*
X30710927Y13024484D01*
X30710745Y13024334D01*
X30744003Y12966811D01*
X30748033Y12898186D01*
X30720826Y12835056D01*
X30668175Y12790858D01*
X30601286Y12775000D01*
X30014675Y12775000D01*
X30002434Y12772566D01*
X30000000Y12760325D01*
X30000000Y11639675D01*
X29600000Y11639675D01*
X29600000Y12760325D01*
X29597565Y12772566D01*
X29585325Y12775000D01*
X28906159Y12775000D01*
X28898205Y12774574D01*
X28851892Y12769595D01*
X28833892Y12765342D01*
X28717893Y12722077D01*
X28699380Y12711967D01*
X28601343Y12638577D01*
X28586423Y12623657D01*
X28513033Y12525620D01*
X28502923Y12507107D01*
X28459658Y12391108D01*
X28455405Y12373108D01*
X28450426Y12326795D01*
X28450000Y12318841D01*
X28450000Y11639675D01*
X27550000Y11639675D01*
X27550000Y12318841D01*
X27549573Y12326795D01*
X27544594Y12373108D01*
X27540341Y12391108D01*
X27497076Y12507107D01*
X27486966Y12525620D01*
X27413576Y12623657D01*
X27398656Y12638577D01*
X27300619Y12711967D01*
X27282106Y12722077D01*
X27166107Y12765342D01*
X27148107Y12769595D01*
X27101794Y12774574D01*
X27093841Y12775000D01*
X26414675Y12775000D01*
X26402434Y12772566D01*
X26400000Y12760325D01*
X26400000Y11639675D01*
X26000000Y11639675D01*
X26000000Y12760325D01*
X25997565Y12772566D01*
X25985325Y12775000D01*
X25306159Y12775000D01*
X25298205Y12774574D01*
X25251892Y12769595D01*
X25233892Y12765342D01*
X25117893Y12722077D01*
X25099380Y12711967D01*
X25001343Y12638577D01*
X24986423Y12623657D01*
X24913033Y12525620D01*
X24902923Y12507107D01*
X24859658Y12391108D01*
X24855405Y12373108D01*
X24850426Y12326795D01*
X24850000Y12318841D01*
X24850000Y11639675D01*
X17132209Y11639675D01*
X17133323Y11647568D01*
X17150338Y11685592D01*
X17172694Y11721171D01*
X17228923Y11881866D01*
X17247985Y12051044D01*
X17228923Y12220222D01*
X17172694Y12380917D01*
X17082116Y12525071D01*
X17080909Y12526278D01*
X17054720Y12578766D01*
X17052104Y12640942D01*
X17075110Y12698763D01*
X17119728Y12742144D01*
X17154816Y12764191D01*
X17164285Y12773660D01*
X17157163Y12784994D01*
X16585016Y13357141D01*
X16552717Y13405480D01*
X16541375Y13462500D01*
X17051205Y13462500D01*
X17059214Y13448629D01*
X17440006Y13067837D01*
X17451340Y13060715D01*
X17460807Y13070182D01*
X17483383Y13106111D01*
X17490600Y13121097D01*
X17544612Y13275458D01*
X17548314Y13291676D01*
X17566625Y13454184D01*
X17566625Y13470816D01*
X17548314Y13633325D01*
X17544612Y13649543D01*
X17490597Y13803913D01*
X17483389Y13818881D01*
X17460807Y13854820D01*
X17451340Y13864286D01*
X17440004Y13857163D01*
X17059214Y13476372D01*
X17051205Y13462500D01*
X16541375Y13462500D01*
X16552717Y13519520D01*
X16585016Y13567859D01*
X17106780Y14089624D01*
X17113713Y14100000D01*
X17106780Y14110377D01*
X16585016Y14632141D01*
X16552717Y14680480D01*
X16541375Y14737500D01*
X16552717Y14794520D01*
X16585016Y14842859D01*
X16657141Y14914984D01*
X16705480Y14947283D01*
X16762500Y14958625D01*
X16819520Y14947283D01*
X16867859Y14914984D01*
X17440006Y14342837D01*
X17451340Y14335715D01*
X17460807Y14345182D01*
X17483383Y14381111D01*
X17490599Y14396097D01*
X17537738Y14530811D01*
X17565439Y14578791D01*
X17608754Y14613333D01*
X17661692Y14629663D01*
X17711178Y14635238D01*
X17871873Y14691467D01*
X18016027Y14782045D01*
X18016444Y14782463D01*
X18055584Y14804094D01*
X18104796Y14812456D01*
X19654723Y14812456D01*
X19674171Y14811181D01*
X19691770Y14808864D01*
X19691772Y14808864D01*
X19701456Y14807589D01*
X19848690Y14826973D01*
X19985889Y14883803D01*
X20013388Y14904904D01*
X20065528Y14930617D01*
X20123540Y14934419D01*
X20178592Y14915732D01*
X20182822Y14913290D01*
X20190567Y14907347D01*
X20199584Y14903612D01*
X20199586Y14903611D01*
X20214400Y14897475D01*
X20327766Y14850517D01*
X20475000Y14831133D01*
X20484684Y14832408D01*
X20484686Y14832408D01*
X20502285Y14834725D01*
X20521733Y14836000D01*
X23894694Y14836000D01*
X23959343Y14821244D01*
X23963042Y14819463D01*
X23970127Y14815011D01*
X24130822Y14758782D01*
X24300000Y14739720D01*
X24469178Y14758782D01*
X24629873Y14815011D01*
X24774027Y14905589D01*
X24894411Y15025973D01*
X24984989Y15170127D01*
X25041218Y15330822D01*
X25060280Y15500000D01*
X25041218Y15669178D01*
X24991159Y15812239D01*
X24987753Y15821974D01*
X24987752Y15821975D01*
X24984989Y15829873D01*
X24980193Y15837505D01*
X24922392Y15929496D01*
X24894411Y15974027D01*
X24774027Y16094411D01*
X24757377Y16104873D01*
X24636959Y16180537D01*
X24636956Y16180539D01*
X24629873Y16184989D01*
X24621978Y16187752D01*
X24621973Y16187754D01*
X24477077Y16238454D01*
X24469178Y16241218D01*
X24460864Y16242155D01*
X24460859Y16242156D01*
X24308316Y16259343D01*
X24300000Y16260280D01*
X24291684Y16259343D01*
X24139140Y16242156D01*
X24139133Y16242155D01*
X24130822Y16241218D01*
X24122924Y16238455D01*
X24122922Y16238454D01*
X23978026Y16187754D01*
X23978018Y16187751D01*
X23970127Y16184989D01*
X23963047Y16180541D01*
X23963040Y16180537D01*
X23833057Y16098863D01*
X23833052Y16098860D01*
X23825973Y16094411D01*
X23820060Y16088499D01*
X23820056Y16088495D01*
X23739203Y16007641D01*
X23690864Y15975342D01*
X23633844Y15964000D01*
X20940004Y15964000D01*
X20880420Y15976432D01*
X20830779Y16011654D01*
X20799365Y16063788D01*
X20797359Y16069521D01*
X20784989Y16104873D01*
X20775488Y16119993D01*
X20745338Y16167977D01*
X20694411Y16249027D01*
X20574027Y16369411D01*
X20551799Y16383378D01*
X20436959Y16455537D01*
X20436956Y16455539D01*
X20429873Y16459989D01*
X20421978Y16462752D01*
X20421973Y16462754D01*
X20277077Y16513454D01*
X20269178Y16516218D01*
X20260864Y16517155D01*
X20260859Y16517156D01*
X20108316Y16534343D01*
X20100000Y16535280D01*
X20091684Y16534343D01*
X19939140Y16517156D01*
X19939133Y16517155D01*
X19930822Y16516218D01*
X19922924Y16513455D01*
X19922922Y16513454D01*
X19778026Y16462754D01*
X19778018Y16462751D01*
X19770127Y16459989D01*
X19763047Y16455541D01*
X19763040Y16455537D01*
X19633057Y16373863D01*
X19633052Y16373860D01*
X19625973Y16369411D01*
X19620060Y16363499D01*
X19620056Y16363495D01*
X19511505Y16254944D01*
X19511501Y16254940D01*
X19505589Y16249027D01*
X19501140Y16241948D01*
X19501137Y16241943D01*
X19419463Y16111960D01*
X19419459Y16111953D01*
X19415011Y16104873D01*
X19412249Y16096982D01*
X19412246Y16096974D01*
X19392397Y16040245D01*
X19360983Y15988111D01*
X19311342Y15952888D01*
X19251758Y15940456D01*
X18104796Y15940456D01*
X18055584Y15948818D01*
X18016444Y15970450D01*
X18016027Y15970867D01*
X18008947Y15975316D01*
X18008943Y15975319D01*
X17878959Y16056993D01*
X17878956Y16056995D01*
X17871873Y16061445D01*
X17863978Y16064208D01*
X17863973Y16064210D01*
X17719077Y16114910D01*
X17711178Y16117674D01*
X17702866Y16118611D01*
X17702860Y16118612D01*
X17660631Y16123370D01*
X17607692Y16139701D01*
X17564378Y16174242D01*
X17536678Y16222221D01*
X17519395Y16271612D01*
X17511970Y16337506D01*
X17533871Y16400097D01*
X17580761Y16446986D01*
X17666939Y16501135D01*
X17666940Y16501137D01*
X17674027Y16505589D01*
X17794411Y16625973D01*
X17884989Y16770127D01*
X17941218Y16930822D01*
X17960280Y17100000D01*
X17946043Y17226355D01*
X17950316Y17282092D01*
X17974825Y17332329D01*
X17993796Y17357669D01*
X18044091Y17492517D01*
X18050500Y17552127D01*
X18050499Y18559440D01*
X18067766Y18629062D01*
X18115565Y18682549D01*
X18177783Y18705635D01*
X18177704Y18705983D01*
X18180351Y18706588D01*
X18182817Y18707502D01*
X18194178Y18708782D01*
X18207835Y18713562D01*
X18273730Y18720987D01*
X18336321Y18699087D01*
X18470127Y18615011D01*
X18630822Y18558782D01*
X18800000Y18539720D01*
X18969178Y18558782D01*
X19129873Y18615011D01*
X19274027Y18705589D01*
X19394411Y18825973D01*
X19484989Y18970127D01*
X19541218Y19130822D01*
X19542176Y19130487D01*
X19552059Y19156396D01*
X19577117Y19189700D01*
X20489186Y20101769D01*
X20496537Y20108457D01*
X20503162Y20112660D01*
X20549122Y20161605D01*
X20552317Y20164900D01*
X20571624Y20184205D01*
X20574495Y20187908D01*
X20577598Y20191426D01*
X20577607Y20191418D01*
X20582485Y20197131D01*
X20611357Y20227877D01*
X20659721Y20262151D01*
X20717628Y20274857D01*
X20775906Y20263977D01*
X20825328Y20231234D01*
X20875973Y20180589D01*
X21020127Y20090011D01*
X21180822Y20033782D01*
X21350000Y20014720D01*
X21519178Y20033782D01*
X21679873Y20090011D01*
X21824027Y20180589D01*
X21944411Y20300973D01*
X22034989Y20445127D01*
X22091218Y20605822D01*
X22110280Y20775000D01*
X22091218Y20944178D01*
X22039672Y21091491D01*
X22037753Y21096974D01*
X22037752Y21096975D01*
X22034989Y21104873D01*
X22028437Y21115300D01*
X22000338Y21160020D01*
X21983323Y21198045D01*
X21977500Y21239293D01*
X21977500Y21528363D01*
X21988842Y21585383D01*
X22021141Y21633722D01*
X22141278Y21753859D01*
X22189617Y21786158D01*
X22246637Y21797500D01*
X27900363Y21797500D01*
X27968008Y21781260D01*
X28020907Y21736080D01*
X28047529Y21671809D01*
X28042070Y21602456D01*
X28005722Y21543141D01*
X26033722Y19571141D01*
X25985383Y19538842D01*
X25928363Y19527500D01*
X24064293Y19527500D01*
X24023045Y19533323D01*
X23985020Y19550338D01*
X23936959Y19580537D01*
X23936956Y19580539D01*
X23929873Y19584989D01*
X23921978Y19587752D01*
X23921973Y19587754D01*
X23777077Y19638454D01*
X23769178Y19641218D01*
X23760864Y19642155D01*
X23760859Y19642156D01*
X23608316Y19659343D01*
X23600000Y19660280D01*
X23591684Y19659343D01*
X23439140Y19642156D01*
X23439133Y19642155D01*
X23430822Y19641218D01*
X23422924Y19638455D01*
X23422922Y19638454D01*
X23278026Y19587754D01*
X23278018Y19587751D01*
X23270127Y19584989D01*
X23263047Y19580541D01*
X23263040Y19580537D01*
X23133057Y19498863D01*
X23133052Y19498860D01*
X23125973Y19494411D01*
X23120060Y19488499D01*
X23120056Y19488495D01*
X23011505Y19379944D01*
X23011501Y19379940D01*
X23005589Y19374027D01*
X23001140Y19366948D01*
X23001137Y19366943D01*
X22919463Y19236960D01*
X22919459Y19236953D01*
X22915011Y19229873D01*
X22912249Y19221982D01*
X22912246Y19221974D01*
X22863618Y19083000D01*
X22858782Y19069178D01*
X22857845Y19060867D01*
X22857844Y19060860D01*
X22847136Y18965821D01*
X22839720Y18900000D01*
X22840657Y18891684D01*
X22857844Y18739141D01*
X22857845Y18739136D01*
X22858782Y18730822D01*
X22895562Y18625709D01*
X22902460Y18555671D01*
X22876442Y18490278D01*
X22823311Y18444122D01*
X22754923Y18427500D01*
X20489293Y18427500D01*
X20448045Y18433323D01*
X20410020Y18450338D01*
X20361959Y18480537D01*
X20361956Y18480539D01*
X20354873Y18484989D01*
X20346978Y18487752D01*
X20346973Y18487754D01*
X20202077Y18538454D01*
X20194178Y18541218D01*
X20185864Y18542155D01*
X20185859Y18542156D01*
X20033316Y18559343D01*
X20025000Y18560280D01*
X20016684Y18559343D01*
X19864140Y18542156D01*
X19864133Y18542155D01*
X19855822Y18541218D01*
X19847924Y18538455D01*
X19847922Y18538454D01*
X19703026Y18487754D01*
X19703018Y18487751D01*
X19695127Y18484989D01*
X19688047Y18480541D01*
X19688040Y18480537D01*
X19558057Y18398863D01*
X19558052Y18398860D01*
X19550973Y18394411D01*
X19545060Y18388499D01*
X19545056Y18388495D01*
X19436505Y18279944D01*
X19436501Y18279940D01*
X19430589Y18274027D01*
X19426140Y18266948D01*
X19426137Y18266943D01*
X19344463Y18136960D01*
X19344459Y18136953D01*
X19340011Y18129873D01*
X19337249Y18121982D01*
X19337246Y18121974D01*
X19286915Y17978133D01*
X19283782Y17969178D01*
X19282845Y17960867D01*
X19282844Y17960860D01*
X19271894Y17863672D01*
X19264720Y17800000D01*
X19265657Y17791684D01*
X19282844Y17639141D01*
X19282845Y17639136D01*
X19283782Y17630822D01*
X19286546Y17622923D01*
X19337246Y17478027D01*
X19337248Y17478022D01*
X19340011Y17470127D01*
X19344461Y17463044D01*
X19344463Y17463041D01*
X19406583Y17364178D01*
X19430589Y17325973D01*
X19550973Y17205589D01*
X19695127Y17115011D01*
X19855822Y17058782D01*
X20025000Y17039720D01*
X20194178Y17058782D01*
X20354873Y17115011D01*
X20405742Y17146974D01*
X20410020Y17149662D01*
X20448045Y17166677D01*
X20489293Y17172500D01*
X28134868Y17172500D01*
X28144823Y17172031D01*
X28152477Y17170320D01*
X28219536Y17172427D01*
X28224216Y17172500D01*
X28246785Y17172500D01*
X28251476Y17172500D01*
X28256131Y17173089D01*
X28260797Y17173382D01*
X28260797Y17173369D01*
X28268294Y17173960D01*
X28310943Y17175299D01*
X28328380Y17180366D01*
X28351288Y17185110D01*
X28369293Y17187384D01*
X28408972Y17203095D01*
X28422209Y17207627D01*
X28463191Y17219532D01*
X28478815Y17228774D01*
X28499818Y17239063D01*
X28516703Y17245747D01*
X28551219Y17270827D01*
X28562919Y17278513D01*
X28599656Y17300237D01*
X28612503Y17313085D01*
X28630273Y17328263D01*
X28644967Y17338937D01*
X28672158Y17371808D01*
X28681584Y17382167D01*
X33998277Y22698859D01*
X34046617Y22731158D01*
X34103637Y22742500D01*
X35482868Y22742500D01*
X35492823Y22742031D01*
X35500477Y22740320D01*
X35567536Y22742427D01*
X35572216Y22742500D01*
X35594785Y22742500D01*
X35599476Y22742500D01*
X35604131Y22743089D01*
X35608797Y22743382D01*
X35608797Y22743369D01*
X35616294Y22743960D01*
X35658943Y22745299D01*
X35676380Y22750366D01*
X35699288Y22755110D01*
X35717293Y22757384D01*
X35756972Y22773095D01*
X35770209Y22777627D01*
X35811191Y22789532D01*
X35826815Y22798774D01*
X35847818Y22809063D01*
X35864703Y22815747D01*
X35899219Y22840827D01*
X35910919Y22848513D01*
X35947656Y22870237D01*
X35960503Y22883085D01*
X35978273Y22898263D01*
X35992967Y22908937D01*
X36020158Y22941808D01*
X36029584Y22952167D01*
X37046277Y23968859D01*
X37094617Y24001158D01*
X37151637Y24012500D01*
X56888363Y24012500D01*
X56945383Y24001158D01*
X56993722Y23968859D01*
X62726754Y18235827D01*
X62733457Y18228461D01*
X62737660Y18221838D01*
X62744492Y18215422D01*
X62744494Y18215420D01*
X62786551Y18175926D01*
X62789912Y18172669D01*
X62809205Y18153376D01*
X62812899Y18150510D01*
X62816417Y18147409D01*
X62816409Y18147400D01*
X62822145Y18142501D01*
X62844003Y18121974D01*
X62853233Y18113307D01*
X62865098Y18106785D01*
X62869147Y18104558D01*
X62888685Y18091726D01*
X62903038Y18080592D01*
X62911640Y18076870D01*
X62911643Y18076868D01*
X62942175Y18063656D01*
X62954785Y18057479D01*
X62992166Y18036928D01*
X63001244Y18034598D01*
X63001245Y18034597D01*
X63009748Y18032414D01*
X63031872Y18024840D01*
X63048542Y18017626D01*
X63090667Y18010955D01*
X63104413Y18008109D01*
X63145728Y17997500D01*
X63163887Y17997500D01*
X63187196Y17995665D01*
X63195865Y17994292D01*
X63195872Y17994292D01*
X63205133Y17992825D01*
X63247594Y17996839D01*
X63261618Y17997500D01*
X65155362Y17997500D01*
X65223007Y17981260D01*
X65275906Y17936080D01*
X65302528Y17871808D01*
X65297069Y17802456D01*
X65260721Y17743141D01*
X65119701Y17602122D01*
X65086431Y17577081D01*
X65060487Y17567173D01*
X65060822Y17566218D01*
X64908026Y17512754D01*
X64908018Y17512751D01*
X64900127Y17509989D01*
X64893047Y17505541D01*
X64893040Y17505537D01*
X64763057Y17423863D01*
X64763052Y17423860D01*
X64755973Y17419411D01*
X64750060Y17413499D01*
X64750056Y17413495D01*
X64641505Y17304944D01*
X64641501Y17304940D01*
X64635589Y17299027D01*
X64631140Y17291948D01*
X64631137Y17291943D01*
X64549463Y17161960D01*
X64549459Y17161953D01*
X64545011Y17154873D01*
X64542249Y17146982D01*
X64542246Y17146974D01*
X64494154Y17009531D01*
X64488782Y16994178D01*
X64487845Y16985867D01*
X64487844Y16985860D01*
X64471676Y16842361D01*
X64469720Y16825000D01*
X64470657Y16816684D01*
X64487844Y16664141D01*
X64487845Y16664136D01*
X64488782Y16655822D01*
X64491546Y16647923D01*
X64542246Y16503027D01*
X64542248Y16503022D01*
X64545011Y16495127D01*
X64549461Y16488044D01*
X64549463Y16488041D01*
X64630682Y16358782D01*
X64635589Y16350973D01*
X64755973Y16230589D01*
X64763052Y16226141D01*
X64769289Y16221167D01*
X64811818Y16166801D01*
X64825283Y16099103D01*
X64806795Y16032601D01*
X64760321Y15981566D01*
X64695835Y15956951D01*
X64627177Y15964037D01*
X64572360Y15983218D01*
X64564046Y15984155D01*
X64564041Y15984156D01*
X64411498Y16001343D01*
X64403182Y16002280D01*
X64394866Y16001343D01*
X64242322Y15984156D01*
X64242315Y15984155D01*
X64234004Y15983218D01*
X64226106Y15980455D01*
X64226104Y15980454D01*
X64081208Y15929754D01*
X64081200Y15929751D01*
X64073309Y15926989D01*
X64066229Y15922541D01*
X64066222Y15922537D01*
X63936239Y15840863D01*
X63936234Y15840860D01*
X63929155Y15836411D01*
X63923242Y15830499D01*
X63923238Y15830495D01*
X63814687Y15721944D01*
X63814683Y15721940D01*
X63808771Y15716027D01*
X63804322Y15708948D01*
X63804319Y15708943D01*
X63722645Y15578960D01*
X63722641Y15578953D01*
X63718193Y15571873D01*
X63715431Y15563982D01*
X63715428Y15563974D01*
X63665861Y15422315D01*
X63661964Y15411178D01*
X63661027Y15402867D01*
X63661026Y15402860D01*
X63650907Y15313044D01*
X63642902Y15242000D01*
X63643839Y15233684D01*
X63661026Y15081141D01*
X63661027Y15081136D01*
X63661964Y15072822D01*
X63664728Y15064923D01*
X63715428Y14920027D01*
X63715430Y14920022D01*
X63718193Y14912127D01*
X63722643Y14905044D01*
X63722645Y14905041D01*
X63802726Y14777594D01*
X63808771Y14767973D01*
X63929155Y14647589D01*
X64073309Y14557011D01*
X64234004Y14500782D01*
X64403182Y14481720D01*
X64572360Y14500782D01*
X64733055Y14557011D01*
X64788200Y14591662D01*
X64826227Y14608677D01*
X64867475Y14614500D01*
X68061363Y14614500D01*
X68118383Y14603158D01*
X68166722Y14570859D01*
X68597813Y14139768D01*
X68635631Y14075658D01*
X68637718Y14001254D01*
X68603555Y13935124D01*
X68541667Y13893771D01*
X68453029Y13862755D01*
X68453021Y13862752D01*
X68445127Y13859989D01*
X68438047Y13855541D01*
X68438040Y13855537D01*
X68308057Y13773863D01*
X68308052Y13773860D01*
X68300973Y13769411D01*
X68295060Y13763499D01*
X68295056Y13763495D01*
X68186505Y13654944D01*
X68186501Y13654940D01*
X68180589Y13649027D01*
X68176140Y13641948D01*
X68176137Y13641943D01*
X68094463Y13511960D01*
X68094459Y13511953D01*
X68090011Y13504873D01*
X68087249Y13496982D01*
X68087246Y13496974D01*
X68055232Y13405480D01*
X68033782Y13344178D01*
X68032845Y13335867D01*
X68032844Y13335860D01*
X68018418Y13207818D01*
X67993465Y13140565D01*
X67939978Y13092767D01*
X67870355Y13075500D01*
X67133123Y13075500D01*
X67123177Y13075969D01*
X67115523Y13077680D01*
X67106152Y13077386D01*
X67106147Y13077386D01*
X67048509Y13075574D01*
X67043829Y13075500D01*
X67016524Y13075500D01*
X67011882Y13074914D01*
X67007209Y13074620D01*
X67007208Y13074632D01*
X66999692Y13074041D01*
X66966426Y13072995D01*
X66966422Y13072995D01*
X66957057Y13072700D01*
X66948064Y13070088D01*
X66948054Y13070086D01*
X66939609Y13067632D01*
X66916728Y13062894D01*
X66908010Y13061793D01*
X66907997Y13061790D01*
X66898707Y13060616D01*
X66889998Y13057169D01*
X66889990Y13057166D01*
X66859038Y13044912D01*
X66845767Y13040369D01*
X66813812Y13031085D01*
X66813802Y13031082D01*
X66804809Y13028468D01*
X66796751Y13023703D01*
X66796738Y13023697D01*
X66789173Y13019222D01*
X66768184Y13008940D01*
X66760022Y13005709D01*
X66760011Y13005704D01*
X66751297Y13002253D01*
X66743712Y12996743D01*
X66743704Y12996738D01*
X66716793Y12977186D01*
X66705066Y12969482D01*
X66676413Y12952537D01*
X66676402Y12952530D01*
X66668344Y12947763D01*
X66655496Y12934917D01*
X66637731Y12919743D01*
X66630616Y12914574D01*
X66630609Y12914569D01*
X66623033Y12909063D01*
X66617059Y12901844D01*
X66617061Y12901844D01*
X66595847Y12876202D01*
X66586402Y12865823D01*
X61251722Y7531141D01*
X61203383Y7498842D01*
X61146363Y7487500D01*
X55642766Y7487500D01*
X55632810Y7487970D01*
X55625157Y7489680D01*
X55615790Y7489386D01*
X55615788Y7489386D01*
X55558098Y7487573D01*
X55553419Y7487500D01*
X55526158Y7487500D01*
X55521513Y7486914D01*
X55516846Y7486620D01*
X55516845Y7486632D01*
X55509336Y7486042D01*
X55476062Y7484996D01*
X55476058Y7484996D01*
X55466692Y7484701D01*
X55457696Y7482088D01*
X55457691Y7482087D01*
X55449235Y7479630D01*
X55426353Y7474892D01*
X55417643Y7473792D01*
X55417638Y7473791D01*
X55408341Y7472616D01*
X55399627Y7469167D01*
X55399623Y7469165D01*
X55368685Y7456916D01*
X55355411Y7452371D01*
X55323446Y7443084D01*
X55323444Y7443084D01*
X55314443Y7440468D01*
X55306377Y7435699D01*
X55306368Y7435694D01*
X55298807Y7431222D01*
X55277818Y7420940D01*
X55269656Y7417709D01*
X55269645Y7417704D01*
X55260931Y7414253D01*
X55253346Y7408743D01*
X55253338Y7408738D01*
X55226427Y7389186D01*
X55214700Y7381482D01*
X55186047Y7364537D01*
X55186036Y7364530D01*
X55177978Y7359763D01*
X55165130Y7346917D01*
X55147365Y7331743D01*
X55140250Y7326574D01*
X55140243Y7326569D01*
X55132667Y7321063D01*
X55126693Y7313844D01*
X55126695Y7313844D01*
X55105481Y7288202D01*
X55096036Y7277823D01*
X54469518Y6651305D01*
X54436248Y6626264D01*
X54410304Y6616356D01*
X54410639Y6615401D01*
X54257843Y6561937D01*
X54257835Y6561934D01*
X54249944Y6559172D01*
X54242864Y6554724D01*
X54242857Y6554720D01*
X54112874Y6473046D01*
X54112869Y6473043D01*
X54105790Y6468594D01*
X54099877Y6462682D01*
X54099873Y6462678D01*
X53991322Y6354127D01*
X53991318Y6354123D01*
X53985406Y6348210D01*
X53980957Y6341131D01*
X53980954Y6341126D01*
X53899280Y6211143D01*
X53899276Y6211136D01*
X53894828Y6204056D01*
X53892066Y6196165D01*
X53892063Y6196157D01*
X53847680Y6069313D01*
X53838599Y6043361D01*
X53837662Y6035050D01*
X53837661Y6035043D01*
X53821220Y5889124D01*
X53819537Y5874183D01*
X53820474Y5865867D01*
X53837661Y5713324D01*
X53837662Y5713319D01*
X53838599Y5705005D01*
X53841363Y5697105D01*
X53841364Y5697102D01*
X53856547Y5653710D01*
X53863445Y5583670D01*
X53837426Y5518277D01*
X53784296Y5472121D01*
X53715908Y5455500D01*
X36907127Y5455500D01*
X36897177Y5455970D01*
X36889523Y5457680D01*
X36880155Y5457386D01*
X36880151Y5457386D01*
X36822509Y5455574D01*
X36817829Y5455500D01*
X36790524Y5455500D01*
X36785891Y5454916D01*
X36781994Y5454670D01*
X36755964Y5455313D01*
X36711318Y5460343D01*
X36711316Y5460343D01*
X36703000Y5461280D01*
X36694684Y5460343D01*
X36542140Y5443156D01*
X36542133Y5443155D01*
X36533822Y5442218D01*
X36525924Y5439455D01*
X36525922Y5439454D01*
X36381026Y5388754D01*
X36381018Y5388751D01*
X36373127Y5385989D01*
X36366047Y5381541D01*
X36366040Y5381537D01*
X36236057Y5299863D01*
X36236052Y5299860D01*
X36228973Y5295411D01*
X36223060Y5289499D01*
X36223056Y5289495D01*
X36114505Y5180944D01*
X36114501Y5180940D01*
X36108589Y5175027D01*
X36104140Y5167948D01*
X36104137Y5167943D01*
X36022463Y5037960D01*
X36022459Y5037953D01*
X36018011Y5030873D01*
X36015249Y5022982D01*
X36015246Y5022974D01*
X35964546Y4878078D01*
X35961782Y4870178D01*
X35960845Y4861867D01*
X35960844Y4861860D01*
X35945654Y4727044D01*
X35942720Y4701000D01*
X35943657Y4692684D01*
X35960844Y4540141D01*
X35960845Y4540136D01*
X35961782Y4531822D01*
X35964546Y4523923D01*
X36015246Y4379027D01*
X36015248Y4379022D01*
X36018011Y4371127D01*
X36022461Y4364044D01*
X36022463Y4364041D01*
X36104630Y4233273D01*
X36126120Y4174001D01*
X36121173Y4111148D01*
X36090676Y4055967D01*
X36040088Y4018339D01*
X35978468Y4005000D01*
X35770293Y4005000D01*
X35729045Y4010823D01*
X35691020Y4027838D01*
X35642959Y4058037D01*
X35642956Y4058039D01*
X35635873Y4062489D01*
X35627978Y4065252D01*
X35627973Y4065254D01*
X35483077Y4115954D01*
X35475178Y4118718D01*
X35466864Y4119655D01*
X35466859Y4119656D01*
X35314316Y4136843D01*
X35306000Y4137780D01*
X35297684Y4136843D01*
X35145140Y4119656D01*
X35145133Y4119655D01*
X35136822Y4118718D01*
X35128924Y4115955D01*
X35128922Y4115954D01*
X34984026Y4065254D01*
X34984018Y4065251D01*
X34976127Y4062489D01*
X34969047Y4058041D01*
X34969040Y4058037D01*
X34839057Y3976363D01*
X34839052Y3976360D01*
X34831973Y3971911D01*
X34826060Y3965999D01*
X34826056Y3965995D01*
X34717505Y3857444D01*
X34717501Y3857440D01*
X34711589Y3851527D01*
X34707140Y3844448D01*
X34707137Y3844443D01*
X34625463Y3714460D01*
X34625459Y3714453D01*
X34621011Y3707373D01*
X34618249Y3699482D01*
X34618246Y3699474D01*
X34569017Y3558782D01*
X34564782Y3546678D01*
X34563845Y3538367D01*
X34563844Y3538360D01*
X34548426Y3401518D01*
X34526525Y3338928D01*
X34479636Y3292039D01*
X34417046Y3270138D01*
X34351151Y3277562D01*
X34295004Y3312842D01*
X32929141Y4678705D01*
X32896842Y4727044D01*
X32885500Y4784064D01*
X32885500Y6649707D01*
X32891323Y6690955D01*
X32908338Y6728980D01*
X32917387Y6743383D01*
X32942989Y6784127D01*
X32999218Y6944822D01*
X33018280Y7114000D01*
X32999218Y7283178D01*
X32942989Y7443873D01*
X32852411Y7588027D01*
X32732027Y7708411D01*
X32724942Y7712863D01*
X32594959Y7794537D01*
X32594956Y7794539D01*
X32587873Y7798989D01*
X32579978Y7801752D01*
X32579973Y7801754D01*
X32435077Y7852454D01*
X32427178Y7855218D01*
X32418864Y7856155D01*
X32418859Y7856156D01*
X32266316Y7873343D01*
X32258000Y7874280D01*
X32249684Y7873343D01*
X32097140Y7856156D01*
X32097133Y7856155D01*
X32088822Y7855218D01*
X32080924Y7852455D01*
X32080922Y7852454D01*
X31936026Y7801754D01*
X31936018Y7801751D01*
X31928127Y7798989D01*
X31921047Y7794541D01*
X31921040Y7794537D01*
X31791057Y7712863D01*
X31791052Y7712860D01*
X31783973Y7708411D01*
X31778060Y7702499D01*
X31778056Y7702495D01*
X31669505Y7593944D01*
X31669501Y7593940D01*
X31663589Y7588027D01*
X31659140Y7580948D01*
X31659137Y7580943D01*
X31577463Y7450960D01*
X31577459Y7450953D01*
X31573011Y7443873D01*
X31570249Y7435982D01*
X31570246Y7435974D01*
X31519913Y7292127D01*
X31516782Y7283178D01*
X31515845Y7274867D01*
X31515844Y7274860D01*
X31502277Y7154443D01*
X31497720Y7114000D01*
X31498657Y7105684D01*
X31515844Y6953141D01*
X31515845Y6953136D01*
X31516782Y6944822D01*
X31519546Y6936923D01*
X31570246Y6792027D01*
X31570248Y6792022D01*
X31573011Y6784127D01*
X31577461Y6777044D01*
X31577463Y6777041D01*
X31607662Y6728980D01*
X31624677Y6690955D01*
X31630500Y6649707D01*
X31630500Y4539559D01*
X31630030Y4529604D01*
X31628320Y4521950D01*
X31628614Y4512585D01*
X31628614Y4512582D01*
X31630427Y4454890D01*
X31630500Y4450236D01*
X31630500Y4422951D01*
X31631086Y4418311D01*
X31631380Y4413636D01*
X31631368Y4413636D01*
X31631958Y4406128D01*
X31632810Y4379027D01*
X31633299Y4363484D01*
X31635912Y4354489D01*
X31635914Y4354479D01*
X31638367Y4346038D01*
X31643109Y4323142D01*
X31645384Y4305134D01*
X31648833Y4296421D01*
X31648834Y4296420D01*
X31661085Y4265477D01*
X31665631Y4252198D01*
X31674915Y4220241D01*
X31674917Y4220236D01*
X31677532Y4211236D01*
X31682303Y4203169D01*
X31682306Y4203162D01*
X31686777Y4195602D01*
X31697062Y4174609D01*
X31700294Y4166444D01*
X31700296Y4166440D01*
X31703747Y4157724D01*
X31709261Y4150135D01*
X31709262Y4150133D01*
X31728815Y4123220D01*
X31736522Y4111488D01*
X31753462Y4082844D01*
X31753464Y4082841D01*
X31758237Y4074771D01*
X31764867Y4068141D01*
X31771079Y4061929D01*
X31786262Y4044152D01*
X31791425Y4037045D01*
X31791429Y4037041D01*
X31796937Y4029460D01*
X31804156Y4023488D01*
X31804158Y4023486D01*
X31829797Y4002276D01*
X31840180Y3992828D01*
X33680181Y2152827D01*
X33686884Y2145461D01*
X33691087Y2138838D01*
X33697919Y2132422D01*
X33697921Y2132420D01*
X33739978Y2092926D01*
X33743338Y2089670D01*
X33762631Y2070377D01*
X33766333Y2067506D01*
X33769845Y2064410D01*
X33769836Y2064401D01*
X33775565Y2059508D01*
X33799823Y2036727D01*
X33799825Y2036726D01*
X33806660Y2030307D01*
X33822577Y2021557D01*
X33842118Y2008721D01*
X33856465Y1997592D01*
X33865068Y1993869D01*
X33865072Y1993867D01*
X33895602Y1980656D01*
X33908212Y1974479D01*
X33945593Y1953928D01*
X33954671Y1951598D01*
X33954672Y1951597D01*
X33963175Y1949414D01*
X33985299Y1941840D01*
X34001969Y1934626D01*
X34044094Y1927955D01*
X34057840Y1925109D01*
X34099155Y1914500D01*
X34117314Y1914500D01*
X34140623Y1912665D01*
X34149292Y1911292D01*
X34149299Y1911292D01*
X34158560Y1909825D01*
X34201021Y1913839D01*
X34215045Y1914500D01*
X63639868Y1914500D01*
X63649823Y1914031D01*
X63657477Y1912320D01*
X63724536Y1914427D01*
X63729216Y1914500D01*
X63751785Y1914500D01*
X63756476Y1914500D01*
X63761131Y1915089D01*
X63765797Y1915382D01*
X63765797Y1915369D01*
X63773294Y1915960D01*
X63815943Y1917299D01*
X63833380Y1922366D01*
X63856288Y1927110D01*
X63874293Y1929384D01*
X63913972Y1945095D01*
X63927209Y1949627D01*
X63968191Y1961532D01*
X63983815Y1970774D01*
X64004818Y1981063D01*
X64021703Y1987747D01*
X64056219Y2012827D01*
X64067919Y2020513D01*
X64104656Y2042237D01*
X64117503Y2055085D01*
X64135273Y2070263D01*
X64149967Y2080937D01*
X64177156Y2113806D01*
X64186584Y2124167D01*
X67922801Y5860383D01*
X67956100Y5885438D01*
X67982013Y5895324D01*
X67981678Y5896282D01*
X68020242Y5909776D01*
X68142373Y5952511D01*
X68286527Y6043089D01*
X68406911Y6163473D01*
X68497489Y6307627D01*
X68553718Y6468322D01*
X68572780Y6637500D01*
X68553718Y6806678D01*
X68497489Y6967373D01*
X68406911Y7111527D01*
X68286527Y7231911D01*
X68280890Y7235453D01*
X68241993Y7282849D01*
X68225606Y7342883D01*
X68235169Y7404374D01*
X68269010Y7456593D01*
X68434417Y7622000D01*
X75185720Y7622000D01*
X75186657Y7613683D01*
X75186657Y7613678D01*
X75187263Y7608296D01*
X75187619Y7595156D01*
X75187649Y7595157D01*
X75188153Y7586497D01*
X75187649Y7577831D01*
X75189155Y7569285D01*
X75189156Y7569284D01*
X75195284Y7534529D01*
X75196610Y7525343D01*
X75203845Y7461133D01*
X75203846Y7461129D01*
X75204782Y7452822D01*
X75207543Y7444931D01*
X75207545Y7444923D01*
X75210684Y7435952D01*
X75216734Y7412798D01*
X75216770Y7412675D01*
X75218277Y7404134D01*
X75221711Y7396172D01*
X75221712Y7396170D01*
X75234951Y7365477D01*
X75238773Y7355678D01*
X75261011Y7292127D01*
X75265459Y7285048D01*
X75265460Y7285046D01*
X75272708Y7273510D01*
X75283353Y7253268D01*
X75284698Y7250151D01*
X75288136Y7242182D01*
X75293315Y7235225D01*
X75293316Y7235224D01*
X75311914Y7210242D01*
X75318558Y7200540D01*
X75339354Y7167444D01*
X75351589Y7147973D01*
X75357505Y7142057D01*
X75370067Y7129495D01*
X75384220Y7113118D01*
X75393461Y7100706D01*
X75400110Y7095127D01*
X75422006Y7076754D01*
X75431589Y7067973D01*
X75471973Y7027589D01*
X75479058Y7023138D01*
X75479057Y7023138D01*
X75497647Y7011457D01*
X75514149Y6999436D01*
X75521920Y6992915D01*
X75521922Y6992914D01*
X75528573Y6987333D01*
X75554207Y6974460D01*
X75559404Y6971850D01*
X75571809Y6964859D01*
X75616127Y6937011D01*
X75648766Y6925591D01*
X75666405Y6918112D01*
X75686189Y6908176D01*
X75716923Y6900893D01*
X75731742Y6896557D01*
X75776822Y6880782D01*
X75815443Y6876431D01*
X75833126Y6873352D01*
X75857812Y6867500D01*
X75886335Y6867500D01*
X75903017Y6866564D01*
X75946000Y6861720D01*
X75988982Y6866564D01*
X76005665Y6867500D01*
X76128758Y6867500D01*
X76185778Y6856158D01*
X76234117Y6823859D01*
X77775019Y5282957D01*
X77778998Y5278505D01*
X77780589Y5275973D01*
X77900973Y5155589D01*
X77939495Y5131384D01*
X77952626Y5122108D01*
X77976209Y5103461D01*
X77997740Y5093421D01*
X78014036Y5084546D01*
X78038036Y5069466D01*
X78038040Y5069465D01*
X78045127Y5065011D01*
X78082080Y5052081D01*
X78092343Y5048490D01*
X78106105Y5042890D01*
X78136060Y5028921D01*
X78156122Y5024779D01*
X78175200Y5019498D01*
X78205822Y5008782D01*
X78260171Y5002659D01*
X78273617Y5000517D01*
X78300291Y4995009D01*
X78300297Y4995009D01*
X78308794Y4993254D01*
X78325951Y4993754D01*
X78346949Y4992881D01*
X78375000Y4989720D01*
X78434200Y4996391D01*
X78446513Y4997262D01*
X78485096Y4998384D01*
X78498397Y5001949D01*
X78520276Y5006090D01*
X78544178Y5008782D01*
X78605234Y5030147D01*
X78615828Y5033415D01*
X78655463Y5044034D01*
X78664567Y5048944D01*
X78686069Y5058433D01*
X78704873Y5065011D01*
X78764239Y5102315D01*
X78772797Y5107302D01*
X78775657Y5108844D01*
X78810709Y5127743D01*
X78817199Y5133520D01*
X78820909Y5136117D01*
X78835631Y5147173D01*
X78849027Y5155589D01*
X78902791Y5209355D01*
X78909060Y5215270D01*
X78942467Y5244997D01*
X78947446Y5252109D01*
X78953216Y5258592D01*
X78953374Y5258452D01*
X78961106Y5267669D01*
X78969411Y5275973D01*
X79013385Y5345959D01*
X79017454Y5352091D01*
X79043633Y5389477D01*
X79046839Y5397548D01*
X79050761Y5404822D01*
X79055458Y5412880D01*
X79055532Y5413036D01*
X79059989Y5420127D01*
X79089853Y5505478D01*
X79091997Y5511219D01*
X79108752Y5553392D01*
X79109985Y5561812D01*
X79113104Y5571924D01*
X79116218Y5580822D01*
X79127437Y5680405D01*
X79128055Y5685178D01*
X79134315Y5727906D01*
X79133757Y5734273D01*
X79134179Y5740241D01*
X79135280Y5750000D01*
X79122522Y5863227D01*
X79122154Y5866907D01*
X79121711Y5871974D01*
X79118943Y5903612D01*
X79117625Y5907587D01*
X79117277Y5909776D01*
X79117264Y5909891D01*
X79116218Y5919178D01*
X79070680Y6049317D01*
X79069933Y6051514D01*
X79063464Y6071036D01*
X79062579Y6072471D01*
X79059989Y6079873D01*
X78969411Y6224027D01*
X78849027Y6344411D01*
X78846497Y6346000D01*
X78842047Y6349977D01*
X77083051Y8108973D01*
X77068893Y8125357D01*
X77060725Y8136329D01*
X77060721Y8136334D01*
X77055539Y8143294D01*
X77024084Y8169688D01*
X77018203Y8174623D01*
X77008620Y8183404D01*
X77008512Y8183512D01*
X77008511Y8183513D01*
X77005441Y8186583D01*
X76981257Y8205705D01*
X76977938Y8208409D01*
X76920427Y8256667D01*
X76912887Y8260454D01*
X76912308Y8260872D01*
X76909046Y8262951D01*
X76908406Y8263309D01*
X76901791Y8268539D01*
X76893930Y8272205D01*
X76893928Y8272206D01*
X76833760Y8300264D01*
X76829863Y8302151D01*
X76770568Y8331929D01*
X76770563Y8331931D01*
X76762811Y8335824D01*
X76754603Y8337770D01*
X76753921Y8338052D01*
X76750293Y8339313D01*
X76749588Y8339513D01*
X76741940Y8343079D01*
X76733451Y8344832D01*
X76733445Y8344834D01*
X76668417Y8358261D01*
X76664211Y8359194D01*
X76620838Y8369473D01*
X76599624Y8374501D01*
X76599621Y8374502D01*
X76591188Y8376500D01*
X76582755Y8376500D01*
X76582030Y8376617D01*
X76578204Y8377008D01*
X76577468Y8377040D01*
X76569206Y8378746D01*
X76560536Y8378494D01*
X76560533Y8378494D01*
X76494183Y8376563D01*
X76489849Y8376500D01*
X76005665Y8376500D01*
X75988982Y8377437D01*
X75954316Y8381343D01*
X75946000Y8382280D01*
X75937684Y8381343D01*
X75785132Y8364155D01*
X75785126Y8364154D01*
X75776822Y8363218D01*
X75771002Y8361182D01*
X75770816Y8361160D01*
X75768811Y8360431D01*
X75768800Y8360428D01*
X75768561Y8360340D01*
X75766827Y8359721D01*
X75624025Y8309753D01*
X75624022Y8309752D01*
X75616127Y8306989D01*
X75609044Y8302539D01*
X75609036Y8302535D01*
X75608427Y8302152D01*
X75607946Y8301881D01*
X75605076Y8300836D01*
X75598994Y8296837D01*
X75598992Y8296835D01*
X75579440Y8283976D01*
X75576843Y8282307D01*
X75479056Y8220862D01*
X75479053Y8220861D01*
X75471973Y8216411D01*
X75466059Y8210499D01*
X75466053Y8210493D01*
X75465079Y8209519D01*
X75462138Y8206826D01*
X75457715Y8203915D01*
X75451774Y8197619D01*
X75451769Y8197614D01*
X75429802Y8174331D01*
X75426787Y8171227D01*
X75357502Y8101941D01*
X75357498Y8101937D01*
X75351589Y8096027D01*
X75347145Y8088956D01*
X75347137Y8088945D01*
X75346406Y8087780D01*
X75341793Y8081046D01*
X75336678Y8075623D01*
X75332344Y8068118D01*
X75332342Y8068114D01*
X75314401Y8037040D01*
X75311528Y8032272D01*
X75265461Y7958956D01*
X75261011Y7951873D01*
X75258248Y7943979D01*
X75258245Y7943972D01*
X75258091Y7943531D01*
X75254277Y7933753D01*
X75252823Y7930384D01*
X75248490Y7922876D01*
X75246003Y7914571D01*
X75246001Y7914565D01*
X75235393Y7879135D01*
X75233294Y7872666D01*
X75207543Y7799071D01*
X75207541Y7799065D01*
X75204782Y7791178D01*
X75203845Y7782871D01*
X75203843Y7782859D01*
X75203689Y7781493D01*
X75201513Y7770831D01*
X75201899Y7770762D01*
X75200393Y7762222D01*
X75197905Y7753909D01*
X75197400Y7745252D01*
X75197400Y7745248D01*
X75195272Y7708720D01*
X75194587Y7700707D01*
X75186657Y7630318D01*
X75185720Y7622000D01*
X68434417Y7622000D01*
X68779277Y7966859D01*
X68827617Y7999158D01*
X68884637Y8010500D01*
X70909707Y8010500D01*
X70950955Y8004677D01*
X70988980Y7987662D01*
X71037040Y7957464D01*
X71044127Y7953011D01*
X71204822Y7896782D01*
X71374000Y7877720D01*
X71543178Y7896782D01*
X71703873Y7953011D01*
X71848027Y8043589D01*
X71968411Y8163973D01*
X72058989Y8308127D01*
X72115218Y8468822D01*
X72134280Y8638000D01*
X72136184Y8637786D01*
X72144685Y8680520D01*
X72176984Y8728859D01*
X72225323Y8761158D01*
X72282343Y8772500D01*
X76297868Y8772500D01*
X76307823Y8772031D01*
X76315477Y8770320D01*
X76382536Y8772427D01*
X76387216Y8772500D01*
X76409785Y8772500D01*
X76414476Y8772500D01*
X76419131Y8773089D01*
X76423797Y8773382D01*
X76423797Y8773369D01*
X76431294Y8773960D01*
X76473943Y8775299D01*
X76491380Y8780366D01*
X76514288Y8785110D01*
X76532293Y8787384D01*
X76571972Y8803095D01*
X76585209Y8807627D01*
X76626191Y8819532D01*
X76641815Y8828774D01*
X76662818Y8839063D01*
X76679703Y8845747D01*
X76714219Y8870827D01*
X76725919Y8878513D01*
X76762656Y8900237D01*
X76775503Y8913085D01*
X76793273Y8928263D01*
X76807967Y8938937D01*
X76835158Y8971808D01*
X76844584Y8982167D01*
X77285300Y9422883D01*
X77318604Y9447941D01*
X77344513Y9457824D01*
X77344178Y9458782D01*
X77344178Y9458783D01*
X77504873Y9515011D01*
X77649027Y9605589D01*
X77769411Y9725973D01*
X77859989Y9870127D01*
X77916218Y10030822D01*
X77931244Y10164185D01*
X77956197Y10231435D01*
X78009684Y10279233D01*
X78079307Y10296500D01*
X80450363Y10296500D01*
X80507383Y10285158D01*
X80555722Y10252859D01*
X82559754Y8248827D01*
X82566457Y8241461D01*
X82570660Y8234838D01*
X82577492Y8228422D01*
X82577494Y8228420D01*
X82619551Y8188926D01*
X82622911Y8185670D01*
X82642204Y8166377D01*
X82645906Y8163506D01*
X82649418Y8160410D01*
X82649409Y8160401D01*
X82655138Y8155508D01*
X82679396Y8132727D01*
X82679398Y8132726D01*
X82686233Y8126307D01*
X82702150Y8117557D01*
X82721691Y8104721D01*
X82736038Y8093592D01*
X82775184Y8076653D01*
X82787781Y8070481D01*
X82816948Y8054446D01*
X82825166Y8049928D01*
X82842761Y8045411D01*
X82864872Y8037840D01*
X82881541Y8030627D01*
X82923670Y8023956D01*
X82937384Y8021116D01*
X82978728Y8010500D01*
X82996893Y8010500D01*
X83020190Y8008667D01*
X83038133Y8005825D01*
X83080594Y8009839D01*
X83094618Y8010500D01*
X85393745Y8010500D01*
X85447143Y8000603D01*
X85493448Y7972226D01*
X85494900Y7970919D01*
X85500129Y7965112D01*
X85653270Y7853849D01*
X85826197Y7776856D01*
X86011354Y7737500D01*
X86192835Y7737500D01*
X86200646Y7737500D01*
X86385803Y7776856D01*
X86558730Y7853849D01*
X86711871Y7965112D01*
X86838533Y8105784D01*
X86893877Y8201644D01*
X86936693Y8248662D01*
X86995217Y8273546D01*
X87058787Y8271760D01*
X87106829Y8248065D01*
X87107473Y8249089D01*
X87231658Y8171058D01*
X87251627Y8158511D01*
X87412322Y8102282D01*
X87581500Y8083220D01*
X87750678Y8102282D01*
X87911373Y8158511D01*
X87916940Y8162010D01*
X87989155Y8176376D01*
X88060074Y8153773D01*
X88184627Y8075511D01*
X88345322Y8019282D01*
X88514500Y8000220D01*
X88683678Y8019282D01*
X88844373Y8075511D01*
X88988527Y8166089D01*
X89108911Y8286473D01*
X89199489Y8430627D01*
X89255718Y8591322D01*
X89274780Y8760500D01*
X89255718Y8929678D01*
X89199489Y9090373D01*
X89108911Y9234527D01*
X88988527Y9354911D01*
X88880357Y9422879D01*
X88851459Y9441037D01*
X88851456Y9441039D01*
X88844373Y9445489D01*
X88836478Y9448252D01*
X88836473Y9448254D01*
X88683678Y9501718D01*
X88684012Y9502674D01*
X88658077Y9512575D01*
X88624797Y9537622D01*
X87611244Y10551175D01*
X87604540Y10558543D01*
X87600340Y10565162D01*
X87590943Y10573986D01*
X87551447Y10611076D01*
X87548086Y10614333D01*
X87532101Y10630318D01*
X87528796Y10633623D01*
X87525101Y10636489D01*
X87521581Y10639592D01*
X87521589Y10639602D01*
X87515858Y10644496D01*
X87499050Y10660280D01*
X87484767Y10673693D01*
X87476555Y10678208D01*
X87476553Y10678209D01*
X87468845Y10682446D01*
X87449309Y10695280D01*
X87442374Y10700659D01*
X87442371Y10700661D01*
X87434962Y10706408D01*
X87395815Y10723349D01*
X87383214Y10729522D01*
X87354049Y10745556D01*
X87354047Y10745557D01*
X87345834Y10750072D01*
X87336752Y10752404D01*
X87328240Y10754590D01*
X87306132Y10762159D01*
X87298064Y10765650D01*
X87298063Y10765651D01*
X87289458Y10769374D01*
X87270481Y10772380D01*
X87247330Y10776047D01*
X87233591Y10778892D01*
X87201351Y10787169D01*
X87201350Y10787170D01*
X87192272Y10789500D01*
X87182898Y10789500D01*
X87174113Y10789500D01*
X87150804Y10791335D01*
X87142134Y10792709D01*
X87142120Y10792710D01*
X87132867Y10794175D01*
X87123535Y10793293D01*
X87123533Y10793293D01*
X87090405Y10790161D01*
X87076382Y10789500D01*
X84395637Y10789500D01*
X84338617Y10800842D01*
X84290278Y10833141D01*
X82286244Y12837175D01*
X82279540Y12844543D01*
X82275340Y12851162D01*
X82254438Y12870790D01*
X82226447Y12897076D01*
X82223086Y12900333D01*
X82207101Y12916318D01*
X82207100Y12916319D01*
X82203796Y12919623D01*
X82200101Y12922489D01*
X82196581Y12925592D01*
X82196589Y12925602D01*
X82190858Y12930496D01*
X82166600Y12953276D01*
X82159767Y12959693D01*
X82151555Y12964208D01*
X82151553Y12964209D01*
X82143845Y12968446D01*
X82124309Y12981280D01*
X82117374Y12986659D01*
X82117371Y12986661D01*
X82109962Y12992408D01*
X82070815Y13009349D01*
X82058214Y13015522D01*
X82029049Y13031556D01*
X82029047Y13031557D01*
X82020834Y13036072D01*
X82011752Y13038404D01*
X82003240Y13040590D01*
X81981132Y13048159D01*
X81973064Y13051650D01*
X81973063Y13051651D01*
X81964458Y13055374D01*
X81945481Y13058380D01*
X81922330Y13062047D01*
X81908591Y13064892D01*
X81876351Y13073169D01*
X81876350Y13073170D01*
X81867272Y13075500D01*
X81857898Y13075500D01*
X81849113Y13075500D01*
X81825804Y13077335D01*
X81817134Y13078709D01*
X81817120Y13078710D01*
X81807867Y13080175D01*
X81798535Y13079293D01*
X81798533Y13079293D01*
X81765405Y13076161D01*
X81751382Y13075500D01*
X73847637Y13075500D01*
X73779992Y13091740D01*
X73727094Y13136920D01*
X73700471Y13201191D01*
X73705929Y13270543D01*
X73742278Y13329859D01*
X73980278Y13567860D01*
X74064186Y13651769D01*
X74071537Y13658457D01*
X74078162Y13662660D01*
X74124122Y13711605D01*
X74127317Y13714900D01*
X74146623Y13734204D01*
X74149499Y13737913D01*
X74152600Y13741430D01*
X74152610Y13741421D01*
X74157488Y13747136D01*
X74186693Y13778233D01*
X74195439Y13794145D01*
X74208280Y13813693D01*
X74219408Y13828038D01*
X74236352Y13867196D01*
X74242522Y13879788D01*
X74263072Y13917166D01*
X74267587Y13934756D01*
X74275165Y13956885D01*
X74282374Y13973542D01*
X74289046Y14015674D01*
X74291894Y14029423D01*
X74302500Y14070728D01*
X74302500Y14088887D01*
X74304335Y14112196D01*
X74305708Y14120866D01*
X74305708Y14120872D01*
X74307175Y14130133D01*
X74303161Y14172595D01*
X74302500Y14186618D01*
X74302500Y15998349D01*
X74318318Y16065158D01*
X74362412Y16117783D01*
X74425422Y16145049D01*
X74493968Y16141169D01*
X74553498Y16106965D01*
X74586551Y16075926D01*
X74589912Y16072669D01*
X74609204Y16053377D01*
X74612906Y16050506D01*
X74616418Y16047410D01*
X74616409Y16047401D01*
X74622138Y16042508D01*
X74646396Y16019727D01*
X74646398Y16019726D01*
X74653233Y16013307D01*
X74669150Y16004557D01*
X74688691Y15991721D01*
X74703038Y15980592D01*
X74711641Y15976869D01*
X74711645Y15976867D01*
X74742175Y15963656D01*
X74754785Y15957479D01*
X74792166Y15936928D01*
X74807640Y15932955D01*
X74809748Y15932414D01*
X74831872Y15924840D01*
X74848542Y15917626D01*
X74890667Y15910955D01*
X74904413Y15908109D01*
X74945728Y15897500D01*
X74963887Y15897500D01*
X74987196Y15895665D01*
X74995865Y15894292D01*
X74995872Y15894292D01*
X75005133Y15892825D01*
X75047594Y15896839D01*
X75061618Y15897500D01*
X76035707Y15897500D01*
X76076955Y15891677D01*
X76114980Y15874662D01*
X76163040Y15844464D01*
X76170127Y15840011D01*
X76330822Y15783782D01*
X76500000Y15764720D01*
X76669178Y15783782D01*
X76680050Y15787587D01*
X76683185Y15787941D01*
X76685235Y15788408D01*
X76685287Y15788178D01*
X76745904Y15795019D01*
X76808470Y15773158D01*
X76843781Y15737895D01*
X76845920Y15739600D01*
X76851137Y15733058D01*
X76855589Y15725973D01*
X76975973Y15605589D01*
X77120127Y15515011D01*
X77280822Y15458782D01*
X77450000Y15439720D01*
X77619178Y15458782D01*
X77779873Y15515011D01*
X77924027Y15605589D01*
X78044411Y15725973D01*
X78134989Y15870127D01*
X78191218Y16030822D01*
X78192176Y16030487D01*
X78202059Y16056396D01*
X78227117Y16089700D01*
X79637186Y17499769D01*
X79644537Y17506457D01*
X79651162Y17510660D01*
X79697122Y17559605D01*
X79700317Y17562900D01*
X79719623Y17582204D01*
X79722499Y17585913D01*
X79725600Y17589430D01*
X79725610Y17589421D01*
X79730488Y17595136D01*
X79759693Y17626233D01*
X79768439Y17642145D01*
X79781280Y17661693D01*
X79786661Y17668630D01*
X79792408Y17676038D01*
X79809352Y17715196D01*
X79815522Y17727788D01*
X79836072Y17765166D01*
X79840587Y17782756D01*
X79848165Y17804885D01*
X79849650Y17808316D01*
X79855374Y17821542D01*
X79862046Y17863674D01*
X79864894Y17877423D01*
X79867799Y17888736D01*
X79875500Y17918728D01*
X79875500Y17936887D01*
X79877335Y17960196D01*
X79878708Y17968866D01*
X79878708Y17968872D01*
X79880175Y17978133D01*
X79876161Y18020595D01*
X79875500Y18034618D01*
X79875500Y20502200D01*
X83511391Y20502200D01*
X83514254Y20487807D01*
X83516299Y20477526D01*
X83525081Y20433373D01*
X83530833Y20404460D01*
X83538982Y20392264D01*
X83538983Y20392262D01*
X83578045Y20333801D01*
X83586198Y20321599D01*
X83669059Y20266234D01*
X83766799Y20246792D01*
X83781192Y20249655D01*
X83785386Y20249655D01*
X83806149Y20251700D01*
X84668014Y20251700D01*
X84731988Y20237267D01*
X84783568Y20196766D01*
X84812762Y20138041D01*
X84813915Y20072470D01*
X84813725Y20071553D01*
X84812808Y20067424D01*
X84797500Y20002833D01*
X84797498Y20002821D01*
X84795500Y19994388D01*
X84795500Y19985956D01*
X84795383Y19985232D01*
X84794992Y19981397D01*
X84794960Y19980670D01*
X84793254Y19972406D01*
X84793506Y19963737D01*
X84793506Y19963734D01*
X84795437Y19897383D01*
X84795500Y19893049D01*
X84795500Y18965821D01*
X84793927Y18944228D01*
X84790685Y18922094D01*
X84791441Y18913452D01*
X84791441Y18913449D01*
X84794933Y18873538D01*
X84795500Y18860552D01*
X84795500Y18856059D01*
X84796002Y18851758D01*
X84796003Y18851751D01*
X84799073Y18825478D01*
X84799513Y18821174D01*
X84805300Y18755028D01*
X84805301Y18755020D01*
X84806057Y18746388D01*
X84808710Y18738381D01*
X84808826Y18737664D01*
X84809662Y18733895D01*
X84809860Y18733195D01*
X84810840Y18724816D01*
X84813807Y18716664D01*
X84813809Y18716656D01*
X84836505Y18654295D01*
X84837926Y18650208D01*
X84858805Y18587203D01*
X84858807Y18587198D01*
X84861536Y18578964D01*
X84865963Y18571786D01*
X84866245Y18571107D01*
X84867917Y18567654D01*
X84868275Y18567012D01*
X84871164Y18559076D01*
X84875932Y18551826D01*
X84875935Y18551821D01*
X84912406Y18496370D01*
X84914732Y18492719D01*
X84954130Y18428846D01*
X84960097Y18422879D01*
X84960524Y18422288D01*
X84962953Y18419306D01*
X84963447Y18418767D01*
X84968085Y18411715D01*
X84974396Y18405761D01*
X85022673Y18360214D01*
X85025782Y18357194D01*
X86994948Y16388028D01*
X87009105Y16371646D01*
X87022461Y16353706D01*
X87059794Y16322380D01*
X87069377Y16313599D01*
X87072559Y16310417D01*
X87075949Y16307736D01*
X87075953Y16307733D01*
X87096728Y16291306D01*
X87100076Y16288578D01*
X87157573Y16240333D01*
X87165111Y16236548D01*
X87165698Y16236124D01*
X87168957Y16234048D01*
X87169588Y16233696D01*
X87176208Y16228461D01*
X87184073Y16224794D01*
X87184074Y16224793D01*
X87244245Y16196735D01*
X87248146Y16194846D01*
X87262268Y16187754D01*
X87315189Y16161176D01*
X87323396Y16159232D01*
X87324065Y16158954D01*
X87327720Y16157684D01*
X87328410Y16157489D01*
X87336060Y16153921D01*
X87409596Y16138738D01*
X87413737Y16137820D01*
X87486812Y16120500D01*
X87495258Y16120500D01*
X87495982Y16120383D01*
X87499808Y16119993D01*
X87500529Y16119962D01*
X87508793Y16118255D01*
X87583781Y16120437D01*
X87588116Y16120500D01*
X91265335Y16120500D01*
X91282017Y16119564D01*
X91325000Y16114720D01*
X91494178Y16133782D01*
X91499997Y16135819D01*
X91500184Y16135840D01*
X91502473Y16136675D01*
X91504129Y16137266D01*
X91654873Y16190011D01*
X91662553Y16194839D01*
X91663054Y16195121D01*
X91665924Y16196164D01*
X91691570Y16213032D01*
X91694139Y16214685D01*
X91799027Y16280589D01*
X91805908Y16287472D01*
X91808858Y16290175D01*
X91813285Y16293085D01*
X91841198Y16322673D01*
X91844183Y16325747D01*
X91919411Y16400973D01*
X91924582Y16409205D01*
X91929202Y16415952D01*
X91934322Y16421377D01*
X91956614Y16459989D01*
X91959433Y16464671D01*
X92009989Y16545127D01*
X92012911Y16553480D01*
X92016741Y16563299D01*
X92018162Y16566595D01*
X92022510Y16574124D01*
X92035600Y16617850D01*
X92037701Y16624323D01*
X92063454Y16697921D01*
X92063455Y16697927D01*
X92066218Y16705822D01*
X92067305Y16715479D01*
X92069488Y16726160D01*
X92069099Y16726228D01*
X92070606Y16734781D01*
X92073095Y16743091D01*
X92075727Y16788294D01*
X92076406Y16796251D01*
X92085280Y16875000D01*
X92083736Y16888694D01*
X92083382Y16901840D01*
X92083351Y16901838D01*
X92082846Y16910504D01*
X92083351Y16919169D01*
X92075712Y16962488D01*
X92074387Y16971670D01*
X92067155Y17035862D01*
X92067154Y17035863D01*
X92066218Y17044178D01*
X92060318Y17061040D01*
X92054271Y17084182D01*
X92054229Y17084320D01*
X92052723Y17092866D01*
X92036050Y17131518D01*
X92032230Y17141311D01*
X92030248Y17146974D01*
X92009989Y17204873D01*
X91998288Y17223494D01*
X91987640Y17243746D01*
X91982864Y17254818D01*
X91959084Y17286760D01*
X91952440Y17296462D01*
X91923865Y17341940D01*
X91923860Y17341946D01*
X91919411Y17349027D01*
X91900928Y17367510D01*
X91886770Y17383894D01*
X91877539Y17396294D01*
X91849989Y17419411D01*
X91848992Y17420248D01*
X91839409Y17429029D01*
X91804943Y17463495D01*
X91804942Y17463496D01*
X91799027Y17469411D01*
X91791943Y17473862D01*
X91791941Y17473864D01*
X91773352Y17485544D01*
X91756851Y17497564D01*
X91749073Y17504091D01*
X91749069Y17504094D01*
X91742427Y17509667D01*
X91734676Y17513560D01*
X91734674Y17513561D01*
X91711593Y17525152D01*
X91699189Y17532143D01*
X91661962Y17555535D01*
X91661959Y17555537D01*
X91654873Y17559989D01*
X91622238Y17571409D01*
X91604586Y17578893D01*
X91597993Y17582204D01*
X91584811Y17588824D01*
X91576366Y17590826D01*
X91576365Y17590826D01*
X91561669Y17594309D01*
X91554085Y17596107D01*
X91539244Y17600449D01*
X91494178Y17616218D01*
X91485867Y17617155D01*
X91485865Y17617155D01*
X91455550Y17620571D01*
X91437878Y17623649D01*
X91421633Y17627499D01*
X91421628Y17627500D01*
X91413188Y17629500D01*
X91404508Y17629500D01*
X91384665Y17629500D01*
X91367982Y17630437D01*
X91333316Y17634343D01*
X91325000Y17635280D01*
X91316684Y17634343D01*
X91282018Y17630437D01*
X91265335Y17629500D01*
X87949242Y17629500D01*
X87892222Y17640842D01*
X87843883Y17673141D01*
X86348141Y19168883D01*
X86315842Y19217222D01*
X86304500Y19274242D01*
X86304500Y19435400D01*
X86660991Y19435400D01*
X86663854Y19421007D01*
X86665869Y19410878D01*
X86665870Y19410873D01*
X86665899Y19410726D01*
X86668662Y19396838D01*
X86668663Y19396832D01*
X86677569Y19352055D01*
X86677570Y19352052D01*
X86680433Y19337660D01*
X86688584Y19325461D01*
X86688585Y19325459D01*
X86709000Y19294905D01*
X86735798Y19254799D01*
X86818659Y19199434D01*
X86852884Y19192626D01*
X86916399Y19179992D01*
X86930792Y19182855D01*
X86934986Y19182855D01*
X86955749Y19184900D01*
X88756649Y19184900D01*
X88777412Y19182855D01*
X88781606Y19182855D01*
X88795999Y19179992D01*
X88859514Y19192626D01*
X88893739Y19199434D01*
X88976600Y19254799D01*
X89031965Y19337660D01*
X89043218Y19394233D01*
X89043735Y19396832D01*
X89043736Y19396838D01*
X89046499Y19410726D01*
X89046528Y19410873D01*
X89046529Y19410878D01*
X89048544Y19421007D01*
X89051407Y19435400D01*
X89048544Y19449793D01*
X89048544Y19453987D01*
X89046499Y19474750D01*
X89046499Y19852350D01*
X89060805Y19916056D01*
X89100974Y19967528D01*
X89159295Y19996885D01*
X89224567Y19998487D01*
X89238805Y19995655D01*
X89238806Y19995655D01*
X89253199Y19992792D01*
X89267592Y19995655D01*
X89271786Y19995655D01*
X89292549Y19997700D01*
X91093449Y19997700D01*
X91114212Y19995655D01*
X91118406Y19995655D01*
X91132799Y19992792D01*
X91143445Y19994910D01*
X91196719Y19984313D01*
X91245058Y19952014D01*
X91277357Y19903675D01*
X91288699Y19846655D01*
X91288699Y19474750D01*
X91286654Y19453987D01*
X91286654Y19449793D01*
X91283791Y19435400D01*
X91286654Y19421007D01*
X91288669Y19410878D01*
X91288670Y19410873D01*
X91288699Y19410726D01*
X91291462Y19396838D01*
X91291463Y19396832D01*
X91300369Y19352055D01*
X91300370Y19352052D01*
X91303233Y19337660D01*
X91311384Y19325461D01*
X91311385Y19325459D01*
X91331800Y19294905D01*
X91358598Y19254799D01*
X91441459Y19199434D01*
X91475684Y19192626D01*
X91539199Y19179992D01*
X91553592Y19182855D01*
X91557786Y19182855D01*
X91578549Y19184900D01*
X93379449Y19184900D01*
X93400212Y19182855D01*
X93404406Y19182855D01*
X93418799Y19179992D01*
X93482314Y19192626D01*
X93516539Y19199434D01*
X93599400Y19254799D01*
X93654765Y19337660D01*
X93666018Y19394233D01*
X93666535Y19396832D01*
X93666536Y19396838D01*
X93669299Y19410726D01*
X93669328Y19410873D01*
X93669329Y19410878D01*
X93671344Y19421007D01*
X93674207Y19435400D01*
X93671344Y19449793D01*
X93671344Y19453987D01*
X93669299Y19474750D01*
X93669299Y20513650D01*
X93671344Y20534413D01*
X93671344Y20538607D01*
X93674207Y20553000D01*
X93654765Y20650740D01*
X93599400Y20733601D01*
X93583221Y20744411D01*
X93528737Y20780816D01*
X93528735Y20780817D01*
X93516539Y20788966D01*
X93502149Y20791829D01*
X93502148Y20791829D01*
X93443473Y20803500D01*
X93433192Y20805545D01*
X93418799Y20808408D01*
X93404406Y20805545D01*
X93400212Y20805545D01*
X93379449Y20803500D01*
X91578549Y20803500D01*
X91557786Y20805545D01*
X91553592Y20805545D01*
X91539199Y20808408D01*
X91528552Y20806291D01*
X91475279Y20816887D01*
X91426940Y20849186D01*
X91394641Y20897525D01*
X91383299Y20954545D01*
X91383299Y21326450D01*
X91385344Y21347213D01*
X91385344Y21351407D01*
X91388207Y21365800D01*
X91377738Y21418428D01*
X91368765Y21463540D01*
X91349220Y21492791D01*
X91321552Y21534200D01*
X91313400Y21546401D01*
X91301198Y21554554D01*
X91242737Y21593616D01*
X91242735Y21593617D01*
X91230539Y21601766D01*
X91216149Y21604629D01*
X91216148Y21604629D01*
X91147192Y21618345D01*
X91132799Y21621208D01*
X91118406Y21618345D01*
X91114212Y21618345D01*
X91093449Y21616300D01*
X89292549Y21616300D01*
X89271786Y21618345D01*
X89267592Y21618345D01*
X89253199Y21621208D01*
X89238806Y21618345D01*
X89169849Y21604629D01*
X89169846Y21604628D01*
X89155459Y21601766D01*
X89143263Y21593618D01*
X89143260Y21593616D01*
X89084799Y21554554D01*
X89084796Y21554552D01*
X89072598Y21546401D01*
X89064447Y21534203D01*
X89064445Y21534200D01*
X89025384Y21475741D01*
X89025381Y21475736D01*
X89017233Y21463540D01*
X89014370Y21449148D01*
X89014370Y21449147D01*
X89012161Y21438041D01*
X89008260Y21418428D01*
X88997791Y21365800D01*
X89000654Y21351407D01*
X89000654Y21347213D01*
X89002699Y21326450D01*
X89002699Y20948850D01*
X88988394Y20885145D01*
X88948225Y20833673D01*
X88889906Y20804316D01*
X88824634Y20802712D01*
X88820673Y20803500D01*
X88795999Y20808408D01*
X88781606Y20805545D01*
X88777412Y20805545D01*
X88756649Y20803500D01*
X86955749Y20803500D01*
X86934986Y20805545D01*
X86930792Y20805545D01*
X86916399Y20808408D01*
X86902006Y20805545D01*
X86891725Y20803500D01*
X86833049Y20791829D01*
X86833046Y20791828D01*
X86818659Y20788966D01*
X86806463Y20780818D01*
X86806460Y20780816D01*
X86747999Y20741754D01*
X86747996Y20741752D01*
X86735798Y20733601D01*
X86727647Y20721403D01*
X86727645Y20721400D01*
X86688583Y20662939D01*
X86688581Y20662936D01*
X86680433Y20650740D01*
X86677571Y20636353D01*
X86677570Y20636350D01*
X86668626Y20591382D01*
X86660991Y20553000D01*
X86663854Y20538607D01*
X86663854Y20534413D01*
X86665899Y20513650D01*
X86665899Y19474750D01*
X86663854Y19453987D01*
X86663854Y19449793D01*
X86660991Y19435400D01*
X86304500Y19435400D01*
X86304500Y19772510D01*
X86305435Y19789177D01*
X86306743Y19800785D01*
X86308883Y19814219D01*
X86314391Y19840894D01*
X86314391Y19840896D01*
X86316146Y19849394D01*
X86315646Y19866553D01*
X86316521Y19887568D01*
X86316716Y19889293D01*
X86319680Y19915600D01*
X86313009Y19974800D01*
X86312138Y19987116D01*
X86311016Y20025696D01*
X86307448Y20039008D01*
X86303310Y20060876D01*
X86300618Y20084778D01*
X86297855Y20092672D01*
X86297854Y20092680D01*
X86279261Y20145815D01*
X86275976Y20156465D01*
X86267613Y20187678D01*
X86267612Y20187681D01*
X86265366Y20196063D01*
X86261245Y20203706D01*
X86260458Y20205166D01*
X86250963Y20226683D01*
X86250421Y20228233D01*
X86244389Y20245473D01*
X86239014Y20254027D01*
X86207092Y20304831D01*
X86202104Y20313388D01*
X86181657Y20351310D01*
X86175885Y20357796D01*
X86173301Y20361486D01*
X86162225Y20376235D01*
X86153811Y20389627D01*
X86100066Y20443372D01*
X86094119Y20449676D01*
X86087006Y20457669D01*
X86064403Y20483068D01*
X86057296Y20488045D01*
X86050811Y20493816D01*
X86050949Y20493972D01*
X86041732Y20501706D01*
X86039343Y20504095D01*
X86039342Y20504096D01*
X86033427Y20510011D01*
X85963454Y20553978D01*
X85957299Y20558063D01*
X85919924Y20584233D01*
X85911860Y20587437D01*
X85904544Y20591382D01*
X85896525Y20596057D01*
X85896357Y20596138D01*
X85889273Y20600589D01*
X85842537Y20616943D01*
X85803960Y20630442D01*
X85798166Y20632606D01*
X85764076Y20646148D01*
X85764067Y20646151D01*
X85756008Y20649352D01*
X85747591Y20650586D01*
X85737468Y20653708D01*
X85736760Y20653956D01*
X85736470Y20654057D01*
X85736468Y20654058D01*
X85728578Y20656818D01*
X85720269Y20657755D01*
X85720266Y20657755D01*
X85629055Y20668032D01*
X85624145Y20668668D01*
X85590079Y20673658D01*
X85590074Y20673659D01*
X85581494Y20674915D01*
X85575127Y20674359D01*
X85569159Y20674781D01*
X85559400Y20675880D01*
X85551083Y20674943D01*
X85551081Y20674943D01*
X85446205Y20663128D01*
X85442518Y20662759D01*
X85414433Y20660301D01*
X85414420Y20660299D01*
X85405788Y20659543D01*
X85401809Y20658226D01*
X85399636Y20657880D01*
X85399043Y20657813D01*
X85398532Y20657755D01*
X85398529Y20657755D01*
X85390222Y20656818D01*
X85382331Y20654057D01*
X85382327Y20654056D01*
X85333110Y20636834D01*
X85263070Y20629936D01*
X85197677Y20655955D01*
X85151521Y20709085D01*
X85134899Y20777473D01*
X85134899Y22342450D01*
X85136944Y22363213D01*
X85136944Y22367407D01*
X85139807Y22381800D01*
X85120365Y22479540D01*
X85065000Y22562401D01*
X85052798Y22570554D01*
X84994337Y22609616D01*
X84994335Y22609617D01*
X84982139Y22617766D01*
X84967749Y22620629D01*
X84967748Y22620629D01*
X84909073Y22632300D01*
X84898792Y22634345D01*
X84884399Y22637208D01*
X84870006Y22634345D01*
X84865812Y22634345D01*
X84845049Y22632300D01*
X83806149Y22632300D01*
X83785386Y22634345D01*
X83781192Y22634345D01*
X83766799Y22637208D01*
X83752406Y22634345D01*
X83742125Y22632300D01*
X83683449Y22620629D01*
X83683446Y22620628D01*
X83669059Y22617766D01*
X83656863Y22609618D01*
X83656860Y22609616D01*
X83598399Y22570554D01*
X83598396Y22570552D01*
X83586198Y22562401D01*
X83578047Y22550203D01*
X83578045Y22550200D01*
X83538983Y22491739D01*
X83538981Y22491736D01*
X83530833Y22479540D01*
X83527971Y22465153D01*
X83527970Y22465150D01*
X83516647Y22408222D01*
X83511391Y22381800D01*
X83514254Y22367407D01*
X83514254Y22363213D01*
X83516299Y22342450D01*
X83516299Y20541550D01*
X83514254Y20520787D01*
X83514254Y20516593D01*
X83511391Y20502200D01*
X79875500Y20502200D01*
X79875500Y21006877D01*
X79875968Y21016823D01*
X79877680Y21024477D01*
X79875573Y21091492D01*
X79875500Y21096171D01*
X79875500Y21118785D01*
X79875500Y21123476D01*
X79874911Y21128132D01*
X79874618Y21132796D01*
X79874631Y21132797D01*
X79874039Y21140309D01*
X79873279Y21164495D01*
X79872700Y21182943D01*
X79867632Y21200384D01*
X79862892Y21223272D01*
X79860616Y21241293D01*
X79857164Y21250011D01*
X79857163Y21250016D01*
X79844913Y21280956D01*
X79840365Y21294239D01*
X79828468Y21335191D01*
X79823692Y21343266D01*
X79823691Y21343269D01*
X79819225Y21350820D01*
X79808938Y21371816D01*
X79802253Y21388703D01*
X79777180Y21423212D01*
X79769484Y21434927D01*
X79747763Y21471656D01*
X79734916Y21484503D01*
X79719739Y21502273D01*
X79709063Y21516967D01*
X79698655Y21525577D01*
X79676207Y21544148D01*
X79665824Y21553595D01*
X79649287Y21570132D01*
X79616988Y21618472D01*
X79605646Y21675493D01*
X79616989Y21732513D01*
X79649287Y21780850D01*
X79669411Y21800973D01*
X79759989Y21945127D01*
X79816218Y22105822D01*
X79835280Y22275000D01*
X79816218Y22444178D01*
X79759989Y22604873D01*
X79669411Y22749027D01*
X79549027Y22869411D01*
X79529240Y22881844D01*
X79411959Y22955537D01*
X79411956Y22955539D01*
X79404873Y22959989D01*
X79396978Y22962752D01*
X79396973Y22962754D01*
X79252071Y23013457D01*
X79252064Y23013459D01*
X79244178Y23016218D01*
X79235873Y23017154D01*
X79235868Y23017155D01*
X79119618Y23030254D01*
X79102271Y23033725D01*
X79098458Y23035374D01*
X79089202Y23036840D01*
X79089199Y23036841D01*
X79056330Y23042047D01*
X79042591Y23044892D01*
X79010351Y23053169D01*
X79010350Y23053170D01*
X79001272Y23055500D01*
X78991898Y23055500D01*
X78983113Y23055500D01*
X78959804Y23057335D01*
X78951134Y23058709D01*
X78951120Y23058710D01*
X78941867Y23060175D01*
X78932535Y23059293D01*
X78932533Y23059293D01*
X78899405Y23056161D01*
X78885382Y23055500D01*
X74519656Y23055500D01*
X74452011Y23071740D01*
X74399112Y23116920D01*
X74372490Y23181191D01*
X74377949Y23250544D01*
X74414297Y23309859D01*
X74456938Y23352500D01*
X74508411Y23403973D01*
X74598989Y23548127D01*
X74655218Y23708822D01*
X74674280Y23878000D01*
X74655218Y24047178D01*
X74598989Y24207873D01*
X74508411Y24352027D01*
X74388027Y24472411D01*
X74374148Y24481132D01*
X74250959Y24558537D01*
X74250956Y24558539D01*
X74243873Y24562989D01*
X74235978Y24565752D01*
X74235973Y24565754D01*
X74100812Y24613048D01*
X74089517Y24617000D01*
X77770991Y24617000D01*
X77773854Y24602607D01*
X77775899Y24592326D01*
X77781734Y24562989D01*
X77790433Y24519260D01*
X77798582Y24507064D01*
X77798583Y24507062D01*
X77825689Y24466495D01*
X77845798Y24436399D01*
X77928659Y24381034D01*
X78026399Y24361592D01*
X78040792Y24364455D01*
X78044986Y24364455D01*
X78065749Y24366500D01*
X79866649Y24366500D01*
X79887412Y24364455D01*
X79891606Y24364455D01*
X79905999Y24361592D01*
X80003739Y24381034D01*
X80086600Y24436399D01*
X80141965Y24519260D01*
X80156499Y24592326D01*
X80161407Y24617000D01*
X80158544Y24631393D01*
X80158544Y24635587D01*
X80156499Y24656350D01*
X80156499Y25695250D01*
X80158544Y25716013D01*
X80158544Y25720207D01*
X80161407Y25734600D01*
X80141965Y25832340D01*
X80086600Y25915201D01*
X80074398Y25923354D01*
X80015937Y25962416D01*
X80015935Y25962417D01*
X80003739Y25970566D01*
X79989349Y25973429D01*
X79989348Y25973429D01*
X79930673Y25985100D01*
X79920392Y25987145D01*
X79905999Y25990008D01*
X79891606Y25987145D01*
X79887412Y25987145D01*
X79866649Y25985100D01*
X78065749Y25985100D01*
X78044986Y25987145D01*
X78040792Y25987145D01*
X78026399Y25990008D01*
X78012006Y25987145D01*
X78001725Y25985100D01*
X77943049Y25973429D01*
X77943046Y25973428D01*
X77928659Y25970566D01*
X77916463Y25962418D01*
X77916460Y25962416D01*
X77857999Y25923354D01*
X77857996Y25923352D01*
X77845798Y25915201D01*
X77837647Y25903003D01*
X77837645Y25903000D01*
X77798583Y25844539D01*
X77798581Y25844536D01*
X77790433Y25832340D01*
X77787571Y25817953D01*
X77787570Y25817950D01*
X77778380Y25771746D01*
X77770991Y25734600D01*
X77773854Y25720207D01*
X77773854Y25716013D01*
X77775899Y25695250D01*
X77775899Y24656350D01*
X77773854Y24635587D01*
X77773854Y24631393D01*
X77770991Y24617000D01*
X74089517Y24617000D01*
X74083178Y24619218D01*
X74074864Y24620155D01*
X74074859Y24620156D01*
X73922316Y24637343D01*
X73914000Y24638280D01*
X73905684Y24637343D01*
X73753140Y24620156D01*
X73753133Y24620155D01*
X73744822Y24619218D01*
X73736924Y24616455D01*
X73736922Y24616454D01*
X73592026Y24565754D01*
X73592018Y24565751D01*
X73584127Y24562989D01*
X73577047Y24558541D01*
X73577040Y24558537D01*
X73528980Y24528338D01*
X73490955Y24511323D01*
X73449707Y24505500D01*
X70841671Y24505500D01*
X70777965Y24519806D01*
X70726492Y24559976D01*
X70697136Y24618296D01*
X70695534Y24683569D01*
X70704056Y24726411D01*
X70704056Y24726412D01*
X70704942Y24730863D01*
X70707699Y24744726D01*
X70712607Y24769400D01*
X70709744Y24783793D01*
X70709744Y24787987D01*
X70707699Y24808750D01*
X70707699Y25847650D01*
X70709744Y25868413D01*
X70709744Y25872607D01*
X70712607Y25887000D01*
X70693165Y25984740D01*
X70637800Y26067601D01*
X70554939Y26122966D01*
X70540549Y26125829D01*
X70540548Y26125829D01*
X70481873Y26137500D01*
X70471592Y26139545D01*
X70457199Y26142408D01*
X70442806Y26139545D01*
X70438612Y26139545D01*
X70417849Y26137500D01*
X68616949Y26137500D01*
X68596186Y26139545D01*
X68591992Y26139545D01*
X68577599Y26142408D01*
X68563206Y26139545D01*
X68552925Y26137500D01*
X68494249Y26125829D01*
X68494246Y26125828D01*
X68479859Y26122966D01*
X68467663Y26114818D01*
X68467660Y26114816D01*
X68409199Y26075754D01*
X68409196Y26075752D01*
X68396998Y26067601D01*
X68388847Y26055403D01*
X68388845Y26055400D01*
X68349783Y25996939D01*
X68349781Y25996936D01*
X68341633Y25984740D01*
X68338771Y25970353D01*
X68338770Y25970350D01*
X68330365Y25928093D01*
X68322191Y25887000D01*
X68325054Y25872607D01*
X68325054Y25868413D01*
X68327099Y25847650D01*
X68327099Y25800973D01*
X68310477Y25732585D01*
X68264321Y25679455D01*
X68198928Y25653436D01*
X68128888Y25660334D01*
X67977078Y25713454D01*
X67977075Y25713455D01*
X67969178Y25716218D01*
X67960864Y25717155D01*
X67960859Y25717156D01*
X67808316Y25734343D01*
X67800000Y25735280D01*
X67791684Y25734343D01*
X67639140Y25717156D01*
X67639133Y25717155D01*
X67630822Y25716218D01*
X67622924Y25713455D01*
X67622922Y25713454D01*
X67478026Y25662754D01*
X67478018Y25662751D01*
X67470127Y25659989D01*
X67463047Y25655541D01*
X67463040Y25655537D01*
X67333057Y25573863D01*
X67333052Y25573860D01*
X67325973Y25569411D01*
X67320060Y25563499D01*
X67320056Y25563495D01*
X67211505Y25454944D01*
X67211501Y25454940D01*
X67205589Y25449027D01*
X67201140Y25441948D01*
X67201137Y25441943D01*
X67119463Y25311960D01*
X67119459Y25311953D01*
X67115011Y25304873D01*
X67112249Y25296982D01*
X67112246Y25296974D01*
X67062307Y25154253D01*
X67058782Y25144178D01*
X67057845Y25135867D01*
X67057844Y25135860D01*
X67042362Y24998448D01*
X67033411Y24975001D01*
X67042362Y24951552D01*
X67057844Y24814141D01*
X67057845Y24814136D01*
X67058782Y24805822D01*
X67061546Y24797923D01*
X67112246Y24653027D01*
X67112248Y24653022D01*
X67115011Y24645127D01*
X67119461Y24638044D01*
X67119463Y24638041D01*
X67149662Y24589980D01*
X67166677Y24551955D01*
X67172500Y24510707D01*
X67172500Y24481132D01*
X67172030Y24471177D01*
X67170320Y24463523D01*
X67170614Y24454158D01*
X67170614Y24454155D01*
X67172427Y24396463D01*
X67172500Y24391784D01*
X67172500Y24364524D01*
X67173086Y24359884D01*
X67173380Y24355209D01*
X67173368Y24355209D01*
X67173958Y24347701D01*
X67175004Y24314430D01*
X67175299Y24305057D01*
X67177912Y24296062D01*
X67177914Y24296052D01*
X67180367Y24287611D01*
X67185109Y24264715D01*
X67187384Y24246707D01*
X67190833Y24237994D01*
X67190834Y24237993D01*
X67203085Y24207050D01*
X67207631Y24193771D01*
X67216915Y24161814D01*
X67216917Y24161809D01*
X67219532Y24152809D01*
X67224303Y24144742D01*
X67224306Y24144735D01*
X67228777Y24137175D01*
X67239062Y24116182D01*
X67242294Y24108017D01*
X67242296Y24108013D01*
X67245747Y24099297D01*
X67251261Y24091708D01*
X67251262Y24091706D01*
X67270815Y24064793D01*
X67278522Y24053061D01*
X67295462Y24024417D01*
X67295464Y24024414D01*
X67300237Y24016344D01*
X67306867Y24009715D01*
X67306867Y24009714D01*
X67313079Y24003502D01*
X67328262Y23985725D01*
X67333425Y23978618D01*
X67333429Y23978614D01*
X67338937Y23971033D01*
X67346156Y23965061D01*
X67346158Y23965059D01*
X67371797Y23943849D01*
X67382180Y23934401D01*
X67827754Y23488827D01*
X67834457Y23481461D01*
X67838660Y23474838D01*
X67845492Y23468422D01*
X67845494Y23468420D01*
X67887551Y23428926D01*
X67890912Y23425669D01*
X67910204Y23406377D01*
X67913906Y23403506D01*
X67917418Y23400410D01*
X67917409Y23400401D01*
X67923138Y23395508D01*
X67947396Y23372727D01*
X67947398Y23372726D01*
X67954233Y23366307D01*
X67970150Y23357557D01*
X67989691Y23344721D01*
X68004038Y23333592D01*
X68043184Y23316653D01*
X68055781Y23310481D01*
X68070826Y23302210D01*
X68093166Y23289928D01*
X68110761Y23285411D01*
X68132872Y23277840D01*
X68149541Y23270627D01*
X68191662Y23263956D01*
X68205408Y23261110D01*
X68246728Y23250500D01*
X68264894Y23250500D01*
X68288200Y23248667D01*
X68306133Y23245826D01*
X68348587Y23249840D01*
X68362609Y23250500D01*
X70033933Y23250500D01*
X70105715Y23232069D01*
X70159739Y23181337D01*
X70182639Y23110853D01*
X70168751Y23038056D01*
X70121511Y22980956D01*
X70110370Y22972861D01*
X70088793Y22957185D01*
X70077066Y22949482D01*
X70048413Y22932537D01*
X70048402Y22932530D01*
X70040344Y22927763D01*
X70027496Y22914917D01*
X70009731Y22899743D01*
X70002616Y22894574D01*
X70002609Y22894569D01*
X69995033Y22889063D01*
X69989059Y22881844D01*
X69989061Y22881844D01*
X69967847Y22856202D01*
X69958402Y22845823D01*
X66408722Y19296141D01*
X66360383Y19263842D01*
X66303363Y19252500D01*
X65007575Y19252500D01*
X64946717Y19265495D01*
X64896475Y19302214D01*
X64865612Y19356251D01*
X64860484Y19408317D01*
X64859343Y19408317D01*
X64859343Y19416684D01*
X64860280Y19425000D01*
X64841218Y19594178D01*
X64784989Y19754873D01*
X64750338Y19810020D01*
X64733323Y19848045D01*
X64727500Y19889293D01*
X64727500Y21310707D01*
X64733323Y21351955D01*
X64750338Y21389980D01*
X64778592Y21434947D01*
X64784989Y21445127D01*
X64841218Y21605822D01*
X64860280Y21775000D01*
X64841218Y21944178D01*
X64807640Y22040137D01*
X64801470Y22114801D01*
X64832416Y22183030D01*
X64892655Y22227575D01*
X64966957Y22237172D01*
X64969643Y22236833D01*
X64978728Y22234500D01*
X64996894Y22234500D01*
X65020200Y22232667D01*
X65038133Y22229826D01*
X65080586Y22233840D01*
X65094608Y22234500D01*
X66481397Y22234500D01*
X66522646Y22228677D01*
X66560668Y22211663D01*
X66595127Y22190011D01*
X66755822Y22133782D01*
X66925000Y22114720D01*
X67094178Y22133782D01*
X67254873Y22190011D01*
X67399027Y22280589D01*
X67519411Y22400973D01*
X67609989Y22545127D01*
X67666218Y22705822D01*
X67685280Y22875000D01*
X67676888Y22949482D01*
X67667155Y23035863D01*
X67667154Y23035864D01*
X67666218Y23044178D01*
X67614140Y23193011D01*
X67612753Y23196974D01*
X67612752Y23196975D01*
X67609989Y23204873D01*
X67519411Y23349027D01*
X67399027Y23469411D01*
X67368464Y23488615D01*
X67261959Y23555537D01*
X67261956Y23555539D01*
X67254873Y23559989D01*
X67246978Y23562752D01*
X67246973Y23562754D01*
X67102077Y23613454D01*
X67094178Y23616218D01*
X67085864Y23617155D01*
X67085859Y23617156D01*
X66933316Y23634343D01*
X66925000Y23635280D01*
X66916684Y23634343D01*
X66764140Y23617156D01*
X66764133Y23617155D01*
X66755822Y23616218D01*
X66747924Y23613455D01*
X66747922Y23613454D01*
X66603026Y23562754D01*
X66603018Y23562751D01*
X66595127Y23559989D01*
X66588043Y23555539D01*
X66588041Y23555537D01*
X66548211Y23530510D01*
X66525417Y23516187D01*
X66519291Y23512338D01*
X66481267Y23495323D01*
X66440018Y23489500D01*
X65379637Y23489500D01*
X65322617Y23500842D01*
X65274278Y23533141D01*
X64543925Y24263494D01*
X64509493Y24317283D01*
X64500744Y24380546D01*
X64519284Y24441661D01*
X64561709Y24489400D01*
X64620223Y24514991D01*
X64625488Y24516038D01*
X64654549Y24518900D01*
X66455449Y24518900D01*
X66476212Y24516855D01*
X66480406Y24516855D01*
X66494799Y24513992D01*
X66523274Y24519656D01*
X66592539Y24533434D01*
X66675400Y24588799D01*
X66730765Y24671660D01*
X66741656Y24726411D01*
X66745299Y24744726D01*
X66750207Y24769400D01*
X66747344Y24783793D01*
X66747344Y24787987D01*
X66745299Y24808750D01*
X66745299Y24934869D01*
X66755651Y24975000D01*
X66745299Y25015131D01*
X66745299Y25847650D01*
X66747344Y25868413D01*
X66747344Y25872607D01*
X66750207Y25887000D01*
X66730765Y25984740D01*
X66675400Y26067601D01*
X66592539Y26122966D01*
X66578149Y26125829D01*
X66578148Y26125829D01*
X66519473Y26137500D01*
X66509192Y26139545D01*
X66494799Y26142408D01*
X66480406Y26139545D01*
X66476212Y26139545D01*
X66455449Y26137500D01*
X64654549Y26137500D01*
X64633786Y26139545D01*
X64629592Y26139545D01*
X64615199Y26142408D01*
X64600806Y26139545D01*
X64590525Y26137500D01*
X64531849Y26125829D01*
X64531846Y26125828D01*
X64517459Y26122966D01*
X64505263Y26114818D01*
X64505260Y26114816D01*
X64446799Y26075754D01*
X64446796Y26075752D01*
X64434598Y26067601D01*
X64426447Y26055403D01*
X64426445Y26055400D01*
X64387383Y25996939D01*
X64387381Y25996936D01*
X64379233Y25984740D01*
X64376371Y25970353D01*
X64376370Y25970350D01*
X64367965Y25928093D01*
X64359791Y25887000D01*
X64362654Y25872607D01*
X64362654Y25868413D01*
X64364699Y25847650D01*
X64364699Y24808750D01*
X64361831Y24779657D01*
X64360783Y24774393D01*
X64335183Y24715890D01*
X64287442Y24673477D01*
X64226331Y24654945D01*
X64163075Y24663697D01*
X64109292Y24698127D01*
X63016244Y25791175D01*
X63009540Y25798543D01*
X63005340Y25805162D01*
X62991722Y25817950D01*
X62956447Y25851076D01*
X62953086Y25854333D01*
X62937101Y25870318D01*
X62933796Y25873623D01*
X62930101Y25876489D01*
X62926581Y25879592D01*
X62926589Y25879602D01*
X62920858Y25884496D01*
X62902865Y25901393D01*
X62889767Y25913693D01*
X62881555Y25918208D01*
X62881553Y25918209D01*
X62873845Y25922446D01*
X62854309Y25935280D01*
X62847374Y25940659D01*
X62847371Y25940661D01*
X62839962Y25946408D01*
X62800815Y25963349D01*
X62788214Y25969522D01*
X62759049Y25985556D01*
X62759047Y25985557D01*
X62750834Y25990072D01*
X62741752Y25992404D01*
X62733240Y25994590D01*
X62711132Y26002159D01*
X62703064Y26005650D01*
X62703063Y26005651D01*
X62694458Y26009374D01*
X62675481Y26012380D01*
X62652330Y26016047D01*
X62638591Y26018892D01*
X62606351Y26027169D01*
X62606350Y26027170D01*
X62597272Y26029500D01*
X62587898Y26029500D01*
X62579113Y26029500D01*
X62555804Y26031335D01*
X62547134Y26032709D01*
X62547120Y26032710D01*
X62537867Y26034175D01*
X62528535Y26033293D01*
X62528533Y26033293D01*
X62495405Y26030161D01*
X62481382Y26029500D01*
X61189293Y26029500D01*
X61148045Y26035323D01*
X61110020Y26052338D01*
X61061959Y26082537D01*
X61061956Y26082539D01*
X61054873Y26086989D01*
X61046978Y26089752D01*
X61046973Y26089754D01*
X60902077Y26140454D01*
X60894178Y26143218D01*
X60885864Y26144155D01*
X60885859Y26144156D01*
X60733316Y26161343D01*
X60725000Y26162280D01*
X60716684Y26161343D01*
X60564140Y26144156D01*
X60564133Y26144155D01*
X60555822Y26143218D01*
X60547924Y26140455D01*
X60547922Y26140454D01*
X60403026Y26089754D01*
X60403018Y26089751D01*
X60395127Y26086989D01*
X60388047Y26082541D01*
X60388040Y26082537D01*
X60258057Y26000863D01*
X60258052Y26000860D01*
X60250973Y25996411D01*
X60245060Y25990499D01*
X60245056Y25990495D01*
X60136505Y25881944D01*
X60136501Y25881940D01*
X60130589Y25876027D01*
X60126140Y25868948D01*
X60126137Y25868943D01*
X60044463Y25738960D01*
X60044459Y25738953D01*
X60040011Y25731873D01*
X60037249Y25723982D01*
X60037246Y25723974D01*
X59998496Y25613230D01*
X59983782Y25571178D01*
X59982845Y25562867D01*
X59982844Y25562860D01*
X59965682Y25410542D01*
X59964720Y25402000D01*
X59965657Y25393684D01*
X59982844Y25241141D01*
X59982845Y25241136D01*
X59983782Y25232822D01*
X59986546Y25224923D01*
X60037246Y25080027D01*
X60037248Y25080022D01*
X60040011Y25072127D01*
X60044461Y25065044D01*
X60044463Y25065041D01*
X60088646Y24994725D01*
X60130589Y24927973D01*
X60250973Y24807589D01*
X60395127Y24717011D01*
X60555822Y24660782D01*
X60725000Y24641720D01*
X60894178Y24660782D01*
X61054873Y24717011D01*
X61110018Y24751662D01*
X61148045Y24768677D01*
X61189293Y24774500D01*
X61869329Y24774500D01*
X61942862Y24755091D01*
X61997238Y24701922D01*
X62018291Y24628843D01*
X62000537Y24554893D01*
X61948601Y24499338D01*
X61908060Y24473866D01*
X61908048Y24473857D01*
X61900973Y24469411D01*
X61895060Y24463499D01*
X61895056Y24463495D01*
X61786505Y24354944D01*
X61786501Y24354940D01*
X61780589Y24349027D01*
X61776140Y24341948D01*
X61776137Y24341943D01*
X61694463Y24211960D01*
X61694459Y24211953D01*
X61690011Y24204873D01*
X61687249Y24196982D01*
X61687246Y24196974D01*
X61637928Y24056027D01*
X61633782Y24044178D01*
X61632845Y24035867D01*
X61632844Y24035860D01*
X61617985Y23903974D01*
X61614720Y23875000D01*
X61615657Y23866684D01*
X61632844Y23714141D01*
X61632845Y23714136D01*
X61633782Y23705822D01*
X61636546Y23697923D01*
X61687246Y23553027D01*
X61687248Y23553022D01*
X61690011Y23545127D01*
X61694461Y23538044D01*
X61694463Y23538041D01*
X61724662Y23489980D01*
X61741677Y23451955D01*
X61747500Y23410707D01*
X61747500Y21349637D01*
X61731260Y21281992D01*
X61686080Y21229093D01*
X61621809Y21202471D01*
X61552456Y21207930D01*
X61493141Y21244278D01*
X57708244Y25029175D01*
X57701540Y25036543D01*
X57697340Y25043162D01*
X57689336Y25050678D01*
X57648447Y25089076D01*
X57645086Y25092333D01*
X57629101Y25108318D01*
X57625796Y25111623D01*
X57622101Y25114489D01*
X57618581Y25117592D01*
X57618589Y25117602D01*
X57612858Y25122496D01*
X57589769Y25144178D01*
X57581767Y25151693D01*
X57573555Y25156208D01*
X57573553Y25156209D01*
X57565845Y25160446D01*
X57546309Y25173280D01*
X57539374Y25178659D01*
X57539371Y25178661D01*
X57531962Y25184408D01*
X57492815Y25201349D01*
X57480214Y25207522D01*
X57451049Y25223556D01*
X57451047Y25223557D01*
X57442834Y25228072D01*
X57430290Y25231293D01*
X57425240Y25232590D01*
X57403132Y25240159D01*
X57395064Y25243650D01*
X57395063Y25243651D01*
X57386458Y25247374D01*
X57367481Y25250380D01*
X57344330Y25254047D01*
X57330591Y25256892D01*
X57298351Y25265169D01*
X57298350Y25265170D01*
X57289272Y25267500D01*
X57279898Y25267500D01*
X57271113Y25267500D01*
X57247804Y25269335D01*
X57239134Y25270709D01*
X57239120Y25270710D01*
X57229867Y25272175D01*
X57220535Y25271293D01*
X57220533Y25271293D01*
X57187405Y25268161D01*
X57173382Y25267500D01*
X36907127Y25267500D01*
X36897177Y25267970D01*
X36889523Y25269680D01*
X36880155Y25269386D01*
X36880151Y25269386D01*
X36822509Y25267574D01*
X36817829Y25267500D01*
X36790524Y25267500D01*
X36785882Y25266914D01*
X36781209Y25266620D01*
X36781208Y25266632D01*
X36773692Y25266041D01*
X36740426Y25264995D01*
X36740422Y25264995D01*
X36731057Y25264700D01*
X36722064Y25262088D01*
X36722054Y25262086D01*
X36713609Y25259632D01*
X36690728Y25254894D01*
X36682010Y25253793D01*
X36681997Y25253790D01*
X36672707Y25252616D01*
X36663998Y25249169D01*
X36663990Y25249166D01*
X36633038Y25236912D01*
X36619767Y25232369D01*
X36587812Y25223085D01*
X36587802Y25223082D01*
X36578809Y25220468D01*
X36570751Y25215703D01*
X36570738Y25215697D01*
X36563173Y25211222D01*
X36542184Y25200940D01*
X36534022Y25197709D01*
X36534011Y25197704D01*
X36525297Y25194253D01*
X36517712Y25188743D01*
X36517704Y25188738D01*
X36490793Y25169186D01*
X36479066Y25161482D01*
X36450413Y25144537D01*
X36450402Y25144530D01*
X36442344Y25139763D01*
X36429496Y25126917D01*
X36411731Y25111743D01*
X36404616Y25106574D01*
X36404609Y25106569D01*
X36397033Y25101063D01*
X36391059Y25093844D01*
X36391061Y25093844D01*
X36369847Y25068202D01*
X36360402Y25057823D01*
X36009868Y24707288D01*
X35961529Y24674989D01*
X35904509Y24663647D01*
X35847489Y24674989D01*
X35799150Y24707288D01*
X35785943Y24720495D01*
X35785942Y24720496D01*
X35780027Y24726411D01*
X35750879Y24744726D01*
X35642959Y24812537D01*
X35642956Y24812539D01*
X35635873Y24816989D01*
X35627978Y24819752D01*
X35627973Y24819754D01*
X35475178Y24873218D01*
X35475512Y24874174D01*
X35449577Y24884075D01*
X35416297Y24909122D01*
X35336244Y24989175D01*
X35329540Y24996543D01*
X35325340Y25003162D01*
X35312594Y25015131D01*
X35276447Y25049076D01*
X35273086Y25052333D01*
X35257101Y25068318D01*
X35253796Y25071623D01*
X35250101Y25074489D01*
X35246581Y25077592D01*
X35246589Y25077602D01*
X35240858Y25082496D01*
X35216600Y25105276D01*
X35209767Y25111693D01*
X35201555Y25116208D01*
X35201553Y25116209D01*
X35193845Y25120446D01*
X35174309Y25133280D01*
X35167374Y25138659D01*
X35167371Y25138661D01*
X35159962Y25144408D01*
X35120815Y25161349D01*
X35108214Y25167522D01*
X35079049Y25183556D01*
X35079047Y25183557D01*
X35070834Y25188072D01*
X35061752Y25190404D01*
X35053240Y25192590D01*
X35031132Y25200159D01*
X35023064Y25203650D01*
X35023063Y25203651D01*
X35014458Y25207374D01*
X34995481Y25210380D01*
X34972330Y25214047D01*
X34958591Y25216892D01*
X34926351Y25225169D01*
X34926350Y25225170D01*
X34917272Y25227500D01*
X34907898Y25227500D01*
X34899113Y25227500D01*
X34875804Y25229335D01*
X34867134Y25230709D01*
X34867120Y25230710D01*
X34857867Y25232175D01*
X34848535Y25231293D01*
X34848533Y25231293D01*
X34815405Y25228161D01*
X34801382Y25227500D01*
X31777126Y25227500D01*
X31767176Y25227970D01*
X31759522Y25229680D01*
X31750154Y25229386D01*
X31750150Y25229386D01*
X31692509Y25227574D01*
X31687829Y25227500D01*
X31660524Y25227500D01*
X31655882Y25226914D01*
X31651209Y25226620D01*
X31651208Y25226632D01*
X31643692Y25226041D01*
X31610426Y25224995D01*
X31610422Y25224995D01*
X31601057Y25224700D01*
X31592064Y25222088D01*
X31592054Y25222086D01*
X31583609Y25219632D01*
X31560728Y25214894D01*
X31552010Y25213793D01*
X31551997Y25213790D01*
X31542707Y25212616D01*
X31533997Y25209169D01*
X31533990Y25209166D01*
X31503043Y25196914D01*
X31489772Y25192371D01*
X31457813Y25183086D01*
X31457801Y25183081D01*
X31448808Y25180468D01*
X31440746Y25175701D01*
X31440736Y25175696D01*
X31433171Y25171221D01*
X31412185Y25160940D01*
X31395297Y25154253D01*
X31387721Y25148750D01*
X31387712Y25148744D01*
X31360779Y25129176D01*
X31349053Y25121474D01*
X31320413Y25104536D01*
X31320408Y25104533D01*
X31312344Y25099763D01*
X31305720Y25093140D01*
X31305717Y25093137D01*
X31302419Y25089840D01*
X31299496Y25086917D01*
X31281731Y25071743D01*
X31274616Y25066574D01*
X31274609Y25066569D01*
X31267033Y25061063D01*
X31257116Y25049076D01*
X31239847Y25028202D01*
X31230402Y25017823D01*
X29308722Y23096141D01*
X29260383Y23063842D01*
X29203363Y23052500D01*
X24401893Y23052500D01*
X24332831Y23069472D01*
X24279502Y23116522D01*
X24254055Y23182930D01*
X24262287Y23253569D01*
X24297540Y23348090D01*
X24301794Y23366093D01*
X24306773Y23412406D01*
X24307200Y23420359D01*
X24307200Y25458041D01*
X24306773Y25465995D01*
X24301794Y25512308D01*
X24297541Y25530308D01*
X24266613Y25613230D01*
X24258381Y25683869D01*
X24283827Y25750278D01*
X24337157Y25797328D01*
X24406219Y25814300D01*
X24977249Y25814300D01*
X24998012Y25812255D01*
X25002206Y25812255D01*
X25016599Y25809392D01*
X25114339Y25828834D01*
X25197200Y25884199D01*
X25252565Y25967060D01*
X25267099Y26040126D01*
X25272007Y26064800D01*
X25269144Y26079193D01*
X25269144Y26083387D01*
X25267099Y26104150D01*
X25267099Y27443300D01*
X25278441Y27500320D01*
X25310740Y27548659D01*
X25359079Y27580958D01*
X25416099Y27592300D01*
X71587121Y27592300D01*
X71644141Y27580958D01*
G37*
%TD.AperFunction*%
%TD*%
M02*
