M48
; DRILL file {KiCad (7.0.0)} date Fri May  5 15:28:09 2023
; FORMAT={-:-/ absolute / inch / decimal}
; #@! TF.CreationDate,2023-05-05T15:28:09+08:00
; #@! TF.GenerationSoftware,Kicad,Pcbnew,(7.0.0)
; #@! TF.FileFunction,Plated,1,2,PTH
FMAT,2
INCH
; #@! TA.AperFunction,Plated,PTH,ViaDrill
T1C0.0122
; #@! TA.AperFunction,Plated,PTH,ViaDrill
T2C0.0138
; #@! TA.AperFunction,Plated,PTH,ComponentDrill
T3C0.0138
; #@! TA.AperFunction,Plated,PTH,ViaDrill
T4C0.0157
; #@! TA.AperFunction,Plated,PTH,ComponentDrill
T5C0.0197
; #@! TA.AperFunction,Plated,PTH,ComponentDrill
T6C0.0394
%
G90
G05
T1
X0.0315Y0.4921
X0.1575Y0.4695
X0.253Y0.3396
X0.2864Y0.372
X0.2992Y0.652
X0.3797Y0.5767
X0.4055Y0.1693
X0.4066Y0.8661
X0.4261Y0.682
X0.4685Y0.1378
X0.4843Y0.0984
X0.4882Y0.4114
X0.5039Y0.1909
X0.5118Y0.3898
X0.5289Y0.5704
X0.5354Y0.372
X0.5433Y0.8573
X0.5453Y0.9284
X0.5531Y0.7933
X0.5571Y0.3898
X0.5945Y0.2836
X0.6368Y0.3044
X0.6405Y0.3491
X0.6491Y0.4745
X0.6635Y0.7657
X0.6772Y0.6732
X0.68Y0.7901
X0.6906Y0.6054
X0.7Y0.1601
X0.7096Y0.7657
X0.7101Y0.2633
X0.7215Y0.0866
X0.7352Y0.2392
X0.7402Y0.7598
X0.7657Y0.0787
X0.7717Y0.2185
X0.7808Y0.1921
X0.7884Y0.7008
X0.7913Y0.6211
X0.7923Y0.4134
X0.7963Y0.5246
X0.8081Y0.7894
X0.8327Y0.4134
X0.8356Y0.7677
X0.8406Y0.8179
X0.8622Y0.7835
X0.8691Y0.4134
X0.9055Y0.6732
X0.9291Y0.7441
X0.9567Y0.6102
X0.9803Y0.9626
X1.0Y0.6779
X1.002Y0.8201
X1.01Y1.0101
X1.0581Y0.8455
X1.0581Y0.814
X1.07Y0.7401
X1.0876Y0.8455
X1.1Y0.7301
X1.1427Y0.8543
X1.1654Y0.6762
X1.2343Y0.7411
X1.25Y0.9301
X1.27Y0.2801
X1.28Y0.9301
X1.39Y0.9501
X1.39Y0.133
X1.445Y0.1851
X1.47Y0.1601
X2.1488Y0.2313
X2.19Y0.2401
X2.21Y0.2201
X2.27Y1.0701
X2.31Y1.0701
X2.3553Y0.3996
X2.3907Y1.0001
X2.4262Y0.4665
X2.4557Y0.94
X2.4557Y0.8219
X2.4833Y0.5256
X2.5236Y0.8573
X2.5236Y0.7648
X2.5356Y0.6001
X2.5681Y0.6624
X2.58Y0.0401
X2.6348Y0.9006
X2.65Y0.0901
X2.65Y0.0401
X2.6693Y0.9833
X2.6698Y0.2613
X2.7077Y0.5187
X2.72Y0.2201
X2.72Y0.1401
X2.7446Y0.5477
X2.78Y0.2201
X2.78Y0.1401
X2.81Y0.3401
X2.815Y1.0236
X2.82Y0.8601
X2.8888Y0.6507
X2.91Y0.9401
X2.9242Y0.5305
X2.9252Y0.7224
X2.98Y0.763
X2.9833Y0.8101
X2.99Y0.3001
X3.001Y0.3996
X3.0118Y0.6506
X3.0384Y0.4016
X3.0492Y0.6378
X3.0856Y0.2264
X3.1132Y0.877
X3.1437Y0.2549
X3.1742Y0.6713
X3.1949Y0.3179
X3.2293Y0.7648
X3.3061Y0.6772
X3.3091Y0.5541
X3.3593Y0.4537
X3.3671Y0.2736
X3.3685Y0.7841
X3.4439Y0.253
X3.4481Y0.3482
X3.4537Y1.0207
X3.4724Y0.9872
X3.4724Y0.9459
X3.4848Y0.3449
X3.5955Y0.6644
X3.7126Y0.4665
X3.7215Y0.6614
X3.7215Y0.5935
T2
X0.0975Y0.6654
X0.0985Y0.7051
X0.2208Y0.81
X0.2608Y0.81
X0.3189Y0.3169
X0.3862Y0.7749
X0.3898Y0.3514
X0.4252Y0.7982
X0.5702Y0.1811
T3
X0.5595Y0.6304
X0.5595Y0.5802
X0.5595Y0.53
X0.6097Y0.6304
X0.6097Y0.5802
X0.6097Y0.53
X0.6599Y0.6304
X0.6599Y0.5802
X0.6599Y0.53
T4
X0.4528Y0.4424
X2.9744Y1.002
X3.39Y0.3401
X3.5492Y0.3543
T5
X0.7499Y0.9622
X0.8149Y0.9632
T6
X0.2395Y0.9763
X0.3789Y0.9752
X0.6569Y0.9617
X0.8989Y0.9622
X1.0315Y0.4498
X1.0315Y0.3498
X1.1732Y0.4498
X1.1732Y0.3498
T0
M30
